<svg width="92" height="52" viewBox="0 0 92 52" fill="none" xmlns="http://www.w3.org/2000/svg">
<path d="M87.7929 14.8407L91.5437 12.7135L69.9647 0.538269L66.2601 2.66554L87.7929 14.8407ZM63.4818 8.8664L67.1863 6.7843L63.0651 4.43078L59.3141 6.55805L63.4818 8.8664ZM80.8931 18.7332L84.6439 16.606L69.3627 8.00643L65.6582 10.1337L80.8931 18.7332ZM51.442 18.0995L55.1929 20.2268L61.7684 16.5155L62.7409 24.6624L66.5843 26.7897L78.3463 20.1816L74.5491 18.0544L67.6494 21.9467L66.7232 13.845L62.8798 11.6726L51.442 18.0995ZM44.7275 30.5463C42.0417 29.0074 42.0418 27.1517 43.9404 26.0202C45.1747 25.4626 46.531 25.2122 47.8883 25.2912C49.2457 25.3701 50.5619 25.776 51.7199 26.4728C54.3593 27.9664 54.2204 29.7769 52.4144 30.7727C51.2055 31.3426 49.8713 31.6118 48.5303 31.5565C47.1893 31.5013 45.883 31.1232 44.7275 30.4558M47.7374 20.1363L43.9866 22.2636L45.3295 22.9878C43.2247 22.8287 41.1177 23.2688 39.2633 24.2551C35.3736 26.4276 36.1145 29.958 40.8377 32.6284C43.0386 33.9294 45.5336 34.6801 48.102 34.8144C50.6704 34.9486 53.233 34.462 55.5633 33.3977C57.5081 32.3115 58.0639 31.1346 57.786 29.9579L54.0352 27.6043L61.0276 29.8221L64.9635 27.6043L56.0264 24.8435L47.7374 20.1363ZM23.6116 33.7146L38.8466 42.3141L42.5974 40.1869L35.2347 36.0681C32.6878 34.6198 32.0395 33.0809 33.7528 32.0851C34.4837 31.7027 35.2619 31.4138 36.0682 31.2253L31.8542 28.8716C31.2261 28.9772 30.6271 29.2083 30.0945 29.5505C29.6989 29.7306 29.373 30.0302 29.1645 30.405C28.9561 30.7798 28.8762 31.2102 28.9369 31.6326L32.271 34.3935L27.3163 31.5873L23.6116 33.7146ZM12.8222 42.3141L8.19154 39.7795L11.6645 37.8334C12.3582 37.4075 13.1607 37.1815 13.9799 37.1815C14.799 37.1815 15.6016 37.4075 16.2952 37.8334C17.777 38.6481 17.8233 39.5533 16.2952 40.4133L12.8222 42.3141ZM21.7594 47.3833L16.7583 44.5319L20.787 42.2688C21.5039 41.9112 22.2974 41.7249 23.1023 41.7249C23.9072 41.7249 24.7007 41.9112 25.4177 42.2688C26.8995 43.1288 27.131 44.1698 25.4177 45.1203L21.7594 47.3833ZM21.7594 51.9094L29.4463 47.3833C33.5213 45.075 33.6602 42.3594 29.4463 40.0058C27.1012 38.8028 24.4157 38.3893 21.8057 38.8291C22.2225 37.6523 21.3426 36.204 19.7219 35.2988C17.8784 34.2313 15.7752 33.668 13.6325 33.668C11.4899 33.668 9.38663 34.2313 7.54318 35.2988L0.18042 39.4175L21.7594 51.9094Z" fill="white"/>
</svg>
