<svg width="122" height="65" viewBox="0 0 122 65" fill="none" xmlns="http://www.w3.org/2000/svg">
<path d="M101.512 10.967C98.8267 9.42812 98.8267 7.61768 100.725 6.4409C101.963 5.89491 103.317 5.65085 104.672 5.72969C106.027 5.80853 107.343 6.20794 108.505 6.89353C111.144 8.38714 111.005 10.2428 109.199 11.4196C107.987 11.9828 106.651 12.2444 105.31 12.1812C103.968 12.1181 102.664 11.732 101.512 11.0575M104.476 0.737976L100.772 2.86524L102.114 3.63474C100.014 3.45917 97.9066 3.88367 96.0483 4.85674C92.1585 7.02926 92.8994 10.5596 97.6227 13.23C99.824 14.527 102.316 15.2791 104.882 15.4211C107.448 15.5631 110.011 15.0906 112.348 14.0447C114.293 12.9132 114.849 11.7364 114.571 10.5597L110.82 8.206L117.813 10.469L121.748 8.206L112.811 5.44515L104.476 0.737976ZM83.6381 21.1054C80.9986 19.6118 80.9523 17.7561 82.8508 16.5793C84.1007 16.0436 85.4639 15.8092 86.8258 15.8959C88.1877 15.9825 89.5084 16.3877 90.6767 17.0772C93.3162 18.5708 93.1309 20.3812 91.3713 21.3769C90.1505 21.9402 88.8069 22.2017 87.4585 22.1386C86.1101 22.0754 84.7982 21.6896 83.6381 21.0149M80.3502 7.16509L76.5994 9.29236L84.2863 13.5921C82.1854 13.4085 80.0756 13.8336 78.2202 14.8142C74.3304 17.032 75.0251 20.5623 79.7484 23.2327C81.9577 24.5338 84.4603 25.2845 87.0361 25.4186C89.6119 25.5528 92.1819 25.0664 94.5202 24.0022C96.4651 22.9159 97.0207 21.7391 96.7429 20.5623L93.0384 18.2088L99.9844 20.4265L103.921 18.2088L94.9832 15.4478L80.3502 7.16509ZM65.81 31.108C63.1242 29.5691 63.1241 27.7587 65.0227 26.5819C66.268 26.0358 67.6299 25.7918 68.9924 25.8706C70.355 25.9494 71.6778 26.3487 72.8486 27.0346C75.4881 28.5282 75.3029 30.3839 73.4969 31.5606C72.2812 32.1123 70.9467 32.3675 69.6079 32.3045C68.2691 32.2414 66.9658 31.862 65.81 31.1986M68.8199 20.8791L65.0691 23.0064L66.412 23.7758C64.3115 23.6002 62.2041 24.0248 60.3458 24.9979C56.4561 27.1704 57.1969 30.7007 61.9202 33.3711C64.13 34.6683 66.6296 35.4203 69.2031 35.5623C71.7767 35.7042 74.3471 35.2318 76.6921 34.1859C78.5907 33.0543 79.1464 31.8775 78.8685 30.7007L75.1639 28.3472L82.1563 30.5649L86.0924 28.3472L77.1552 25.5862L68.8199 20.8791ZM39.554 37.3993L54.8353 45.9989L58.5398 43.9169L50.5288 39.3908C48.1209 38.033 47.6578 36.6751 49.3711 35.6794C51.0845 34.6837 52.7977 34.9553 55.4835 36.4489L63.5872 40.975L67.3381 38.8929L58.5861 33.9595C56.9024 32.7234 54.9111 31.9499 52.8186 31.7191C50.7261 31.4883 48.6085 31.8087 46.6853 32.647C45.2498 33.4617 44.7405 34.3216 44.8794 35.2721L47.6115 37.6709L43.3048 35.2268L39.554 37.3993ZM32.5154 49.8914C29.8296 48.3978 29.8296 46.5421 31.7281 45.3653C32.9654 44.8193 34.32 44.5753 35.6751 44.6541C37.0303 44.7329 38.3455 45.1322 39.5078 45.8178C42.1936 47.3114 42.0083 49.1671 40.2024 50.3439C38.9897 50.9071 37.6535 51.1687 36.3125 51.1055C34.9714 51.0424 33.6671 50.6564 32.5154 49.9819M35.5253 39.6624L31.7745 41.7897L33.1174 42.559C31.0169 42.3834 28.9095 42.8081 27.0512 43.7812C23.1615 45.9537 23.9024 49.4841 28.6257 52.1544C30.8354 53.4516 33.335 54.2036 35.9086 54.3455C38.4822 54.4875 41.0525 54.0151 43.3975 52.9691C45.2961 51.8829 45.8518 50.706 45.574 49.4839L41.8693 47.1304L48.8153 49.3935L52.7978 47.1757L43.8606 44.3696L35.5253 39.6624ZM4.12934 49.6198C-1.38116 52.6976 -1.1959 57.631 5.61119 61.4782C8.78031 63.3226 12.3677 64.3707 16.0525 64.5287C19.7374 64.6866 23.4049 63.9495 26.7271 62.3833C30.5242 60.2108 31.5893 57.2237 29.5055 54.1459L23.8561 54.5984C25.801 56.4994 25.1527 58.6719 22.5595 60.1203C20.4951 61.0635 18.2209 61.4833 15.9467 61.3409C13.6725 61.1985 11.4717 60.4985 9.5473 59.3056C4.91662 56.8163 4.63879 53.8743 8.1118 51.9281C9.5752 51.199 11.1729 50.7633 12.8112 50.6467C14.4494 50.5301 16.095 50.735 17.651 51.2492L18.4381 48.0357C13.6321 46.8181 8.535 47.3824 4.12934 49.6198Z" fill="white"/>
</svg>
