<svg width="91" height="47" viewBox="0 0 91 47" fill="none" xmlns="http://www.w3.org/2000/svg">
<path d="M70.1084 10.5282C67.4226 9.03463 67.4225 7.17893 69.3211 6.00215C70.563 5.46667 71.9189 5.2323 73.2733 5.31898C74.6278 5.40566 75.9408 5.81077 77.1006 6.49995C79.7401 7.99356 79.6013 9.80406 77.7953 10.7998C76.5859 11.375 75.2478 11.6433 73.9044 11.5801C72.5611 11.5168 71.2556 11.1238 70.1084 10.4376M73.0719 0.163452L69.3675 2.24542L70.7104 3.01491C68.6099 2.83934 66.5023 3.26384 64.6441 4.23691C60.7543 6.45469 61.4953 9.98512 66.2186 12.6555C68.4195 13.9565 70.9145 14.7073 73.4829 14.8415C76.0513 14.9757 78.6139 14.4891 80.9442 13.4249C82.889 12.3386 83.4446 11.1618 83.1668 9.98499L79.4159 7.58617L86.4083 9.84922L90.3444 7.63148L81.4072 4.87063L73.0719 0.163452ZM43.8524 16.6384L59.0874 25.2832L62.8382 23.1559L54.8271 18.6298C52.4191 17.272 51.9561 15.9142 53.6694 14.9637C55.3828 14.0132 57.0961 14.1943 59.7819 15.7332L67.8856 20.2593L71.6365 18.1773L62.8845 13.1986C61.1986 11.9655 59.2047 11.1973 57.1113 10.9744C55.0179 10.7515 52.9018 11.082 50.9837 11.9313C49.5482 12.746 48.9924 13.6059 49.1776 14.5564L51.9097 16.9552L47.557 14.5111L43.8524 16.6384ZM34.8689 19.2636L38.6197 17.1363L34.4985 14.8279L30.7476 16.91L34.8689 19.2636ZM52.3266 29.0851L56.0311 27.0031L40.7961 18.4036L37.0453 20.4856L52.3266 29.0851ZM28.7563 24.559C27.2745 25.3737 26.7652 26.2337 26.9505 27.1842L29.59 29.583L19.032 23.6086L15.2812 25.6905L36.86 37.8657L40.611 35.7385L32.5535 31.2124C30.1919 29.8545 29.6826 28.4968 31.4422 27.5011C33.2019 26.5053 34.8689 26.7768 37.5084 28.2704L45.6584 32.7965L49.3629 30.7146L40.6572 25.7811C38.9735 24.5451 36.9821 23.7715 34.8896 23.5408C32.7971 23.31 30.6796 23.6303 28.7563 24.4685M3.93598 31.5292C-1.57452 34.607 -1.38926 39.5404 5.41783 43.3876C8.58695 45.232 12.1743 46.2801 15.8592 46.4381C19.5441 46.596 23.2115 45.859 26.5337 44.2928C30.3309 42.1203 31.3959 39.1331 29.3121 36.0553L23.6627 36.508C25.6076 38.4089 24.9593 40.5815 22.3661 42.0298C20.3017 42.973 18.0275 43.3928 15.7533 43.2504C13.4792 43.108 11.2784 42.4081 9.35394 41.2151C4.72326 38.7258 4.44529 35.7838 7.9183 33.8376C9.38169 33.1085 10.9796 32.6728 12.6178 32.5562C14.256 32.4396 15.9016 32.6445 17.4576 33.1587L18.2448 29.9451C13.4387 28.7275 8.34165 29.2918 3.93598 31.5292Z" fill="white"/>
</svg>
