<svg width="161" height="85" viewBox="0 0 161 85" fill="none" xmlns="http://www.w3.org/2000/svg">
<path d="M139.248 9.8216C136.84 8.46377 136.793 6.83441 138.692 5.74815C139.813 5.20802 141.057 4.95767 142.306 5.02106C143.554 5.08444 144.765 5.45939 145.823 6.11017C148.139 7.37748 148.092 9.05225 146.286 10.048C145.191 10.6004 143.969 10.8695 142.737 10.8299C141.505 10.7903 140.304 10.4432 139.248 9.8216ZM138.507 2.12733L139.711 2.76091C137.748 2.64123 135.789 3.06472 134.061 3.98291C130.171 6.15543 130.866 9.50473 135.358 12.0393C137.444 13.2478 139.801 13.9376 142.223 14.0481C144.645 14.1586 147.058 13.6864 149.25 12.6731C150.183 12.2228 150.91 11.4478 151.287 10.5005L148.185 7.64917L152.815 10.2742C155.223 11.6773 155.409 13.3067 153.186 14.5288C152.19 15.0439 151.094 15.3502 149.97 15.4281C148.846 15.506 147.717 15.3539 146.657 14.9814L145.823 18.0591C149.506 18.9708 153.406 18.4516 156.705 16.6107C161.336 14.0309 161.336 10.8626 156.705 8.37322L141.933 6.10352e-05L138.507 2.12733ZM113.409 16.2939L128.69 24.8936L132.394 22.8115L124.383 18.2854C121.975 16.9275 121.512 15.5698 123.226 14.5741C124.939 13.5783 126.652 13.8498 129.338 15.3434L137.488 19.8695L141.193 17.7876L132.441 12.8541C130.759 11.6137 128.767 10.8373 126.674 10.6064C124.58 10.3755 122.462 10.6985 120.54 11.5415C119.104 12.3562 118.595 13.2161 118.734 14.1666L121.466 16.5654L117.159 14.1214L113.409 16.2939ZM107.944 27.926C105.305 26.4324 105.212 24.7125 107.157 23.6263C108.359 23.0683 109.686 22.8171 111.014 22.8963C112.342 22.9754 113.628 23.3822 114.751 24.0788C117.345 25.5271 117.437 27.247 115.492 28.3333C114.299 28.8858 112.984 29.138 111.665 29.0669C110.347 28.9957 109.068 28.6035 107.944 27.926ZM103.313 21.4084C99.0995 23.762 99.4237 27.4281 104.193 30.0985C106.526 31.4083 109.151 32.1386 111.84 32.2254C114.528 32.3122 117.198 31.7528 119.613 30.5963C123.827 28.1975 123.503 24.5314 118.78 21.861C116.439 20.5468 113.803 19.8178 111.105 19.7389C108.407 19.6599 105.73 20.2333 103.313 21.4084ZM73.816 31.5921L95.3951 43.7673L99.2848 41.5495L91.9221 37.3855L91.6443 35.4846L107.018 37.2045L111.649 34.4889L90.9959 32.1805L89.6068 22.5852L84.4668 25.4818L85.5318 32.8594L90.1625 36.5708L77.4281 29.3743L73.816 31.5921ZM67.8426 50.1944C65.4346 48.8366 65.3884 47.2072 67.3333 46.1209C68.4507 45.5741 69.6927 45.316 70.9411 45.3715C72.1894 45.4269 73.4024 45.794 74.4644 46.4377C76.7797 47.7502 76.6873 49.4249 74.9276 50.4206C73.8433 51.0071 72.6243 51.3147 71.3851 51.3147C70.1459 51.3147 68.9269 51.0071 67.8426 50.4206M67.1479 42.6811L68.3519 43.36C66.3931 43.2264 64.4355 43.6343 62.7026 44.5368C58.8128 46.7546 59.5073 50.1039 63.999 52.5932C66.081 53.8089 68.4364 54.5064 70.8586 54.6248C73.2807 54.7431 75.6954 54.2787 77.8911 53.2721C78.8383 52.8185 79.5687 52.0235 79.9286 51.0544L76.8261 48.2481L81.4568 50.8733C83.8647 52.2311 84.05 53.8605 81.8273 55.1278C80.8315 55.6465 79.7336 55.9511 78.6075 56.0214C77.4815 56.0916 76.3531 55.9259 75.2979 55.5351L74.4644 58.6129C76.2862 59.0863 78.1859 59.2021 80.0538 58.9535C81.9216 58.7049 83.7207 58.0968 85.3467 57.1645C89.9773 54.6299 89.9773 51.4164 85.3467 48.9271L70.5748 40.5991L67.1479 42.6811ZM42.0497 56.8478L57.2845 65.4926L61.0356 63.3653L53.0243 58.8392C50.6164 57.4814 50.1533 56.1236 51.8667 55.1731C53.58 54.2226 55.2934 54.4036 57.9792 55.9425L66.0829 60.4686L69.8337 58.3413L60.9429 53.4079C59.2613 52.1658 57.2666 51.3921 55.1712 51.169C53.0758 50.9459 50.9579 51.2816 49.042 52.1406C47.6065 52.9553 47.0971 53.8152 47.236 54.7657L49.9682 57.1645L45.6617 54.7205L42.0497 56.8478ZM36.5855 68.4797C33.946 67.0314 33.8535 65.3116 35.7984 64.2253C36.9963 63.6606 38.321 63.4017 39.649 63.4729C40.977 63.5442 42.2649 63.9432 43.3925 64.6326C45.9856 66.1262 46.0784 67.8461 44.1335 68.9323C42.9399 69.4906 41.6201 69.7419 40.2993 69.6628C38.9785 69.5835 37.7004 69.1764 36.5855 68.4797ZM31.9548 61.9623C27.7409 64.3611 28.0651 68.0272 32.8347 70.6976C35.1668 72.0117 37.7956 72.7409 40.4864 72.8199C43.1772 72.8989 45.8462 72.3252 48.2549 71.1502C52.4688 68.7967 52.1447 65.1305 47.4214 62.4601C45.0806 61.1501 42.4472 60.4199 39.7513 60.3331C37.0554 60.2463 34.3788 60.8057 31.9548 61.9623ZM0.83667 73.0511L22.4156 85.2263L26.3516 83.0537L17.6924 78.1656L25.2403 73.9111L33.8996 78.754L37.7895 76.5814L15.7475 64.18L11.8577 66.3524L20.795 71.4218L13.2468 75.6763L4.30968 70.6523L0.83667 73.0511Z" fill="white"/>
</svg>
