<svg width="146" height="79" viewBox="0 0 146 79" fill="none" xmlns="http://www.w3.org/2000/svg">
<path d="M130.105 7.22039C128.299 5.81731 128.391 4.73104 129.734 3.9616C130.607 3.55162 131.573 3.36954 132.538 3.433C133.504 3.49645 134.437 3.80335 135.245 4.32377L130.105 7.22039ZM126.354 1.92494C122.372 4.18799 123.02 7.71823 127.836 10.4339C130.068 11.7777 132.616 12.5378 135.235 12.6408C137.855 12.7439 140.457 12.1865 142.793 11.0223C145.293 9.61921 146.358 7.85405 145.617 5.95309H140.2C141.172 7.26566 140.941 8.21619 139.366 9.12141C138.396 9.64851 137.304 9.92503 136.194 9.92503C135.084 9.92503 133.992 9.64851 133.022 9.12141L142.006 4.05221L140.524 3.05647C138.427 1.76209 136.032 1.00112 133.557 0.843008C131.082 0.6849 128.606 1.13463 126.354 2.15119M110.517 11.7465L125.798 20.346L129.503 18.2641L122.186 14.1001C119.593 12.6518 118.991 11.1128 120.704 10.1623C121.411 9.75296 122.176 9.44801 122.974 9.25719L118.806 6.90353C118.175 7.04694 117.567 7.27554 117 7.58256C116.603 7.75779 116.278 8.05824 116.076 8.43576C115.874 8.81328 115.809 9.24597 115.889 9.66452L119.176 12.4254L114.268 9.61922L110.517 11.7465ZM105.053 23.3786C102.46 21.885 102.321 20.165 104.266 19.0787C105.467 18.5207 106.794 18.2696 108.122 18.3487C109.45 18.4279 110.736 18.8348 111.86 19.5314C114.453 20.9797 114.546 22.6996 112.647 23.7859C111.449 24.3506 110.124 24.6094 108.796 24.5381C107.468 24.4669 106.181 24.068 105.053 23.3786ZM100.422 16.861C96.1621 19.2146 96.4862 22.8808 101.256 25.5511C103.588 26.8609 106.214 27.5912 108.902 27.678C111.591 27.7648 114.26 27.2054 116.676 26.0489C120.89 23.6501 120.566 19.984 115.842 17.3136C113.51 15.9995 110.881 15.2703 108.191 15.1913C105.5 15.1124 102.831 15.686 100.422 16.861ZM88.7993 32.657C86.0672 31.1181 86.1598 29.2624 87.9658 28.1309C89.2082 27.5733 90.5718 27.323 91.9365 27.4019C93.3012 27.4808 94.6252 27.8866 95.7916 28.5835C98.3848 30.0319 98.3383 31.8423 96.4397 33.1096C95.2273 33.6505 93.8989 33.8961 92.5682 33.8251C91.2375 33.7542 89.9443 33.3689 88.7993 32.7023M101.07 34.8749C104.96 32.7024 104.312 29.172 99.6812 26.5469C97.4612 25.2346 94.9478 24.4704 92.3579 24.3206C89.768 24.1708 87.1796 24.6398 84.8167 25.6869C83.057 26.6827 82.4089 27.9046 82.6404 29.1267L81.2976 28.3573L77.5468 30.4393L99.1256 42.6145L102.83 40.5325L91.9944 34.3769L96.9954 36.1422C98.4383 36.0465 99.8362 35.6118 101.07 34.8749ZM70.508 43.0218C67.8223 41.5282 67.8223 39.6725 69.7209 38.4957C70.9708 37.96 72.334 37.7256 73.6959 37.8123C75.0577 37.8989 76.3785 38.3041 77.5468 38.9936C80.1862 40.4873 80.0008 42.2976 78.2412 43.2933C77.0236 43.8684 75.6783 44.1366 74.3276 44.0733C72.9768 44.0101 71.6638 43.6175 70.508 42.9313M73.5181 32.657L69.767 34.7391L71.11 35.5085C69.0241 35.3285 66.9303 35.7537 65.0902 36.7306C61.2005 38.9484 61.8949 42.4787 66.6181 45.1491C68.8275 46.4502 71.3301 47.2009 73.9059 47.335C76.4816 47.4692 79.0517 46.9828 81.39 45.9186C83.3349 44.8323 83.8907 43.6554 83.5666 42.4334L79.8621 40.0799L86.8542 42.3429L90.7904 40.1252L81.8532 37.3642L73.5181 32.657ZM53.606 51.9835C51.198 50.6257 51.1981 48.9963 53.0967 47.91C54.2164 47.3716 55.4572 47.1182 56.7039 47.1736C57.9506 47.229 59.1626 47.5912 60.2278 48.2268C62.5431 49.5393 62.4507 51.214 60.691 52.2098C59.5872 52.7619 58.3578 53.0308 57.1185 52.9913C55.8792 52.9517 54.6705 52.6049 53.606 51.9835ZM52.7725 43.8818L53.9765 44.5606C52.0117 44.4205 50.048 44.8454 48.3272 45.7828C44.4374 47.9553 45.1319 51.3046 49.6236 53.7939C51.7056 55.0095 54.0611 55.7071 56.4832 55.8255C58.9053 55.9438 61.32 55.4794 63.5157 54.4728C64.4629 54.0191 65.1933 53.2242 65.5532 52.2551L62.4507 49.4489L67.0814 52.074C69.4893 53.4318 69.6744 55.0612 67.4516 56.3285C66.4554 56.8436 65.3604 57.1499 64.2361 57.2278C63.1119 57.3058 61.9832 57.1536 60.9225 56.7811L60.089 59.8135C61.9108 60.287 63.8105 60.4029 65.6784 60.1543C67.5462 59.9057 69.3451 59.2977 70.971 58.3653C75.6017 55.8307 75.6017 52.6171 70.971 50.1278L56.1991 41.7998L52.7725 43.8818ZM27.6743 58.0484L42.9091 66.6933L46.6599 64.566L38.649 60.0399C36.241 58.6821 35.7779 57.3243 37.4913 56.3738C39.2046 55.4233 40.918 55.6043 43.6038 57.1432L51.7075 61.6693L55.4583 59.5873L46.7063 54.6086C45.0203 53.3754 43.0266 52.6073 40.9332 52.3843C38.8398 52.1614 36.7235 52.4919 34.8054 53.3413C33.3699 54.156 32.8608 55.016 32.9997 55.9665L35.7316 58.3653L31.4251 55.9212L27.6743 58.0484ZM18.6908 60.6735L22.4416 58.5462L18.3202 56.238L14.5694 58.32L18.6908 60.6735ZM36.1485 70.4952L39.8993 68.4132L24.6179 59.8135L20.867 61.8957L36.1485 70.4952ZM4.0116 63.6155C0.0292196 65.8785 -0.38762 69.1826 3.64107 71.4456C12.3004 76.3338 19.2466 68.1417 23.7383 70.6763C25.3591 71.5815 24.8958 72.9846 22.9973 74.0708C21.6864 74.8053 20.2017 75.1917 18.6908 75.1917C17.1798 75.1917 15.6951 74.8053 14.3843 74.0708L12.6709 77.239C14.9443 78.1498 17.398 78.5496 19.8507 78.4085C22.3034 78.2675 24.6924 77.5894 26.8408 76.4244C30.9158 74.1613 31.7955 70.9478 27.5352 68.549C18.7369 63.6156 11.8835 71.853 7.25285 69.2279C5.67842 68.3227 6.04894 67.0554 7.90121 66.0144C9.10382 65.3563 10.4592 65.0107 11.8375 65.0107C13.2157 65.0107 14.5708 65.3563 15.7734 66.0144L17.4867 63.0723C15.3337 62.1923 13.0069 61.7925 10.6758 61.9021C8.34478 62.0118 6.06828 62.6281 4.0116 63.7061" fill="white"/>
</svg>
