<svg width="114" height="57" viewBox="0 0 114 57" fill="none" xmlns="http://www.w3.org/2000/svg">
<path d="M86.1229 6.36156L101.404 15.0064L105.109 12.8791L97.0976 8.35305C94.6897 6.99522 94.2266 5.63741 95.9399 4.68693C97.6533 3.73645 99.3667 3.91741 102.052 5.45629L110.202 9.98238L113.907 7.85511L105.155 2.92169C103.469 1.68853 101.475 0.920375 99.3819 0.697454C97.2885 0.474532 95.1722 0.805022 93.2541 1.65439C91.8186 2.46908 91.3092 3.32912 91.4944 4.2796L94.2266 6.67842L89.8738 4.23429L86.1229 6.36156ZM79.0842 18.9441C76.3984 17.4505 76.3985 15.5948 78.2971 14.418C79.5395 13.8604 80.9031 13.6099 82.2678 13.6888C83.6325 13.7678 84.9565 14.1737 86.1229 14.8706C88.7624 16.3642 88.5773 18.1746 86.7713 19.1703C85.5619 19.7455 84.2237 20.0139 82.8803 19.9506C81.5369 19.8873 80.2314 19.4945 79.0842 18.8083M82.0943 8.53399L78.3434 10.6161L79.6862 11.3855C77.6018 11.2289 75.5147 11.6527 73.6664 12.6076C69.7766 14.8254 70.4713 18.3557 75.1946 21.0261C77.404 22.3272 79.9065 23.0779 82.4823 23.212C85.0581 23.3462 87.6281 22.8598 89.9665 21.7955C91.9113 20.7093 92.4669 19.5325 92.1427 18.3557L88.4383 15.9569L95.4306 18.2199L99.3666 16.0022L90.4294 13.2412L82.0943 8.53399ZM45.3267 29.354L64.7756 35.6001L69.0357 33.2012L62.4139 27.091L73.3422 30.7571L77.6024 28.3583L66.3962 17.4504L62.5066 19.6683L70.2861 26.7741L57.6905 22.5197L54.3102 24.4206L61.8582 31.4813L49.2626 26.9552L45.3267 29.354ZM37.6399 31.2551L41.3444 29.1278L37.223 26.8194L33.4722 28.9014L37.6399 31.2551ZM55.051 41.0766L58.8018 38.9946L43.5207 30.3498L39.8162 32.4771L55.051 41.0766ZM32.7775 45.0596C30.0917 43.566 30.0917 41.7103 31.9903 40.5335C33.2276 39.9875 34.5822 39.7434 35.9373 39.8223C37.2924 39.9011 38.6075 40.3005 39.7698 40.9861C42.4093 42.4797 42.2705 44.3354 40.4645 45.5122C39.2519 46.0754 37.9157 46.337 36.5746 46.2738C35.2336 46.2107 33.9291 45.8247 32.7775 45.1502M35.7411 34.8307L32.0367 36.9578L33.3795 37.7273C31.279 37.5518 29.1716 37.9763 27.3133 38.9493C23.4235 41.1219 24.1646 44.6522 28.8878 47.3226C31.0892 48.6196 33.5811 49.3717 36.1473 49.5137C38.7135 49.6557 41.2764 49.1832 43.6134 48.1373C45.5582 47.051 46.1138 45.8743 45.836 44.6523L42.0852 42.2987L49.0775 44.5618L53.0135 42.3439L44.0763 39.5378L35.7411 34.8307ZM0.31665 47.73L4.53044 50.0836L10.2261 46.87L27.5911 56.6464L31.4347 54.5644L14.0696 44.7427L19.7653 41.5292L15.5515 39.1757L0.31665 47.73Z" fill="white"/>
</svg>
