<svg width="75" height="36" viewBox="0 0 75 36" fill="none" xmlns="http://www.w3.org/2000/svg">
<path d="M54.1475 10.934L48.6832 5.00481L59.1949 8.08252L54.1475 10.934ZM55.583 19.5788L59.8432 17.18L56.8332 13.9665L64.4738 9.66668L70.1696 11.3413L74.4761 8.89718L45.5807 0.886047L41.3668 3.23956L55.583 19.5788ZM24.8353 11.8844C20.8529 14.1475 20.4825 17.4516 24.4649 19.7146C33.1242 24.6028 40.0702 16.4105 44.562 18.9451C46.1827 19.8956 45.7196 21.2534 43.8211 22.3397C42.5143 23.0615 41.0388 23.4409 39.5377 23.4409C38.0367 23.4409 36.5611 23.0615 35.2543 22.3397L33.4946 25.4627C35.7604 26.3617 38.2062 26.7433 40.6457 26.5786C43.0852 26.4139 45.4541 25.7072 47.5719 24.5122C51.6469 22.2492 52.5267 19.0357 48.2665 16.6369C39.4682 11.7035 32.6148 19.9409 27.9841 17.3158C26.4097 16.4106 26.7802 15.1433 28.6324 14.1023C29.8392 13.4565 31.1928 13.118 32.5686 13.118C33.9443 13.118 35.2978 13.4565 36.5045 14.1023L38.3105 10.934C36.1575 10.0539 33.8308 9.65416 31.4998 9.76378C29.1687 9.87339 26.8919 10.4897 24.8353 11.5677M0.987305 25.7342L15.1108 33.7002C17.3386 35.0661 19.8982 35.8279 22.5267 35.9075C25.1552 35.987 27.758 35.3814 30.0679 34.1528C34.4671 31.6635 34.3745 28.4953 29.327 25.6891L15.1572 17.9042L11.2211 20.0766L25.1131 27.9521C27.6137 29.3552 28.0767 30.8488 25.9466 32.0256C24.8134 32.5967 23.5429 32.8561 22.2706 32.7764C20.9983 32.6967 19.772 32.2808 18.7227 31.5729L4.8307 23.6976L0.987305 25.7342Z" fill="white"/>
</svg>
