<svg width="128" height="64" viewBox="0 0 128 64" fill="none" xmlns="http://www.w3.org/2000/svg">
<path d="M107.116 8.74485L116.377 13.8594L120.128 11.7321L111.746 7.2513C109.477 5.93873 108.968 4.85251 110.45 4.03781C111.194 3.70708 112.014 3.57474 112.828 3.65423C113.641 3.73373 114.418 4.02226 115.08 4.49045L124.342 9.60481L128.047 7.47755L118.368 2.00101C116.797 0.940265 114.967 0.30597 113.063 0.162841C111.159 0.019711 109.251 0.372907 107.533 1.18635C106.19 1.95579 105.958 2.77049 106.004 3.31362L108.644 5.62197C107.262 4.98172 105.751 4.64957 104.222 4.64957C102.692 4.64957 101.181 4.98172 99.7992 5.62197C98.2711 6.48193 98.225 7.38706 98.225 7.7944L101.003 10.2838L96.8819 7.93018L93.1774 10.0575L108.413 18.657L112.163 16.575L103.735 11.8227C101.698 10.6006 101.05 9.42386 102.531 8.5639C103.279 8.23956 104.102 8.1147 104.915 8.20215C105.729 8.28961 106.504 8.5862 107.162 9.0617M85.9999 22.64C83.3141 21.1464 83.2679 19.2907 85.2128 18.1139C86.4501 17.5679 87.8043 17.3238 89.1595 17.4027C90.5146 17.4815 91.83 17.8809 92.9923 18.5665C95.6318 20.0601 95.4464 21.9158 93.6867 23.0926C92.474 23.6558 91.1379 23.9174 89.7968 23.8542C88.4558 23.7911 87.1516 23.4051 85.9999 22.7306M88.9636 12.4111L85.2591 14.5382L86.6019 15.3077C84.5011 15.1269 82.3922 15.5517 80.5357 16.5297C76.646 18.7023 77.3867 22.2779 82.11 24.903C84.3113 26.2 86.8033 26.9521 89.3695 27.0941C91.9357 27.2361 94.4988 26.7636 96.8358 25.7177C98.7807 24.6314 99.3363 23.4547 99.0584 22.2326L95.3076 19.8791L102.3 22.1422L106.236 19.9243L97.2988 17.1181L88.9636 12.4111ZM59.7441 28.9313L74.9789 37.5309L78.7297 35.4489L70.7187 30.9228C68.3108 29.565 67.8014 28.2071 69.5611 27.2114C71.3207 26.2156 72.9878 26.4871 75.6272 27.9807L83.7773 32.5068L87.5281 30.3796L78.8224 25.3557C77.1387 24.1196 75.1472 23.3461 73.0547 23.1153C70.9622 22.8845 68.8448 23.2048 66.9215 24.0431C65.4397 24.903 64.9303 25.7177 65.1155 26.7134L67.8477 29.1123L63.4949 26.6683L59.7441 28.9313ZM47.1485 33.0501L49.788 34.5436L47.3799 35.9014L50.992 37.9382L53.4001 36.5804L60.0682 40.337C61.5531 41.3511 63.3096 41.9174 65.1203 41.9656C66.9311 42.0139 68.7163 41.542 70.2555 40.6086C71.0318 40.1921 71.7353 39.6573 72.3394 39.0244L68.5885 36.9424C68.0729 37.3995 67.5149 37.8086 66.9215 38.1644C66.3547 38.502 65.6952 38.6614 65.0327 38.6209C64.3702 38.5805 63.7365 38.3421 63.2171 37.9382L57.1045 34.4531L60.7627 32.4164L57.197 30.3796L53.5388 32.4164L47.6578 29.1123L47.1485 33.0501ZM42.5178 45.3157C40.6655 43.9127 40.8044 42.8264 42.1473 42.0569C43.0089 41.6374 43.9694 41.4498 44.9298 41.5134C45.8902 41.5771 46.8159 41.8896 47.6117 42.419L42.5178 45.3157ZM38.7206 40.0202C34.7845 42.2379 35.4329 45.7683 40.2488 48.5292C42.477 49.8608 45.0165 50.6139 47.6261 50.7169C50.2357 50.8198 52.8289 50.2693 55.1597 49.1176C57.7066 47.6693 58.7716 45.9494 58.0307 44.0031H52.6126C53.5851 45.3157 53.3536 46.2662 51.7791 47.1262C50.8132 47.666 49.7198 47.9499 48.6071 47.9499C47.4945 47.9499 46.4011 47.666 45.4351 47.1262L54.4187 42.0569C53.931 41.708 53.4204 41.3905 52.8905 41.1065C50.7934 39.8121 48.3982 39.0512 45.9233 38.8931C43.4483 38.7349 40.9722 39.1847 38.7206 40.2012M24.2729 46.5377L28.0238 44.4558L23.9027 42.1023L20.1515 44.2295L24.2729 46.5377ZM41.7307 56.4046L45.4815 54.2775L30.2003 45.6778L26.4495 47.7599L41.7307 56.4046ZM0.610229 54.7753L28.8572 63.1937L33.4879 60.6591L18.716 44.6369L14.4096 47.0808L25.616 58.6676L5.00943 52.3311L0.610229 54.7753Z" fill="white"/>
</svg>
