<svg width="153" height="207" viewBox="0 0 153 207" fill="none" xmlns="http://www.w3.org/2000/svg">
<g filter="url(#filter0_d_148_13741)">
<path d="M126.091 72.653C125.779 72.4781 125.531 72.6529 125.531 72.9708C125.542 73.1615 125.597 73.3471 125.693 73.5127C125.789 73.6783 125.923 73.8193 126.083 73.9244C126.395 74.0992 126.643 73.9244 126.643 73.6065C126.632 73.4158 126.577 73.2302 126.481 73.0647C126.385 72.8991 126.252 72.7581 126.091 72.653Z" fill="#808080"/>
<path d="M126.091 72.7959C126.053 72.7704 126.01 72.753 125.964 72.7448C125.919 72.7366 125.872 72.7377 125.827 72.7482C125.797 72.7813 125.773 72.8202 125.758 72.8625C125.743 72.9048 125.737 72.9497 125.739 72.9946C125.747 73.1429 125.791 73.2873 125.866 73.4158C125.941 73.5443 126.045 73.6532 126.171 73.7336C126.247 73.7814 126.339 73.7985 126.427 73.7813C126.458 73.7482 126.481 73.7094 126.497 73.667C126.512 73.6247 126.518 73.5798 126.515 73.5349C126.507 73.3876 126.464 73.2441 126.391 73.1159C126.317 72.9876 126.215 72.8781 126.091 72.7959Z" fill="#5C5C5C"/>
<path d="M126.171 73.7337C126.045 73.6533 125.941 73.5444 125.866 73.4159C125.79 73.2874 125.747 73.143 125.739 72.9946C125.736 72.9498 125.743 72.9049 125.758 72.8625C125.773 72.8202 125.797 72.7814 125.827 72.7483C125.723 72.7483 125.659 72.8834 125.651 73.0423C125.659 73.1907 125.702 73.3351 125.778 73.4636C125.853 73.5921 125.957 73.701 126.083 73.7813C126.132 73.8194 126.193 73.84 126.255 73.84C126.317 73.84 126.378 73.8194 126.427 73.7813C126.339 73.7986 126.247 73.7815 126.171 73.7337Z" fill="#757575"/>
<path d="M126.091 72.3748C126.323 72.5263 126.516 72.7295 126.655 72.9682C126.794 73.2068 126.874 73.4744 126.891 73.7495C126.891 74.2581 126.531 74.4568 126.091 74.2025C125.858 74.0518 125.665 73.8489 125.526 73.61C125.387 73.3712 125.307 73.1032 125.291 72.8277C125.291 72.3271 125.651 72.1205 126.091 72.3748ZM126.091 73.9085C126.387 74.0753 126.635 73.9085 126.635 73.5985C126.626 73.4137 126.572 73.2337 126.479 73.0735C126.386 72.9132 126.256 72.7772 126.099 72.6767C125.803 72.5019 125.555 72.6767 125.555 72.9787C125.565 73.1645 125.619 73.3453 125.712 73.5068C125.805 73.6682 125.935 73.8058 126.091 73.9085Z" fill="#222221"/>
<path d="M127.171 72.9152C127.096 72.737 126.99 72.573 126.859 72.4304C126.759 72.3133 126.64 72.2138 126.507 72.1364C126.427 72.0766 126.331 72.0398 126.231 72.03C126.131 72.0202 126.03 72.0377 125.939 72.0808L125.523 72.3192C125.615 72.2786 125.715 72.2624 125.815 72.2722C125.914 72.2819 126.01 72.3173 126.091 72.3748C126.223 72.4543 126.342 72.5535 126.443 72.6688C126.568 72.8143 126.671 72.9777 126.747 73.1536C126.835 73.3404 126.884 73.5432 126.891 73.7495C126.901 73.8479 126.884 73.9471 126.842 74.0367C126.799 74.1262 126.734 74.2027 126.651 74.2581L127.075 74.0197C127.155 73.9622 127.218 73.8851 127.259 73.7959C127.3 73.7068 127.316 73.6086 127.307 73.5111C127.304 73.3052 127.258 73.1022 127.171 72.9152Z" fill="#222221"/>
<path d="M126.291 73.2092C126.269 73.1665 126.242 73.1265 126.211 73.09C126.189 73.0619 126.162 73.0378 126.131 73.0185C126.109 73.0073 126.084 73.0015 126.059 73.0015C126.034 73.0015 126.01 73.0073 125.987 73.0185L125.931 73.0582C125.931 73.0582 126.011 73.0582 126.067 73.0582L126.155 73.1218C126.185 73.1578 126.209 73.198 126.227 73.241C126.239 73.2907 126.239 73.3423 126.227 73.392C126.227 73.4476 126.227 73.4953 126.171 73.5112H126.235C126.254 73.496 126.269 73.4765 126.279 73.4544C126.289 73.4322 126.293 73.4081 126.291 73.384C126.302 73.3263 126.302 73.2669 126.291 73.2092Z" fill="#757575"/>
<path d="M126.067 73.0583C125.963 72.9947 125.875 73.0583 125.875 73.1616C125.878 73.2285 125.896 73.2938 125.93 73.352C125.963 73.4101 126.01 73.4593 126.067 73.4953C126.171 73.5589 126.259 73.4953 126.259 73.392C126.258 73.3248 126.24 73.2589 126.207 73.2005C126.173 73.1422 126.125 73.0932 126.067 73.0583Z" fill="#808080"/>
<path d="M126.187 71.6121L126.067 73.6226C126.069 73.668 126.059 73.7132 126.038 73.7536C126.017 73.794 125.986 73.8282 125.947 73.853L126.395 73.5987C126.432 73.5724 126.462 73.5378 126.483 73.4978C126.504 73.4577 126.515 73.4134 126.515 73.3683L126.635 71.3578L126.187 71.6121Z" fill="#808080"/>
<path d="M125.563 70.7458L125.115 71.0001L126.187 71.62L126.627 71.3657L125.563 70.7458Z" fill="#ACACAC"/>
<path d="M125.123 71.0001L125.251 73.5987L125.659 73.8291C125.875 73.9483 126.059 73.8291 126.067 73.6225L126.187 71.612L125.123 71.0001Z" fill="#5C5C5C"/>
<path d="M125.059 73.2728C124.755 73.098 124.499 73.2728 124.499 73.5907C124.51 73.7824 124.566 73.9689 124.663 74.1348C124.761 74.3006 124.896 74.441 125.059 74.5443C125.363 74.7191 125.611 74.584 125.611 74.2264C125.602 74.0353 125.548 73.849 125.452 73.6831C125.356 73.5172 125.221 73.3765 125.059 73.2728Z" fill="#808080"/>
<path d="M125.059 73.3841C124.981 73.3357 124.886 73.3187 124.795 73.3364C124.74 73.4069 124.709 73.4933 124.707 73.5827C124.715 73.7311 124.759 73.8755 124.834 74.004C124.909 74.1325 125.014 74.2414 125.139 74.3218C125.178 74.3473 125.221 74.3647 125.266 74.3729C125.312 74.3811 125.358 74.38 125.403 74.3695C125.464 74.3017 125.495 74.2134 125.491 74.1231C125.483 73.9747 125.44 73.8304 125.365 73.7019C125.29 73.5734 125.185 73.4645 125.059 73.3841Z" fill="#5C5C5C"/>
<path d="M125.139 74.3217C125.014 74.2413 124.909 74.1324 124.834 74.0039C124.759 73.8754 124.715 73.731 124.707 73.5826C124.709 73.4932 124.74 73.4068 124.795 73.3363C124.691 73.3363 124.627 73.4714 124.627 73.6303C124.635 73.7787 124.679 73.9231 124.754 74.0516C124.829 74.1801 124.934 74.289 125.059 74.3694C125.109 74.4061 125.169 74.426 125.231 74.426C125.293 74.426 125.354 74.4061 125.403 74.3694C125.358 74.3799 125.312 74.381 125.266 74.3728C125.221 74.3646 125.178 74.3472 125.139 74.3217Z" fill="#757575"/>
<path d="M125.059 72.9628C125.292 73.113 125.486 73.3158 125.626 73.5548C125.765 73.7937 125.845 74.062 125.859 74.3376C125.859 74.8462 125.499 75.0448 125.059 74.7985C124.826 74.6483 124.632 74.4455 124.493 74.2065C124.354 73.9676 124.274 73.6993 124.26 73.4237C124.26 72.9151 124.619 72.7085 125.059 72.9628ZM125.059 74.4965C125.355 74.6634 125.595 74.4965 125.595 74.1866C125.584 74.0022 125.53 73.8229 125.437 73.663C125.344 73.503 125.215 73.3667 125.059 73.2648C124.763 73.0979 124.523 73.2648 124.523 73.5747C124.535 73.7591 124.589 73.9384 124.682 74.0983C124.775 74.2583 124.904 74.3946 125.059 74.4965Z" fill="#222221"/>
<path d="M126.139 73.5033C126.063 73.3275 125.96 73.164 125.835 73.0185C125.734 72.9032 125.615 72.804 125.483 72.7245C125.403 72.6647 125.307 72.6279 125.207 72.6181C125.107 72.6083 125.006 72.6259 124.915 72.6689L124.491 72.9073C124.583 72.8667 124.683 72.8506 124.783 72.8603C124.882 72.8701 124.978 72.9054 125.059 72.9629C125.193 73.0404 125.312 73.1398 125.411 73.2569C125.539 73.4022 125.644 73.5656 125.723 73.7417C125.809 73.929 125.856 74.1318 125.859 74.3377C125.87 74.4364 125.854 74.5362 125.813 74.6269C125.772 74.7176 125.708 74.796 125.627 74.8542L126.043 74.6078C126.125 74.5519 126.19 74.4752 126.233 74.3859C126.275 74.2965 126.292 74.1976 126.283 74.0993C126.276 73.8929 126.227 73.6901 126.139 73.5033Z" fill="#222221"/>
<path d="M125.259 73.7974C125.241 73.7544 125.217 73.7142 125.187 73.6782L125.099 73.6067C125.079 73.593 125.055 73.5857 125.031 73.5857C125.007 73.5857 124.983 73.593 124.963 73.6067H124.899C124.921 73.5955 124.946 73.5897 124.971 73.5897C124.996 73.5897 125.021 73.5955 125.043 73.6067C125.074 73.626 125.101 73.6501 125.123 73.6782C125.156 73.7134 125.183 73.7536 125.203 73.7974C125.211 73.8448 125.211 73.893 125.203 73.9404C125.205 73.9634 125.201 73.9864 125.191 74.0073C125.181 74.0281 125.166 74.0462 125.147 74.0596H125.203C125.223 74.0455 125.239 74.0261 125.249 74.0038C125.259 73.9814 125.262 73.9567 125.259 73.9325C125.268 73.8879 125.268 73.842 125.259 73.7974Z" fill="#757575"/>
<path d="M125.019 73.6463C124.907 73.5828 124.819 73.6463 124.819 73.7576C124.824 73.8239 124.844 73.8884 124.877 73.9461C124.91 74.0039 124.956 74.0535 125.011 74.0914C125.123 74.147 125.211 74.0914 125.211 73.9801C125.207 73.9135 125.188 73.8486 125.155 73.7907C125.122 73.7327 125.075 73.6833 125.019 73.6463Z" fill="#808080"/>
<path d="M94.0401 56.3784C93.7202 56.1956 93.4562 56.3784 93.4562 56.7042C93.4666 56.9031 93.5242 57.0968 93.6243 57.2695C93.7244 57.4421 93.8641 57.5888 94.0321 57.6975C94.3521 57.8803 94.608 57.6975 94.616 57.3717C94.6038 57.1732 94.5455 56.9802 94.4455 56.8079C94.3456 56.6355 94.2068 56.4885 94.0401 56.3784Z" fill="#808080"/>
<path d="M94.0322 56.5294C94.0036 56.4839 93.9584 56.4512 93.9061 56.4382C93.8537 56.4252 93.7984 56.4329 93.7516 56.4597C93.7049 56.4865 93.6705 56.5303 93.6557 56.5819C93.6409 56.6334 93.6468 56.6887 93.6722 56.736C93.6764 56.8946 93.7193 57.0498 93.7973 57.1883C93.8754 57.3268 93.9862 57.4442 94.1202 57.5306C94.1599 57.5564 94.2045 57.5739 94.2512 57.5821C94.298 57.5903 94.3459 57.589 94.3921 57.5783C94.4241 57.5446 94.4486 57.5045 94.4638 57.4606C94.4789 57.4167 94.4845 57.3702 94.4801 57.324C94.476 57.1654 94.433 57.0101 94.355 56.8717C94.277 56.7332 94.1662 56.6157 94.0322 56.5294Z" fill="#5C5C5C"/>
<path d="M94.1202 57.4989C93.9862 57.4125 93.8754 57.295 93.7974 57.1566C93.7193 57.0181 93.6764 56.8629 93.6723 56.7042C93.6699 56.6576 93.6772 56.611 93.6937 56.5672C93.7102 56.5235 93.7356 56.4836 93.7682 56.45C93.7071 56.4714 93.6554 56.5132 93.6219 56.5682C93.5883 56.6233 93.575 56.6882 93.5843 56.7519C93.5877 56.9107 93.6304 57.0662 93.7085 57.2048C93.7866 57.3433 93.8977 57.4607 94.0322 57.5466C94.0833 57.5872 94.1467 57.6093 94.2122 57.6093C94.2776 57.6093 94.3411 57.5872 94.3921 57.5466C94.3459 57.5573 94.298 57.5585 94.2513 57.5503C94.2045 57.5421 94.1599 57.5246 94.1202 57.4989Z" fill="#757575"/>
<path d="M94.0402 56.0922C94.2765 56.2503 94.4721 56.4615 94.611 56.7086C94.75 56.9557 94.8285 57.2318 94.8401 57.5146C94.8401 58.0391 94.4722 58.2537 94.0402 57.9914C93.8028 57.8325 93.6067 57.6201 93.4677 57.3715C93.3286 57.123 93.2507 56.8452 93.2403 56.5611C93.2083 56.0445 93.5763 55.83 94.0402 56.0922ZM94.0402 57.6815C94.3522 57.8564 94.6001 57.6815 94.6001 57.3637C94.5894 57.1719 94.534 56.9852 94.4382 56.8183C94.3424 56.6514 94.2089 56.509 94.0482 56.4021C93.7363 56.2273 93.4883 56.4021 93.4883 56.72C93.4996 56.9116 93.5553 57.0981 93.6511 57.2649C93.7468 57.4317 93.88 57.5743 94.0402 57.6815Z" fill="#5C5C5C"/>
<path d="M95.1599 56.6486C95.0801 56.4662 94.9721 56.2973 94.84 56.1479C94.7369 56.0258 94.6122 55.9234 94.472 55.846C94.3882 55.7836 94.289 55.7448 94.1848 55.7336C94.0807 55.7224 93.9755 55.7393 93.8801 55.7824L93.4482 56.0367C93.5426 55.9916 93.6476 55.9729 93.7519 55.9827C93.8562 55.9925 93.9558 56.0304 94.0401 56.0923C94.176 56.1725 94.2977 56.2745 94.4 56.3943C94.5333 56.5457 94.6414 56.7174 94.72 56.9028C94.8166 57.0924 94.866 57.3023 94.864 57.5147C94.8757 57.6167 94.8596 57.7199 94.8174 57.8136C94.7752 57.9073 94.7084 57.9879 94.624 58.0471L95.0639 57.8008C95.1471 57.7405 95.213 57.6596 95.2551 57.5662C95.2971 57.4729 95.314 57.3702 95.3039 57.2684C95.2974 57.0544 95.2485 56.8438 95.1599 56.6486Z" fill="#5C5C5C"/>
<path d="M94.2481 56.9586C94.2262 56.9134 94.1994 56.8708 94.1681 56.8314C94.1425 56.8034 94.1129 56.7793 94.0802 56.7599C94.0578 56.7487 94.0332 56.7429 94.0082 56.7429C93.9832 56.7429 93.9585 56.7487 93.9362 56.7599L93.8722 56.7997C93.8938 56.7863 93.9187 56.7792 93.9442 56.7792C93.9696 56.7792 93.9946 56.7863 94.0162 56.7997C94.0507 56.8164 94.0808 56.8409 94.1042 56.8712C94.1354 56.9077 94.1622 56.9477 94.1842 56.9904C94.1947 57.0401 94.1947 57.0916 94.1842 57.1414C94.1873 57.1656 94.1837 57.1902 94.1738 57.2126C94.164 57.235 94.1482 57.2543 94.1282 57.2685H94.1921C94.211 57.2533 94.226 57.2338 94.2357 57.2117C94.2455 57.1896 94.2497 57.1654 94.2481 57.1414C94.2591 57.0809 94.2591 57.019 94.2481 56.9586Z" fill="#757575"/>
<path d="M94.0161 56.7995C93.9041 56.736 93.8161 56.7995 93.8161 56.9108C93.8195 56.9806 93.8393 57.0486 93.8741 57.1093C93.9088 57.1701 93.9575 57.2219 94.0161 57.2604C94.1281 57.324 94.216 57.2604 94.216 57.1412C94.2127 57.0725 94.1928 57.0056 94.158 56.9462C94.1232 56.8867 94.0745 56.8364 94.0161 56.7995Z" fill="#808080"/>
<path d="M94.5201 54.1454L94.0162 57.3876C94.0186 57.4343 94.0088 57.4808 93.9878 57.5225C93.9668 57.5643 93.9352 57.6 93.8962 57.626L94.3521 57.3638C94.3927 57.3369 94.4258 57.3001 94.4481 57.257C94.4705 57.214 94.4815 57.1659 94.4801 57.1174L94.976 53.8752L94.5201 54.1454Z" fill="#808080"/>
<path d="M93.8641 53.2476L93.4002 53.5098L94.512 54.1455L94.976 53.8833L93.8641 53.2476Z" fill="#ACACAC"/>
<path d="M93.4083 53.5096L93.1683 57.3558L93.5842 57.5942C93.8162 57.7293 94.0001 57.5942 94.0161 57.3876L94.5201 54.1454L93.4083 53.5096Z" fill="#5C5C5C"/>
<path d="M92.9683 56.9903C92.6484 56.8075 92.3924 56.9903 92.3924 57.324C92.4021 57.5221 92.4594 57.7149 92.5597 57.8864C92.6599 58.0578 92.8 58.2029 92.9683 58.3094C93.2883 58.4922 93.5442 58.3492 93.5442 57.9836C93.5338 57.7847 93.4763 57.591 93.3762 57.4183C93.2761 57.2457 93.1363 57.099 92.9683 56.9903Z" fill="#808080"/>
<path d="M92.9684 57.1412C92.9287 57.1155 92.8841 57.098 92.8374 57.0898C92.7906 57.0816 92.7427 57.0829 92.6965 57.0936C92.6645 57.1273 92.64 57.1674 92.6249 57.2113C92.6097 57.2551 92.6041 57.3017 92.6085 57.3479C92.6126 57.5065 92.6556 57.6617 92.7336 57.8002C92.8117 57.9386 92.9225 58.0561 93.0564 58.1425C93.0948 58.1681 93.138 58.1855 93.1834 58.1937C93.2288 58.2019 93.2755 58.2007 93.3204 58.1902C93.3532 58.1584 93.3788 58.1199 93.3954 58.0774C93.4119 58.0349 93.4191 57.9893 93.4164 57.9439C93.4135 57.7839 93.3712 57.627 93.2931 57.4871C93.215 57.3471 93.1035 57.2284 92.9684 57.1412Z" fill="#5C5C5C"/>
<path d="M93.0243 58.1108C92.8903 58.0244 92.7795 57.907 92.7015 57.7685C92.6234 57.6301 92.5805 57.4748 92.5764 57.3162C92.573 57.2701 92.579 57.2238 92.5941 57.1801C92.6092 57.1364 92.6331 57.0962 92.6643 57.0619C92.6056 57.0859 92.5565 57.1285 92.5247 57.1831C92.4928 57.2377 92.4801 57.3013 92.4884 57.3639C92.4918 57.5226 92.5345 57.6781 92.6126 57.8167C92.6907 57.9553 92.8019 58.0726 92.9363 58.1585C92.9855 58.1999 93.0478 58.2227 93.1123 58.2227C93.1767 58.2227 93.2391 58.1999 93.2882 58.1585C93.2433 58.169 93.1967 58.1702 93.1513 58.162C93.1059 58.1538 93.0626 58.1364 93.0243 58.1108Z" fill="#757575"/>
<path d="M92.9683 56.7042C93.2041 56.8627 93.3994 57.074 93.5383 57.321C93.6772 57.568 93.7559 57.8439 93.7682 58.1266C93.7682 58.6511 93.3922 58.8656 92.9683 58.6034C92.7314 58.444 92.5355 58.2315 92.3965 57.983C92.2576 57.7345 92.1794 57.4571 92.1684 57.173C92.1364 56.6565 92.5124 56.4419 92.9683 56.7042ZM92.9683 58.2935C93.2722 58.4683 93.5282 58.2935 93.5282 57.9756C93.5178 57.7828 93.4617 57.5952 93.3644 57.4281C93.2671 57.261 93.1313 57.1191 92.9683 57.0141C92.6643 56.8392 92.4084 57.0141 92.4084 57.3319C92.4194 57.5246 92.4758 57.712 92.573 57.879C92.6703 58.046 92.8057 58.188 92.9683 58.2935Z" fill="#222221"/>
<path d="M94.0961 57.2605C94.0163 57.0762 93.9054 56.9069 93.7681 56.7599C93.668 56.6379 93.5459 56.5355 93.4082 56.4579C93.3243 56.3955 93.2251 56.3567 93.121 56.3455C93.0169 56.3343 92.9116 56.3512 92.8163 56.3943L92.3843 56.6486C92.4775 56.6042 92.5812 56.5859 92.6841 56.5957C92.787 56.6055 92.8852 56.643 92.9682 56.7042C93.1067 56.7842 93.231 56.8862 93.3362 57.0062C93.4667 57.1597 93.5745 57.331 93.6561 57.5148C93.7446 57.7072 93.7936 57.9152 93.8001 58.1267C93.8102 58.2285 93.7933 58.3311 93.7513 58.4245C93.7092 58.5179 93.6433 58.5987 93.5602 58.6591L93.9921 58.4127C94.0761 58.3528 94.1431 58.2722 94.1866 58.1789C94.23 58.0856 94.2484 57.9828 94.24 57.8803C94.2335 57.6663 94.1846 57.4557 94.0961 57.2605Z" fill="#222221"/>
<path d="M93.1762 57.5703C93.1573 57.5236 93.1302 57.4805 93.0962 57.4431C93.075 57.419 93.0508 57.3977 93.0242 57.3795C93.0019 57.3684 92.9773 57.3625 92.9523 57.3625C92.9273 57.3625 92.9026 57.3684 92.8803 57.3795L92.8243 57.4193C92.8459 57.4059 92.8708 57.3988 92.8963 57.3988C92.9217 57.3988 92.9467 57.4059 92.9683 57.4193C93.0013 57.4382 93.031 57.4624 93.0563 57.4908C93.0877 57.5256 93.1121 57.5661 93.1282 57.61C93.1517 57.6571 93.1653 57.7085 93.1682 57.761C93.1715 57.7861 93.1672 57.8116 93.1558 57.8343C93.1444 57.8569 93.1264 57.8757 93.1042 57.8881H93.1682C93.1897 57.8749 93.2071 57.8561 93.2184 57.8336C93.2297 57.8111 93.2345 57.786 93.2322 57.761C93.2321 57.6934 93.2126 57.6273 93.1762 57.5703Z" fill="#757575"/>
<path d="M92.9524 57.3796C92.8404 57.3161 92.7444 57.3796 92.7444 57.4909C92.7496 57.5602 92.7702 57.6276 92.8048 57.6881C92.8394 57.7486 92.8871 57.8006 92.9444 57.8405C92.9645 57.8571 92.9893 57.8672 93.0154 57.8694C93.0414 57.8717 93.0675 57.8659 93.0902 57.8529C93.1129 57.8399 93.131 57.8203 93.1421 57.7968C93.1532 57.7733 93.1568 57.7469 93.1524 57.7213C93.1491 57.6526 93.1292 57.5857 93.0944 57.5262C93.0596 57.4668 93.0109 57.4165 92.9524 57.3796Z" fill="#808080"/>
<path d="M95.9119 57.4512C95.5919 57.2685 95.328 57.4512 95.328 57.785C95.3383 57.9829 95.396 58.1755 95.4961 58.3468C95.5963 58.5182 95.7361 58.6634 95.9039 58.7704C96.2239 58.9611 96.4878 58.8101 96.4878 58.4446C96.4774 58.2456 96.4199 58.0519 96.3198 57.8793C96.2197 57.7066 96.0799 57.56 95.9119 57.4512Z" fill="#808080"/>
<path d="M95.9118 57.6021C95.8718 57.5768 95.8272 57.5595 95.7806 57.5513C95.7339 57.5432 95.6861 57.5442 95.6398 57.5544C95.6086 57.5887 95.5847 57.6289 95.5696 57.6726C95.5545 57.7163 95.5484 57.7626 95.5518 57.8087C95.5537 57.9669 95.5948 58.1222 95.6716 58.2608C95.7483 58.3994 95.8583 58.5171 95.9918 58.6034C96.0716 58.6565 96.1692 58.6765 96.2637 58.659C96.2945 58.6245 96.3182 58.5843 96.3333 58.5406C96.3484 58.497 96.3547 58.4508 96.3517 58.4047C96.3519 58.245 96.3117 58.0879 96.2348 57.9477C96.158 57.8074 96.0469 57.6886 95.9118 57.6021Z" fill="#5C5C5C"/>
<path d="M95.9918 58.5715C95.8584 58.4853 95.7484 58.3676 95.6717 58.229C95.5949 58.0904 95.5538 57.9351 95.5519 57.7769C95.5485 57.7308 95.5546 57.6845 95.5697 57.6408C95.5848 57.5971 95.6087 57.5569 95.6399 57.5226C95.5279 57.5226 95.4639 57.6577 95.4639 57.8246C95.4651 57.9829 95.5059 58.1384 95.5827 58.2772C95.6595 58.4159 95.7699 58.5335 95.9039 58.6192C95.956 58.6573 96.0191 58.6778 96.0839 58.6778C96.1486 58.6778 96.2116 58.6573 96.2638 58.6192C96.1704 58.639 96.0728 58.6219 95.9918 58.5715Z" fill="#757575"/>
<path d="M95.9118 57.1651C96.1474 57.3259 96.3423 57.5387 96.481 57.7869C96.6198 58.0351 96.6988 58.3119 96.7117 58.5955C96.7117 59.12 96.3357 59.3266 95.9118 59.0644C95.6759 58.9058 95.4807 58.6945 95.3418 58.4475C95.2029 58.2005 95.1242 57.9246 95.1119 57.6419C95.0799 57.1175 95.4239 56.9029 95.9118 57.1651ZM95.9118 58.7545C96.2158 58.9293 96.4637 58.7545 96.4717 58.4366C96.4607 58.244 96.4043 58.0566 96.3071 57.8896C96.2098 57.7225 96.0744 57.5806 95.9118 57.4751C95.5998 57.3002 95.3519 57.4751 95.3519 57.7929C95.361 57.986 95.4166 58.1741 95.514 58.3414C95.6114 58.5088 95.7478 58.6504 95.9118 58.7545Z" fill="#5C5C5C"/>
<path d="M97.0237 57.7214C96.9439 57.539 96.8359 57.3701 96.7038 57.2207C96.6018 57.1006 96.4801 56.9985 96.3438 56.9188C96.2592 56.8579 96.1602 56.82 96.0563 56.8089C95.9525 56.7977 95.8476 56.8137 95.7519 56.8552L95.312 57.1095C95.407 57.0669 95.5116 57.0496 95.6153 57.0593C95.7191 57.0691 95.8186 57.1055 95.9039 57.1651C96.0411 57.25 96.1651 57.3544 96.2718 57.475C96.404 57.6244 96.5119 57.7933 96.5918 57.9756C96.6803 58.1709 96.7292 58.3815 96.7358 58.5955C96.746 58.697 96.7284 58.7994 96.6847 58.8918C96.641 58.9841 96.573 59.063 96.4878 59.12L96.9277 58.8736C97.0121 58.8144 97.0789 58.7337 97.1211 58.6401C97.1633 58.5464 97.1794 58.4432 97.1677 58.3412C97.165 58.1267 97.1159 57.9153 97.0237 57.7214Z" fill="#5C5C5C"/>
<path d="M96.1197 58.0313C96.0997 57.9875 96.0727 57.9473 96.0397 57.9121C96.0144 57.8815 95.9848 57.8548 95.9518 57.8326C95.9302 57.8192 95.9052 57.8121 95.8798 57.8121C95.8543 57.8121 95.8294 57.8192 95.8078 57.8326H95.7438C95.7654 57.8192 95.7903 57.8121 95.8158 57.8121C95.8412 57.8121 95.8662 57.8192 95.8877 57.8326C95.9223 57.8494 95.9524 57.8739 95.9757 57.9041C96.0097 57.9415 96.0368 57.9846 96.0557 58.0313C96.067 58.0783 96.067 58.1273 96.0557 58.1743C96.0595 58.1998 96.0563 58.2257 96.0464 58.2495C96.0366 58.2733 96.0204 58.294 95.9997 58.3094L96.0637 58.2697C96.0826 58.2545 96.0975 58.235 96.1073 58.2129C96.117 58.1908 96.1213 58.1666 96.1197 58.1425C96.1258 58.1057 96.1258 58.0681 96.1197 58.0313Z" fill="#757575"/>
<path d="M95.8877 57.8723C95.7757 57.8087 95.6877 57.8723 95.6877 57.9836C95.6911 58.0533 95.711 58.1214 95.7457 58.1821C95.7805 58.2429 95.8291 58.2946 95.8877 58.3332C95.9997 58.3968 96.0877 58.3332 96.0877 58.214C96.0844 58.1453 96.0645 58.0784 96.0297 58.0189C95.9949 57.9595 95.9462 57.9092 95.8877 57.8723Z" fill="#808080"/>
<path d="M96.3919 55.2182L95.888 58.4604C95.8921 58.5072 95.8831 58.5544 95.862 58.5964C95.8408 58.6385 95.8082 58.674 95.768 58.6988L96.2239 58.4365C96.2645 58.4096 96.2976 58.3729 96.32 58.3298C96.3424 58.2867 96.3534 58.2387 96.3519 58.1902L96.8478 54.9559L96.3919 55.2182Z" fill="#808080"/>
<path d="M95.7359 54.3202L95.28 54.5824L96.3918 55.2182L96.8477 54.9559L95.7359 54.3202Z" fill="#ACACAC"/>
<path d="M95.28 54.5825L95.04 58.4287L95.464 58.675C95.6879 58.8022 95.8799 58.675 95.8879 58.4605L96.3918 55.2182L95.28 54.5825Z" fill="#5C5C5C"/>
<path d="M94.8401 58.0632C94.5202 57.8804 94.2642 58.0632 94.2642 58.3969C94.2758 58.5956 94.334 58.7888 94.4339 58.9612C94.5339 59.1337 94.673 59.2806 94.8401 59.3902C95.1601 59.573 95.416 59.3902 95.416 59.0565C95.4076 58.8571 95.3509 58.6627 95.2506 58.4897C95.1504 58.3168 95.0095 58.1705 94.8401 58.0632Z" fill="#808080"/>
<path d="M94.84 58.2141C94.8017 58.1886 94.7585 58.1712 94.7131 58.163C94.6676 58.1548 94.621 58.156 94.5761 58.1665C94.5434 58.2001 94.5181 58.24 94.5016 58.2837C94.4851 58.3275 94.4778 58.3741 94.4801 58.4207C94.4835 58.5795 94.5262 58.735 94.6043 58.8736C94.6824 59.0121 94.7936 59.1295 94.928 59.2154C94.9674 59.2421 95.0117 59.2608 95.0584 59.2703C95.1051 59.2799 95.1532 59.2801 95.2 59.271C95.2308 59.2365 95.2545 59.1963 95.2696 59.1526C95.2847 59.109 95.2909 59.0628 95.288 59.0167C95.2851 58.8567 95.2428 58.6999 95.1647 58.56C95.0866 58.42 94.9751 58.3013 94.84 58.2141Z" fill="#5C5C5C"/>
<path d="M94.9279 59.1835C94.7935 59.0976 94.6823 58.9802 94.6042 58.8417C94.5261 58.7031 94.4834 58.5476 94.48 58.3888C94.4766 58.3427 94.4826 58.2964 94.4977 58.2527C94.5129 58.209 94.5368 58.1688 94.568 58.1345C94.5092 58.1585 94.4601 58.2011 94.4283 58.2558C94.3965 58.3104 94.3837 58.3739 94.392 58.4365C94.3961 58.5951 94.4391 58.7504 94.5171 58.8888C94.5951 59.0273 94.7059 59.1448 94.8399 59.2312C94.8926 59.2681 94.9554 59.2879 95.0199 59.2879C95.0844 59.2879 95.1472 59.2681 95.1999 59.2312C95.1536 59.2414 95.1058 59.2424 95.0591 59.2343C95.0124 59.2261 94.9679 59.2088 94.9279 59.1835Z" fill="#757575"/>
<path d="M94.848 57.7771C95.0841 57.9374 95.2792 58.1501 95.4181 58.3984C95.5569 58.6467 95.6356 58.9237 95.6479 59.2075C95.6479 59.7319 95.272 59.9385 94.848 59.6763C94.6126 59.5173 94.4177 59.3059 94.2789 59.059C94.14 58.8121 94.061 58.5364 94.0481 58.2539C94.0161 57.7294 94.3841 57.5148 94.848 57.7771ZM94.848 59.3664C95.16 59.5412 95.4079 59.3664 95.4079 59.0485C95.3972 58.8578 95.3417 58.6722 95.2459 58.5067C95.1501 58.3411 95.0165 58.2001 94.856 58.0949C94.5441 57.9122 94.2961 58.0552 94.2961 58.4049C94.3036 58.5974 94.3577 58.7853 94.4538 58.9526C94.5499 59.12 94.6851 59.2619 94.848 59.3664Z" fill="#222221"/>
<path d="M95.9678 58.3333C95.8879 58.1509 95.78 57.982 95.6478 57.8327C95.5448 57.7105 95.4201 57.6081 95.2799 57.5307C95.1956 57.4688 95.096 57.4309 94.9917 57.4211C94.8874 57.4113 94.7824 57.43 94.688 57.4751L94.256 57.7214C94.3511 57.6788 94.4556 57.6615 94.5594 57.6712C94.6632 57.681 94.7627 57.7175 94.8479 57.777C94.9828 57.8619 95.1042 57.9664 95.2079 58.0869C95.3401 58.2363 95.448 58.4052 95.5278 58.5876C95.6201 58.7815 95.6692 58.9929 95.6718 59.2074C95.6838 59.3083 95.6678 59.4105 95.6255 59.5029C95.5832 59.5954 95.5162 59.6746 95.4319 59.7319L95.8638 59.4855C95.949 59.4267 96.0169 59.3463 96.0605 59.2528C96.1041 59.1592 96.1218 59.0558 96.1117 58.9531C96.1052 58.7391 96.0563 58.5285 95.9678 58.3333Z" fill="#222221"/>
<path d="M95.0481 58.6431C95.0337 58.5983 95.0091 58.5575 94.9761 58.5239L94.8881 58.4444C94.8665 58.431 94.8415 58.424 94.8161 58.424C94.7906 58.424 94.7657 58.431 94.7441 58.4444H94.6801C94.7017 58.431 94.7266 58.424 94.7521 58.424C94.7776 58.424 94.8025 58.431 94.8241 58.4444C94.8586 58.4612 94.8887 58.4857 94.9121 58.5159C94.9433 58.5553 94.9702 58.5979 94.9921 58.6431C95.0004 58.6931 95.0004 58.7441 94.9921 58.7941C94.993 58.8181 94.9885 58.842 94.9788 58.864C94.9691 58.8861 94.9545 58.9056 94.9361 58.9212L94.9921 58.8815C95.0143 58.869 95.0322 58.8503 95.0436 58.8276C95.055 58.805 95.0594 58.7795 95.0561 58.7543C95.0593 58.7171 95.0566 58.6795 95.0481 58.6431Z" fill="#757575"/>
<path d="M94.8241 58.4842C94.7121 58.4207 94.6241 58.4842 94.6241 58.5955C94.6255 58.6657 94.6445 58.7345 94.6794 58.7956C94.7143 58.8566 94.7641 58.908 94.8241 58.9451C94.9361 59.0087 95.0241 58.9451 95.0241 58.8339C95.022 58.7638 95.0028 58.6953 94.9679 58.6344C94.933 58.5734 94.8837 58.5219 94.8241 58.4842Z" fill="#808080"/>
<path d="M97.8235 58.532C97.5035 58.3492 97.2476 58.532 97.2396 58.8578C97.2515 59.0573 97.3105 59.2512 97.412 59.4238C97.5134 59.5964 97.6544 59.7428 97.8235 59.8511C98.1354 60.0339 98.3994 59.8511 98.3994 59.5173C98.3878 59.3198 98.3296 59.1277 98.2296 58.9565C98.1296 58.7853 97.9905 58.6399 97.8235 58.532Z" fill="#808080"/>
<path d="M97.8235 58.675C97.795 58.6295 97.7497 58.5968 97.6974 58.5838C97.6451 58.5708 97.5897 58.5785 97.543 58.6053C97.4962 58.6322 97.4618 58.676 97.447 58.7275C97.4322 58.7791 97.4381 58.8343 97.4635 58.8816C97.4677 59.0402 97.5106 59.1955 97.5887 59.3339C97.6667 59.4724 97.7775 59.5899 97.9115 59.6762C97.9498 59.7018 97.993 59.7192 98.0385 59.7274C98.0839 59.7356 98.1305 59.7344 98.1754 59.7239C98.2399 59.655 98.2743 59.5636 98.2714 59.4696C98.2673 59.311 98.2244 59.1558 98.1463 59.0173C98.0683 58.8789 97.9575 58.7614 97.8235 58.675Z" fill="#5C5C5C"/>
<path d="M97.8716 59.6522C97.7376 59.5658 97.6268 59.4483 97.5487 59.3099C97.4707 59.1714 97.4278 59.0162 97.4236 58.8576C97.4207 58.8115 97.4269 58.7653 97.442 58.7217C97.4571 58.678 97.4808 58.6378 97.5116 58.6033C97.4537 58.6283 97.4053 58.6712 97.3737 58.7255C97.342 58.7799 97.3287 58.8428 97.3357 58.9052C97.3398 59.0639 97.3827 59.2191 97.4608 59.3576C97.5388 59.496 97.6496 59.6135 97.7836 59.6999C97.834 59.7386 97.8959 59.7595 97.9596 59.7595C98.0233 59.7595 98.0851 59.7386 98.1355 59.6999C98.0906 59.7104 98.044 59.7116 97.9986 59.7034C97.9531 59.6952 97.9099 59.6778 97.8716 59.6522Z" fill="#757575"/>
<path d="M97.8236 58.2459C98.0599 58.404 98.2554 58.6151 98.3944 58.8623C98.5333 59.1094 98.6118 59.3855 98.6234 59.6683C98.6234 60.1928 98.2475 60.3994 97.8236 60.1372C97.5873 59.979 97.3917 59.7679 97.2528 59.5208C97.1138 59.2737 97.0353 58.9975 97.0237 58.7147C96.9517 58.1743 97.3276 57.9757 97.8236 58.2459ZM97.8236 59.8352C98.1275 60.01 98.3835 59.8352 98.3835 59.5173C98.3732 59.3256 98.317 59.1391 98.2196 58.9733C98.1222 58.8074 97.9865 58.667 97.8236 58.5637C97.5196 58.381 97.2636 58.5637 97.2636 58.8816C97.274 59.0733 97.3302 59.2598 97.4275 59.4257C97.5249 59.5915 97.6607 59.7319 97.8236 59.8352Z" fill="#222221"/>
<path d="M98.9034 58.7942C98.8228 58.6123 98.7149 58.4435 98.5835 58.2936C98.4811 58.1739 98.3594 58.0718 98.2235 57.9916C98.1393 57.9297 98.0396 57.8919 97.9353 57.8821C97.831 57.8723 97.726 57.8909 97.6316 57.936L97.1917 58.1823C97.287 58.1392 97.3922 58.1224 97.4964 58.1336C97.6005 58.1447 97.6997 58.1835 97.7836 58.2459C97.9238 58.3234 98.0485 58.4257 98.1515 58.5479C98.2837 58.6972 98.3916 58.8662 98.4715 59.0485C98.56 59.2437 98.6089 59.4544 98.6154 59.6684C98.6255 59.7702 98.6087 59.8728 98.5666 59.9662C98.5245 60.0596 98.4586 60.1404 98.3755 60.2008L98.8074 59.9465C98.8918 59.8873 98.9586 59.8066 99.0008 59.7129C99.043 59.6193 99.0591 59.516 99.0474 59.4141C99.0485 59.1991 98.9992 58.9869 98.9034 58.7942Z" fill="#222221"/>
<path d="M97.9917 59.1041C97.9726 59.0598 97.9455 59.0194 97.9117 58.9849C97.8883 58.9546 97.8582 58.9301 97.8237 58.9134C97.8029 58.8979 97.7777 58.8895 97.7517 58.8895C97.7257 58.8895 97.7005 58.8979 97.6797 58.9134H97.6237C97.646 58.9022 97.6707 58.8964 97.6957 58.8964C97.7207 58.8964 97.7454 58.9022 97.7677 58.9134L97.8557 58.9849C97.8843 59.0245 97.9085 59.0671 97.9277 59.112C97.952 59.1588 97.9657 59.2104 97.9677 59.263C97.9699 59.288 97.9652 59.3132 97.9539 59.3356C97.9426 59.3581 97.9252 59.377 97.9037 59.3902H97.9677C98.0077 59.3902 98.0237 59.3266 98.0237 59.263C98.026 59.2083 98.015 59.1537 97.9917 59.1041Z" fill="#757575"/>
<path d="M97.7676 58.969C97.7475 58.9523 97.7228 58.9422 97.6967 58.94C97.6706 58.9378 97.6445 58.9436 97.6219 58.9566C97.5992 58.9696 97.5811 58.9891 97.57 59.0127C97.5589 59.0362 97.5553 59.0625 97.5597 59.0881C97.563 59.1569 97.5829 59.2238 97.6177 59.2832C97.6525 59.3427 97.7012 59.393 97.7597 59.4299C97.8716 59.4934 97.9676 59.4299 97.9676 59.3186C97.9625 59.2492 97.9419 59.1819 97.9073 59.1214C97.8727 59.0609 97.825 59.0089 97.7676 58.969Z" fill="#808080"/>
<path d="M98.2633 56.291L97.7674 59.5333C97.7674 59.5815 97.7558 59.629 97.7335 59.6719C97.7113 59.7147 97.679 59.7517 97.6394 59.7796L98.1033 59.5094C98.1413 59.4823 98.1721 59.4465 98.193 59.4049C98.2139 59.3634 98.2243 59.3174 98.2233 59.271L98.7272 56.0288L98.2633 56.291Z" fill="#808080"/>
<path d="M97.6075 55.3931L97.1516 55.6553L98.2634 56.299L98.7193 56.0288L97.6075 55.3931Z" fill="#ACACAC"/>
<path d="M97.1516 55.6553L96.9196 59.5094L97.3356 59.7478C97.5595 59.8749 97.7515 59.7478 97.7675 59.5332L98.2634 56.291L97.1516 55.6553Z" fill="#5C5C5C"/>
<path d="M96.7198 59.1439C96.3998 58.9611 96.1359 59.1042 96.1359 59.4697C96.1462 59.6687 96.2038 59.8624 96.3039 60.035C96.404 60.2076 96.5437 60.3543 96.7118 60.4631C97.0317 60.6458 97.2877 60.4631 97.2957 60.1293C97.2828 59.932 97.2242 59.7404 97.1242 59.5694C97.0243 59.3984 96.8859 59.2528 96.7198 59.1439Z" fill="#808080"/>
<path d="M96.7197 59.2868C96.6869 59.2499 96.6424 59.2253 96.5936 59.2171C96.5447 59.2089 96.4945 59.2177 96.4514 59.2419C96.4082 59.2661 96.3748 59.3043 96.3567 59.3501C96.3385 59.3959 96.3368 59.4465 96.3518 59.4935C96.3559 59.6521 96.3988 59.8073 96.4769 59.9458C96.5549 60.0842 96.6657 60.2017 96.7997 60.2881C96.8282 60.3336 96.8734 60.3663 96.9258 60.3793C96.9781 60.3923 97.0335 60.3846 97.0802 60.3577C97.127 60.3309 97.1614 60.2871 97.1762 60.2356C97.191 60.184 97.1851 60.1288 97.1596 60.0815C97.1551 59.9239 97.1128 59.7696 97.0363 59.6314C96.9598 59.4932 96.8513 59.3751 96.7197 59.2868Z" fill="#5C5C5C"/>
<path d="M96.7998 60.2643C96.6658 60.1779 96.555 60.0604 96.477 59.922C96.3989 59.7835 96.356 59.6283 96.3519 59.4696C96.349 59.3756 96.3834 59.2843 96.4479 59.2153C96.3876 59.238 96.3367 59.28 96.3034 59.3348C96.27 59.3895 96.2561 59.4538 96.2639 59.5173C96.268 59.6759 96.311 59.8312 96.389 59.9696C96.467 60.1081 96.5778 60.2256 96.7118 60.312C96.7629 60.3526 96.8264 60.3747 96.8918 60.3747C96.9572 60.3747 97.0207 60.3526 97.0718 60.312C97.0255 60.3226 96.9776 60.3239 96.9309 60.3157C96.8841 60.3075 96.8396 60.29 96.7998 60.2643Z" fill="#757575"/>
<path d="M96.7197 58.8578C96.9564 59.0154 97.1523 59.2265 97.2914 59.4737C97.4304 59.7209 97.5086 59.9972 97.5196 60.2802C97.5196 60.8047 97.1516 61.0192 96.7197 60.7491C96.4829 60.5914 96.2871 60.3804 96.148 60.1331C96.009 59.8859 95.9308 59.6096 95.9198 59.3266C95.8878 58.8021 96.2638 58.5876 96.7197 58.8578ZM96.7197 60.4471C97.0316 60.6219 97.2796 60.4868 97.2796 60.1292C97.2708 59.9381 97.2161 59.7518 97.1201 59.5859C97.0241 59.42 96.8896 59.2793 96.7277 59.1756C96.4157 58.9929 96.1678 59.1359 96.1678 59.4935C96.1785 59.6842 96.234 59.8698 96.3298 60.0354C96.4256 60.2009 96.5592 60.342 96.7197 60.4471Z" fill="#222221"/>
<path d="M97.8235 59.4061C97.7399 59.2258 97.6323 59.0574 97.5036 58.9055C97.3984 58.7855 97.2741 58.6835 97.1356 58.6035C97.0526 58.5423 96.9543 58.5048 96.8514 58.495C96.7485 58.4852 96.6449 58.5035 96.5517 58.5479L96.1118 58.7942C96.2071 58.7511 96.3124 58.7343 96.4165 58.7454C96.5206 58.7566 96.6198 58.7954 96.7037 58.8578C96.8414 58.9355 96.9635 59.0379 97.0636 59.1598C97.1983 59.3088 97.3089 59.4777 97.3916 59.6604C97.4815 59.8548 97.5279 60.0663 97.5276 60.2802C97.5393 60.3822 97.5232 60.4854 97.481 60.5791C97.4388 60.6728 97.372 60.7535 97.2876 60.8127L97.7275 60.5584C97.8107 60.498 97.8765 60.4172 97.9186 60.3238C97.9607 60.2304 97.9776 60.1278 97.9675 60.026C97.9609 59.8119 97.912 59.6013 97.8235 59.4061Z" fill="#222221"/>
<path d="M96.9278 59.716C96.9058 59.6733 96.879 59.6333 96.8478 59.5968C96.8244 59.5665 96.7943 59.542 96.7598 59.5252C96.7382 59.5119 96.7132 59.5048 96.6878 59.5048C96.6623 59.5048 96.6374 59.5119 96.6158 59.5252H96.5518C96.5741 59.5141 96.5988 59.5082 96.6238 59.5082C96.6488 59.5082 96.6735 59.5141 96.6958 59.5252C96.7285 59.5446 96.7582 59.5687 96.7838 59.5968C96.8151 59.6361 96.8419 59.6787 96.8638 59.7239C96.8751 59.7736 96.8751 59.8252 96.8638 59.8749C96.8653 59.899 96.8611 59.9231 96.8514 59.9452C96.8416 59.9674 96.8267 59.9868 96.8078 60.002L96.8718 59.9623C96.8918 59.9481 96.9076 59.9288 96.9175 59.9064C96.9273 59.884 96.9309 59.8594 96.9278 59.8352C96.9319 59.7955 96.9319 59.7556 96.9278 59.716Z" fill="#757575"/>
<path d="M96.6956 59.557C96.5837 59.4934 96.4957 59.557 96.4957 59.6761C96.499 59.7449 96.5189 59.8118 96.5537 59.8712C96.5885 59.9307 96.6372 59.981 96.6956 60.0179C96.8076 60.0814 96.8956 60.0178 96.8956 59.9066C96.8922 59.8368 96.8724 59.7688 96.8377 59.7081C96.8029 59.6473 96.7543 59.5956 96.6956 59.557Z" fill="#808080"/>
<path d="M104.926 60.7252L100.239 60.5901L85.3055 52.0316L82.2339 47.1763L101.031 51.0304L104.926 60.7252Z" fill="#A6A6A6"/>
<path d="M67.4923 27.564C72.4678 29.205 77.3015 31.2433 81.946 33.659C82.8179 34.104 104.742 45.714 117.365 52.4686C122.124 55.0194 126.547 57.4431 127.035 57.761C128.056 58.4128 129.01 59.1635 129.883 60.0019C131.311 61.4194 132.368 63.1628 132.962 65.0798C134.566 66.4415 135.595 68.354 135.842 70.4358C135.883 70.9605 135.756 71.4847 135.479 71.9331C135.201 72.3814 134.788 72.7309 134.298 72.931C131.098 74.266 125.691 72.9946 121.124 70.3722C105.742 61.5515 81.3301 47.3272 75.531 43.9737C66.2284 38.6415 62.293 30.0195 62.637 28.1521C62.9649 26.4753 65.4046 26.9203 67.4923 27.564Z" fill="url(#paint0_linear_148_13741)"/>
<path d="M135.618 69.2995C135.618 70.6981 133.594 71.6834 129.499 70.8888C124.659 69.9431 100.703 56.6326 83.8577 46.5882C81.0974 45.002 78.6103 42.9872 76.4908 40.6203C75.636 39.6875 75.16 38.4727 75.155 37.2112C75.251 34.4617 77.6107 32.0618 80.5942 32.9677C76.3722 30.8322 71.9922 29.0204 67.4922 27.5482C65.4045 26.9045 62.9009 26.4198 62.589 28.0965C62.349 29.4315 64.0608 33.0154 66.3964 36.0431C68.4636 38.8357 71.0447 41.214 74.0032 43.0519C77.4667 45.3088 82.5619 48.0265 91.0726 52.9772C93.7522 54.5665 97.1436 57.3319 104.151 60.6695C105.614 61.5118 117.508 68.3936 121.036 70.412C125.603 73.0344 131.138 74.3376 134.338 73.0105C134.824 72.7914 135.229 72.4272 135.497 71.9686C135.765 71.51 135.883 70.9798 135.834 70.4517C135.79 70.0629 135.718 69.6778 135.618 69.2995Z" fill="url(#paint1_linear_148_13741)"/>
<g style="mix-blend-mode:screen" opacity="0.45">
<path d="M126.187 57.7611C124.819 56.8711 116.485 52.1985 110.558 49.0199C109.862 49.3139 109.198 49.6715 108.51 49.9814C114.309 53.1601 123.132 58.0869 124.411 58.8975C127.883 61.1146 128.819 62.2351 130.123 62.1874C131.13 62.1476 130.091 60.304 126.187 57.7611Z" fill="white"/>
</g>
<g style="mix-blend-mode:screen" opacity="0.45">
<path d="M106.478 52.286C107.015 52.7768 107.579 53.2384 108.166 53.6687C106.547 53.7965 104.96 54.1801 103.463 54.8051C112.445 59.9862 121.372 65.0879 122.54 64.6827C126.291 63.3794 115.805 57.2765 106.478 52.286Z" fill="#F0F0F0"/>
</g>
<g style="mix-blend-mode:multiply" opacity="0.3">
<path d="M123.556 56.1638C123.843 56.1662 124.129 56.2117 124.403 56.2989L124.004 56.0764C123.855 56.0518 123.706 56.0359 123.556 56.0287C121.268 56.0287 118.404 58.214 116.749 61.0907C116.537 61.4527 116.348 61.8268 116.181 62.2112C115.736 63.1838 115.492 64.2347 115.461 65.3024C105.966 59.851 94.0641 52.9216 86.0894 48.2729L78.0906 43.6241C78.1383 42.7181 78.3553 41.8289 78.7305 41.0018C80.0583 37.9582 83.0018 35.4789 85.2895 35.4789H85.4255L85.1615 35.3438C82.8419 35.4312 79.9223 37.8947 78.6025 40.9064C78.2263 41.7228 78.004 42.6009 77.9466 43.497L74.7471 41.6534C71.3745 39.7522 68.2615 37.4287 65.4846 34.7399C65.6285 34.9465 65.7885 35.161 65.9405 35.3677C68.5898 37.8404 71.5245 39.993 74.6831 41.7805L77.9466 43.6639C77.9086 44.374 78.1114 45.0763 78.5225 45.6585L78.9385 45.8969C78.648 45.6225 78.4215 45.2882 78.275 44.9175C78.1285 44.5468 78.0656 44.1487 78.0906 43.7513L86.0014 48.3524C94.0001 53.017 105.942 59.9702 115.453 65.4216C115.448 66.1554 115.681 66.8713 116.117 67.4639L116.501 67.6864C115.365 66.693 115.261 64.5952 116.293 62.2271C117.772 58.9054 121.02 56.1638 123.556 56.1638Z" fill="#BFBFBF"/>
</g>
<path d="M82.138 1.75373L69.092 13.2763V13.8087L82.13 2.29409C82.1613 2.26906 82.1867 2.23766 82.2046 2.20202C82.2226 2.16637 82.2326 2.12731 82.234 2.08748V1.54712C82.2326 1.58617 82.2234 1.62454 82.2069 1.66002C82.1905 1.69549 82.167 1.72735 82.138 1.75373Z" fill="#D8D8D8"/>
<path d="M69.092 13.2523L69.084 13.7927L63.4289 10.5426L63.4369 10.0101L69.092 13.2523Z" fill="#747474"/>
<path d="M82.05 1.26086C82.266 1.388 82.298 1.58667 82.138 1.7297L69.092 13.2522L63.4289 10.01L79.0585 0.11655C79.2038 0.0400127 79.3659 0 79.5304 0C79.6949 0 79.857 0.0400127 80.0023 0.11655L82.05 1.26086Z" fill="white"/>
<path d="M71.4836 27.437L72.4915 26.8569L75.891 32.3877L74.8911 32.9678L71.4836 27.437Z" fill="white"/>
<path d="M67.6762 14.4918L68.6841 13.9117L72.4915 26.8567L71.4836 27.4368L67.6762 14.4918Z" fill="#D8D8D8"/>
<path d="M62.173 11.3372L63.1809 10.7571L68.684 13.9119L67.6762 14.492L62.173 11.3372Z" fill="#B8B8B8"/>
<path d="M71.4836 27.429L67.6762 14.4682L62.173 11.2896L63.1889 27.2622C67.2703 28.7545 71.1907 30.65 74.8911 32.9201L71.4836 27.429Z" fill="#BFBFBF"/>
<g style="mix-blend-mode:multiply" opacity="0.4">
<path d="M68.852 18.4415L67.6762 14.4682L62.173 11.2896L62.8369 21.6757C64.745 20.4285 66.7574 19.3464 68.852 18.4415Z" fill="#BFBFBF"/>
</g>
<path d="M61.1172 9.08828C61.0385 9.08248 60.96 9.10198 60.8932 9.14392C60.7766 9.22105 60.6801 9.32474 60.612 9.44637C60.5438 9.56801 60.5058 9.70406 60.5013 9.84321C60.4977 9.91739 60.5203 9.9905 60.5653 10.0498L61.9731 11.6948C61.8651 11.5567 61.8111 11.3845 61.8211 11.21C61.8404 10.8925 61.9335 10.5837 62.0931 10.308C62.2527 10.0322 62.4744 9.79698 62.7409 9.6207C62.8944 9.52024 63.078 9.47535 63.2609 9.49357L61.1172 9.08828Z" fill="#BFBFBF"/>
<path d="M63.4289 9.51734C63.3203 9.47004 63.2012 9.45175 63.0834 9.46429C62.9655 9.47684 62.853 9.51978 62.757 9.58886C62.4905 9.76514 62.2687 10.0004 62.1091 10.2761C61.9495 10.5519 61.8564 10.8607 61.8371 11.1782C61.8244 11.2915 61.8431 11.4061 61.891 11.5097C61.9389 11.6133 62.0143 11.702 62.1091 11.7662L68.0042 15.1276C67.9098 15.0626 67.8342 14.974 67.7851 14.8708C67.7359 14.7676 67.7149 14.6534 67.7242 14.5396C67.7453 14.2225 67.8391 13.9144 67.9986 13.6389C68.158 13.3634 68.3788 13.1279 68.6441 12.9503C68.7416 12.8812 68.8555 12.8384 68.9746 12.8258C69.0937 12.8133 69.214 12.8315 69.324 12.8787L63.4289 9.51734Z" fill="url(#paint2_linear_148_13741)"/>
<path d="M69.404 12.9503C69.2918 12.8572 69.1502 12.8062 69.004 12.8062C68.8578 12.8062 68.7163 12.8572 68.6041 12.9503C68.3388 13.1279 68.118 13.3634 67.9586 13.6389C67.7992 13.9144 67.7053 14.2225 67.6842 14.5396C67.6685 14.6738 67.6986 14.8094 67.7697 14.9247C67.8407 15.0399 67.9487 15.1282 68.0762 15.1753L69.476 15.5488C69.3857 15.5144 69.3093 15.4513 69.2587 15.3694C69.2081 15.2876 69.1861 15.1914 69.196 15.0958C69.2067 14.8641 69.2724 14.6382 69.3878 14.4366C69.5032 14.2349 69.6649 14.0633 69.8599 13.9356C69.9374 13.8717 70.0351 13.8366 70.1358 13.8366C70.2366 13.8366 70.3343 13.8717 70.4118 13.9356L69.404 12.9503Z" fill="url(#paint3_linear_148_13741)"/>
<path d="M69.8839 13.9674C69.6889 14.0951 69.5271 14.2667 69.4118 14.4684C69.2964 14.67 69.2307 14.8959 69.22 15.1276C69.22 15.5488 69.5319 15.7157 69.9079 15.4932C70.1018 15.3651 70.2623 15.1932 70.3764 14.9915C70.4904 14.7898 70.5546 14.5641 70.5638 14.333C70.5558 13.9118 70.2518 13.7449 69.8839 13.9674Z" fill="#D8D8D8"/>
<path d="M69.8839 14.1582C69.7406 14.2552 69.6219 14.3839 69.5373 14.5343C69.4526 14.6846 69.4042 14.8523 69.3959 15.0244C69.3959 15.3423 69.6279 15.4615 69.8998 15.3025C70.045 15.2069 70.1656 15.0786 70.2517 14.9282C70.3379 14.7777 70.3872 14.6092 70.3958 14.4364C70.3878 14.1264 70.1638 13.9993 69.8839 14.1582Z" fill="#5C5C5C"/>
<path d="M47.5033 21.6597C47.2406 21.748 46.9536 21.7309 46.7035 21.612L44.6718 20.4439C44.6194 20.4187 44.5743 20.3807 44.5407 20.3334C44.5071 20.2861 44.4862 20.2312 44.4798 20.1737V20.7141C44.4852 20.7709 44.5058 20.8252 44.5396 20.8713C44.5734 20.9175 44.619 20.9537 44.6718 20.9763L46.7035 22.1445C46.8264 22.2063 46.9608 22.2425 47.0984 22.2507C47.236 22.2589 47.3738 22.2389 47.5033 22.1921L67.5002 14.6429V14.1105L47.5033 21.6597Z" fill="#D8D8D8"/>
<path d="M67.4763 14.1106L47.4794 21.6599C47.2167 21.7481 46.9297 21.731 46.6795 21.6122L44.6478 20.444C44.3838 20.293 44.3918 20.0388 44.6478 19.8957L61.8291 10.8684L67.4763 14.1106Z" fill="white"/>
<path d="M132.962 65.0877C132.754 64.4645 132.503 63.8564 132.21 63.2679C132.386 64.9685 129.243 66.0254 126.403 65.4691L126.171 67.2174C131.146 67.7975 132.85 66.0651 132.962 65.0877Z" fill="#262626"/>
<path d="M133.962 29.4554C131.154 28.3429 128.267 30.9335 128.819 32.8565C129.403 33.4843 135.498 37.1397 136.817 37.4179L139.697 32.8168C139.697 32.8168 140.017 32.2526 133.962 29.4554Z" fill="url(#paint4_linear_148_13741)"/>
<path style="mix-blend-mode:screen" d="M136.169 30.5679C136.209 30.6156 136.897 32.0618 136.585 32.0142C134.754 31.744 132.426 33.3174 132.322 34.1518C133.794 34.9464 135.85 35.9954 136.169 36.1225L139.553 33.0154C139.578 32.991 139.598 32.962 139.611 32.9299C139.625 32.8978 139.632 32.8634 139.632 32.8287C139.632 32.7939 139.625 32.7595 139.611 32.7275C139.598 32.6954 139.578 32.6663 139.553 32.6419C138.508 31.8258 137.373 31.13 136.169 30.5679Z" fill="url(#paint5_linear_148_13741)"/>
<path d="M138.033 32.6341C137.456 33.0088 136.975 33.5135 136.631 34.1071C136.286 34.7008 136.087 35.3668 136.05 36.0511C136.05 37.3067 136.937 37.8152 138.033 37.1875C138.612 36.8137 139.093 36.3092 139.438 35.7154C139.783 35.1215 139.981 34.455 140.017 33.7704C140.017 32.5149 139.129 32.0063 138.033 32.6341Z" fill="#D8D8D8"/>
<path d="M138.033 32.8804C137.519 33.2146 137.091 33.6641 136.784 34.1928C136.477 34.7215 136.3 35.3145 136.266 35.9239C136.266 37.0444 137.066 37.5132 138.033 36.9411C138.548 36.6069 138.975 36.1574 139.283 35.6287C139.59 35.1 139.767 34.507 139.801 33.8976C139.801 32.7453 139.009 32.3241 138.033 32.8804Z" fill="#222221"/>
<path d="M135.17 29.7257L135.586 29.4873L137.001 31.7759L136.578 32.0223L135.17 29.7257Z" fill="#F6F6F6"/>
<path d="M134.338 26.8966L135.138 29.7176L135.554 29.4792L134.866 27.1429L134.338 26.8966Z" fill="#D8D8D8"/>
<path d="M134.338 26.8967C133.394 26.4755 132.442 26.102 131.482 25.7206L131.194 29.5906C131.194 29.5906 134.49 31.1799 136.585 32.0143L135.17 29.7177L134.338 26.8967Z" fill="#BFBFBF"/>
<path d="M124.883 37.6244C122.076 36.5119 119.188 39.1104 119.74 41.0334C120.332 41.6612 126.419 45.3167 127.739 45.5868L130.618 40.9858C130.618 40.9858 130.938 40.4295 124.883 37.6244Z" fill="url(#paint6_linear_148_13741)"/>
<path style="mix-blend-mode:screen" d="M127.091 38.7449C127.139 38.7926 127.827 40.2388 127.507 40.1911C125.675 39.921 123.348 41.4864 123.244 42.3208C124.723 43.1155 126.771 44.1724 127.099 44.2916L130.474 41.1845C130.499 41.1608 130.519 41.1324 130.532 41.101C130.546 41.0696 130.552 41.0358 130.552 41.0017C130.552 40.9676 130.546 40.9338 130.532 40.9024C130.519 40.871 130.499 40.8426 130.474 40.8189C129.429 40.0028 128.294 39.307 127.091 38.7449Z" fill="url(#paint7_linear_148_13741)"/>
<path d="M128.955 40.8111C128.378 41.1863 127.897 41.691 127.553 42.2846C127.208 42.8782 127.009 43.5439 126.971 44.2281C126.971 45.4837 127.867 45.9922 128.955 45.3645C129.532 44.9897 130.013 44.4851 130.357 43.8914C130.702 43.2977 130.901 42.6318 130.938 41.9474C130.938 40.6919 130.051 40.1833 128.955 40.8111Z" fill="#D8D8D8"/>
<path d="M128.955 41.0574C128.442 41.3919 128.015 41.8418 127.709 42.3705C127.404 42.8992 127.227 43.492 127.195 44.1009C127.195 45.2214 127.995 45.6902 128.955 45.1101C129.471 44.7796 129.9 44.3319 130.207 43.8041C130.515 43.2763 130.691 42.6835 130.723 42.0745C130.723 40.9541 129.939 40.5011 128.955 41.0574Z" fill="#222221"/>
<path d="M126.091 37.8948L126.507 37.6564L127.923 39.9529L127.507 40.1913L126.091 37.8948Z" fill="#F6F6F6"/>
<path d="M125.267 35.0658L126.067 37.8948L126.491 37.6564L125.803 35.3201L125.267 35.0658Z" fill="#D8D8D8"/>
<path d="M125.267 35.0657C124.324 34.6525 123.364 34.2711 122.404 33.8976L122.116 37.7676C122.116 37.7676 125.411 39.3569 127.507 40.1913L126.091 37.8947L125.267 35.0657Z" fill="#BFBFBF"/>
<path d="M152.863 11.2896L111.333 48.8212V49.5126L152.863 11.9809C152.903 11.9493 152.936 11.9096 152.96 11.8644C152.983 11.8192 152.996 11.7695 152.999 11.7187V11.0273C152.998 11.0784 152.985 11.1284 152.961 11.1738C152.937 11.2192 152.904 11.2587 152.863 11.2896Z" fill="#D8D8D8"/>
<path d="M111.334 48.8451V49.5364L96.6638 41.129L96.6718 40.4376L111.334 48.8451Z" fill="#747474"/>
<path d="M152.751 10.7095C153.031 10.8684 153.079 11.1227 152.863 11.3134L111.334 48.8451L96.6719 40.4297L147.232 8.26195C147.42 8.16179 147.63 8.10938 147.844 8.10938C148.057 8.10938 148.268 8.16179 148.456 8.26195L152.751 10.7095Z" fill="white"/>
<path d="M152.751 10.7094L152.311 10.4551L107.278 46.5166L111.333 48.845L152.863 11.2895C153.079 11.1226 153.015 10.8683 152.751 10.7094Z" fill="white"/>
<path d="M111.357 48.098C110.293 46.8451 109.032 45.7717 107.622 44.9194L103.663 42.6546C100.599 40.9159 97.1114 40.0498 93.5842 40.1515C92.8643 40.1515 90.5606 41.5898 89.3208 42.8374C92.5737 42.9731 95.7375 43.9333 98.5114 45.6267L102.471 47.8914C103.879 48.7462 105.14 49.8193 106.206 51.07C106.93 51.8948 107.596 52.7683 108.198 53.6845C109.798 51.9362 111.677 50.5058 112.949 50.5058C112.478 49.6657 111.946 48.861 111.357 48.098Z" fill="white"/>
<path d="M102.471 47.9153L98.5113 45.6506C95.7374 43.9573 92.5736 42.9971 89.3207 42.8613L108.222 53.6846C106.774 51.3497 104.807 49.3759 102.471 47.9153Z" fill="#BFBFBF"/>
<path d="M85.9774 59.9385C83.1698 58.8259 80.2742 61.4245 80.8342 63.3475C81.4181 63.9753 87.5051 67.6307 88.8329 67.9009L91.7125 63.2999C91.7125 63.2999 92.0324 62.7436 85.9774 59.9385Z" fill="url(#paint8_linear_148_13741)"/>
<path style="mix-blend-mode:screen" d="M88.225 61.0591C88.265 61.1068 88.9529 62.553 88.633 62.5054C86.8013 62.2352 84.4816 63.8006 84.3696 64.635C85.8494 65.4297 87.9051 66.4866 88.225 66.6058L91.6005 63.4987C91.6262 63.4756 91.6468 63.4474 91.6609 63.4159C91.675 63.3844 91.6822 63.3504 91.6822 63.3159C91.6822 63.2815 91.675 63.2474 91.6609 63.2159C91.6468 63.1844 91.6262 63.1562 91.6005 63.1331C90.5551 62.3212 89.4232 61.6257 88.225 61.0591Z" fill="url(#paint9_linear_148_13741)"/>
<path d="M90.0488 63.125C89.4703 63.4988 88.9891 64.0033 88.6443 64.5971C88.2995 65.191 88.1011 65.8575 88.0651 66.5421C88.0651 67.7976 88.9529 68.3062 90.0488 67.6784C90.6263 67.3037 91.1069 66.799 91.4516 66.2054C91.7962 65.6117 91.9952 64.9457 92.0325 64.2614C92.0325 63.0058 91.1446 62.4973 90.0488 63.125Z" fill="#D8D8D8"/>
<path d="M90.0487 63.3714C89.5346 63.7056 89.1067 64.1552 88.7997 64.6838C88.4926 65.2125 88.3149 65.8055 88.281 66.415C88.281 67.5354 89.0809 68.0043 90.0487 67.4242C90.5636 67.0927 90.9922 66.6448 91.2994 66.1172C91.6067 65.5896 91.7838 64.9973 91.8164 64.3886C91.8164 63.2681 91.0246 62.8152 90.0487 63.3714Z" fill="#222221"/>
<path d="M87.1772 60.2086L87.5931 59.9702L89.0089 62.2668L88.593 62.5052L87.1772 60.2086Z" fill="#F6F6F6"/>
<path d="M86.3533 57.3796L87.1532 60.2086L87.5691 59.9702L86.8813 57.6339L86.3533 57.3796Z" fill="#D8D8D8"/>
<path d="M86.3533 57.3796C85.4094 56.9664 84.4496 56.5849 83.4897 56.2114L83.2018 60.0814C83.2018 60.0814 86.5053 61.6707 88.5929 62.4654L87.1852 60.1688L86.3533 57.3796Z" fill="#BFBFBF"/>
<path d="M71.5397 65.0402C68.7321 63.9277 65.8366 66.5262 66.3965 68.4413C66.9804 69.077 73.0674 72.7325 74.3952 73.0027L77.2748 68.4016C77.2748 68.4016 77.5947 67.8453 71.5397 65.0402Z" fill="url(#paint10_linear_148_13741)"/>
<path style="mix-blend-mode:screen" d="M73.7472 66.1208C73.7472 66.1685 74.4751 67.6228 74.1631 67.5751C72.3234 67.3049 70.0038 68.8704 69.8998 69.7047C71.3716 70.4994 73.4272 71.5484 73.7472 71.6755L77.1227 68.5684C77.1484 68.5453 77.169 68.5171 77.183 68.4856C77.1971 68.4541 77.2044 68.4201 77.2044 68.3856C77.2044 68.3512 77.1971 68.3171 77.183 68.2856C77.169 68.2541 77.1484 68.2259 77.1227 68.2028C76.0778 67.3878 74.9459 66.6896 73.7472 66.1208Z" fill="url(#paint11_linear_148_13741)"/>
<path d="M75.6109 68.2267C75.0336 68.5997 74.553 69.1029 74.2083 69.6953C73.8636 70.2877 73.6645 70.9526 73.6273 71.6358C73.6273 72.8993 74.5151 73.4079 75.6109 72.7801C76.1876 72.4044 76.6675 71.8996 77.0121 71.3061C77.3566 70.7126 77.5561 70.0471 77.5947 69.3631C77.5947 68.1075 76.7068 67.5989 75.6109 68.2267Z" fill="#D8D8D8"/>
<path d="M75.6109 68.5049C75.0967 68.839 74.6688 69.2886 74.3618 69.8173C74.0547 70.3459 73.8771 70.9389 73.8431 71.5484C73.8431 72.6689 74.643 73.1377 75.6109 72.5576C76.1257 72.2261 76.5543 71.7783 76.8615 71.2507C77.1688 70.7231 77.346 70.1307 77.3786 69.522C77.3786 68.3698 76.5867 67.9168 75.6109 68.5049Z" fill="#222221"/>
<path d="M72.7394 65.3104L73.1634 65.072L74.5712 67.3686L74.1552 67.607L72.7394 65.3104Z" fill="#F6F6F6"/>
<path d="M71.9156 62.4814L72.7155 65.3104L73.1315 65.072L72.4436 62.7357L71.9156 62.4814Z" fill="#D8D8D8"/>
<path d="M71.9156 62.4814C70.9717 62.0682 70.0118 61.6867 69.052 61.3053L68.772 65.1832C68.772 65.1832 72.0675 66.7725 74.1632 67.6069L72.7474 65.3263L71.9156 62.4814Z" fill="#BFBFBF"/>
<path d="M41.6002 75.5215C41.4304 75.5826 41.2499 75.6086 41.0696 75.5976C40.8894 75.5867 40.7133 75.5391 40.5523 75.4579L36.249 72.9945C36.1826 72.9631 36.1256 72.9151 36.0835 72.8552C36.0414 72.7952 36.0158 72.7255 36.009 72.6528V73.3441C36.018 73.4172 36.0455 73.4869 36.0888 73.5466C36.1322 73.6063 36.19 73.6542 36.257 73.6858L40.5603 76.1492C40.7213 76.2305 40.8974 76.2781 41.0776 76.289C41.2578 76.2999 41.4384 76.274 41.6082 76.2128L106.622 52.2221V51.5308L41.6002 75.5215Z" fill="#D8D8D8"/>
<path d="M91.9284 43.1234C96.7277 43.9181 103.415 47.2874 106.59 51.5309L41.6002 75.5216C41.4305 75.5828 41.2499 75.6087 41.0697 75.5978C40.8894 75.5868 40.7134 75.5393 40.5524 75.458L36.249 72.9946C35.9051 72.7959 35.9291 72.4701 36.249 72.2873L91.9284 43.1234Z" fill="white"/>
<path d="M40.0085 75.1482L40.5524 75.4582C40.7134 75.5394 40.8895 75.587 41.0697 75.5979C41.2499 75.6088 41.4305 75.5829 41.6002 75.5217L106.622 51.531C105.784 50.4452 104.817 49.4634 103.743 48.6067L40.0085 75.1482Z" fill="white"/>
<path opacity="0.4" d="M117.388 29.7732L115.069 28.7242L115.189 28.6527L117.404 29.654L127.763 22.5736L125.971 21.7789L126.099 21.6995L127.907 22.4941C127.913 22.5094 127.913 22.5265 127.907 22.5418C127.913 22.5499 127.916 22.5596 127.916 22.5696C127.916 22.5796 127.913 22.5893 127.907 22.5974L117.436 29.7493C117.436 29.7493 117.396 29.7811 117.388 29.7732ZM129.619 21.4372C129.659 21.4372 140.817 13.7926 140.817 13.7926C140.821 13.7854 140.823 13.7771 140.823 13.7688C140.823 13.7604 140.821 13.7522 140.817 13.7449C140.811 13.7221 140.797 13.7023 140.777 13.6893L139.537 13.141L139.409 13.2204L140.633 13.7608L129.587 21.3101L127.883 20.5154L127.755 20.5949L129.563 21.3895L129.619 21.4372ZM46.3434 68.5048L60.3652 61.5674C60.3711 61.5593 60.3742 61.5496 60.3742 61.5396C60.3742 61.5296 60.3711 61.5199 60.3652 61.5118C60.3701 61.5033 60.3727 61.4937 60.3727 61.484C60.3727 61.4742 60.3701 61.4646 60.3652 61.4562L58.4775 60.6615L58.3415 60.733L60.1973 61.5277L46.3354 68.3856L44.9116 67.7419L44.7756 67.8134L46.3114 68.5048H46.3434ZM62.4289 60.5582L73.8272 54.9161C73.8314 54.9089 73.8336 54.9007 73.8336 54.8923C73.8336 54.8839 73.8314 54.8757 73.8272 54.8684C73.8314 54.8598 73.8336 54.8503 73.8336 54.8406C73.8336 54.831 73.8314 54.8215 73.8272 54.8128L71.5315 53.7957L71.3955 53.8672L73.6592 54.8684L62.3969 60.431L60.4692 59.5808L60.3332 59.6523L62.3729 60.5502L62.4289 60.5582Z" fill="#BFBFBF"/>
<path opacity="0.4" d="M128.459 42.1382C128.291 42.2469 128.151 42.3936 128.051 42.5662C127.951 42.7389 127.893 42.9326 127.883 43.1315C127.883 43.4891 128.139 43.6401 128.459 43.4573C128.624 43.348 128.761 43.2021 128.86 43.0311C128.958 42.8601 129.015 42.6687 129.027 42.472C129.019 42.1064 128.771 41.9634 128.459 42.1382Z" fill="#D8D8D8"/>
<path opacity="0.4" d="M137.585 33.8975C137.419 34.0054 137.281 34.1509 137.182 34.3222C137.083 34.4935 137.027 34.6857 137.018 34.8828C137.018 35.2404 137.273 35.3914 137.585 35.2087C137.753 35.1016 137.893 34.9564 137.993 34.7851C138.093 34.6137 138.151 34.4212 138.161 34.2233C138.161 33.8577 137.905 33.7147 137.585 33.8975Z" fill="#D8D8D8"/>
<path opacity="0.4" d="M75.2271 69.4107C75.062 69.52 74.9248 69.6659 74.8263 69.8369C74.7277 70.0079 74.6705 70.1994 74.6592 70.3961C74.6592 70.7616 74.9151 70.9126 75.2271 70.7299C75.3941 70.6219 75.5332 70.4765 75.6332 70.3053C75.7332 70.1342 75.7914 69.9421 75.803 69.7445C75.803 69.3789 75.547 69.2279 75.2271 69.4107Z" fill="#D8D8D8"/>
<path opacity="0.4" d="M89.6808 64.2137C89.5157 64.323 89.3785 64.4689 89.2799 64.6399C89.1814 64.8109 89.1242 65.0023 89.1129 65.1991C89.1129 65.5646 89.3688 65.7156 89.6808 65.5328C89.8478 65.4249 89.9869 65.2795 90.0869 65.1083C90.1869 64.9371 90.2451 64.745 90.2567 64.5475C90.2567 64.1819 90.0007 64.0309 89.6808 64.2137Z" fill="#D8D8D8"/>
<g style="mix-blend-mode:multiply">
<path d="M134.346 73.0186C134.764 72.8336 135.123 72.5392 135.385 72.1668C135.647 71.7944 135.802 71.3582 135.834 70.9049C135.85 70.749 135.85 70.5919 135.834 70.436C135.586 68.3543 134.558 66.4417 132.954 65.08C132.954 65.08 132.954 65.0403 132.954 65.0164C132.918 64.9027 132.876 64.7912 132.826 64.6827C132.884 64.8151 132.934 64.9504 132.978 65.088C132.866 66.0654 131.162 67.7977 126.187 67.2176L126.419 65.4694C129.251 66.0257 132.386 64.9688 132.226 63.2761C131.648 62.0583 130.861 60.9503 129.899 60.0022C129.028 59.1618 128.074 58.411 127.051 57.7612C126.563 57.4434 122.14 55.0197 117.38 52.4688L112.581 49.9259C112.373 49.5683 112.181 49.2504 111.981 48.9405L120.284 41.4866C121.932 42.6389 126.611 45.3884 127.779 45.6189C127.981 45.6646 128.189 45.6691 128.393 45.6323C128.596 45.5954 128.79 45.5178 128.963 45.4043C129.54 45.0295 130.021 44.5249 130.365 43.9312C130.71 43.3376 130.909 42.6716 130.946 41.9873C130.965 41.6236 130.858 41.2646 130.642 40.9701C130.586 40.8112 130.122 40.247 127.171 38.7689L126.515 37.6961L126.091 36.2419L129.347 33.3017C130.946 34.4539 135.682 37.2193 136.849 37.4577C137.052 37.5018 137.261 37.5049 137.464 37.4666C137.668 37.4284 137.861 37.3497 138.033 37.2352C138.612 36.8614 139.093 36.357 139.438 35.7631C139.782 35.1693 139.981 34.5028 140.017 33.8182C140.036 33.4546 139.929 33.0955 139.713 32.801C139.649 32.6421 139.193 32.0858 136.242 30.5998L135.586 29.527L135.154 28.0569L152.863 12.0525C152.902 12.0205 152.934 11.9805 152.956 11.9353C152.978 11.89 152.99 11.8406 152.991 11.7903V11.0989C152.994 11.1227 152.994 11.1467 152.991 11.1705C153.003 11.1289 153.003 11.0849 152.991 11.0433C152.972 10.9821 152.941 10.9252 152.9 10.876C152.859 10.8269 152.808 10.7865 152.751 10.7572L152.311 10.5029L148.448 8.29379C148.259 8.19363 148.049 8.14122 147.836 8.14122C147.622 8.14122 147.412 8.19363 147.224 8.29379L127.907 20.5871L127.787 20.6666L115.133 28.7165L115.061 28.7562L96.7996 40.3821C95.9532 40.2492 95.0969 40.1881 94.24 40.1993L85.4414 35.5267L85.1774 35.3916L81.9779 33.691C80.9941 33.1904 79.9942 32.6977 78.9944 32.2289L78.8264 32.1415L77.3146 31.4422L76.9867 31.2912L75.6189 30.6872L75.139 30.4727L74.587 30.2343L72.5234 26.8808L69.1799 15.5172L69.5398 15.6126C69.6115 15.638 69.6885 15.6455 69.7638 15.6344C69.8391 15.6234 69.9105 15.594 69.9718 15.549C70.1657 15.421 70.3262 15.249 70.4403 15.0473C70.5543 14.8457 70.6185 14.62 70.6277 14.3888C70.6347 14.3112 70.6214 14.2332 70.5892 14.1622C70.5569 14.0912 70.5068 14.0297 70.4437 13.9835L70.4997 14.0233L69.7718 13.3001L82.2019 2.32592C82.2627 2.27347 82.3001 2.19916 82.3059 2.11932V1.57894C82.3094 1.59998 82.3094 1.62148 82.3059 1.64252C82.3191 1.57734 82.3096 1.50964 82.2791 1.45047C82.2486 1.3913 82.1988 1.34415 82.1379 1.3167L80.0982 0.148557C79.9514 0.0719874 79.7881 0.0319824 79.6223 0.0319824C79.4565 0.0319824 79.2931 0.0719874 79.1463 0.148557L63.9487 9.78776L63.5328 9.54935C63.4809 9.52027 63.4238 9.50139 63.3648 9.49374L61.2211 9.12024C61.1423 9.11385 61.0636 9.1334 60.9972 9.17587C60.8804 9.25351 60.7834 9.35715 60.714 9.47854C60.6445 9.59993 60.6046 9.73574 60.5972 9.87517C60.5999 9.94963 60.625 10.0216 60.6692 10.0818L61.5411 11.1069L44.7437 19.9276C44.5517 20.0229 44.4957 20.166 44.5517 20.3011C44.5482 20.2694 44.5482 20.2374 44.5517 20.2057V20.7461C44.557 20.8029 44.5777 20.8572 44.6115 20.9033C44.6453 20.9495 44.6909 20.9857 44.7437 21.0083L46.7753 22.1765C46.8987 22.237 47.0331 22.2724 47.1704 22.2806C47.3078 22.2888 47.4454 22.2696 47.5752 22.2241L62.5809 16.5582L62.9089 21.7553L63.2608 27.2623C63.1015 27.3554 62.9655 27.4831 62.863 27.6358C62.7605 27.7886 62.6941 27.9625 62.6689 28.1443C62.4209 29.4794 64.1407 33.0633 66.4763 36.0909C68.5384 38.8853 71.1173 41.264 74.0751 43.0998C76.1788 44.4666 78.8744 46.0082 82.5698 48.1061L71.6355 53.8356L71.4995 53.9071L60.5812 59.6366L60.4452 59.7081L58.5495 60.6935L58.4135 60.765L44.9916 67.8057L44.8556 67.8772L36.3689 72.3273C36.121 72.4465 36.049 72.6372 36.121 72.8041C36.1006 72.7699 36.087 72.7321 36.081 72.6928V73.3842C36.0885 73.4577 36.1154 73.5281 36.1589 73.5881C36.2024 73.648 36.2611 73.6956 36.329 73.7259L40.6243 76.1893C40.7853 76.2706 40.9613 76.3181 41.1416 76.3291C41.3218 76.34 41.5024 76.3141 41.6721 76.2529L66.6203 67.0428C66.4016 67.4898 66.3479 67.9988 66.4683 68.4811C67.0602 69.1169 73.1473 72.7723 74.4671 73.0425C74.6674 73.0885 74.8751 73.0932 75.0774 73.0563C75.2796 73.0194 75.4721 72.9417 75.6429 72.8279C76.2196 72.4522 76.6995 71.9474 77.044 71.3539C77.3885 70.7604 77.5881 70.0949 77.6266 69.4109C77.6435 69.0487 77.5394 68.6911 77.3306 68.3937C77.2666 68.2348 76.8107 67.6706 73.8592 66.1846L73.1953 65.1198L73.0673 64.6588L81.17 61.6709C81.0046 61.923 80.8924 62.2058 80.8402 62.5022C80.7879 62.7986 80.7967 63.1024 80.8661 63.3953C81.45 64.0231 87.545 67.6785 88.8648 67.9487C89.0665 67.9949 89.2755 67.9997 89.479 67.9628C89.6826 67.9259 89.8764 67.8481 90.0487 67.7342C90.6262 67.3594 91.1068 66.8548 91.4514 66.2611C91.7961 65.6674 91.9951 65.0015 92.0324 64.3171C92.0492 63.9549 91.9452 63.5974 91.7364 63.3C91.6724 63.141 91.2085 62.5768 88.2649 61.0988L87.601 60.026L87.4091 59.3585L93.8561 56.9745L94.52 57.3559L100.223 60.5584L104.174 60.6697C105.774 61.6153 117.524 68.3858 121.02 70.3883C125.587 73.0107 131.122 74.3139 134.322 72.9869L134.346 73.0186ZM40.5523 75.4582C40.7101 75.5422 40.8853 75.5884 41.0642 75.5933C40.8853 75.5884 40.7101 75.5422 40.5523 75.4582ZM75.6109 68.505C76.5867 67.9487 77.3786 68.4017 77.3786 69.5221C77.346 70.1308 77.1688 70.7232 76.8616 71.2508C76.5543 71.7784 76.1258 72.2262 75.6109 72.5577C74.635 73.1219 73.8432 72.669 73.8432 71.5485C73.8771 70.9391 74.0547 70.3461 74.3618 69.8174C74.6689 69.2887 75.0967 68.8391 75.6109 68.505ZM90.0087 63.4033C90.9845 62.847 91.7764 63.3 91.7764 64.4204C91.7438 65.0291 91.5666 65.6215 91.2594 66.1491C90.9521 66.6767 90.5235 67.1245 90.0087 67.456C89.0328 68.0202 88.2409 67.5673 88.2409 66.4468C88.2743 65.8283 88.4558 65.2267 88.7702 64.6918C89.0846 64.157 89.5229 63.7043 90.0487 63.3715L90.0087 63.4033ZM128.915 41.0893C129.898 40.533 130.682 40.986 130.682 42.1065C130.651 42.7154 130.474 43.3083 130.167 43.8361C129.86 44.3639 129.43 44.8115 128.915 45.1421C127.939 45.7063 127.155 45.2533 127.155 44.1328C127.187 43.5149 127.367 42.9135 127.68 42.3786C127.993 41.8437 128.43 41.3908 128.955 41.0575L128.915 41.0893ZM137.993 32.9123C138.969 32.356 139.761 32.809 139.761 33.9294C139.727 34.5389 139.549 35.1319 139.242 35.6606C138.935 36.1893 138.507 36.6388 137.993 36.973C137.017 37.5292 136.226 37.0763 136.226 35.9558C136.259 35.3373 136.44 34.7357 136.755 34.2008C137.069 33.6659 137.507 33.2133 138.033 32.8805L137.993 32.9123Z" fill="#FFFF00"/>
</g>
<g style="mix-blend-mode:multiply">
<path d="M132.562 64.0311C132.506 63.9039 132.442 63.7847 132.394 63.6655C132.458 63.8006 132.522 63.9436 132.578 64.0787C132.57 64.0628 132.57 64.047 132.562 64.0311Z" fill="#FFFF00"/>
</g>
<g style="mix-blend-mode:multiply">
<path d="M132.218 63.2679C132.282 63.3951 132.338 63.5302 132.402 63.6573C132.33 63.5381 132.274 63.403 132.218 63.2679Z" fill="#FFFF00"/>
</g>
<g style="mix-blend-mode:multiply">
<path d="M132.578 64.0786C132.666 64.2773 132.738 64.4839 132.81 64.6826C132.738 64.4759 132.666 64.2773 132.578 64.0786Z" fill="#FFFF00"/>
</g>
</g>
<defs>
<filter id="filter0_d_148_13741" x="0" y="0" width="153" height="206.332" filterUnits="userSpaceOnUse" color-interpolation-filters="sRGB">
<feFlood flood-opacity="0" result="BackgroundImageFix"/>
<feColorMatrix in="SourceAlpha" type="matrix" values="0 0 0 0 0 0 0 0 0 0 0 0 0 0 0 0 0 0 127 0" result="hardAlpha"/>
<feOffset dx="-30" dy="124"/>
<feGaussianBlur stdDeviation="3"/>
<feComposite in2="hardAlpha" operator="out"/>
<feColorMatrix type="matrix" values="0 0 0 0 0 0 0 0 0 0 0 0 0 0 0 0 0 0 0.1 0"/>
<feBlend mode="normal" in2="BackgroundImageFix" result="effect1_dropShadow_148_13741"/>
<feBlend mode="normal" in="SourceGraphic" in2="effect1_dropShadow_148_13741" result="shape"/>
</filter>
<linearGradient id="paint0_linear_148_13741" x1="102.088" y1="44.7614" x2="95.7241" y2="55.8534" gradientUnits="userSpaceOnUse">
<stop stop-color="#F2F2F2"/>
<stop offset="0.21" stop-color="#EEEEEE"/>
<stop offset="0.43" stop-color="#E2E2E2"/>
<stop offset="0.64" stop-color="#CECECE"/>
<stop offset="0.76" stop-color="#BFBFBF"/>
<stop offset="0.95" stop-color="#C2C2C2"/>
<stop offset="1" stop-color="#C5C5C5"/>
</linearGradient>
<linearGradient id="paint1_linear_148_13741" x1="103.647" y1="42.0348" x2="97.4132" y2="52.9013" gradientUnits="userSpaceOnUse">
<stop stop-color="white"/>
<stop offset="1" stop-color="#C4C4C4"/>
</linearGradient>
<linearGradient id="paint2_linear_148_13741" x1="66.032" y1="11.0025" x2="64.7135" y2="13.3083" gradientUnits="userSpaceOnUse">
<stop stop-color="#F2F2F2"/>
<stop offset="0.49" stop-color="#D6D6D6"/>
<stop offset="0.95" stop-color="#BFBFBF"/>
</linearGradient>
<linearGradient id="paint3_linear_148_13741" x1="69.6324" y1="13.0718" x2="68.3212" y2="15.3554" gradientUnits="userSpaceOnUse">
<stop stop-color="#F2F2F2"/>
<stop offset="0.28" stop-color="#EEEEEE"/>
<stop offset="0.56" stop-color="#E2E2E2"/>
<stop offset="0.84" stop-color="#CECECE"/>
<stop offset="1" stop-color="#BFBFBF"/>
</linearGradient>
<linearGradient id="paint4_linear_148_13741" x1="136.79" y1="31.8876" x2="134.324" y2="36.1937" gradientUnits="userSpaceOnUse">
<stop stop-color="#F2F2F2"/>
<stop offset="0.21" stop-color="#EEEEEE"/>
<stop offset="0.43" stop-color="#E2E2E2"/>
<stop offset="0.64" stop-color="#CECECE"/>
<stop offset="0.76" stop-color="#BFBFBF"/>
<stop offset="0.95" stop-color="#C2C2C2"/>
<stop offset="1" stop-color="#C5C5C5"/>
</linearGradient>
<linearGradient id="paint5_linear_148_13741" x1="136.075" y1="37.0462" x2="137.024" y2="31.0767" gradientUnits="userSpaceOnUse">
<stop/>
<stop offset="0.13" stop-color="#181818"/>
<stop offset="0.4" stop-color="#565656"/>
<stop offset="0.78" stop-color="#B7B7B7"/>
<stop offset="1" stop-color="#F2F2F2"/>
</linearGradient>
<linearGradient id="paint6_linear_148_13741" x1="127.683" y1="40.0905" x2="125.216" y2="44.3967" gradientUnits="userSpaceOnUse">
<stop stop-color="#F2F2F2"/>
<stop offset="0.21" stop-color="#EEEEEE"/>
<stop offset="0.43" stop-color="#E2E2E2"/>
<stop offset="0.64" stop-color="#CECECE"/>
<stop offset="0.76" stop-color="#BFBFBF"/>
<stop offset="0.95" stop-color="#C2C2C2"/>
<stop offset="1" stop-color="#C5C5C5"/>
</linearGradient>
<linearGradient id="paint7_linear_148_13741" x1="126.971" y1="45.2499" x2="127.913" y2="39.2805" gradientUnits="userSpaceOnUse">
<stop/>
<stop offset="0.13" stop-color="#181818"/>
<stop offset="0.4" stop-color="#565656"/>
<stop offset="0.78" stop-color="#B7B7B7"/>
<stop offset="1" stop-color="#F2F2F2"/>
</linearGradient>
<linearGradient id="paint8_linear_148_13741" x1="88.6346" y1="62.4799" x2="86.1594" y2="66.7894" gradientUnits="userSpaceOnUse">
<stop stop-color="#F2F2F2"/>
<stop offset="0.21" stop-color="#EEEEEE"/>
<stop offset="0.43" stop-color="#E2E2E2"/>
<stop offset="0.64" stop-color="#CECECE"/>
<stop offset="0.76" stop-color="#BFBFBF"/>
<stop offset="0.95" stop-color="#C2C2C2"/>
<stop offset="1" stop-color="#C5C5C5"/>
</linearGradient>
<linearGradient id="paint9_linear_148_13741" x1="87.9137" y1="67.6385" x2="88.8623" y2="61.669" gradientUnits="userSpaceOnUse">
<stop/>
<stop offset="0.13" stop-color="#181818"/>
<stop offset="0.4" stop-color="#565656"/>
<stop offset="0.78" stop-color="#B7B7B7"/>
<stop offset="1" stop-color="#F2F2F2"/>
</linearGradient>
<linearGradient id="paint10_linear_148_13741" x1="74.143" y1="67.599" x2="71.6766" y2="71.9052" gradientUnits="userSpaceOnUse">
<stop stop-color="#F2F2F2"/>
<stop offset="0.21" stop-color="#EEEEEE"/>
<stop offset="0.43" stop-color="#E2E2E2"/>
<stop offset="0.64" stop-color="#CECECE"/>
<stop offset="0.76" stop-color="#BFBFBF"/>
<stop offset="0.95" stop-color="#C2C2C2"/>
<stop offset="1" stop-color="#C5C5C5"/>
</linearGradient>
<linearGradient id="paint11_linear_148_13741" x1="73.4276" y1="72.7581" x2="74.3762" y2="66.7887" gradientUnits="userSpaceOnUse">
<stop/>
<stop offset="0.13" stop-color="#181818"/>
<stop offset="0.4" stop-color="#565656"/>
<stop offset="0.78" stop-color="#B7B7B7"/>
<stop offset="1" stop-color="#F2F2F2"/>
</linearGradient>
</defs>
</svg>
