<svg width="144" height="263" viewBox="0 0 144 263" fill="none" xmlns="http://www.w3.org/2000/svg">
<g filter="url(#filter0_d_148_13513)">
<path d="M45.72 35.5891V109.175L69.6744 103.22L69.8256 103.189L96.4584 96.569L95.832 90.9208L94.8384 82.0525L90.6912 44.6474L89.946 37.9857L87.1056 39.6009L69.8256 49.3455V49.2716L45.72 35.5891Z" fill="#262626"/>
<path d="M36 28.5365L64.728 44.8372V44.9322L85.3128 33.319L88.704 31.3976L113.933 17.1661L85.3128 0.928711L36 28.5365Z" fill="white"/>
<path d="M85.3129 36.9084V85.0082L85.7017 85.2299L94.3525 90.118L110.282 99.1024L110.304 99.1235V22.9197L110.207 22.8669L88.2613 35.2508L85.3129 36.9084Z" fill="#222221"/>
<path d="M88.0777 107.548C87.6673 107.633 87.4405 108.161 87.2677 108.477C87.1184 108.723 87.0556 109.01 87.0887 109.294C87.1219 109.578 87.2492 109.844 87.4513 110.051C87.9589 110.631 89.0173 110.631 89.4169 111.022C90.4069 111.745 91.4584 112.385 92.5598 112.933C93.1538 113.249 94.4929 113.387 94.7953 112.637C94.905 112.409 94.962 112.16 94.962 111.909C94.962 111.657 94.905 111.408 94.7953 111.18C94.3007 110.594 93.7706 110.037 93.2077 109.512C92.9 109.241 92.6214 108.941 92.3761 108.615C92.2033 108.393 91.577 107.316 91.1882 107.559L88.0777 107.548Z" fill="black"/>
<path d="M80.6039 84.1638C81.4139 85.8319 81.6839 87.6477 82.3967 89.358C83.1959 91.4061 83.4119 93.9716 84.9131 95.6925C85.2625 96.0765 85.7137 96.3588 86.2169 96.5079C86.7201 96.6569 87.2556 96.667 87.7643 96.5371C88.4447 96.3049 89.6543 95.7769 89.6651 95.2807C89.7 94.6511 89.6308 94.0202 89.46 93.4121C89.2116 92.6098 87.9587 87.7217 87.6023 86.138C87.3215 84.8395 87.0839 84.0265 86.6951 82.6329C86.6951 82.6329 86.6951 80.986 83.6495 82.2001C80.6039 83.4142 80.5175 83.921 80.6039 84.1638Z" fill="black"/>
<path d="M84.5894 96.9279C84.4895 95.7985 84.3127 94.6769 84.0602 93.5706C83.909 92.6204 89.1901 92.7893 89.6869 95.0592C89.6869 95.0592 90.2918 104.128 91.4582 106.831L91.6309 107.295C91.6946 107.413 91.7224 107.547 91.7109 107.679C91.6994 107.812 91.6492 107.939 91.5661 108.045C91.2676 108.373 90.8989 108.632 90.4861 108.805C90.0454 109.019 89.5576 109.123 89.0659 109.108C88.5743 109.093 88.0939 108.96 87.6674 108.721C85.9178 107.38 84.665 100.908 84.5894 96.9279Z" fill="black"/>
<path d="M67.2229 101.225C66.8233 101.14 66.3913 101.531 66.1429 101.753C65.8752 102.006 65.6718 102.317 65.549 102.661C65.4626 103.241 66.8557 104.403 67.0717 104.931C67.4116 105.669 67.8201 106.376 68.2921 107.042C68.5531 107.458 68.8986 107.817 69.3073 108.098C70.2284 108.432 71.234 108.473 72.1802 108.214C72.6014 108.003 72.7957 107.623 72.6553 107.338C72.1585 106.335 71.5754 106.103 71.2946 105.385C71.0766 104.903 70.8995 104.406 70.7653 103.896C70.7005 103.621 70.5709 102.386 70.1065 102.492L67.2229 101.225Z" fill="black"/>
<path d="M76.7161 84.5016C76.7161 86.3492 76.0357 88.2073 75.9385 90.0549C75.8089 92.2297 74.9341 94.6685 75.5821 96.8328C75.7411 97.3221 76.0348 97.7592 76.431 98.0963C76.8273 98.4333 77.3107 98.6573 77.8285 98.7436C78.603 98.8503 79.3923 98.7174 80.0856 98.3636C80.3105 98.1885 80.4792 97.9539 80.5717 97.6879C81.2305 95.6714 81.7488 90.5194 82.0404 89.2419C82.2543 87.9608 82.6354 86.7119 83.1745 85.5257C83.1745 85.5257 83.4985 83.7943 80.2261 83.4881C77.4937 83.2031 76.7053 84.2588 76.7161 84.5016Z" fill="black"/>
<path d="M76.8673 93.5814C77.9473 93.0747 81.7273 97.1499 79.8157 98.5224C79.8157 98.5224 72.5041 101.69 70.4629 103.801L70.1065 104.139C70.0215 104.245 69.9073 104.326 69.7772 104.37C69.6471 104.415 69.5065 104.423 69.3721 104.392C68.95 104.266 68.5599 104.053 68.2273 103.769C67.851 103.462 67.5562 103.07 67.3682 102.627C67.1802 102.184 67.1044 101.703 67.1473 101.225C67.6657 99.0396 73.1953 95.2812 76.8673 93.5814Z" fill="black"/>
<path d="M85.9177 63.4292C87.7969 66.6703 90.5185 68.2751 90.8965 71.1256C90.9721 71.6113 93.8989 68.0428 93.2617 67.0188C91.7713 64.6328 90.8857 62.7958 89.7085 60.7898C87.8185 57.5381 86.6737 57.4219 85.4965 58.0659C84.3193 58.7099 83.9953 60.1775 85.9177 63.4292Z" fill="#999999"/>
<path d="M80.3987 59.4278C78.5708 60.2104 76.8996 61.3043 75.4631 62.6584C74.3831 63.8092 74.2859 66.5541 74.2967 66.8814C74.2967 68.0533 75.9815 75.1796 76.2407 76.7632C76.3861 78.2265 76.4042 79.6992 76.2947 81.1656C76.2947 82.158 75.9815 85.1352 76.0787 85.6103C76.3811 87.2045 80.6471 86.8877 81.4787 86.8455C84.1139 86.6871 87.4295 84.734 87.1487 83.4777C86.3711 79.8671 86.6519 69.3624 86.9975 68.0744C87.3431 66.7864 89.9027 60.188 87.8723 58.4354C87.2494 57.9778 86.4915 57.7295 85.7123 57.728C83.4119 57.8653 80.7767 59.3539 80.3987 59.4278Z" fill="#999999"/>
<path d="M82.2026 57.3161C81.9758 57.3161 79.0598 58.0867 78.1418 60.0504C77.3534 61.7502 78.4874 64.0624 78.3254 64.1152C79.1545 64.1793 79.9754 64.3206 80.777 64.5374C80.3513 64.7025 79.9784 64.9759 79.697 65.3292C79.4486 65.7831 85.9394 70.2384 85.9502 71.4631C85.9502 71.4631 88.6178 64.7168 88.3802 63.6083C88.3154 63.3338 87.041 63.1227 87.041 63.1227C87.1274 62.6898 87.9374 62.0669 87.9374 62.0669C87.959 61.4968 84.8378 56.7354 82.2026 57.3161Z" fill="#B3B3B3"/>
<path d="M86.0038 63.5876C86.3716 64.9394 86.503 66.3421 86.3926 67.7366C86.3062 69.1513 86.1334 70.1121 85.9714 71.4634C85.669 68.6868 84.2974 66.966 82.5046 64.865C81.9311 64.1771 81.3143 63.5248 80.6578 62.9119C80.4239 62.651 80.2475 62.3456 80.1397 62.015C80.0319 61.6843 79.995 61.3356 80.0314 60.9904C80.1826 59.7235 81.2302 59.6813 82.105 59.5652C82.779 59.4435 83.4753 59.5605 84.069 59.8952C84.6627 60.2299 85.1151 60.7604 85.345 61.3916C85.345 61.3916 85.777 62.8486 86.0038 63.5876Z" fill="#D9D9D9"/>
<path d="M86.3711 68.0321C85.9627 66.5947 85.3598 65.2171 84.5784 63.9358L83.9951 64.2526C84.0462 65.3617 84.2348 66.4606 84.5567 67.5254V67.4725C85.1506 68.7616 85.6347 70.0964 86.004 71.4633C86.2647 70.3372 86.3987 69.1866 86.4036 68.0321H86.3711Z" fill="#262626"/>
<path d="M83.142 63.5873C83.142 63.5873 84.006 64.5374 84.2868 64.4318C84.5676 64.3262 84.8916 64.4318 84.8376 63.1649C84.7836 61.898 83.5092 62.5632 83.142 63.5873Z" fill="#262626"/>
<path d="M83.6172 59.1745C84.3408 59.544 84.8484 61.2015 84.9672 61.9088C85.1121 62.5609 85.1377 63.2328 85.0428 63.8936C84.8866 63.4617 84.5909 63.0911 84.2004 62.8379C83.7684 62.6373 83.8116 62.7323 83.6172 63.0807C83.4228 63.4291 83.2824 64.4322 82.8936 64.7911C82.6815 64.284 82.3612 63.8268 81.954 63.4503C81.5004 63.0913 80.9928 62.8485 80.55 62.4684C80.1072 62.0883 79.0164 61.3598 78.8328 60.5786C78.8177 60.2372 78.897 59.8983 79.0623 59.5973C79.2277 59.2963 79.473 59.0445 79.7724 58.8683C80.766 58.2031 82.4184 59.1639 83.4444 59.5228C83.466 59.6486 83.466 59.7772 83.4444 59.903L83.6172 59.1745Z" fill="white"/>
<path d="M80.0855 55.627C80.1572 56.5582 80.1572 57.4934 80.0855 58.4247C79.9664 58.9033 79.887 59.3906 79.848 59.8816C79.848 60.8213 80.928 61.2225 81.4248 61.4864C82.1956 61.6785 82.9265 61.9999 83.5848 62.4365C83.7813 61.7825 83.8328 61.0951 83.7359 60.4201C83.7307 59.7976 83.6766 59.1764 83.574 58.562C83.358 57.9707 82.7963 57.654 82.7963 57.0416L80.0855 55.627Z" fill="#CCCCCC"/>
<path d="M86.8897 53.0195C86.7511 53.5723 86.6822 54.1395 86.6845 54.7087C86.6926 54.8539 86.6699 54.9991 86.6179 55.1354C86.5659 55.2716 86.4856 55.396 86.3821 55.5005C86.0407 55.9087 85.8538 56.4196 85.8529 56.9468C85.7302 57.5919 85.4401 58.1954 85.0105 58.6994C84.7189 59.1217 84.4597 59.639 83.9305 59.7552C82.6129 60.1036 81.6841 58.9527 80.6905 58.2348C79.6969 57.5169 80.4421 56.06 80.3989 55.0676C80.3989 53.3045 81.5437 51.2564 83.5417 51.1508C84.5903 51.1039 85.6269 51.3849 86.5009 51.9532C86.7385 52.1538 87.0949 52.9456 86.7277 53.1568L86.8897 53.0195Z" fill="#D9D9D9"/>
<path d="M81.8028 48.6696C83.1636 48.0995 85.14 49.1024 86.5764 50.4432C86.7926 50.7053 86.9496 51.0093 87.0371 51.335C87.1246 51.6607 87.1406 52.0008 87.084 52.333C87.1596 52.7131 86.004 53.0826 85.7232 53.1248C85.1585 53.1816 84.5879 53.1204 84.0492 52.9453C83.7088 52.8561 83.3764 52.7396 83.0556 52.5969C82.8282 52.4716 82.5938 52.3588 82.3536 52.259C81.8244 52.1429 81.5868 52.7976 81.36 53.1671C81.1479 53.4432 80.96 53.7363 80.7984 54.0433C80.7336 54.2017 80.388 56.102 80.1072 56.0598C79.8264 56.0176 78.8868 53.8639 79.1136 52.8926C79.2648 52.2802 79.4376 49.6725 81.8028 48.6696Z" fill="black"/>
<path d="M79.632 54.6979C79.632 55.3525 79.9236 55.8698 80.226 55.8592C80.4631 55.7829 80.6658 55.6287 80.7997 55.4227C80.9336 55.2168 80.9904 54.9719 80.9604 54.7296C80.9604 54.0751 80.3988 53.4732 80.1072 53.4838C79.8156 53.4943 79.5996 54.0222 79.632 54.6979Z" fill="#D9D9D9"/>
<path d="M56.7792 91.9131L56.79 92.8633L65.5056 97.9097L65.4948 96.9701L56.7792 91.9131Z" fill="#CECECE"/>
<path d="M65.4948 96.9703L65.5056 97.9099L111.643 71.7485V70.7983L65.4948 96.9703Z" fill="#CECECE"/>
<path d="M56.7792 91.9129L65.4948 96.9699L111.643 70.7979L102.928 65.7515L56.7792 91.9129Z" fill="white"/>
<path d="M74.999 68.9507C75.9386 72.5719 78.2389 78.9698 79.5565 78.6425C80.0533 78.5263 81.8029 76.0876 81.4573 74.9368C80.6581 72.2341 80.2585 69.6581 79.6753 67.4305C78.7357 63.8092 77.3533 63.3552 76.0465 63.6719C74.7397 63.9887 74.0378 65.3295 74.999 68.9507Z" fill="#B3B3B3"/>
<path d="M80.9173 78.8638C84.3841 79.1489 90.7669 78.6949 90.8425 77.523C90.8425 77.0796 91.0477 75.7283 89.9677 75.4749C88.2829 75.0632 83.7038 75.211 80.129 74.8098C79.3406 74.7253 78.9409 75.6543 78.8653 76.8262C78.7897 77.998 78.4765 78.6632 80.9173 78.8638Z" fill="#B3B3B3"/>
<path d="M94.3629 69.5947C94.6755 70.626 94.8675 71.6885 94.9353 72.762C95.1158 73.8541 95.027 74.9725 94.6761 76.0242C94.2657 76.8794 92.5809 76.3938 92.5161 75.5597C92.3325 74.1239 90.5397 72.2025 90.5505 69.2253C90.5505 68.5707 90.7233 66.2269 91.7493 66.2691C92.7753 66.3113 93.4773 66.7548 94.3629 69.5947Z" fill="#999999"/>
<path d="M95.4214 75.2534C95.4027 75.2397 95.38 75.2322 95.3566 75.2322C95.3333 75.2322 95.3105 75.2397 95.2918 75.2534C94.8706 75.3484 94.7518 75.7179 94.5791 76.0346C94.5132 76.2229 94.402 76.3932 94.255 76.5309C94.1721 76.566 94.085 76.5908 93.9958 76.6048C93.6912 76.7519 93.4167 76.9523 93.1858 77.196L93.0562 77.2804C92.7821 77.4108 92.4853 77.4896 92.1814 77.5127C91.6796 77.5045 91.1857 77.3892 90.7343 77.1749C90.676 77.1343 90.6312 77.0778 90.6053 77.0126C90.5793 76.9474 90.5735 76.8763 90.5884 76.8079C90.6033 76.7394 90.6383 76.6768 90.6892 76.6276C90.74 76.5784 90.8045 76.5448 90.8747 76.5309C91.0532 76.4992 91.2361 76.4992 91.4147 76.5309C91.5983 76.5309 92.1706 76.6998 92.3758 76.5309C92.3758 76.5309 92.5594 76.4252 92.7322 76.2985C92.905 76.1719 93.0562 76.098 93.175 76.003C93.0562 76.003 92.8834 75.9291 92.8186 75.9291C92.7538 75.9291 92.3974 75.9291 92.1814 75.9291C92.257 75.9291 92.3542 75.8657 92.4406 75.8235C92.527 75.7813 92.6135 75.6546 92.6891 75.6546C92.7877 75.6851 92.8821 75.7276 92.9699 75.7812C93.0428 75.8157 93.1187 75.844 93.1966 75.8658V75.8658H93.3047C93.5959 75.8767 93.8872 75.8445 94.1686 75.7707C94.3954 75.7707 94.7302 75.6018 94.6762 75.3062C94.6222 75.0106 93.8662 74.9472 93.5962 74.8627C93.4589 74.8106 93.334 74.7316 93.2291 74.6305C93.1045 74.494 92.9376 74.4012 92.7538 74.3666C92.588 74.3635 92.4266 74.4199 92.3002 74.525C92.149 74.6305 92.0194 74.7889 91.8682 74.9156L91.7818 75.0423C91.609 75.2956 90.7018 75.7074 90.3778 75.4646L90.0106 75.6228C89.6434 75.7601 89.2979 75.9079 89.1791 76.3197C89.1082 76.5974 89.1056 76.8875 89.1713 77.1664C89.237 77.4453 89.3691 77.705 89.557 77.9244C89.8841 78.1463 90.2502 78.3073 90.637 78.3995H90.7018L91.1014 78.5051C91.3795 78.5785 91.6666 78.614 91.9547 78.6107V78.6107C92.4999 78.6053 93.0442 78.5701 93.5854 78.5051H93.7799C94.1237 78.395 94.425 78.185 94.6438 77.9033C94.8291 77.7534 94.9613 77.5503 95.0218 77.3227C95.1002 77.1341 95.1476 76.9345 95.1622 76.7314V76.7314C95.2258 76.6714 95.276 76.5991 95.3094 76.5192C95.3429 76.4392 95.3589 76.3533 95.3566 76.267C95.4538 76.1508 95.6374 75.4012 95.4214 75.2534ZM93.553 78.2622C93.5061 78.296 93.4554 78.3244 93.4018 78.3468C93.1966 78.3468 92.9807 78.4945 92.7647 78.5684C92.5314 78.6533 92.2883 78.7101 92.041 78.7374C91.888 78.7703 91.7296 78.7703 91.5766 78.7374H91.4578C91.177 78.579 90.3778 78.4628 90.2806 78.125C90.2529 78.0723 90.2403 78.0134 90.2442 77.9543C90.248 77.8953 90.2682 77.8383 90.3026 77.7895C90.3369 77.7407 90.3842 77.7021 90.4393 77.6775C90.4944 77.6529 90.5552 77.6434 90.6154 77.6499C90.8638 77.6499 90.8962 77.7766 91.1014 77.861C91.3066 77.9455 91.4902 77.8611 91.663 77.9456C91.8358 78.03 91.9978 78.125 92.1922 78.0723L93.4882 77.7555H93.5638L94.0499 77.6394C94.2735 77.5413 94.4899 77.4284 94.6978 77.3016L94.8382 77.2065C94.5071 77.6581 94.0652 78.0212 93.553 78.2622V78.2622Z" fill="#D9D9D9"/>
<path d="M91.9978 78.7478C91.7098 78.7512 91.4227 78.7157 91.1446 78.6423V78.6423L90.745 78.5366C90.637 78.6 90.745 78.7162 90.745 78.7796C90.9457 78.8684 91.1557 78.9356 91.3714 78.9801C91.5812 79.0863 91.8157 79.1372 92.0518 79.1279C92.3446 79.1113 92.6345 79.0617 92.9158 78.9801C93.138 78.9031 93.3515 78.804 93.553 78.6844H93.6394C93.0983 78.7494 92.5538 78.7846 92.0086 78.79L91.9978 78.7478Z" fill="#D9D9D9"/>
<path d="M94.6765 74.1345C94.2216 73.7681 93.6455 73.5767 93.0565 73.5961C92.9745 73.6304 92.8864 73.648 92.7973 73.648C92.7082 73.648 92.62 73.6304 92.5381 73.5961C92.3508 73.5313 92.167 73.4572 91.9873 73.3743C91.8124 73.3067 91.6226 73.2849 91.4365 73.311C91.1881 73.406 91.0801 73.8811 91.0045 74.1028C90.9289 74.3245 89.9244 75.2219 90.3456 75.5386C90.702 75.7814 91.5769 75.3697 91.7497 75.1163L91.8361 74.979C91.8631 74.9299 91.8958 74.8839 91.9333 74.8418C91.8997 74.8787 91.874 74.9217 91.8577 74.9685C92.0089 74.8418 92.1385 74.6834 92.2897 74.5779C92.4161 74.4728 92.5774 74.4166 92.7433 74.4196C92.927 74.4543 93.094 74.547 93.2185 74.6835C93.3234 74.7846 93.4483 74.8636 93.5856 74.9158C93.8664 75.0002 94.6008 75.0001 94.6656 75.3591C94.7304 75.7181 94.3849 75.7709 94.1581 75.8237C93.8766 75.8976 93.5853 75.9296 93.2941 75.9187H93.1861C93.1081 75.8969 93.0323 75.8687 92.9593 75.8343C92.8715 75.7807 92.7772 75.7381 92.6785 75.7076C92.6029 75.7076 92.4841 75.8343 92.4301 75.8765C92.3761 75.9188 92.2465 75.9399 92.1709 75.9821C92.3869 75.9821 92.6029 75.9821 92.8081 75.9821C93.0133 75.9821 93.0457 75.982 93.1645 76.0559C93.0457 76.1509 92.9269 76.2038 92.7217 76.3516C92.5165 76.4994 92.3652 76.5838 92.3652 76.5838C92.16 76.6999 91.5877 76.5838 91.4041 76.5838C91.2256 76.5521 91.0426 76.5521 90.8641 76.5838C90.794 76.5977 90.7295 76.6314 90.6786 76.6806C90.6277 76.7298 90.5927 76.7923 90.5778 76.8608C90.5629 76.9292 90.5688 77.0005 90.5947 77.0657C90.6206 77.1309 90.6654 77.1872 90.7237 77.2278C91.1752 77.4421 91.669 77.5575 92.1709 77.5657C92.4748 77.5426 92.7715 77.4637 93.0456 77.3333L93.1752 77.2489C93.4061 77.0052 93.6806 76.8049 93.9852 76.6578C94.0745 76.6438 94.1616 76.6189 94.2445 76.5838C94.3915 76.4461 94.5026 76.276 94.5685 76.0876C94.7413 75.7709 94.8601 75.4014 95.2813 75.3064C95.3 75.2927 95.3227 75.2853 95.3461 75.2853C95.3694 75.2853 95.3922 75.2927 95.4109 75.3064C95.4046 75.0652 95.3335 74.8299 95.2045 74.6241C95.0756 74.4184 94.8934 74.2495 94.6765 74.1345V74.1345Z" fill="#D9D9D9"/>
<path d="M94.0502 77.5129L93.5642 77.6291H93.4777L92.1817 77.9458C91.9873 77.9458 91.8469 77.8719 91.6525 77.8192C91.4581 77.7664 91.2421 77.8191 91.0909 77.7346C90.9397 77.6502 90.8534 77.5446 90.605 77.5235C90.5448 77.5169 90.4839 77.5265 90.4288 77.5511C90.3737 77.5757 90.3264 77.6143 90.2921 77.6631C90.2577 77.7118 90.2375 77.7688 90.2337 77.8279C90.2298 77.887 90.2424 77.9459 90.2702 77.9985C90.4214 78.3364 91.1665 78.4526 91.4473 78.611H91.5661C91.7191 78.6439 91.8775 78.6439 92.0305 78.611C92.2778 78.5837 92.5209 78.5269 92.7542 78.442C92.9702 78.3681 93.1861 78.2731 93.3913 78.2203C93.4449 78.198 93.4956 78.1696 93.5425 78.1358C94.0702 77.8594 94.5136 77.4515 94.8277 76.9534L94.6873 77.0485C94.4869 77.2184 94.274 77.3736 94.0502 77.5129V77.5129Z" fill="#D9D9D9"/>
<path d="M36 28.5366V116.216L64.5444 132.327L64.7172 132.433V44.8374L36 28.5366Z" fill="#E3E3E2"/>
<path d="M64.5444 45.0377V132.665L114.008 104.835V17.2083L113.9 17.2717L88.6716 31.5031L85.2804 33.4245L64.6848 45.0377H64.5444ZM107.291 73.4796L71.6508 93.5388V53.4943L106.956 33.4351L107.291 73.4796Z" fill="white"/>
<path d="M71.6722 53.5263V93.5707L107.312 73.5115L107.01 33.5198L71.6722 53.5263ZM72.493 54.0013L106.157 34.8817L106.459 73.0153L72.5038 92.1771L72.493 54.0013Z" fill="#FCFCFC"/>
<path opacity="0.6" d="M72.4932 54.0009L72.504 69.1087L106.459 49.9574L106.168 34.8813L72.4932 54.0009Z" fill="#D9D9D9"/>
<g style="mix-blend-mode:multiply">
<path d="M113.933 17.1661L85.3235 0.928711L36.0107 28.5365V116.163L64.5551 132.274V132.57L114.019 104.74V17.0288L113.933 17.1661ZM86.6303 74.9894C86.6303 72.6456 86.7275 70.4602 86.8355 69.1722C87.1811 68.2326 87.5591 67.1346 87.9155 66.1528C89.0121 67.2804 89.9197 68.5702 90.6047 69.9746C90.6893 70.8121 90.8966 71.6335 91.2203 72.4134L86.6303 74.9894ZM102.917 65.7516L94.5575 70.5342C94.3228 69.3416 93.877 68.1984 93.2399 67.1558L93.1427 67.0291V66.9552C91.6955 64.622 90.8207 62.8271 89.6651 60.8423C89.4383 60.4623 89.2331 60.1244 89.0387 59.7866C87.8615 58.0552 86.9867 57.6751 86.1767 57.8018C86.0009 57.782 85.8233 57.782 85.6475 57.8018H85.5827C85.722 57.5497 85.81 57.2738 85.8419 56.989C85.8428 56.4617 86.0297 55.9508 86.3711 55.5426C86.4746 55.4381 86.5548 55.3138 86.6069 55.1775C86.6589 55.0412 86.6816 54.896 86.6735 54.7508C86.6712 54.1817 86.7401 53.6143 86.8787 53.0615V53.0615C86.9176 52.9413 86.9176 52.8122 86.8787 52.692C87.0083 52.597 87.0947 52.4809 87.0731 52.3754C87.1297 52.0432 87.1137 51.7031 87.0262 51.3773C86.9387 51.0516 86.7817 50.7477 86.5655 50.4855C86.1739 50.1233 85.7512 49.7948 85.3019 49.5036C84.8361 49.1333 84.2933 48.8668 83.7114 48.7228C83.1294 48.5787 82.5222 48.5607 81.9323 48.6697L80.8523 49.3031C79.8508 50.2815 79.2383 51.5764 79.1243 52.9559C79.0226 54.096 79.3746 55.2305 80.1071 56.1232C80.1653 56.8259 80.1653 57.532 80.1071 58.2347C79.2504 58.658 78.5515 59.334 78.1091 60.1668C78.0161 60.385 77.9437 60.6111 77.8931 60.8423C76.9891 61.3779 76.1612 62.0276 75.4307 62.7744C74.3507 63.9252 74.2535 66.6701 74.2643 66.9974C74.2751 67.3247 74.3291 67.5992 74.4155 68.0532C74.8367 70.4497 76.0031 75.5278 76.2083 76.8369C76.3572 78.1835 76.3789 79.5407 76.2731 80.8911L72.4715 83.0026V54.0011L80.8199 49.2608C81.1086 49.0183 81.4325 48.8192 81.7811 48.6697H81.9215L85.2911 46.7587L90.5615 43.771L106.135 34.9238L106.254 50.0949L106.394 67.8209L102.917 65.7516Z" fill="#FFFF00"/>
</g>
<path d="M64.5444 102.566V107.243L114.041 79.297V74.6411L64.5444 102.566Z" fill="#4B4B4A"/>
<path d="M64.5444 108.932V113.598L114.041 85.663V80.9861L64.5444 108.932Z" fill="#4B4B4A"/>
<path d="M36 86.624V91.301L64.7172 107.517V102.84L36 86.624Z" fill="#222221"/>
<path d="M36 92.9795V97.6565L64.7172 113.862V109.196L36 92.9795Z" fill="#222221"/>
</g>
<defs>
<filter id="filter0_d_148_13513" x="0" y="0.928711" width="114.041" height="261.736" filterUnits="userSpaceOnUse" color-interpolation-filters="sRGB">
<feFlood flood-opacity="0" result="BackgroundImageFix"/>
<feColorMatrix in="SourceAlpha" type="matrix" values="0 0 0 0 0 0 0 0 0 0 0 0 0 0 0 0 0 0 127 0" result="hardAlpha"/>
<feOffset dx="-30" dy="124"/>
<feGaussianBlur stdDeviation="3"/>
<feComposite in2="hardAlpha" operator="out"/>
<feColorMatrix type="matrix" values="0 0 0 0 0 0 0 0 0 0 0 0 0 0 0 0 0 0 0.1 0"/>
<feBlend mode="normal" in2="BackgroundImageFix" result="effect1_dropShadow_148_13513"/>
<feBlend mode="normal" in="SourceGraphic" in2="effect1_dropShadow_148_13513" result="shape"/>
</filter>
</defs>
</svg>
