<svg width="58" height="80" viewBox="0 0 58 80" fill="none" xmlns="http://www.w3.org/2000/svg">
<g clip-path="url(#clip0_162_20317)">
<path d="M2 20.3022V78.6067L3.42179 79.3956V21.0911L38.6668 0.78893L37.2386 0L2 20.3022Z" fill="#B1B1B0"/>
<path d="M3.42175 21.091V79.3955L38.6668 59.0933V0.788818L3.42175 21.091Z" fill="#FFFF00"/>
<path d="M8.69459 68.1598C8.58225 68.1602 8.47173 68.131 8.37433 68.0752C8.27692 68.0193 8.19608 67.9388 8.13991 67.8417C8.05679 67.6956 8.03493 67.5226 8.07912 67.3605C8.12332 67.1984 8.22997 67.0603 8.37581 66.9764L33.0818 52.7375C33.1546 52.6957 33.235 52.6687 33.3183 52.6579C33.4016 52.6471 33.4862 52.6528 33.5673 52.6747C33.6484 52.6965 33.7245 52.7341 33.791 52.7853C33.8576 52.8365 33.9134 52.9002 33.9552 52.9729C33.9971 53.0456 34.0242 53.1258 34.035 53.2089C34.0458 53.2921 34.04 53.3765 34.0181 53.4575C33.9962 53.5384 33.9586 53.6142 33.9073 53.6807C33.856 53.7471 33.7922 53.8028 33.7193 53.8445L9.01338 68.0771C8.91621 68.132 8.80628 68.1606 8.69459 68.1598Z" fill="#595959"/>
<path d="M8.69459 63.1779C8.58225 63.1783 8.47173 63.1491 8.37433 63.0933C8.27692 63.0374 8.19608 62.9568 8.13991 62.8597C8.05679 62.7137 8.03493 62.5407 8.07912 62.3786C8.12332 62.2165 8.22997 62.0784 8.37581 61.9945L33.0818 47.7556C33.2289 47.6712 33.4035 47.6486 33.5673 47.6927C33.7311 47.7369 33.8707 47.8442 33.9552 47.991C34.0398 48.1378 34.0624 48.3121 34.0181 48.4756C33.9739 48.639 33.8664 48.7782 33.7193 48.8626L9.01338 63.0951C8.91621 63.1501 8.80628 63.1786 8.69459 63.1779Z" fill="#595959"/>
<path d="M8.69459 58.1772C8.58225 58.1777 8.47173 58.1485 8.37433 58.0926C8.27692 58.0367 8.19608 57.9562 8.13991 57.8591C8.05679 57.713 8.03493 57.54 8.07912 57.3779C8.12332 57.2158 8.22997 57.0778 8.37581 56.9938L33.0818 42.7549C33.1545 42.7129 33.2349 42.6855 33.3183 42.6746C33.4017 42.6637 33.4864 42.6693 33.5676 42.6912C33.6487 42.7131 33.7248 42.7508 33.7913 42.8021C33.8578 42.8534 33.9136 42.9174 33.9552 42.9903C34.0383 43.1364 34.0602 43.3094 34.016 43.4715C33.9718 43.6336 33.8652 43.7717 33.7193 43.8556L9.01338 58.0945C8.91621 58.1495 8.80628 58.178 8.69459 58.1772Z" fill="#595959"/>
<path d="M8.69459 53.2145C8.58225 53.2149 8.47173 53.1857 8.37433 53.1299C8.27692 53.074 8.19608 52.9935 8.13991 52.8964C8.05679 52.7503 8.03493 52.5773 8.07912 52.4152C8.12332 52.2531 8.22997 52.115 8.37581 52.0311L33.0818 37.8176C33.1545 37.7756 33.2349 37.7483 33.3183 37.7374C33.4017 37.7264 33.4864 37.7321 33.5676 37.7539C33.6487 37.7758 33.7248 37.8135 33.7913 37.8648C33.8578 37.9162 33.9136 37.9801 33.9552 38.053C34.0383 38.1991 34.0602 38.3721 34.016 38.5342C33.9718 38.6963 33.8652 38.8344 33.7193 38.9183L9.01338 53.1572C8.91383 53.2034 8.80402 53.2231 8.69459 53.2145Z" fill="#595959"/>
<path d="M8.69458 48.2328C8.55341 48.2338 8.41585 48.188 8.30357 48.1026C8.19129 48.0172 8.1106 47.897 8.07413 47.7609C8.03766 47.6248 8.04749 47.4805 8.10207 47.3506C8.15665 47.2207 8.25297 47.1125 8.37579 47.043L33.0817 32.8105C33.1543 32.7645 33.2354 32.7335 33.3203 32.7196C33.4051 32.7057 33.4919 32.709 33.5754 32.7294C33.6589 32.7499 33.7375 32.7869 33.8062 32.8384C33.875 32.8899 33.9327 32.9547 33.9758 33.029C34.0188 33.1033 34.0463 33.1855 34.0567 33.2707C34.0671 33.3559 34.06 33.4423 34.0361 33.5247C34.0121 33.6071 33.9717 33.6838 33.9172 33.7502C33.8628 33.8167 33.7955 33.8714 33.7193 33.9112L9.01337 48.1501C8.9162 48.205 8.80627 48.2336 8.69458 48.2328Z" fill="#595959"/>
<path d="M8.69458 43.2511C8.55341 43.2521 8.41585 43.2063 8.30357 43.1209C8.19129 43.0355 8.1106 42.9153 8.07413 42.7792C8.03766 42.6431 8.04749 42.4988 8.10207 42.3689C8.15665 42.239 8.25297 42.1308 8.37579 42.0613L33.0817 27.8288C33.1543 27.7828 33.2354 27.7519 33.3203 27.7379C33.4051 27.724 33.4919 27.7273 33.5754 27.7478C33.6589 27.7682 33.7375 27.8052 33.8062 27.8567C33.875 27.9082 33.9327 27.9731 33.9758 28.0473C34.0188 28.1216 34.0463 28.2038 34.0567 28.289C34.0671 28.3742 34.06 28.4606 34.0361 28.543C34.0121 28.6254 33.9717 28.7021 33.9172 28.7685C33.8628 28.835 33.7955 28.8897 33.7193 28.9295L9.01337 43.1684C8.9162 43.2233 8.80627 43.2519 8.69458 43.2511Z" fill="#595959"/>
<path d="M8.69458 38.2694C8.55341 38.2704 8.41585 38.2246 8.30357 38.1392C8.19129 38.0538 8.1106 37.9336 8.07413 37.7975C8.03766 37.6614 8.04749 37.5171 8.10207 37.3872C8.15665 37.2573 8.25297 37.1491 8.37579 37.0797L33.0817 22.8471C33.1543 22.8011 33.2354 22.7702 33.3203 22.7562C33.4051 22.7423 33.4919 22.7457 33.5754 22.7661C33.6589 22.7865 33.7375 22.8235 33.8062 22.875C33.875 22.9265 33.9327 22.9914 33.9758 23.0656C34.0188 23.1399 34.0463 23.2222 34.0567 23.3073C34.0671 23.3925 34.06 23.4789 34.0361 23.5613C34.0121 23.6437 33.9717 23.7204 33.9172 23.7868C33.8628 23.8533 33.7955 23.908 33.7193 23.9478L9.01337 38.1867C8.9162 38.2417 8.80627 38.2702 8.69458 38.2694Z" fill="#595959"/>
<path d="M8.69458 33.2877C8.55341 33.2887 8.41585 33.2429 8.30357 33.1575C8.19129 33.0721 8.1106 32.9519 8.07413 32.8158C8.03766 32.6797 8.04749 32.5354 8.10207 32.4055C8.15665 32.2756 8.25297 32.1674 8.37579 32.098L33.0817 17.8654C33.1543 17.8194 33.2354 17.7885 33.3203 17.7746C33.4051 17.7606 33.4919 17.764 33.5754 17.7844C33.6589 17.8048 33.7375 17.8419 33.8062 17.8933C33.875 17.9448 33.9327 18.0096 33.9758 18.0839C34.0188 18.1582 34.0463 18.2404 34.0567 18.3256C34.0671 18.4108 34.06 18.4972 34.0361 18.5796C34.0121 18.662 33.9717 18.7387 33.9172 18.8052C33.8628 18.8716 33.7955 18.9263 33.7193 18.9661L9.01337 33.1986C8.91773 33.2579 8.80716 33.2888 8.69458 33.2877Z" fill="#595959"/>
<path d="M8.69458 28.306C8.55341 28.307 8.41585 28.2612 8.30357 28.1758C8.19129 28.0904 8.1106 27.9703 8.07413 27.8342C8.03766 27.6981 8.04749 27.5537 8.10207 27.4238C8.15665 27.2939 8.25297 27.1857 8.37579 27.1163L33.0817 12.8837C33.1543 12.8377 33.2354 12.8068 33.3203 12.7929C33.4051 12.7789 33.4919 12.7823 33.5754 12.8027C33.6589 12.8231 33.7375 12.8602 33.8062 12.9117C33.875 12.9631 33.9327 13.028 33.9758 13.1022C34.0188 13.1765 34.0463 13.2588 34.0567 13.3439C34.0671 13.4291 34.06 13.5155 34.0361 13.5979C34.0121 13.6804 33.9717 13.7571 33.9172 13.8235C33.8628 13.8899 33.7955 13.9446 33.7193 13.9844L9.01337 28.2169C8.91773 28.2762 8.80716 28.3071 8.69458 28.306Z" fill="#595959"/>
<path d="M51.3928 15.2313C51.3928 17.6058 50.6872 19.927 49.3652 21.9013C48.0432 23.8756 46.1642 25.4145 43.9659 26.3231C41.7675 27.2318 39.3485 27.4696 37.0147 27.0064C34.6809 26.5431 32.5372 25.3997 30.8546 23.7206C29.172 22.0416 28.0262 19.9024 27.562 17.5735C27.0978 15.2446 27.336 12.8307 28.2466 10.6369C29.1572 8.44315 30.6993 6.56813 32.6777 5.24892C34.6562 3.92971 36.9823 3.22559 39.3618 3.22559C42.5526 3.22559 45.6128 4.49048 47.869 6.742C50.1253 8.99351 51.3928 12.0472 51.3928 15.2313Z" fill="#262626"/>
<path d="M49.3399 15.2315C49.3399 17.2008 48.7546 19.1259 47.6582 20.7633C46.5618 22.4008 45.0035 23.677 43.1803 24.4306C41.357 25.1842 39.3507 25.3814 37.4152 24.9972C35.4797 24.613 33.7017 23.6647 32.3063 22.2722C30.9108 20.8796 29.9605 19.1055 29.5755 17.174C29.1905 15.2425 29.3881 13.2405 30.1433 11.4211C30.8986 9.60164 32.1775 8.04656 33.8183 6.95247C35.4592 5.85837 37.3884 5.27441 39.3618 5.27441C42.0082 5.27441 44.5461 6.32345 46.4173 8.19076C48.2886 10.0581 49.3399 12.5907 49.3399 15.2315Z" fill="white"/>
<path d="M34.3696 16.1222L37.1048 18.8707L44.0225 11.9358" stroke="#222221" stroke-width="4" stroke-linecap="round" stroke-linejoin="round"/>
<path d="M50.0348 79.9999L50.0412 67.5616L40.0823 61.8228V74.242L50.0348 79.9999Z" fill="#F2F2F2"/>
<path d="M50.0348 79.9999L50.0412 67.5616L60.0001 61.8228V74.242L50.0348 79.9999Z" fill="#E3E3E2"/>
<path d="M60.0001 61.8228L50.0412 67.5617L40.0823 61.8228L50.0348 56.0776L60.0001 61.8228Z" fill="white"/>
<path d="M48.7214 78.2249V77.5823L45.3805 75.6482V76.2971L48.7214 78.2249Z" fill="#262626"/>
<path d="M48.7214 77.0797V76.4371L45.3805 74.5029V75.1519L48.7214 77.0797Z" fill="#262626"/>
<path d="M42.3775 72.4225V74.643L40.7772 73.7141V71.5L42.3775 72.4225Z" fill="#D9D9D9"/>
<path opacity="0.7" d="M57.8068 72.1935V74.5031L59.4071 73.5805V71.271L57.8068 72.1935Z" fill="#C5C5C5"/>
<path opacity="0.7" d="M55.6262 73.4531V75.7626L57.2265 74.84V72.5305L55.6262 73.4531Z" fill="#C5C5C5"/>
<path opacity="0.7" d="M56.1235 65.4302V68.7577L59.407 66.8617V63.5342L56.1235 65.4302Z" fill="#C5C5C5"/>
<path d="M56.5253 66.1111V65.5703L59.1138 64.0815V64.616L56.5253 66.1111Z" fill="#595959"/>
<g style="mix-blend-mode:multiply">
<path d="M60.0001 61.8228L50.0348 56.0776L40.0823 61.8228V74.2421L50.0348 80L60.0001 74.2421V61.8228Z" fill="#FFFF00"/>
</g>
<path d="M43.7865 67.5743L46.0052 68.8595V65.233L43.7865 63.9414V67.5743Z" fill="#C5C5C5"/>
<path d="M43.7865 63.9415L53.7326 58.2026L55.9578 59.4878L46.0052 65.233L43.7865 63.9415Z" fill="#D9D9D9"/>
<path d="M40.0823 61.8227L40.0886 49.3844L30.1298 43.6392V56.0584L40.0823 61.8227Z" fill="#F2F2F2"/>
<path d="M40.0823 61.8227L40.0887 49.3844L50.0475 43.6392V56.0584L40.0823 61.8227Z" fill="#E3E3E2"/>
<path d="M50.0475 43.6392L40.0886 49.3844L30.1298 43.6392L40.0823 37.894L50.0475 43.6392Z" fill="white"/>
<path d="M38.7688 60.0413V59.3988L35.4215 57.4646V58.1136L38.7688 60.0413Z" fill="#262626"/>
<path d="M38.7688 58.8961V58.2598L35.4215 56.3257V56.9683L38.7688 58.8961Z" fill="#262626"/>
<path d="M32.425 54.2389V56.4594L30.8247 55.5305V53.3164L32.425 54.2389Z" fill="#D9D9D9"/>
<path opacity="0.7" d="M47.8542 54.0099V56.3195L49.4546 55.3969V53.0874L47.8542 54.0099Z" fill="#C5C5C5"/>
<path opacity="0.7" d="M45.6737 55.2697V57.5792L47.2676 56.6631V54.3472L45.6737 55.2697Z" fill="#C5C5C5"/>
<path opacity="0.7" d="M46.1647 47.2532V50.5743L49.4546 48.6783V45.3508L46.1647 47.2532Z" fill="#C5C5C5"/>
<path d="M46.5728 47.9275V47.3867L49.1549 45.8979V46.4324L46.5728 47.9275Z" fill="#595959"/>
<g style="mix-blend-mode:multiply">
<path d="M50.0475 43.6392L40.0823 37.894L30.1298 43.6392V56.0585L40.0823 61.8228L50.0475 56.0585V43.6392Z" fill="#FFFF00"/>
</g>
<path d="M33.8276 49.3907L36.0528 50.6759V47.0494L33.8276 45.7578V49.3907Z" fill="#C5C5C5"/>
<path d="M33.8276 45.7579L43.7738 40.019L45.9989 41.3042L36.0528 47.0494L33.8276 45.7579Z" fill="#D9D9D9"/>
<path d="M30.1169 79.9999L30.1233 67.5616L20.1644 61.8228V74.242L30.1169 79.9999Z" fill="#F2F2F2"/>
<path d="M30.1169 79.9999L30.1233 67.5616L40.0822 61.8228V74.242L30.1169 79.9999Z" fill="#E3E3E2"/>
<path d="M40.0822 61.8228L30.1233 67.5617L20.1644 61.8228L30.1169 56.0776L40.0822 61.8228Z" fill="white"/>
<path d="M28.8035 78.2249V77.5823L25.4626 75.6482V76.2971L28.8035 78.2249Z" fill="#262626"/>
<path d="M28.8035 77.0797V76.4371L25.4626 74.5029V75.1519L28.8035 77.0797Z" fill="#262626"/>
<path d="M22.4597 72.4225V74.643L20.8594 73.7141V71.5L22.4597 72.4225Z" fill="#D9D9D9"/>
<path opacity="0.7" d="M37.8889 72.1935V74.5031L39.4892 73.5805V71.271L37.8889 72.1935Z" fill="#C5C5C5"/>
<path opacity="0.7" d="M35.7085 73.4531V75.7626L37.3088 74.84V72.5305L35.7085 73.4531Z" fill="#C5C5C5"/>
<path opacity="0.7" d="M36.2058 65.4302V68.7577L39.4893 66.8617V63.5342L36.2058 65.4302Z" fill="#C5C5C5"/>
<path d="M36.6074 66.1111V65.5703L39.1896 64.0815V64.616L36.6074 66.1111Z" fill="#595959"/>
<g style="mix-blend-mode:multiply">
<path d="M40.0822 61.8228L30.1169 56.0776L20.1644 61.8228V74.2421L30.1169 80L40.0822 74.2421V61.8228Z" fill="#FFFF00"/>
</g>
<path d="M23.8688 67.5743L26.0875 68.8595V65.233L23.8688 63.9414V67.5743Z" fill="#C5C5C5"/>
<path d="M23.8688 63.9415L33.8149 58.2026L36.04 59.4878L26.0875 65.233L23.8688 63.9415Z" fill="#D9D9D9"/>
</g>
<defs>
<clipPath id="clip0_162_20317">
<rect width="58" height="80" fill="white"/>
</clipPath>
</defs>
</svg>
