<svg width="125" height="209" viewBox="0 0 125 209" fill="none" xmlns="http://www.w3.org/2000/svg">
<g filter="url(#filter0_d_148_13567)">
<path d="M70.7924 56.3203V56.4809L72.2819 57.3425L73.7787 56.4809V56.313L70.7924 56.3203Z" fill="#404040"/>
<path d="M72.2819 57.1746L70.7924 56.3203L72.2892 55.4514L73.7787 56.313L72.2819 57.1746Z" fill="#404040"/>
<path d="M72.3039 55.6266C72.6628 55.6266 72.9538 55.4599 72.9538 55.2542C72.9538 55.0486 72.6628 54.8818 72.3039 54.8818C71.945 54.8818 71.6541 55.0486 71.6541 55.2542C71.6541 55.4599 71.945 55.6266 72.3039 55.6266Z" fill="#404040"/>
<path d="M71.6612 55.2469V56.313C71.6647 56.3712 71.6842 56.4273 71.7177 56.4751C71.7513 56.5228 71.7975 56.5602 71.8511 56.5832C71.9925 56.655 72.1488 56.6924 72.3074 56.6924C72.466 56.6924 72.6224 56.655 72.7638 56.5832C72.8155 56.5595 72.8601 56.5228 72.8934 56.4768C72.9267 56.4307 72.9474 56.3768 72.9536 56.3203V55.2908C72.9474 55.3473 72.9267 55.4012 72.8934 55.4472C72.8601 55.4933 72.8155 55.53 72.7638 55.5536C72.6224 55.6255 72.466 55.6629 72.3074 55.6629C72.1488 55.6629 71.9925 55.6255 71.8511 55.5536C71.7918 55.5282 71.7417 55.4851 71.7077 55.4303C71.6737 55.3754 71.6575 55.3114 71.6612 55.2469Z" fill="#404040"/>
<path d="M72.7492 51.2018C72.7598 51.1779 72.7653 51.1521 72.7655 51.126C72.7656 51.1 72.7604 51.0741 72.7501 51.0501C72.7398 51.0262 72.7247 51.0046 72.7057 50.9867C72.6867 50.9688 72.6642 50.955 72.6397 50.9462C72.5387 50.896 72.4275 50.8699 72.3148 50.8699C72.202 50.8699 72.0908 50.896 71.9899 50.9462C71.954 50.9625 71.9229 50.988 71.8998 51.02C71.8768 51.052 71.8625 51.0895 71.8584 51.1288V55.2031C71.8584 55.2761 71.9022 55.3418 71.9899 55.3929C72.0898 55.4466 72.2014 55.4747 72.3148 55.4747C72.4282 55.4747 72.5398 55.4466 72.6397 55.3929C72.6756 55.3766 72.7067 55.3512 72.7297 55.3191C72.7528 55.2871 72.767 55.2496 72.7711 55.2104V51.1361C72.7671 51.1589 72.7598 51.1811 72.7492 51.2018Z" fill="#404040"/>
<path d="M74.0564 55.0716L70.15 52.8153V49.7413L74.0564 51.9976V55.0716Z" fill="#404040"/>
<path d="M86.0531 48.1423L74.0564 55.0716V51.9976L86.0531 45.0683V48.1423Z" fill="#404040"/>
<path d="M74.0564 51.9976L70.15 49.7414L82.1467 42.8121L86.0531 45.0683L74.0564 51.9976Z" fill="#404040"/>
<path d="M70.9606 52.3189L65.1046 48.9382V45.8642L70.9606 49.2449V52.3189Z" fill="#404040"/>
<path d="M90.2076 47.2151L89.7768 47.4853C89.4951 47.6821 89.2704 47.9498 89.1255 48.2614C88.9806 48.573 88.9207 48.9173 88.9517 49.2596V50.5228L89.3971 50.2599V48.9821C89.3635 48.6422 89.4209 48.2994 89.5633 47.9889C89.7057 47.6785 89.928 47.4114 90.2076 47.2151Z" fill="#D4D4D4"/>
<path d="M95.6986 52.6621C95.68 51.8045 95.4862 50.9596 95.1291 50.1796C95.0097 49.9143 94.8756 49.6559 94.7275 49.4056C94.4641 48.9433 94.156 48.508 93.8075 48.1059C93.3746 47.6046 92.8643 47.1757 92.2961 46.8354C91.9443 46.5805 91.5314 46.4233 91.0992 46.3797C90.667 46.3361 90.231 46.4076 89.8354 46.5871L89.3973 46.8646C89.7917 46.6818 90.2278 46.6078 90.6604 46.6501C91.093 46.6925 91.5065 46.8497 91.8579 47.1056C92.4259 47.4463 92.9361 47.8752 93.3694 48.3761C93.7203 48.7779 94.0309 49.2132 94.2967 49.6758C94.4412 49.9294 94.5728 50.1902 94.691 50.457C95.0481 51.2345 95.2419 52.077 95.2605 52.9323V54.2028L95.6913 53.9326L95.6986 52.6621Z" fill="#404040"/>
<path d="M91.8578 47.0691C92.8785 47.7016 93.7185 48.5869 94.2966 49.6393C94.8921 50.6241 95.224 51.7456 95.2604 52.8958V54.1663L94.7128 53.8523V52.5891C94.6815 51.6244 94.4024 50.6839 93.9023 49.8583C93.415 48.9638 92.706 48.2095 91.8432 47.6678C90.2515 46.7478 88.9226 47.4488 88.9226 49.2304V50.4936L88.3822 50.1869V48.9164C88.426 46.8208 89.974 45.9811 91.8578 47.0691Z" fill="#727272"/>
<path d="M88.1266 46.4484L74.8303 54.1736L75.9328 54.8088C77.0677 54.7256 78.1926 55.0694 79.0872 55.7727C79.5927 56.1774 79.9892 56.702 80.2408 57.2987L97.3998 67.2071L110.696 59.4819L88.1266 46.4484Z" fill="#B2B2B2"/>
<path d="M80.2627 57.2987L93.4057 64.8998L106.746 57.1965L88.1266 46.4484L74.8303 54.1736L75.9328 54.8088C77.0677 54.7256 78.1926 55.0694 79.0872 55.7727C79.6007 56.1748 80.0049 56.6996 80.2627 57.2987Z" fill="white"/>
<path d="M86.7758 48.3834L107.724 60.4822L108.089 60.2705L86.7758 47.9672L77.4297 53.4069L77.7948 53.6114L86.7758 48.3834Z" fill="url(#paint0_linear_148_13567)"/>
<path d="M75.619 58.2186L74.8888 57.7732V54.1735L76.5682 55.1446C76.2513 55.3402 75.9967 55.6219 75.8338 55.9567C75.6709 56.2915 75.6065 56.6658 75.6482 57.0358L75.619 58.2186ZM80.46 57.4082C81.0139 58.2854 81.3286 59.2923 81.3727 60.3288V61.519L97.6189 70.9163L97.984 67.5283L80.46 57.4082Z" fill="#D9D9D9"/>
<path d="M80.0365 55.6704C79.5847 55.2864 79.0955 54.9489 78.5761 54.6628C78.2412 54.4806 77.8674 54.3815 77.4862 54.3739C77.105 54.3663 76.7276 54.4503 76.3856 54.619H76.32C75.941 54.7993 75.6164 55.0767 75.3792 55.4229C75.142 55.7691 75.0005 56.1719 74.9691 56.5904C74.9691 56.6854 74.9691 56.7438 74.9691 56.7438L75.1517 58.4597L80.0365 55.6704Z" fill="#404040"/>
<path d="M78.8171 55.152C78.6279 55.0862 78.4272 55.0601 78.2275 55.0751C78.0278 55.0902 77.8333 55.1462 77.6561 55.2396L76.2542 56.0501L79.905 62.2566L81.2632 61.4242C81.4336 61.3157 81.5782 61.1711 81.6867 61.0007C81.6728 59.8739 81.408 58.7643 80.9117 57.7526C80.4153 56.741 79.6998 55.8526 78.8171 55.152Z" fill="#222221"/>
<path d="M78.0723 56.2327C76.6631 55.4222 75.5167 56.072 75.5167 57.693C75.5649 58.571 75.8195 59.4253 76.2597 60.1865C76.7 60.9477 77.3135 61.5943 78.0504 62.074C79.4597 62.8845 80.606 62.2346 80.606 60.6137C80.559 59.7354 80.3049 58.8807 79.8646 58.1193C79.4242 57.3579 78.8101 56.7115 78.0723 56.2327Z" fill="#222221"/>
<path d="M78.065 57.043C77.0574 56.4589 76.2396 56.9262 76.2323 58.0872C76.2674 58.7194 76.451 59.3344 76.7681 59.8824C77.0853 60.4305 77.5271 60.8961 78.0577 61.2415C79.0653 61.8183 79.8831 61.351 79.8904 60.1974C79.857 59.5648 79.6742 58.9491 79.3569 58.4008C79.0396 57.8525 78.5968 57.3872 78.065 57.043Z" fill="#404040"/>
<path d="M78.1017 57.1235C77.1452 56.5466 76.3493 56.9774 76.3274 58.08C76.3477 58.6847 76.5112 59.276 76.8044 59.8053C77.0976 60.3346 77.5122 60.7868 78.0141 61.1248C78.9706 61.7016 79.7665 61.2708 79.7884 60.1683C79.768 59.5635 79.6045 58.9722 79.3113 58.443C79.0181 57.9137 78.6036 57.4615 78.1017 57.1235Z" fill="#9A9A9A"/>
<path d="M79.7081 60.4166C79.5463 60.5457 79.3455 60.6161 79.1385 60.6161C78.9316 60.6161 78.7307 60.5457 78.569 60.4166C78.1714 60.1471 77.8428 59.788 77.6094 59.3682C77.376 58.9484 77.2446 58.4796 77.2255 57.9997C77.2043 57.8011 77.2493 57.601 77.3536 57.4306C77.458 57.2602 77.6157 57.1292 77.8023 57.0578C77.868 57.0578 77.7658 57.0578 77.7658 57.0578H77.3716C76.8239 57.0578 76.4442 57.4594 76.4223 58.1969C76.4453 58.7662 76.6012 59.3223 76.8776 59.8206C77.154 60.3188 77.5433 60.7455 78.0141 61.0664C78.6713 61.4607 79.2481 61.3512 79.5255 60.8693L79.6789 60.5918C79.6789 60.5918 79.7592 60.3655 79.7081 60.4166Z" fill="#B5B5B5"/>
<path d="M78.1017 57.1235C77.1452 56.5466 76.3493 56.9774 76.3274 58.08C76.3477 58.6847 76.5112 59.276 76.8044 59.8053C77.0976 60.3346 77.5122 60.7868 78.0141 61.1248C78.9706 61.7016 79.7665 61.2708 79.7884 60.1683C79.768 59.5635 79.6045 58.9722 79.3113 58.443C79.0181 57.9137 78.6036 57.4615 78.1017 57.1235ZM78.0141 61.008C77.5473 60.6847 77.1623 60.257 76.8898 59.7588C76.6172 59.2607 76.4647 58.7058 76.4442 58.1384C76.4442 57.1016 77.2182 56.6781 78.1236 57.2403C78.5944 57.5612 78.9836 57.9879 79.2601 58.4862C79.5365 58.9844 79.6924 59.5405 79.7153 60.1099C79.6715 61.1467 78.9195 61.5483 78.0141 61.008Z" fill="#D8D8D8"/>
<path d="M78.1014 57.2403C77.9839 57.1706 77.859 57.1143 77.729 57.0723C77.5619 57.1548 77.4241 57.2865 77.334 57.4497C77.2439 57.6128 77.206 57.7997 77.2252 57.985C77.2443 58.465 77.3758 58.9337 77.6091 59.3535C77.8425 59.7733 78.1711 60.1324 78.5687 60.4019C78.7202 60.5227 78.9053 60.5938 79.0987 60.6055C79.2921 60.6173 79.4844 60.5691 79.6494 60.4676C79.672 60.3495 79.6867 60.2299 79.6932 60.1098C79.6702 59.5405 79.5143 58.9844 79.2379 58.4861C78.9615 57.9879 78.5723 57.5612 78.1014 57.2403Z" fill="#9F9F9F"/>
<path d="M79.1531 58.635C79.037 58.3864 78.8552 58.1744 78.6273 58.0217L78.5032 57.9633C78.1819 57.8318 77.9264 58.0071 77.9191 58.4014V58.5036L78.5178 59.5696L78.5981 59.6207C78.9778 59.8398 79.2845 59.6645 79.2918 59.2337C79.2952 59.0258 79.2476 58.8202 79.1531 58.635Z" fill="#929292"/>
<path d="M78.5397 58.1676C78.2038 57.9632 77.9264 58.1092 77.9191 58.4962C77.926 58.7071 77.9833 58.9132 78.0861 59.0974C78.189 59.2816 78.3346 59.4385 78.5105 59.5549C78.8391 59.7594 79.1165 59.6061 79.1238 59.2264C79.1165 59.0164 79.0599 58.8111 78.9584 58.6271C78.8569 58.4432 78.7134 58.2857 78.5397 58.1676Z" fill="#B5B5B5"/>
<path d="M81.9056 60.5845C81.8941 59.7283 81.6999 58.8844 81.3361 58.1092C81.2208 57.841 81.0891 57.58 80.9418 57.3279C80.6784 56.8638 80.3677 56.4282 80.0145 56.0282C79.5832 55.5253 79.0726 55.0962 78.5031 54.7577C78.1516 54.5019 77.7382 54.3447 77.3055 54.3023C76.8729 54.26 76.4368 54.334 76.0424 54.5168L75.6116 54.787C76.0062 54.6037 76.443 54.53 76.876 54.5737C77.3089 54.6174 77.7221 54.7768 78.0722 55.0352C78.6427 55.3754 79.1533 55.8071 79.5837 56.313C79.9323 56.7124 80.2404 57.1453 80.5037 57.6054C80.6519 57.8582 80.786 58.119 80.9053 58.3867C81.2631 59.1665 81.457 60.0115 81.4748 60.8692V62.1543L81.9129 61.8842L81.9056 60.5845Z" fill="#404040"/>
<path d="M78.0724 55.0351C79.0888 55.6673 79.926 56.5497 80.5038 57.598C81.1037 58.5839 81.4383 59.7083 81.475 60.8618V62.1542L80.9346 61.8403V60.5479C80.9067 59.5826 80.6273 58.6413 80.1241 57.817C79.6406 56.9197 78.9308 56.1646 78.0651 55.6265C76.4806 54.7065 75.1444 55.4075 75.1444 57.1891V58.5034L74.6041 58.1894V56.9189C74.6406 54.7868 76.1885 53.9472 78.0724 55.0351Z" fill="#404040"/>
<path d="M80.0218 56.0501C80.3703 56.4522 80.6784 56.8875 80.9418 57.3498C81.0395 57.5173 81.1273 57.6904 81.2046 57.8682L82.7672 56.9628C82.6869 56.7876 82.5992 56.605 82.497 56.4298C82.2336 55.9675 81.9255 55.5322 81.577 55.1301C81.1431 54.627 80.6301 54.1978 80.0583 53.8596C79.7068 53.6038 79.2934 53.4466 78.8607 53.4042C78.4281 53.3618 77.992 53.4359 77.5976 53.6187L76.0424 54.5387C76.4368 54.3559 76.8729 54.2818 77.3055 54.3242C77.7381 54.3666 78.1516 54.5238 78.503 54.7796C79.0749 55.1178 79.5879 55.547 80.0218 56.0501Z" fill="#404040"/>
<path d="M91.814 49.2449C92.1625 49.647 92.4707 50.0823 92.734 50.5446C92.8303 50.7104 92.918 50.881 92.9969 51.0557L94.6179 50.1211C94.0052 48.8654 93.0704 47.7946 91.9089 47.0179C91.5513 46.7496 91.1254 46.5874 90.6799 46.55C90.2343 46.5125 89.7873 46.6013 89.3899 46.8062L87.8346 47.7262C88.2298 47.5452 88.6661 47.4728 89.0986 47.5164C89.5311 47.56 89.9442 47.7181 90.2953 47.9744C90.8687 48.3104 91.3821 48.7398 91.814 49.2449Z" fill="#404040"/>
<path d="M92.9969 51.0558L87.6155 47.9526C87.6155 47.9526 88.3457 46.8354 90.4632 47.8796C91.0896 48.195 91.6403 48.6422 92.0777 49.1904C92.515 49.7386 92.8286 50.375 92.9969 51.0558Z" fill="#404040"/>
<path d="M83.2856 60.5041L82.9132 60.2924C82.8651 60.2622 82.8244 60.2216 82.7941 60.1735C82.7638 60.1255 82.7446 60.0713 82.738 60.0149C82.738 59.92 82.8183 59.8908 82.9132 59.9419L83.2856 60.1609C83.3343 60.1887 83.3756 60.2277 83.4061 60.2747C83.4366 60.3217 83.4553 60.3753 83.4608 60.4311C83.4608 60.526 83.3805 60.5625 83.2856 60.5041Z" fill="#C3C3C3"/>
<path d="M36.241 35.6784L36 35.5397V32.4949L38.3438 31.4216L36.241 35.6784Z" fill="#404040"/>
<path d="M48.398 28.6614L36.2407 35.6783V32.6335L48.398 25.6166V28.6614Z" fill="#404040"/>
<path d="M36.241 32.6335L36 32.4948L48.1573 25.4779L48.3982 25.6166L36.241 32.6335Z" fill="#808080"/>
<path d="M43.3601 34.6635C42.9512 34.4006 42.4912 34.2254 42.0823 33.9333C42.0479 33.9098 42.0182 33.8801 41.9947 33.8457C41.5738 33.8122 41.1514 33.8877 40.768 34.0647L40.695 34.1012C40.316 34.2807 39.9917 34.558 39.7556 34.9046C39.5194 35.2511 39.38 35.6543 39.3515 36.0727C39.3515 36.1676 39.3515 36.2187 39.3515 36.2187L39.5267 37.9346L44.0319 35.3352C43.8413 35.0803 43.6151 34.8541 43.3601 34.6635Z" fill="#404040"/>
<path d="M43.1702 34.6196C42.98 34.5579 42.7795 34.5344 42.5802 34.5507C42.3809 34.567 42.1869 34.6227 42.0093 34.7145L40.6073 35.525L44.2143 41.7314L45.6163 40.9137C45.7862 40.8069 45.9287 40.6619 46.0324 40.4902C46.0216 39.3604 45.7591 38.2473 45.264 37.2318C44.7689 36.2163 44.0536 35.3239 43.1702 34.6196Z" fill="#222221"/>
<path d="M42.418 35.7002C41.0161 34.8898 39.8697 35.5396 39.8624 37.1606C39.9132 38.0388 40.1695 38.8929 40.6109 39.6538C41.0523 40.4148 41.6663 41.0614 42.4034 41.5416C43.8126 42.3521 44.9517 41.6949 44.959 40.0813C44.91 39.2026 44.6543 38.3479 44.2128 37.5867C43.7712 36.8254 43.1563 36.1791 42.418 35.7002Z" fill="#222221"/>
<path d="M42.4181 36.5327C41.4104 35.9486 40.5853 36.4159 40.5853 37.5696C40.6179 38.2015 40.7996 38.8168 41.1156 39.365C41.4316 39.9133 41.8729 40.3789 42.4034 40.7239C43.4184 41.308 44.2362 40.8407 44.2362 39.6797C44.2036 39.0488 44.0218 38.4345 43.7058 37.8875C43.3897 37.3404 42.9484 36.8761 42.4181 36.5327Z" fill="#404040"/>
<path d="M42.4545 36.5985C41.4979 36.0216 40.7021 36.4451 40.6729 37.5477C40.6952 38.1528 40.8603 38.7441 41.1547 39.2732C41.4491 39.8024 41.8644 40.2544 42.3668 40.5925C43.3234 41.1693 44.1192 40.7458 44.1411 39.6433C44.1202 39.0386 43.9565 38.4476 43.6633 37.9184C43.3702 37.3892 42.9559 36.9369 42.4545 36.5985Z" fill="#939393"/>
<path d="M44.0609 39.8842C43.8998 40.0146 43.6987 40.0857 43.4914 40.0857C43.2841 40.0857 43.0831 40.0146 42.9219 39.8842C42.5229 39.6144 42.1933 39.2542 41.9598 38.8329C41.7264 38.4117 41.5957 37.9413 41.5784 37.46C41.5784 36.9416 41.812 36.613 42.1479 36.5254C42.2209 36.5254 42.1479 36.5254 42.1479 36.5254H41.7536C41.206 36.5254 40.819 36.9197 40.8044 37.6645C40.8285 38.2326 40.985 38.7872 41.2613 39.2841C41.5377 39.781 41.9263 40.2065 42.3961 40.5267C43.0533 40.921 43.6301 40.8188 43.9003 40.3296L44.0536 40.0594C44.0536 40.0594 44.1121 39.8404 44.0609 39.8842Z" fill="#B0B0B0"/>
<path d="M42.4545 36.5985C41.4979 36.0216 40.7021 36.4451 40.6729 37.5477C40.6952 38.1528 40.8603 38.7441 41.1547 39.2732C41.4491 39.8024 41.8644 40.2544 42.3668 40.5925C43.3234 41.1693 44.1192 40.7458 44.1411 39.6433C44.1202 39.0386 43.9565 38.4476 43.6633 37.9184C43.3702 37.3892 42.9559 36.9369 42.4545 36.5985ZM42.3668 40.4756C41.897 40.1555 41.5083 39.73 41.232 39.233C40.9556 38.7361 40.7992 38.1815 40.7751 37.6134C40.7751 36.5693 41.549 36.1531 42.4472 36.7153C42.9199 37.0325 43.3107 37.4573 43.5874 37.9549C43.8641 38.4525 44.0188 39.0086 44.0389 39.5775C44.017 40.6217 43.2723 41.0233 42.3668 40.4756Z" fill="#D4D4D4"/>
<path d="M42.4472 36.7152C42.3323 36.6436 42.2099 36.5848 42.0821 36.54C41.915 36.6225 41.7772 36.7542 41.6871 36.9173C41.597 37.0805 41.5591 37.2673 41.5783 37.4527C41.5956 37.934 41.7263 38.4044 41.9598 38.8256C42.1933 39.2469 42.5229 39.607 42.9218 39.8768C43.0741 39.9965 43.2596 40.0663 43.4529 40.0767C43.6463 40.0872 43.8382 40.0378 44.0025 39.9353C44.0144 39.8163 44.0144 39.6964 44.0025 39.5775C43.9865 39.0117 43.8373 38.4577 43.5671 37.9604C43.2969 37.463 42.9132 37.0365 42.4472 36.7152Z" fill="#999999"/>
<path d="M43.4988 38.1098C43.3894 37.857 43.2061 37.6432 42.973 37.4965C42.9374 37.4692 42.8981 37.447 42.8562 37.4308C42.5276 37.3066 42.2794 37.4819 42.2721 37.8689V37.9711L42.8781 39.0371L42.9585 39.0883C43.3308 39.3 43.6448 39.1321 43.6886 38.7013C43.6719 38.4921 43.6069 38.2897 43.4988 38.1098Z" fill="#8D8D8D"/>
<path d="M42.8562 37.6353C42.5276 37.4381 42.2501 37.5842 42.2355 37.9711C42.2442 38.1816 42.3022 38.3871 42.405 38.571C42.5077 38.755 42.6523 38.9121 42.827 39.0299C43.1628 39.2343 43.4403 39.081 43.4476 38.694C43.4389 38.4835 43.3809 38.278 43.2782 38.0941C43.1754 37.9102 43.0308 37.753 42.8562 37.6353Z" fill="#B0B0B0"/>
<path d="M50.0703 38.5406C49.6614 38.2778 49.2014 38.1025 48.7925 37.8104C48.7598 37.785 48.7303 37.7556 48.7049 37.7228C48.284 37.6894 47.8616 37.7648 47.4782 37.9419H47.4125C47.0326 38.121 46.7072 38.398 46.4698 38.7445C46.2324 39.091 46.0916 39.4944 46.0617 39.9133C46.0568 39.9619 46.0568 40.0108 46.0617 40.0594L46.2369 41.7752L50.7348 39.1759C50.5491 38.9295 50.3247 38.715 50.0703 38.5406Z" fill="#404040"/>
<path d="M49.8877 38.4968C49.6981 38.4321 49.4971 38.4072 49.2974 38.4235C49.0976 38.4398 48.9034 38.4971 48.7267 38.5917L47.3248 39.4022L50.9319 45.6086L52.3338 44.7908C52.5037 44.6841 52.6462 44.5391 52.75 44.3673C52.7392 43.2376 52.4766 42.1245 51.9815 41.109C51.4864 40.0935 50.7711 39.2011 49.8877 38.4968Z" fill="#222221"/>
<path d="M49.1358 39.5774C47.7266 38.767 46.5876 39.4168 46.5803 41.0378C46.6275 41.9168 46.8825 42.7722 47.3242 43.5337C47.7658 44.2952 48.3817 44.9412 49.1213 45.4188C50.5232 46.2366 51.6696 45.5794 51.6696 43.9585C51.6219 43.0803 51.3676 42.2258 50.9274 41.4645C50.4871 40.7032 49.8732 40.0567 49.1358 39.5774Z" fill="#222221"/>
<path d="M49.1356 40.4026C48.1207 39.8258 47.3029 40.2931 47.3029 41.4467C47.3349 42.0788 47.5163 42.6943 47.8324 43.2427C48.1485 43.791 48.5901 44.2565 49.121 44.6011C50.1287 45.1852 50.9538 44.7179 50.9538 43.5569C50.9189 42.9255 50.7362 42.3111 50.4204 41.7632C50.1046 41.2153 49.6645 40.7493 49.1356 40.4026Z" fill="#404040"/>
<path d="M49.165 40.4756C48.2085 39.8988 47.4127 40.3223 47.3907 41.4248C47.4128 42.0292 47.577 42.6198 47.8701 43.1488C48.1631 43.6778 48.5768 44.1303 49.0774 44.4696C50.034 45.0464 50.8298 44.6229 50.859 43.5204C50.8367 42.9153 50.6716 42.324 50.3772 41.7948C50.0828 41.2657 49.6674 40.8136 49.165 40.4756Z" fill="#939393"/>
<path d="M50.7712 43.7614C50.6117 43.8925 50.4117 43.9642 50.2053 43.9642C49.9988 43.9642 49.7988 43.8925 49.6394 43.7614C49.2392 43.4928 48.9086 43.133 48.675 42.7114C48.4414 42.2899 48.3115 41.8189 48.2959 41.3372C48.2959 40.8188 48.5295 40.4902 48.8654 40.4026C48.9384 40.4026 48.8654 40.4026 48.8654 40.4026H48.4638C47.9162 40.4026 47.5365 40.7969 47.5219 41.5416C47.542 42.1106 47.6967 42.6667 47.9734 43.1643C48.2501 43.6618 48.6409 44.0867 49.1137 44.4039C49.7635 44.7982 50.3404 44.696 50.6178 44.2068L50.7712 43.9366C50.7712 43.9366 50.8223 43.7102 50.7712 43.7614Z" fill="#B0B0B0"/>
<path d="M49.165 40.4756C48.2085 39.8988 47.4127 40.3223 47.3907 41.4248C47.4128 42.0292 47.577 42.6198 47.8701 43.1488C48.1631 43.6778 48.5768 44.1303 49.0774 44.4696C50.034 45.0464 50.8298 44.6229 50.859 43.5204C50.8367 42.9153 50.6716 42.324 50.3772 41.7948C50.0828 41.2657 49.6674 40.8136 49.165 40.4756ZM49.0847 44.3528C48.612 44.0356 48.2212 43.6107 47.9445 43.1132C47.6678 42.6156 47.513 42.0595 47.4929 41.4905C47.4929 40.4464 48.2231 40.0302 49.165 40.5924C49.6349 40.9126 50.0235 41.3381 50.2999 41.835C50.5762 42.332 50.7327 42.8866 50.7568 43.4547C50.7349 44.4988 49.9828 44.9004 49.0847 44.3528Z" fill="#D4D4D4"/>
<path d="M49.1649 40.5924C49.0482 40.5193 48.9232 40.4604 48.7925 40.4172C48.6267 40.5008 48.4904 40.6329 48.4017 40.796C48.313 40.9591 48.2761 41.1453 48.296 41.3299C48.3115 41.8116 48.4415 42.2826 48.6751 42.7041C48.9087 43.1256 49.2393 43.4855 49.6394 43.754C49.7901 43.8741 49.9744 43.9442 50.1668 43.9546C50.3591 43.9651 50.55 43.9154 50.7128 43.8125C50.7395 43.695 50.7542 43.5751 50.7566 43.4547C50.7325 42.8866 50.576 42.332 50.2997 41.835C50.0233 41.3381 49.6347 40.9126 49.1649 40.5924Z" fill="#999999"/>
<path d="M50.2163 41.987C50.1005 41.7364 49.9188 41.5219 49.6906 41.3664L49.5665 41.308C49.2452 41.1838 48.9897 41.3591 48.9824 41.7461V41.8483L49.5811 42.9143L49.6687 42.9582C50.0411 43.1772 50.3478 43.0093 50.3624 42.5785C50.3591 42.3728 50.3092 42.1706 50.2163 41.987Z" fill="#8D8D8D"/>
<path d="M49.603 41.5124C49.2671 41.3153 48.9897 41.4613 48.9824 41.8483C48.991 42.0588 49.0491 42.2643 49.1518 42.4482C49.2545 42.6321 49.3991 42.7893 49.5738 42.907C49.9024 43.1042 50.1798 42.9581 50.1944 42.5711C50.1857 42.3607 50.1277 42.1552 50.025 41.9712C49.9222 41.7873 49.7777 41.6301 49.603 41.5124Z" fill="#B0B0B0"/>
<path d="M56.7878 42.4398C56.379 42.1769 55.9189 42.0017 55.5101 41.7096C55.4773 41.6842 55.4479 41.6547 55.4224 41.622C55.0015 41.5885 54.5791 41.664 54.1958 41.841H54.1227C53.7437 42.0205 53.4195 42.2978 53.1833 42.6444C52.9472 42.9909 52.8077 43.3941 52.7792 43.8125C52.7792 43.9074 52.7792 43.9585 52.7792 43.9585L52.9545 45.6744L57.4596 43.075C57.2699 42.8298 57.0433 42.6155 56.7878 42.4398Z" fill="#404040"/>
<path d="M56.5979 42.3741C56.4082 42.3117 56.2079 42.2872 56.0087 42.3023C55.8095 42.3173 55.6152 42.3715 55.4369 42.4618L54.035 43.2795L57.6421 49.486L59.044 48.6682C59.2155 48.5635 59.3585 48.418 59.4602 48.2447C59.4494 47.1149 59.1868 46.0018 58.6917 44.9863C58.1966 43.9708 57.4813 43.0784 56.5979 42.3741Z" fill="#222221"/>
<path d="M55.8458 43.4547C54.4439 42.6442 53.2975 43.2941 53.2975 44.915C53.3452 45.7932 53.5995 46.6477 54.0397 47.4089C54.48 48.1702 55.0939 48.8168 55.8313 49.296C57.2405 50.1138 58.3795 49.4567 58.3868 47.8357C58.3384 46.9569 58.083 46.102 57.6414 45.3407C57.1998 44.5793 56.5846 43.9331 55.8458 43.4547Z" fill="#222221"/>
<path d="M55.8459 44.2799C54.8382 43.7031 54.0205 44.1704 54.0132 45.324C54.0466 45.9567 54.2294 46.5724 54.5467 47.1207C54.864 47.669 55.3067 48.1342 55.8386 48.4784C56.8462 49.0625 57.664 48.5952 57.6713 47.4342C57.635 46.8023 57.451 46.1877 57.134 45.6399C56.8169 45.092 56.3757 44.6262 55.8459 44.2799Z" fill="#404040"/>
<path d="M55.8823 44.3529C54.9257 43.776 54.1299 44.1995 54.1006 45.3021C54.1241 45.9069 54.2897 46.4978 54.584 47.0268C54.8783 47.5557 55.293 48.008 55.7946 48.3469C56.7511 48.9237 57.547 48.5002 57.5689 47.3904C57.5486 46.7866 57.3851 46.1964 57.0918 45.6682C56.7986 45.1401 56.384 44.6893 55.8823 44.3529Z" fill="#939393"/>
<path d="M57.4596 47.6387C57.2991 47.7704 57.0978 47.8423 56.8901 47.8423C56.6824 47.8423 56.4812 47.7704 56.3206 47.6387C55.9229 47.3676 55.5942 47.0072 55.3609 46.5862C55.1276 46.1652 54.9961 45.6954 54.9771 45.2145C54.9771 44.6961 55.2107 44.3675 55.5539 44.2799C55.6196 44.2799 55.5539 44.2799 55.5539 44.2799H55.1596C54.612 44.2799 54.225 44.6815 54.2104 45.4263C54.2345 45.9944 54.391 46.549 54.6673 47.0459C54.9437 47.5428 55.3323 47.9683 55.8021 48.2885C56.4593 48.6828 57.0361 48.5806 57.3063 48.0914L57.4596 47.8212C57.4596 47.8212 57.54 47.5876 57.4596 47.6387Z" fill="#B0B0B0"/>
<path d="M55.8823 44.3529C54.9257 43.776 54.1299 44.1995 54.1006 45.3021C54.1241 45.9069 54.2897 46.4978 54.584 47.0268C54.8783 47.5557 55.293 48.008 55.7946 48.3469C56.7511 48.9237 57.547 48.5002 57.5689 47.3904C57.5486 46.7866 57.3851 46.1964 57.0918 45.6682C56.7986 45.1401 56.384 44.6893 55.8823 44.3529ZM55.7946 48.23C55.3247 47.9099 54.9361 47.4844 54.6598 46.9874C54.3834 46.4905 54.2269 45.9359 54.2028 45.3678C54.2028 44.3236 54.9768 43.9075 55.8749 44.4697C56.3476 44.7864 56.7379 45.2113 57.0135 45.7091C57.289 46.2069 57.4419 46.7632 57.4594 47.3319C57.4594 48.3688 56.7292 48.7777 55.7946 48.23Z" fill="#D4D4D4"/>
<path d="M55.8753 44.4697C55.762 44.3952 55.6392 44.3362 55.5102 44.2944C55.3437 44.3777 55.2064 44.5096 55.1165 44.6725C55.0265 44.8355 54.9882 45.0219 55.0064 45.2071C55.0254 45.6881 55.1569 46.1578 55.3902 46.5788C55.6235 46.9998 55.9521 47.3602 56.3499 47.6313C56.5021 47.7509 56.6876 47.8208 56.8809 47.8312C57.0743 47.8417 57.2662 47.7923 57.4305 47.6897C57.4424 47.5708 57.4424 47.4509 57.4305 47.3319C57.4163 46.7658 57.2679 46.2111 56.9975 45.7135C56.7272 45.2159 56.3425 44.7896 55.8753 44.4697Z" fill="#999999"/>
<path d="M56.9338 45.8644C56.8189 45.6109 56.6339 45.3956 56.4008 45.2437L56.284 45.1853C55.9627 45.0612 55.7071 45.2364 55.6998 45.6234V45.7256L56.2985 46.7917L56.3789 46.8355C56.7513 47.0545 57.0652 46.8866 57.109 46.4558C57.097 46.2478 57.0371 46.0453 56.9338 45.8644Z" fill="#8D8D8D"/>
<path d="M56.3131 45.3605C55.9846 45.1634 55.7071 45.3094 55.6998 45.6964C55.7088 45.906 55.7662 46.1107 55.8675 46.2944C55.9689 46.4781 56.1114 46.6358 56.284 46.7552C56.6198 46.9523 56.8973 46.8063 56.9046 46.4193C56.8959 46.2088 56.8379 46.0033 56.7351 45.8194C56.6324 45.6355 56.4878 45.4783 56.3131 45.3605Z" fill="#B0B0B0"/>
<path d="M61.2127 46.9303C61.1941 46.0749 61.0002 45.2325 60.6431 44.455C60.5249 44.1881 60.3933 43.9274 60.2489 43.6737C59.983 43.2112 59.6724 42.7759 59.3215 42.374C58.8615 41.8483 45.0687 33.7507 44.5357 33.4368H44.4553L44.3823 33.3857C44.0309 33.1298 43.6174 32.9726 43.1848 32.9303C42.7521 32.8879 42.316 32.9619 41.9216 33.1447L39.9356 34.2619C41.1258 34.2181 44.9883 36.3355 47.5804 37.7375C48.388 38.194 49.1704 38.6937 49.9243 39.2343L56.0139 42.8267C56.8037 43.296 57.4827 43.9305 58.0045 44.6866C58.5262 45.4428 58.8784 46.3028 59.0368 47.2077C59.1171 47.675 59.0368 48.4782 59.0368 48.9601L59.2047 49.3836L61.1689 48.23L61.2127 46.9303Z" fill="#404040"/>
<path d="M59.2559 49.3545V48.084C59.2231 46.9332 58.8909 45.8107 58.2921 44.8275C57.7162 43.7735 56.8756 42.8876 55.8533 42.2573L42.4182 34.5029C40.5344 33.4149 38.9937 34.2546 38.9791 36.3794V37.6499L39.5121 37.9566V36.6934C39.5121 34.9118 40.8191 34.2108 42.4328 35.1235C43.2964 35.6641 44.0057 36.4187 44.4919 37.314C44.992 38.1396 45.2711 39.0801 45.3024 40.0449V41.308L45.7112 41.549L46.2516 41.8557V40.5852C46.2516 38.8109 47.5659 38.1099 49.1723 39.0226C50.0359 39.5633 50.7451 40.3178 51.2313 41.2131C51.7292 42.0393 52.0058 42.9798 52.0345 43.9439V45.2071L52.5748 45.5211L52.9837 45.7548V44.4843C52.9837 42.71 54.298 42.009 55.9044 42.9217C56.7714 43.4581 57.4817 44.2137 57.9635 45.1122C58.4636 45.9378 58.7427 46.8783 58.774 47.843V49.0113L59.2559 49.3545Z" fill="#404040"/>
<path d="M65.1628 49.997L64.7174 49.7415V47.9307L65.1628 48.1935V49.997Z" fill="#404040"/>
<path d="M65.3234 49.902L65.1628 49.9969V48.1934L65.3234 48.0912V49.902Z" fill="#404040"/>
<path d="M65.1629 48.1935L64.7175 47.9306L64.8781 47.8357L65.3235 48.0913L65.1629 48.1935Z" fill="#404040"/>
<path d="M71.5443 53.6844L71.0989 53.4216V51.618L71.5443 51.8809V53.6844Z" fill="#404040"/>
<path d="M71.7122 53.5895L71.5443 53.6844V51.8809L71.7122 51.7787V53.5895Z" fill="#404040"/>
<path d="M71.5444 51.8808L71.099 51.6179L71.2669 51.523L71.7123 51.7786L71.5444 51.8808Z" fill="#404040"/>
<path d="M63.2498 48.2446L63.0089 48.3761L72.8661 54.7723L73.0998 54.6409V53.9326L63.2498 48.2446Z" fill="#808080"/>
<path d="M72.866 54.7723L63.0088 49.0843V48.376L72.866 54.064V54.7723Z" fill="#404040"/>
<path d="M63.2498 46.5214L63.0089 46.6601L72.8661 53.0564L73.0998 52.9249V52.2167L63.2498 46.5214Z" fill="#808080"/>
<path d="M72.866 53.0564L63.0088 47.3684V46.6601L72.866 52.3481V53.0564Z" fill="#404040"/>
<path d="M92.8214 63.8848L36.0144 31.0857V29.64L92.8214 62.4318V63.8848Z" fill="url(#paint1_linear_148_13567)"/>
<path d="M107.804 55.2323L92.8214 63.8848V62.4317L107.804 53.7866V55.2323Z" fill="#B2B2B2"/>
<path d="M92.8362 63.3225L36 30.5088V9.04919L106.95 33.7143L92.8362 63.3225Z" fill="#D9D9D9"/>
<path d="M107.812 54.6773L92.8363 63.3225V41.8629L107.812 33.2177V54.6773Z" fill="#E3E3E2"/>
<path d="M92.8362 41.863L36 9.04924L50.9757 0.404053L107.812 33.2178L92.8362 41.863Z" fill="white"/>
<path d="M95.8078 41.2788L93.5589 42.5712V42.3156L95.8078 41.0159V41.2788ZM95.8078 41.768L93.5589 43.0677V43.3233L95.8078 42.0309V41.768Z" fill="#BFBFBF"/>
<path d="M107.162 34.7219L104.921 36.0143V35.7587L107.17 34.459L107.162 34.7219ZM107.162 35.2184L104.921 36.5108V36.7737L107.17 35.474L107.162 35.2184Z" fill="#BFBFBF"/>
<path d="M124.671 52.662C124.633 52.6396 124.589 52.6278 124.544 52.6278C124.499 52.6278 124.455 52.6396 124.416 52.662L124.058 52.8665C123.952 52.9371 123.865 53.0312 123.801 53.1414C123.738 53.2516 123.701 53.3749 123.693 53.5017V56.0865C123.691 56.1325 123.7 56.1783 123.719 56.2201C123.738 56.262 123.767 56.2988 123.803 56.3275L123.992 56.437L124.869 52.7424L124.671 52.662Z" fill="#404040"/>
<path d="M124.635 52.7717C124.832 52.6548 125 52.7717 125 52.9834V55.5828C124.994 55.7101 124.958 55.834 124.894 55.9445C124.831 56.0549 124.742 56.1487 124.635 56.2181L124.277 56.4225C124.08 56.5393 123.912 56.4225 123.912 56.2108V53.6114C123.918 53.4841 123.954 53.3601 124.018 53.2497C124.081 53.1392 124.17 53.0455 124.277 52.9761L124.635 52.7717Z" fill="#222221"/>
<path d="M122.839 54.5604C122.818 54.5606 122.798 54.5553 122.78 54.5451C122.762 54.5348 122.747 54.5199 122.736 54.502C122.72 54.4747 122.714 54.442 122.721 54.4107C122.728 54.3794 122.746 54.352 122.773 54.3341L123.664 53.8084C123.69 53.792 123.722 53.7867 123.752 53.7935C123.782 53.8003 123.808 53.8188 123.824 53.8449C123.841 53.873 123.845 53.9064 123.837 53.9378C123.829 53.9692 123.808 53.9961 123.781 54.0128L122.897 54.5385C122.881 54.5522 122.86 54.5599 122.839 54.5604Z" fill="#404040"/>
<path d="M102.861 69.3318C102.693 69.2223 101.635 68.4775 101.481 68.5651C101.451 68.5844 101.418 68.5975 101.383 68.6038C101.348 68.6101 101.312 68.6093 101.277 68.6016C100.836 68.7973 100.406 69.0191 99.9918 69.2661C99.6799 69.7606 99.5106 70.3317 99.5026 70.9163L99.6778 72.6322L103.898 70.1861C103.592 69.857 103.243 69.5697 102.861 69.3318Z" fill="#404040"/>
<path d="M106.052 72.0262C105.805 71.4604 105.473 70.9359 105.067 70.4709C104.746 70.1 104.369 69.7821 103.949 69.529C103.689 69.3406 103.384 69.225 103.064 69.1942C102.744 69.1634 102.422 69.2185 102.131 69.3537L100.729 70.1861L104.38 76.4072L105.789 75.5894C106.043 75.404 106.244 75.1555 106.372 74.8686C106.5 74.5818 106.551 74.2664 106.52 73.9538C106.501 73.2856 106.341 72.6288 106.052 72.0262Z" fill="#222221"/>
<path d="M102.547 70.3467C101.138 69.5362 99.9917 70.1861 99.9844 71.8071C100.033 72.6868 100.289 73.5426 100.732 74.3041C101.175 75.0657 101.792 75.7113 102.533 76.1881C103.942 77.0059 105.088 76.3487 105.088 74.7277C105.038 73.8494 104.782 72.9951 104.341 72.234C103.899 71.473 103.285 70.8264 102.547 70.3467Z" fill="#222221"/>
<path d="M102.547 71.1792C101.533 70.595 100.707 71.0623 100.707 72.2233C100.74 72.8572 100.922 73.4743 101.239 74.024C101.557 74.5736 102 75.0401 102.533 75.3849C103.54 75.969 104.366 75.5017 104.373 74.3408C104.338 73.7076 104.154 73.0915 103.837 72.5423C103.52 71.9931 103.078 71.5262 102.547 71.1792Z" fill="#404040"/>
<path d="M102.54 71.4055C101.664 70.8652 100.919 71.2522 100.89 72.2744C100.903 72.8344 101.049 73.3832 101.315 73.8758C101.582 74.3684 101.962 74.7905 102.423 75.1075C103.3 75.6478 104.037 75.2608 104.074 74.2459C104.061 73.6849 103.915 73.135 103.649 72.6413C103.382 72.1475 103.002 71.724 102.54 71.4055Z" fill="#B0B0B0"/>
<path d="M103.635 72.9023C103.398 72.3739 103.019 71.9216 102.54 71.5953C102.46 71.5416 102.375 71.4975 102.285 71.4639C101.605 71.1864 101.072 71.5515 101.043 72.3693V72.581C101.043 71.8509 101.54 71.5004 102.138 71.7486C102.22 71.7787 102.299 71.8179 102.372 71.8655C102.801 72.1543 103.138 72.5597 103.343 73.0337C103.51 73.3775 103.597 73.7543 103.599 74.1363C103.599 74.9541 102.978 75.2681 102.27 74.8665L102.423 74.9614C103.219 75.4506 103.884 75.1001 103.884 74.1801C103.903 73.7405 103.818 73.3026 103.635 72.9023Z" fill="#D4D4D4"/>
<path d="M103.906 72.8001C103.633 72.1787 103.19 71.6472 102.628 71.2667C102.531 71.2099 102.431 71.1587 102.328 71.1134C101.54 70.7921 100.919 71.2229 100.868 72.1794V72.3035C100.868 71.3616 101.489 70.96 102.233 71.2594C102.331 71.3023 102.426 71.351 102.518 71.4054C103.055 71.7667 103.478 72.2732 103.738 72.8658C103.948 73.2953 104.055 73.7677 104.052 74.2458C104.015 75.2607 103.278 75.6477 102.401 75.1074L102.474 75.1585C103.402 75.728 104.183 75.3191 104.219 74.2458C104.229 73.746 104.121 73.251 103.906 72.8001Z" fill="#D4D4D4"/>
<path d="M123.62 60.0952L110.324 67.8203V78.1376C110.324 78.1741 110.324 78.196 110.324 78.2033L123.62 70.4781C123.625 70.4679 123.628 70.4567 123.628 70.4453C123.628 70.4339 123.625 70.4226 123.62 70.4124V60.0952Z" fill="#404040"/>
<path d="M123.766 58.54L120.32 56.5466L119.787 55.6339L115.954 53.4215L101.628 54.3415L99.4882 56.2034L100.109 61.5702L105.95 66.1045L111.266 68.3023L123.248 63.0378L124.058 58.9197L123.766 58.54Z" fill="#222221"/>
<g opacity="0.3">
<path d="M118.794 58.1456C118.246 58.3446 117.752 58.6687 117.351 59.092C116.951 59.5154 116.655 60.0264 116.486 60.5844C116.296 61.5555 117.027 62.0447 118.107 61.6723C118.655 61.4751 119.149 61.1525 119.549 60.7303C119.95 60.3081 120.246 59.798 120.415 59.2409C120.634 58.2697 119.903 57.7732 118.794 58.1456ZM118.794 58.4596C118.855 58.4367 118.919 58.4196 118.983 58.4085L118.502 59.9637L117.282 59.6352C117.662 59.1055 118.187 58.6972 118.794 58.4596ZM120.188 59.3942C120.042 59.8732 119.786 60.3117 119.441 60.6753C119.097 61.0389 118.673 61.3177 118.202 61.4898C117.268 61.8111 116.647 61.3876 116.808 60.5479C116.873 60.2868 116.984 60.0395 117.136 59.8177L118.64 60.2193L119.239 58.3866C119.376 58.3516 119.52 58.3539 119.656 58.3931C119.792 58.4324 119.915 58.5072 120.013 58.6099C120.11 58.7125 120.179 58.8393 120.211 58.9772C120.243 59.1151 120.238 59.259 120.195 59.3942H120.188Z" fill="#404040"/>
<path d="M122.649 58.3282C117.663 60.1192 113.087 62.8926 109.192 66.4842L109.652 67.3604L112.171 69.069L123.905 61.6943C123.949 60.9641 124.284 59.6644 123.817 59.0803L122.649 58.3282Z" fill="#404040"/>
<path d="M121.481 58.759C121.108 60.2194 118.137 61.6797 115.639 61.6359C116.369 60.878 117.199 60.2245 118.107 59.6937C120.203 58.5692 121.481 58.759 121.481 58.759Z" fill="#757575"/>
</g>
<path d="M123.109 52.684L122.379 52.8958L123.291 58.5692L123.905 58.9197L123.109 52.684Z" fill="#404040"/>
<path style="mix-blend-mode:screen" opacity="0.45" d="M123.029 52.7133L110.294 60.1098C110.17 60.1816 110.029 60.2194 109.886 60.2194C109.742 60.2194 109.601 60.1816 109.477 60.1098L102.686 56.1889C102.623 56.1537 102.553 56.1337 102.482 56.1304C102.438 56.1312 102.395 56.1411 102.355 56.1595C102.315 56.178 102.279 56.2046 102.251 56.2376C102.222 56.2706 102.2 56.3094 102.187 56.3513C102.174 56.3932 102.17 56.4373 102.175 56.4809V60.5699C102.181 60.7028 102.219 60.8323 102.285 60.9479C102.351 61.0634 102.443 61.1616 102.555 61.2343L106.359 63.4248L106.87 64.3083C106.883 64.3289 106.901 64.3463 106.921 64.3594L110.367 66.3455C110.521 66.4346 110.694 66.4824 110.871 66.4842C111.051 66.4823 111.227 66.4346 111.382 66.3455L124.007 59.0073L123.029 52.7133Z" fill="url(#paint2_linear_148_13567)"/>
<path d="M117.998 62.4975L124 59.0146L123.021 52.7133L117.998 55.6339V62.4975Z" fill="#4F4F4F"/>
<path d="M123.182 52.4285L122.81 52.852L123.773 59.1095L124.014 58.9927L124.16 58.7736L123.182 52.4285Z" fill="#737373"/>
<path d="M110.032 59.7812L108.666 59.2555L109.689 65.9949C110.01 66.8492 110.769 67.3677 111.09 66.5864L110.032 59.7812Z" fill="#737373"/>
<path d="M103.964 56.0866L103.299 55.9697V62.4025C103.348 62.5677 103.433 62.7196 103.55 62.8463C103.666 62.9729 103.811 63.0709 103.971 63.1327L103.964 56.0866Z" fill="#737373"/>
<path d="M110.199 42.8414L96.9031 50.5666L108.907 57.4959L122.203 49.7707L110.199 42.8414Z" fill="white"/>
<path d="M124.16 66.6521L123.963 66.5353C124.041 66.4738 124.107 66.3998 124.16 66.3163V58.7882L123.788 58.9927L111.309 66.2432C111.174 66.3221 111.02 66.3637 110.864 66.3637C110.707 66.3637 110.554 66.3221 110.419 66.2432L106.972 64.2572L106.446 63.3372L102.613 61.1467C102.521 61.0847 102.444 61.0025 102.388 60.9064C102.333 60.8102 102.3 60.7026 102.292 60.5917V56.5028C102.292 56.2984 102.438 56.218 102.613 56.3203L109.404 60.2413C109.548 60.3239 109.712 60.3673 109.878 60.3673C110.045 60.3673 110.208 60.3239 110.353 60.2413L123.08 52.8447L123.218 52.7205V52.1583C123.22 51.9349 123.167 51.7145 123.065 51.5158L122.196 49.7999L108.907 57.525L96.8885 50.5738V64.2061L97.1075 64.3302L96.8885 64.4616V70.4782L99.612 72.0481V70.8652C99.612 69.0398 101.459 68.609 103.051 69.529C103.889 70.0733 104.586 70.8084 105.084 71.674C105.583 72.5396 105.87 73.511 105.921 74.5087V75.6916L110.156 78.1377C110.365 78.2595 110.603 78.3237 110.846 78.3237C111.088 78.3237 111.326 78.2595 111.536 78.1377L123.868 70.9674C123.968 70.9097 124.051 70.8267 124.109 70.7267C124.166 70.6267 124.197 70.5133 124.197 70.3979V66.6521H124.16Z" fill="#D9D9D9"/>
<path d="M123.226 52.1364V52.6986L123.087 52.8228L110.36 60.2194C110.251 60.2834 110.13 60.3248 110.005 60.3411C109.879 60.3574 109.752 60.3483 109.63 60.3143L108.9 57.5031L122.189 49.778L123.058 51.4938C123.165 51.6913 123.223 51.9118 123.226 52.1364ZM124.16 66.6521L123.963 66.5353C124.041 66.4738 124.107 66.3998 124.16 66.3162V58.7882L123.788 58.9927L111.309 66.2432C111.198 66.3034 111.076 66.3391 110.95 66.348C110.824 66.3568 110.697 66.3385 110.579 66.2943V78.2837C110.905 78.3527 111.245 78.3008 111.536 78.1377L123.868 70.9674C123.968 70.9097 124.051 70.8267 124.109 70.7267C124.167 70.6267 124.197 70.5133 124.197 70.3979V66.6521H124.16Z" fill="#D9D9D9"/>
<path d="M124.16 66.6521L123.963 66.5353C123.927 66.5683 123.888 66.5977 123.847 66.6229L111.098 73.983C111.047 74.0121 110.989 74.0272 110.93 74.0268C110.855 74.0282 110.782 74.0022 110.725 73.9538L106.308 69.9379C105.745 69.4305 105.131 68.9827 104.475 68.6017L97.0859 64.3448L96.8668 64.4616L104.358 68.7842C105.015 69.1654 105.63 69.6158 106.191 70.1277L110.572 74.129C110.668 74.2048 110.786 74.2459 110.908 74.2459C111.006 74.2485 111.102 74.2232 111.185 74.1728L123.934 66.8128C124.016 66.7693 124.092 66.7153 124.16 66.6521Z" fill="#222221"/>
<path d="M114.471 74.7715C114.427 74.7717 114.384 74.7628 114.344 74.7452C114.304 74.7276 114.268 74.7018 114.238 74.6695C114.208 74.6372 114.186 74.599 114.172 74.5575C114.158 74.516 114.153 74.472 114.157 74.4284V73.5741C114.166 73.4262 114.211 73.2828 114.287 73.1557C114.363 73.0287 114.469 72.9218 114.595 72.8439L120.75 69.2953C120.827 69.2466 120.915 69.2189 121.006 69.215C121.05 69.2147 121.093 69.2236 121.132 69.2413C121.172 69.2589 121.208 69.2848 121.237 69.3173C121.266 69.3498 121.288 69.388 121.301 69.4296C121.314 69.4711 121.318 69.5149 121.313 69.5582V70.4124C121.305 70.5598 121.261 70.703 121.186 70.8301C121.111 70.9572 121.007 71.0644 120.882 71.1426L114.719 74.6912C114.646 74.7407 114.56 74.7685 114.471 74.7715Z" fill="url(#paint3_linear_148_13567)"/>
<path d="M120.816 69.456L114.661 73.0046C114.556 73.0667 114.467 73.1525 114.401 73.2552C114.335 73.3579 114.294 73.4746 114.281 73.596V74.4503C114.281 74.6548 114.449 74.7278 114.661 74.6036L120.816 71.055C120.919 70.9913 121.006 70.9049 121.071 70.8024C121.135 70.6999 121.176 70.584 121.189 70.4636V69.6093C121.189 69.383 121.021 69.3099 120.816 69.456Z" fill="#222221"/>
<path d="M113.237 72.0627C113.185 72.0642 113.133 72.0543 113.084 72.0337C113.036 72.0131 112.993 71.9824 112.957 71.9436C112.922 71.9048 112.895 71.8588 112.879 71.8088C112.863 71.7588 112.858 71.7059 112.865 71.6538V68.6528C112.88 68.4709 112.938 68.2952 113.034 68.1402C113.131 67.9853 113.263 67.8556 113.42 67.762L121.51 63.0963C121.602 63.0373 121.708 63.0045 121.817 63.0014C121.869 62.9999 121.921 63.0098 121.97 63.0304C122.018 63.0509 122.061 63.0817 122.097 63.1205C122.132 63.1593 122.158 63.2053 122.174 63.2553C122.19 63.3053 122.195 63.3581 122.189 63.4102V66.4112C122.174 66.5932 122.116 66.7689 122.019 66.9239C121.923 67.0788 121.791 67.2085 121.634 67.302L113.544 71.9751C113.45 72.0291 113.345 72.0592 113.237 72.0627Z" fill="url(#paint4_linear_148_13567)"/>
<path d="M121.576 63.2057L113.478 67.8715C113.342 67.9552 113.227 68.0692 113.142 68.2048C113.057 68.3403 113.005 68.4936 112.989 68.6528V71.6464C112.989 71.9239 113.208 72.0115 113.478 71.8582L121.576 67.1851C121.712 67.1019 121.828 66.9879 121.913 66.8523C121.997 66.7167 122.05 66.5631 122.065 66.4038V63.4029C122.065 63.14 121.846 63.0451 121.576 63.2057Z" fill="#222221"/>
<path d="M123.817 67.7036L121.751 68.8938C121.683 68.9352 121.627 68.9918 121.585 69.0589C121.543 69.1261 121.517 69.202 121.51 69.2808V70.0109C121.51 70.1424 121.619 70.1862 121.751 70.1132L123.817 68.923V67.7036Z" fill="#DEDEDE"/>
<path opacity="0.8" d="M123.81 67.7036L123.503 67.8789V68.7185L123.81 68.8938V68.5871V67.7036Z" fill="#808080"/>
<g style="mix-blend-mode:screen">
<path d="M122.539 69.0617C122.445 69.0617 122.415 68.9594 122.466 68.8353C122.489 68.7778 122.525 68.7269 122.572 68.6874C122.62 68.6478 122.676 68.6208 122.737 68.6089C122.832 68.6089 122.861 68.7112 122.81 68.8353C122.787 68.8928 122.751 68.9437 122.704 68.9832C122.656 69.0228 122.6 69.0498 122.539 69.0617ZM122.269 69.1493C122.32 69.0251 122.269 68.9229 122.196 68.9229C122.136 68.9348 122.079 68.9618 122.032 69.0013C121.985 69.0409 121.948 69.0918 121.926 69.1493C121.875 69.2734 121.926 69.3683 121.999 69.3683C122.059 69.3578 122.115 69.3322 122.163 69.2938C122.21 69.2555 122.247 69.2058 122.269 69.1493ZM123.277 68.295C123.216 68.3068 123.16 68.3338 123.113 68.3734C123.065 68.413 123.029 68.4639 123.007 68.5213C122.956 68.6455 123.007 68.7477 123.08 68.7477C123.14 68.7358 123.197 68.7088 123.244 68.6693C123.291 68.6297 123.328 68.5788 123.35 68.5213C123.401 68.3972 123.372 68.295 123.277 68.295ZM121.656 69.2296C121.6 69.2342 121.547 69.2604 121.51 69.3026V69.6677C121.559 69.6491 121.603 69.6207 121.641 69.5843C121.679 69.5479 121.709 69.5042 121.729 69.4559C121.78 69.3318 121.751 69.2296 121.656 69.2296Z" fill="white"/>
</g>
<g style="mix-blend-mode:screen" opacity="0.45">
<path d="M123.817 67.7036L121.751 68.8938C121.683 68.9352 121.627 68.9918 121.585 69.0589C121.543 69.1261 121.517 69.202 121.51 69.2808V70.0109C121.51 70.1424 121.619 70.1862 121.751 70.1132L123.817 68.923V67.7036Z" fill="#C3C3C3"/>
</g>
<path d="M113.726 73.5302L111.616 74.7496V75.9398L113.726 74.7204C113.793 74.6806 113.85 74.6254 113.892 74.5594C113.934 74.4934 113.96 74.4185 113.967 74.3407V73.6106C113.967 73.501 113.858 73.4499 113.726 73.5302Z" fill="#DEDEDE"/>
<path opacity="0.8" d="M113.726 73.5302L113.61 73.5959V74.5671L113.777 74.6693C113.831 74.6283 113.876 74.5766 113.908 74.5175C113.941 74.4585 113.961 74.3933 113.967 74.3261V73.5959C113.967 73.501 113.858 73.4499 113.726 73.5302Z" fill="#808080"/>
<g style="mix-blend-mode:screen">
<path d="M112.697 74.7424C112.602 74.7424 112.573 74.6402 112.624 74.5161C112.646 74.4586 112.682 74.4077 112.73 74.3681C112.777 74.3285 112.833 74.3016 112.894 74.2897C112.981 74.2897 113.018 74.3919 112.96 74.5161C112.939 74.5733 112.904 74.6243 112.858 74.664C112.812 74.7037 112.756 74.7307 112.697 74.7424ZM112.419 74.83C112.478 74.7059 112.419 74.6037 112.354 74.6037C112.293 74.6155 112.237 74.6425 112.189 74.6821C112.142 74.7217 112.106 74.7726 112.083 74.83C112.032 74.9542 112.083 75.0564 112.156 75.0564C112.216 75.0447 112.272 75.0177 112.318 74.978C112.364 74.9383 112.399 74.8873 112.419 74.83ZM113.434 73.983C113.374 73.9936 113.318 74.0192 113.271 74.0575C113.223 74.0959 113.187 74.1456 113.164 74.2021C113.113 74.3262 113.164 74.4284 113.237 74.4284C113.297 74.4168 113.352 74.3898 113.398 74.3501C113.445 74.3104 113.479 74.2594 113.5 74.2021C113.558 74.078 113.522 73.983 113.434 73.983ZM111.813 74.9176C111.758 74.9223 111.707 74.9455 111.667 74.9834V75.3558C111.762 75.3151 111.838 75.2392 111.879 75.144C111.937 75.0199 111.901 74.9176 111.813 74.9176Z" fill="white"/>
</g>
<g style="mix-blend-mode:screen" opacity="0.45">
<path d="M113.726 73.5302L111.616 74.7496V75.9398L113.726 74.7204C113.793 74.6806 113.85 74.6254 113.892 74.5594C113.934 74.4934 113.96 74.4185 113.967 74.3407V73.6106C113.967 73.501 113.858 73.4499 113.726 73.5302Z" fill="#C3C3C3"/>
</g>
<path d="M123.576 70.1861L121.663 71.2887C121.575 71.3398 121.503 71.2887 121.503 71.2156V70.9528C121.508 70.8998 121.525 70.8487 121.553 70.8032C121.581 70.7577 121.618 70.719 121.663 70.6899L123.576 69.5874C123.664 69.5363 123.744 69.5874 123.744 69.6604V69.9232C123.737 69.9767 123.719 70.0281 123.69 70.0735C123.661 70.119 123.622 70.1574 123.576 70.1861Z" fill="#DEDEDE"/>
<g style="mix-blend-mode:screen" opacity="0.45">
<path d="M123.576 70.1861L121.663 71.2887C121.575 71.3398 121.503 71.2887 121.503 71.2156V70.9528C121.508 70.8998 121.525 70.8487 121.553 70.8032C121.581 70.7577 121.618 70.719 121.663 70.6899L123.576 69.5874C123.664 69.5363 123.744 69.5874 123.744 69.6604V69.9232C123.737 69.9767 123.719 70.0281 123.69 70.0735C123.661 70.119 123.622 70.1574 123.576 70.1861Z" fill="#C3C3C3"/>
</g>
<path d="M113.814 75.8522L111.901 76.9547C111.813 77.0058 111.74 76.9547 111.74 76.8817V76.6189C111.745 76.5656 111.761 76.514 111.789 76.4684C111.817 76.4227 111.855 76.3843 111.901 76.356L113.814 75.2534C113.901 75.2023 113.982 75.2534 113.982 75.3265V75.5893C113.974 75.6425 113.955 75.6935 113.926 75.7388C113.897 75.7841 113.859 75.8228 113.814 75.8522Z" fill="#DEDEDE"/>
<g style="mix-blend-mode:screen" opacity="0.45">
<path d="M113.814 75.8522L111.901 76.9547C111.813 77.0058 111.74 76.9547 111.74 76.8817V76.6189C111.745 76.5656 111.761 76.514 111.789 76.4684C111.817 76.4227 111.855 76.3843 111.901 76.356L113.814 75.2534C113.901 75.2023 113.982 75.2534 113.982 75.3265V75.5893C113.974 75.6425 113.955 75.6935 113.926 75.7388C113.897 75.7841 113.859 75.8228 113.814 75.8522Z" fill="#C3C3C3"/>
</g>
<path d="M110.762 74.8374C110.718 74.8374 110.681 74.8374 110.681 74.9031V75.8085C110.667 75.8536 110.667 75.9021 110.681 75.9472C110.835 76.0261 111.005 76.0672 111.178 76.0672C111.351 76.0672 111.521 76.0261 111.675 75.9472V74.7352C111.386 74.8561 111.07 74.8916 110.762 74.8374Z" fill="#A3A3A3"/>
<path d="M124.168 68.5724V67.3749C124.093 67.5197 123.972 67.6353 123.824 67.7035V68.9083C123.971 68.8343 124.09 68.717 124.168 68.5724Z" fill="#A3A3A3"/>
<path d="M106.417 74.7352C106.399 73.8775 106.205 73.0327 105.848 72.2526C105.731 71.997 105.6 71.7342 105.453 71.4786C105.188 71.0161 104.877 70.5808 104.526 70.1789C104.095 69.676 103.584 69.2469 103.015 68.9084C102.663 68.6526 102.25 68.4954 101.817 68.453C101.385 68.4107 100.948 68.4847 100.554 68.6675L100.116 68.9376C100.961 68.7816 101.834 68.9484 102.562 69.4049C103.073 69.7215 103.525 70.1241 103.898 70.5951C104.293 70.9765 104.648 71.3973 104.957 71.851C105.072 72.0888 105.174 72.3326 105.264 72.5812C105.635 73.3221 105.844 74.1335 105.877 74.9615L105.987 76.2904L106.417 76.0203V74.7352Z" fill="#404040"/>
<path d="M102.576 69.1785C103.595 69.813 104.435 70.6978 105.015 71.7487C105.613 72.7324 105.945 73.8545 105.979 75.0052V76.2757L105.439 75.9617V74.6985C105.407 73.7338 105.128 72.7933 104.628 71.9677C104.141 71.0732 103.432 70.3189 102.569 69.7772C100.977 68.8572 99.6485 69.5582 99.6485 71.3398V72.603L99.1155 72.2963V71.0258C99.152 68.9302 100.693 68.0978 102.576 69.1785Z" fill="#404040"/>
<g style="mix-blend-mode:screen" opacity="0.3">
<path d="M101.269 60.0514L98.1882 58.2698C98.1041 58.2202 98.0331 58.1513 97.9811 58.0687C97.929 57.9862 97.8973 57.8924 97.8888 57.7952V54.1444C97.884 54.1153 97.884 54.0857 97.8888 54.0567C97.867 54.0554 97.8452 54.0589 97.825 54.0671C97.8048 54.0753 97.7867 54.0879 97.772 54.104C97.7572 54.1201 97.7464 54.1393 97.74 54.1602C97.7337 54.1811 97.7321 54.2031 97.7355 54.2247V57.8755C97.744 57.9737 97.7756 58.0685 97.8276 58.1522C97.8796 58.2359 97.9506 58.3062 98.0348 58.3574L101.116 60.1317C101.248 60.212 101.357 60.1901 101.401 60.0952C101.354 60.0917 101.309 60.0766 101.269 60.0514Z" fill="#404040"/>
</g>
<g style="mix-blend-mode:multiply" opacity="0.45">
<path d="M101.116 55.8457L98.0349 54.0641C97.9908 54.0371 97.9405 54.022 97.8889 54.0203C97.8854 54.0518 97.8854 54.0836 97.8889 54.1152L100.992 55.926C101.076 55.9772 101.147 56.0475 101.199 56.1312C101.251 56.2149 101.283 56.3097 101.291 56.4079V60.0588C101.328 60.0662 101.365 60.0662 101.401 60.0588C101.408 60.03 101.408 59.9999 101.401 59.9711V56.3203C101.393 56.2247 101.363 56.1322 101.314 56.0499C101.264 55.9676 101.197 55.8978 101.116 55.8457Z" fill="#404040"/>
</g>
<g style="mix-blend-mode:screen" opacity="0.3">
<path d="M101.27 65.44L98.1883 63.6584C98.1042 63.6088 98.0332 63.5399 97.9812 63.4574C97.9291 63.3748 97.8974 63.281 97.8889 63.1838V59.533C97.8849 59.5015 97.8849 59.4696 97.8889 59.4381C97.8675 59.438 97.8463 59.4424 97.8267 59.451C97.807 59.4596 97.7894 59.4722 97.775 59.488C97.7606 59.5038 97.7496 59.5225 97.7428 59.5428C97.736 59.5631 97.7335 59.5847 97.7356 59.606V63.2568C97.7441 63.354 97.7757 63.4478 97.8278 63.5304C97.8799 63.6129 97.9509 63.6819 98.035 63.7314L101.116 65.5131C101.248 65.5861 101.357 65.5642 101.401 65.4765C101.355 65.4746 101.31 65.4622 101.27 65.44Z" fill="#404040"/>
</g>
<g style="mix-blend-mode:multiply" opacity="0.45">
<path d="M101.116 61.2343L98.0352 59.4599C97.9911 59.433 97.9408 59.4179 97.8891 59.4161C97.8844 59.4476 97.8844 59.4796 97.8891 59.5111L100.992 61.3219C101.076 61.3715 101.147 61.4404 101.199 61.5229C101.252 61.6055 101.283 61.6993 101.292 61.7965V65.4473C101.328 65.4522 101.365 65.4522 101.401 65.4473C101.411 65.4189 101.411 65.3881 101.401 65.3597V61.7089C101.393 61.6134 101.363 61.5211 101.313 61.4389C101.264 61.3567 101.197 61.2868 101.116 61.2343Z" fill="#404040"/>
</g>
<path d="M103.679 56.9117V68.1417L103.584 68.0906V56.8533L103.679 56.9117ZM109.294 60.1537L109.192 60.088L110.112 66.236V73.3989L110.207 73.4792V66.2287L109.294 60.1537Z" fill="#404040"/>
<path d="M117.56 67.0318C117.423 67.1135 117.308 67.2261 117.223 67.3605C117.138 67.4949 117.086 67.6475 117.07 67.8058C117.07 68.0759 117.289 68.1709 117.56 68.0102C117.695 67.9336 117.812 67.8264 117.899 67.6972C117.987 67.5679 118.043 67.4201 118.063 67.2655C118.063 66.9661 117.837 66.8712 117.56 67.0318ZM117.56 67.9153C117.348 68.0394 117.173 67.9664 117.173 67.7474C117.184 67.621 117.226 67.4991 117.293 67.3914C117.36 67.2836 117.451 67.193 117.56 67.1267C117.779 67.0026 117.954 67.0756 117.954 67.2947C117.941 67.4217 117.899 67.544 117.83 67.6518C117.762 67.7596 117.669 67.8498 117.56 67.9153Z" fill="url(#paint5_linear_148_13567)"/>
<path d="M97.0784 71.0332L94.0482 69.2881V65.6884L97.0784 67.4335V71.0332Z" fill="#9C9C9C"/>
<path d="M97.4506 70.8214L97.0782 71.0332V67.4334L97.4506 67.2217V70.8214Z" fill="#D4D4D4"/>
<path d="M96.8667 66.8858V65.681L95.4574 64.8705L94.0482 65.6883L97.0784 67.4334L97.4435 67.2217L96.8667 66.8858Z" fill="white"/>
<path d="M96.6112 70.3978L95.0778 69.5143C95.0297 69.4841 94.989 69.4435 94.9587 69.3955C94.9283 69.3475 94.9092 69.2933 94.9026 69.2368V68.828C94.9026 68.733 94.9829 68.6965 95.0778 68.7549L96.6112 69.6384C96.6608 69.6669 96.7027 69.707 96.7333 69.7554C96.7638 69.8038 96.782 69.8589 96.7864 69.9159V70.3248C96.7864 70.4197 96.7134 70.4562 96.6112 70.3978Z" fill="#222221"/>
<path d="M107.922 74.7278L107.549 74.5088C107.501 74.481 107.459 74.442 107.429 74.395C107.398 74.348 107.379 74.2944 107.374 74.2386C107.374 74.1437 107.454 74.1145 107.549 74.1656L107.922 74.3846C107.969 74.4128 108.01 74.452 108.039 74.4991C108.068 74.5461 108.085 74.5995 108.09 74.6548C108.09 74.7497 108.017 74.7789 107.922 74.7278Z" fill="#7C7C7C"/>
<path d="M110.93 54.3925C110.928 54.3695 110.921 54.3472 110.908 54.328C110.895 54.3088 110.878 54.2932 110.857 54.283L103.139 49.829C103.078 49.8004 103.012 49.7856 102.945 49.7856C102.879 49.7856 102.812 49.8004 102.752 49.829L102.686 49.8947C102.688 49.8698 102.696 49.8458 102.71 49.8253C102.724 49.8047 102.744 49.7883 102.767 49.7779C102.827 49.7493 102.893 49.7344 102.96 49.7344C103.027 49.7344 103.093 49.7493 103.154 49.7779L110.871 54.2319C110.886 54.2382 110.899 54.2474 110.911 54.259C110.922 54.2707 110.93 54.2845 110.936 54.2995C110.941 54.3146 110.943 54.3306 110.942 54.3466C110.941 54.3626 110.937 54.3783 110.93 54.3925ZM109.265 55.1227L101.554 50.6687C101.495 50.6361 101.429 50.619 101.361 50.619C101.293 50.619 101.227 50.6361 101.167 50.6687C101.144 50.6785 101.124 50.6946 101.11 50.7153C101.096 50.7361 101.088 50.7604 101.087 50.7855C101.093 50.7706 101.102 50.7572 101.113 50.7459C101.124 50.7345 101.138 50.7257 101.153 50.7198C101.212 50.6872 101.279 50.6701 101.346 50.6701C101.414 50.6701 101.481 50.6872 101.54 50.7198L109.25 55.1738C109.302 55.1738 109.331 55.2395 109.331 55.2761C109.331 55.3126 109.345 55.203 109.302 55.1592L109.265 55.1227ZM112.47 53.2754L104.753 48.8214C104.693 48.7888 104.627 48.7717 104.559 48.7717C104.491 48.7717 104.425 48.7888 104.366 48.8214C104.343 48.8318 104.324 48.8482 104.309 48.8687C104.295 48.8893 104.287 48.9133 104.285 48.9382C104.299 48.9097 104.323 48.8866 104.351 48.8725C104.41 48.8399 104.477 48.8228 104.544 48.8228C104.612 48.8228 104.679 48.8399 104.738 48.8725L112.456 53.3265C112.476 53.3355 112.493 53.3497 112.506 53.3677C112.519 53.3857 112.527 53.4067 112.529 53.4287C112.558 53.3922 112.544 53.3922 112.47 53.3119V53.2754ZM110.762 45.2143C110.821 45.1817 110.888 45.1647 110.955 45.1647C111.023 45.1647 111.09 45.1817 111.149 45.2143L118.859 49.6684C118.911 49.6684 118.94 49.7341 118.94 49.7706C118.94 49.8071 118.94 49.6538 118.874 49.6173L111.163 45.1559C111.103 45.1273 111.037 45.1125 110.97 45.1125C110.903 45.1125 110.837 45.1273 110.776 45.1559C110.754 45.167 110.735 45.1835 110.721 45.2039C110.707 45.2244 110.699 45.2481 110.696 45.2728C110.711 45.2463 110.734 45.2257 110.762 45.2143ZM117.275 50.5373L109.55 46.0905C109.491 46.0615 109.426 46.0465 109.36 46.0465C109.294 46.0465 109.229 46.0615 109.17 46.0905C109.147 46.1003 109.127 46.1165 109.113 46.1372C109.099 46.1579 109.091 46.1823 109.09 46.2074C109.106 46.1802 109.128 46.1575 109.156 46.1417C109.216 46.1131 109.282 46.0982 109.349 46.0982C109.416 46.0982 109.482 46.1131 109.543 46.1417L117.253 50.5957C117.275 50.6049 117.294 50.62 117.308 50.6393C117.323 50.6586 117.331 50.6814 117.333 50.7052C117.333 50.6395 117.333 50.5811 117.268 50.5373H117.275ZM114.077 52.3846L106.381 47.9306C106.32 47.902 106.254 47.8871 106.187 47.8871C106.12 47.8871 106.054 47.902 105.994 47.9306C105.971 47.9398 105.951 47.9561 105.938 47.9771C105.925 47.9981 105.919 48.0227 105.921 48.0474C105.934 48.0205 105.954 47.9977 105.979 47.9817C106.04 47.9531 106.106 47.9382 106.173 47.9382C106.24 47.9382 106.306 47.9531 106.366 47.9817L114.084 52.4357C114.105 52.447 114.123 52.4626 114.136 52.4816C114.15 52.5005 114.16 52.5222 114.164 52.5452C114.164 52.4868 114.143 52.4284 114.07 52.3846H114.077ZM115.676 51.4646L107.958 47.0105C107.899 46.978 107.832 46.9609 107.765 46.9609C107.697 46.9609 107.63 46.978 107.571 47.0105C107.548 47.0198 107.529 47.0361 107.515 47.0571C107.502 47.0781 107.496 47.1027 107.498 47.1274C107.504 47.1125 107.513 47.099 107.524 47.0877C107.535 47.0764 107.549 47.0675 107.564 47.0617C107.622 47.029 107.687 47.0119 107.754 47.0119C107.82 47.0119 107.885 47.029 107.943 47.0617L115.661 51.5157C115.712 51.5157 115.742 51.5814 115.742 51.6179C115.742 51.6544 115.742 51.5084 115.669 51.4646H115.676Z" fill="#404040"/>
<path d="M108.374 62.8844C108.354 62.8839 108.334 62.8783 108.316 62.8681C108.298 62.8579 108.283 62.8434 108.272 62.826C108.258 62.7974 108.254 62.7646 108.262 62.7337C108.27 62.7028 108.289 62.6759 108.316 62.658L109.199 62.1323C109.227 62.1162 109.261 62.1118 109.292 62.12C109.324 62.1282 109.351 62.1483 109.367 62.1761C109.375 62.1895 109.38 62.2043 109.382 62.2197C109.384 62.235 109.383 62.2507 109.379 62.2656C109.375 62.2806 109.368 62.2945 109.358 62.3068C109.349 62.319 109.337 62.3292 109.323 62.3368L108.44 62.8698L108.374 62.8844Z" fill="#404040"/>
<path d="M108.681 61.8695C108.642 61.8455 108.598 61.8328 108.553 61.8328C108.508 61.8328 108.463 61.8455 108.425 61.8695L108.067 62.0739C107.962 62.1446 107.874 62.2386 107.81 62.3488C107.747 62.459 107.71 62.5823 107.702 62.7092V65.3013C107.697 65.3465 107.705 65.3923 107.724 65.4335C107.744 65.4747 107.774 65.5098 107.812 65.5349L108.002 65.6445L108.878 61.9571L108.681 61.8695Z" fill="#404040"/>
<path d="M108.615 62.001C108.812 61.8841 108.98 62.001 108.98 62.2127V64.8048C108.974 64.9311 108.938 65.0541 108.874 65.1633C108.811 65.2726 108.722 65.365 108.615 65.4328L108.257 65.6445C108.06 65.754 107.892 65.6445 107.892 65.4328V62.8407C107.898 62.7134 107.935 62.5895 107.998 62.479C108.062 62.3685 108.15 62.2748 108.257 62.2054L108.615 62.001Z" fill="#222221"/>
<path d="M104.497 63.6145L105.388 64.1257C105.475 64.1768 105.541 64.1257 105.541 64.0599V63.9504C105.537 63.8999 105.521 63.851 105.494 63.8079C105.468 63.7647 105.431 63.7285 105.388 63.7022L104.497 63.191C104.409 63.1399 104.336 63.191 104.336 63.2568V63.3663C104.342 63.4173 104.359 63.4664 104.387 63.5095C104.415 63.5526 104.453 63.5886 104.497 63.6145Z" fill="#9E9E9E"/>
<g style="mix-blend-mode:multiply">
<path d="M71.7052 55.3929C71.7043 55.3759 71.7043 55.3588 71.7052 55.3418C71.7043 55.3588 71.7043 55.3759 71.7052 55.3929ZM72.764 55.517C72.8196 55.4876 72.8673 55.445 72.9027 55.3929C72.8756 55.4417 72.8382 55.484 72.7932 55.517H72.764ZM123.693 54.0567V55.7142L123.46 54.2027L123.693 54.0567Z" fill="#FFFF00"/>
</g>
<g style="mix-blend-mode:multiply">
<path d="M124.861 52.7425L124.672 52.6329C124.633 52.6105 124.589 52.5987 124.544 52.5987C124.499 52.5987 124.455 52.6105 124.416 52.6329L124.058 52.8374C123.953 52.908 123.865 53.0021 123.801 53.1123C123.738 53.2225 123.701 53.3458 123.693 53.4726V53.772L123.445 53.918L123.255 52.6548V52.0999C123.256 51.8765 123.204 51.6561 123.102 51.4574L122.233 49.7415L110.229 42.8049L107.849 44.1922V33.2251L51.0123 0.404053L36.0293 9.04924V30.5089V31.0711L37.2414 31.8013L81.7816 57.5324L81.2048 57.8682L81.3143 58.1238C81.6781 58.899 81.8723 59.7428 81.8838 60.5991V61.8696L94.0265 68.8792V69.3027L97.0494 71.0551L97.4218 70.836L97.597 70.9382L99.1084 71.8144V71.0843C99.0695 70.6755 99.1403 70.2638 99.3136 69.8916C99.4869 69.5194 99.7564 69.2001 100.094 68.9668L100.532 68.6966C100.927 68.5138 101.363 68.4398 101.795 68.4822C102.228 68.5245 102.641 68.6818 102.993 68.9376C103.563 69.276 104.073 69.7052 104.504 70.2081C104.855 70.6099 105.166 71.0452 105.432 71.5078C105.578 71.7633 105.709 72.0262 105.826 72.2817C106.183 73.0618 106.377 73.9066 106.396 74.7643V76.0275L110.098 78.1596C110.345 78.302 110.632 78.3609 110.915 78.3275H111.069H111.193C111.292 78.3007 111.388 78.2615 111.477 78.2107L123.81 71.0405C123.91 70.9827 123.993 70.8997 124.051 70.7998C124.108 70.6998 124.139 70.5864 124.139 70.4709V68.6455V67.448V66.7179L123.941 66.601C124.019 66.5396 124.086 66.4655 124.139 66.382V58.7882L123.759 56.3203L123.949 56.4298C123.988 56.4522 124.032 56.4641 124.077 56.4641C124.121 56.4641 124.165 56.4522 124.204 56.4298L124.562 56.2254C124.669 56.156 124.758 56.0623 124.821 55.9518C124.885 55.8413 124.921 55.7174 124.927 55.5901V53.0053C124.941 52.9597 124.942 52.9111 124.931 52.8648C124.919 52.8185 124.895 52.7762 124.861 52.7425Z" fill="#FFFF00"/>
</g>
<g style="mix-blend-mode:multiply">
<path d="M99.678 72.6322L100.036 72.4277L99.678 72.6322Z" fill="#FFFF00"/>
</g>
<g style="mix-blend-mode:multiply">
<path d="M124.861 52.7425L124.672 52.6329C124.633 52.6105 124.589 52.5987 124.544 52.5987C124.499 52.5987 124.455 52.6105 124.416 52.6329L124.058 52.8374C123.953 52.908 123.865 53.0021 123.801 53.1123C123.738 53.2225 123.701 53.3458 123.693 53.4726V53.772L123.445 53.918L123.255 52.6548V52.0999C123.256 51.8765 123.204 51.6561 123.102 51.4574L122.233 49.7415L110.229 42.8049L107.849 44.1922V33.2251L51.0123 0.404053L36.0293 9.04924V30.5089V31.0711L37.2414 31.8013L81.7816 57.5324L81.2048 57.8682L81.3143 58.1238C81.6781 58.899 81.8723 59.7428 81.8838 60.5991V61.8696L94.0265 68.8792V69.3027L97.0494 71.0551L97.4218 70.836L97.597 70.9382L99.1084 71.8144V71.0843C99.0695 70.6755 99.1403 70.2638 99.3136 69.8916C99.4869 69.5194 99.7564 69.2001 100.094 68.9668L100.532 68.6966C100.927 68.5138 101.363 68.4398 101.795 68.4822C102.228 68.5245 102.641 68.6818 102.993 68.9376C103.563 69.276 104.073 69.7052 104.504 70.2081C104.855 70.6099 105.166 71.0452 105.432 71.5078C105.578 71.7633 105.709 72.0262 105.826 72.2817C106.183 73.0618 106.377 73.9066 106.396 74.7643V76.0275L110.098 78.1596C110.345 78.302 110.632 78.3609 110.915 78.3275H111.069H111.193C111.292 78.3007 111.388 78.2615 111.477 78.2107L123.81 71.0405C123.91 70.9827 123.993 70.8997 124.051 70.7998C124.108 70.6998 124.139 70.5864 124.139 70.4709V68.6455V67.448V66.7179L123.941 66.601C124.019 66.5396 124.086 66.4655 124.139 66.382V58.7882L123.759 56.3203L123.949 56.4298C123.988 56.4522 124.032 56.4641 124.077 56.4641C124.121 56.4641 124.165 56.4522 124.204 56.4298L124.562 56.2254C124.669 56.156 124.758 56.0623 124.821 55.9518C124.885 55.8413 124.921 55.7174 124.927 55.5901V53.0053C124.941 52.9597 124.942 52.9111 124.931 52.8648C124.919 52.8185 124.895 52.7762 124.861 52.7425Z" fill="#FFFF00"/>
</g>
</g>
<defs>
<filter id="filter0_d_148_13567" x="0" y="0.404053" width="125" height="207.933" filterUnits="userSpaceOnUse" color-interpolation-filters="sRGB">
<feFlood flood-opacity="0" result="BackgroundImageFix"/>
<feColorMatrix in="SourceAlpha" type="matrix" values="0 0 0 0 0 0 0 0 0 0 0 0 0 0 0 0 0 0 127 0" result="hardAlpha"/>
<feOffset dx="-30" dy="124"/>
<feGaussianBlur stdDeviation="3"/>
<feComposite in2="hardAlpha" operator="out"/>
<feColorMatrix type="matrix" values="0 0 0 0 0 0 0 0 0 0 0 0 0 0 0 0 0 0 0.1 0"/>
<feBlend mode="normal" in2="BackgroundImageFix" result="effect1_dropShadow_148_13567"/>
<feBlend mode="normal" in="SourceGraphic" in2="effect1_dropShadow_148_13567" result="shape"/>
</filter>
<linearGradient id="paint0_linear_148_13567" x1="88.0244" y1="54.2247" x2="85.7609" y2="54.2247" gradientUnits="userSpaceOnUse">
<stop offset="0.56" stop-color="#B1B1B1"/>
<stop offset="0.57" stop-color="#CDCDCD"/>
</linearGradient>
<linearGradient id="paint1_linear_148_13567" x1="36.0144" y1="46.7624" x2="92.8214" y2="46.7624" gradientUnits="userSpaceOnUse">
<stop stop-color="#B5B5B5"/>
<stop offset="1" stop-color="#999999"/>
</linearGradient>
<linearGradient id="paint2_linear_148_13567" x1="109.761" y1="60.7159" x2="110.258" y2="60.6356" gradientUnits="userSpaceOnUse">
<stop offset="0.52" stop-color="#121212"/>
<stop offset="0.53" stop-color="#0F0F0F"/>
<stop offset="0.6"/>
</linearGradient>
<linearGradient id="paint3_linear_148_13567" x1="115.661" y1="70.8067" x2="119.816" y2="73.209" gradientUnits="userSpaceOnUse">
<stop offset="0.59" stop-color="#AEAEAE"/>
</linearGradient>
<linearGradient id="paint4_linear_148_13567" x1="114.42" y1="65.7395" x2="120.634" y2="69.3246" gradientUnits="userSpaceOnUse">
<stop offset="0.59" stop-color="#AEAEAE"/>
</linearGradient>
<linearGradient id="paint5_linear_148_13567" x1="117.136" y1="66.2188" x2="117.855" y2="66.5278" gradientUnits="userSpaceOnUse">
<stop offset="0.59" stop-color="#AEAEAE"/>
</linearGradient>
</defs>
</svg>
