<svg width="104" height="73" viewBox="0 0 104 73" fill="none" xmlns="http://www.w3.org/2000/svg">
	<g style="mix-blend-mode:multiply" filter="url(#filter0_f_79_13317)">
		<path fill-rule="evenodd" clip-rule="evenodd" d="M42.1042 6.99503C42.1195 7.00414 42.1337 7.01372 42.1467 7.02369L42.1732 7.03893C42.221 7.06058 42.26 7.0978 42.2839 7.14449C42.3078 7.19119 42.3152 7.24461 42.3049 7.29605C42.3077 7.27944 42.3077 7.26248 42.3049 7.24588V7.29605V7.67232C42.3004 7.73533 42.271 7.79398 42.2233 7.83537L32.4779 16.4959L32.9796 16.9976L33.0486 17.0666L33.0182 17.0449L33.0199 17.0471C33.0623 17.0819 33.0961 17.1261 33.1187 17.1762C33.144 17.2323 33.1544 17.2938 33.1489 17.3551C33.1417 17.5375 33.0914 17.7156 33.002 17.8747C32.9126 18.0339 32.7867 18.1696 32.6347 18.2707C32.5867 18.3062 32.5307 18.3293 32.4716 18.3381C32.4125 18.3468 32.3522 18.3409 32.296 18.3208L32.0138 18.2456L34.6352 27.2134L36.226 29.8155C37.8302 30.4923 39.4101 31.2266 40.9628 32.0171L40.9566 32.0152C41.3133 32.1949 41.6687 32.3774 42.0226 32.5627C42.1701 32.6385 43.0854 33.1241 44.5297 33.8928L44.5437 33.8922L44.7506 33.9988H44.729C46.458 34.9192 48.8834 36.2121 51.6332 37.6801C52.3232 37.6823 53.0102 37.732 53.6895 37.828L67.9921 28.6685L67.9917 28.6683L68.0023 28.662L76.5463 23.1904L76.5394 23.1873L76.6397 23.1246L76.6452 23.127L77.9806 22.2718L77.9379 22.2529L78.0382 22.1902L78.0785 22.2091L87.0884 16.4391L87.075 16.4332L87.1753 16.3705L87.1873 16.3758L93.2082 12.52C93.3558 12.4409 93.5206 12.3996 93.688 12.3996C93.8554 12.3996 94.0202 12.4409 94.1677 12.52L97.1884 14.2525L97.1904 14.2508L97.5353 14.4514L97.5354 14.4515C97.6615 14.5235 97.7275 14.6204 97.7288 14.7184C97.7293 14.713 97.7296 14.7077 97.7298 14.7023V14.7482C97.7308 14.7594 97.7308 14.7707 97.7298 14.7819V15.2479C97.729 15.2636 97.7269 15.2792 97.7235 15.2945V15.3044C97.7227 15.3441 97.7132 15.3831 97.6959 15.4188C97.6786 15.4545 97.6538 15.4861 97.6232 15.5113L83.7387 28.1415L84.0695 29.2749L84.0774 29.2704L84.5935 30.1102C86.445 31.0483 87.0353 31.5182 87.2205 31.7348C87.3941 31.8898 87.5091 32.1343 87.5419 32.4549C87.5523 32.5317 87.5557 32.6098 87.5516 32.6882C87.5234 33.2284 87.3678 33.7544 87.0975 34.223C86.8272 34.6917 86.4499 35.0898 85.9963 35.3848C85.8615 35.4751 85.7097 35.5372 85.5502 35.5674C85.3907 35.5976 85.2268 35.5952 85.0682 35.5604C84.1526 35.3722 80.4401 33.1899 79.1858 32.2805L76.6334 34.6009L76.9571 35.7185L76.9595 35.7172L77.4749 36.5586C79.3909 37.531 79.9567 37.9991 80.1204 38.2042C80.2548 38.3319 80.3519 38.5156 80.3998 38.7486C80.433 38.8736 80.4469 39.0039 80.4401 39.135C80.4109 39.675 80.2548 40.2006 79.9846 40.6691C79.7144 41.1376 79.3376 41.5358 78.8848 41.8316C78.7496 41.9212 78.5977 41.9824 78.4381 42.0115C78.2786 42.0406 78.1148 42.037 77.9567 42.0009C77.0411 41.819 73.3724 39.6492 72.0805 38.7399L65.571 44.6223L65.6104 44.684C65.6284 44.7123 65.6462 44.7407 65.6641 44.7693C65.8036 44.9777 65.9381 45.1894 66.0674 45.4043C66.8804 45.8408 67.6699 46.265 68.427 46.6722L69.8041 47.4067C73.5355 49.4197 77.0034 51.3325 77.386 51.5833C78.1878 52.0961 78.9358 52.6886 79.6185 53.3518C80.1904 53.919 80.6836 54.5588 81.0862 55.2538C81.4305 55.8325 81.7145 56.4471 81.9327 57.0882C81.9605 57.1531 81.9853 57.2191 82.007 57.2863C81.9853 57.2229 81.9616 57.1601 81.936 57.0981C81.9631 57.178 81.9891 57.2582 82.0141 57.3388V57.3089L82.007 57.2863C82.016 57.3126 82.0246 57.3389 82.033 57.3654L82.0325 57.3694C83.2832 58.4434 84.0849 59.9483 84.278 61.5859C84.2868 61.6969 84.286 61.8078 84.276 61.9176C84.2733 61.9578 84.2695 61.9979 84.2644 62.0378C84.2279 62.366 84.1097 62.6804 83.9199 62.9518C83.7145 63.2456 83.4329 63.478 83.1053 63.624L83.1002 63.6172L83.099 63.6177C81.6669 64.2157 79.638 64.137 77.4941 63.5743C77.553 63.713 77.5844 63.8619 77.5867 64.0128C77.5938 64.0898 77.5807 64.1672 77.5489 64.2376C77.517 64.308 77.4673 64.3688 77.4048 64.4142L77.1196 64.5756C77.0327 64.6477 76.9114 64.666 76.773 64.6217C76.7703 64.6326 76.7673 64.6434 76.7637 64.6541C76.7582 64.6707 76.7518 64.6871 76.7443 64.7031C76.7112 64.7736 76.66 64.8341 76.5958 64.8783L76.2697 65.0727C76.2803 65.065 76.2905 65.0569 76.3003 65.0484C76.1851 65.1364 76.0143 65.1358 75.8244 65.0288C75.6417 64.9103 75.4896 64.7502 75.3806 64.5616C75.2716 64.373 75.2088 64.1614 75.1973 63.9438C75.1973 63.7385 75.2712 63.5956 75.3895 63.5318L75.3792 63.5362L75.7116 63.3481C75.7818 63.3146 75.8597 63.3007 75.9371 63.3077L75.9261 63.0842C74.8191 62.6837 73.7124 62.1695 72.67 61.5671C70.7236 60.446 65.528 57.4239 62.2208 55.5002C60.8886 54.7253 59.8628 54.1286 59.4792 53.9062L56.3649 53.8159L55.3343 53.2213C55.308 53.2542 55.2771 53.2834 55.2424 53.3079L54.9305 53.4927C54.8372 53.5575 54.7125 53.5671 54.576 53.5122C54.5692 53.5442 54.5591 53.5756 54.5456 53.6057C54.5126 53.6793 54.4609 53.7432 54.3957 53.7908L54.0508 53.9915C54.117 53.9447 54.1694 53.8811 54.2025 53.8071C54.2356 53.7332 54.2482 53.6517 54.239 53.5713C54.2392 53.4428 54.2182 53.3154 54.177 53.1942L54.1684 53.1839L54.1625 53.1824C54.2038 53.3077 54.2276 53.4386 54.2327 53.5713C54.2327 53.9852 53.9442 54.1545 53.6056 53.9413C53.4199 53.8169 53.2664 53.6503 53.1574 53.4552C53.0623 53.2851 53.0035 53.0974 52.9843 52.9041C52.9687 52.9186 52.9521 52.9319 52.9345 52.9441L52.5959 53.1386C52.6621 53.0933 52.7146 53.0308 52.7477 52.9579C52.7809 52.8849 52.7935 52.8043 52.784 52.7247C52.7827 52.6192 52.7673 52.5148 52.7384 52.414C52.7304 52.4056 52.7226 52.3972 52.7148 52.3886L52.7085 52.3816C52.7411 52.4929 52.7602 52.6081 52.7652 52.7247C52.7652 53.1386 52.4705 53.3016 52.1381 53.0947C51.9535 52.9692 51.8008 52.8024 51.6919 52.6075C51.5967 52.4371 51.5374 52.2495 51.5173 52.056C51.5016 52.0709 51.4848 52.0848 51.4671 52.0975L51.1285 52.292C51.1936 52.2443 51.2453 52.1805 51.2783 52.1068C51.3113 52.0331 51.3245 51.9521 51.3166 51.8718C51.3134 51.768 51.2974 51.6654 51.269 51.566L51.2588 51.5552C51.2505 51.5462 51.2423 51.5372 51.2342 51.528C51.2671 51.6395 51.2864 51.7549 51.2915 51.8718C51.2915 52.2857 50.9967 52.455 50.6644 52.248C50.4786 52.1223 50.3251 51.9546 50.2161 51.7585C50.1595 51.6566 50.1158 51.5486 50.0857 51.437L46.3059 52.8438L46.4447 53.3298L46.4501 53.3267L46.9627 54.1636C48.886 55.1391 49.4533 55.6083 49.6173 55.8137C49.7885 55.9765 49.8991 56.2301 49.9249 56.5606C49.9317 56.6255 49.9337 56.6912 49.9307 56.757C49.9014 57.2971 49.7454 57.8227 49.4752 58.2912C49.205 58.7597 48.8282 59.1579 48.3754 59.4537C48.2404 59.5436 48.0884 59.605 47.9288 59.6341C47.7692 59.6632 47.6053 59.6594 47.4472 59.623C46.4125 59.4098 41.6338 56.525 41.176 56.0296L41.1724 56.0139C41.1645 56.0061 41.1573 55.9988 41.151 55.992C41.0306 55.5759 41.1139 55.1199 41.3434 54.695L35.0616 57.0267L35.162 57.3904L35.6634 58.1999C37.3109 59.0367 37.956 59.4988 38.2064 59.7411C38.3084 59.8322 38.3604 59.8964 38.3865 59.9396C38.4289 59.9957 38.4659 60.059 38.497 60.1293C38.5982 60.3286 38.6466 60.5516 38.6362 60.7769C38.606 61.3167 38.4496 61.8419 38.1794 62.3103C37.9093 62.7786 37.5331 63.177 37.0809 63.4735C36.947 63.5633 36.7961 63.6246 36.6376 63.6537C36.479 63.6828 36.3162 63.6791 36.1591 63.6428C35.876 63.5845 35.3133 63.3263 34.6356 62.9716C32.8322 62.0348 30.1677 60.3803 29.8314 60.0118C29.7319 59.6691 29.7716 59.2988 29.9183 58.9411L10.4471 66.1764C10.3141 66.2247 10.1725 66.2451 10.0312 66.2365C9.88986 66.2279 9.75183 66.1903 9.62561 66.1262L7.34049 64.8071L6.24684 64.1769C6.23424 64.1707 6.22209 64.1637 6.21044 64.1559L6.20153 64.1508C6.14903 64.1259 6.10368 64.0881 6.06969 64.0409C6.0357 63.9938 6.01418 63.9388 6.00712 63.8811V63.385C5.97686 63.2625 6.04372 63.1342 6.19526 63.0471L12.8866 59.5192L12.8804 59.5164L12.987 59.4599L12.9935 59.4629L25.0942 53.0831L25.0779 53.0758L25.1845 53.0194L25.201 53.0268L33.7598 48.5144L33.7509 48.5104L33.8575 48.454L33.8667 48.458L42.4539 43.9307C39.5863 42.2919 37.4901 41.0844 35.8518 40.0129C35.6413 39.8814 35.4332 39.7464 35.2277 39.6079C33.1449 38.2131 31.3185 36.4663 29.8314 34.4441C29.6161 34.1632 29.4076 33.8762 29.2075 33.5868C28.693 32.848 28.2664 32.139 27.9247 31.4878C27.1674 30.0642 26.734 28.8021 26.8463 28.1729C26.907 27.8446 27.0734 27.6213 27.3144 27.4789L26.7843 19.0883L15.0753 23.5385C14.9735 23.5743 14.8656 23.5895 14.7579 23.583C14.6537 23.5768 14.5517 23.5504 14.4575 23.5054C14.4352 23.4965 14.4132 23.4866 14.3917 23.4758L12.7988 22.5539C12.7575 22.5361 12.7217 22.5075 12.6952 22.4711C12.6687 22.4346 12.6525 22.3918 12.6483 22.3469V22.0041C12.5957 21.8984 12.6417 21.7788 12.78 21.701L25.9459 14.738L25.2597 13.931C25.2245 13.8842 25.2067 13.8265 25.2095 13.7679C25.2131 13.6581 25.2429 13.5507 25.2963 13.4548C25.3498 13.3588 25.4254 13.2769 25.5168 13.2161C25.5691 13.183 25.6307 13.1676 25.6924 13.1722L26.4154 13.3098L27.3074 13.4662C27.3578 13.4678 27.4078 13.4765 27.4559 13.4922C27.5018 13.4983 27.546 13.5132 27.5863 13.5359L27.8431 13.6841L39.7587 6.09198C39.8727 6.03158 39.9998 6 40.1287 6C40.2285 6 40.327 6.01887 40.4193 6.05535C40.4727 6.07044 40.5245 6.09108 40.574 6.11706L41.809 6.82899L42.1042 6.99503ZM53.7233 52.5369C53.7445 52.5537 53.7649 52.5714 53.7847 52.5899L53.7846 52.5909C53.7647 52.5723 53.7443 52.5543 53.7233 52.5369ZM52.1077 51.5793L52.1084 51.5766C52.1151 51.5806 52.1218 51.5848 52.1283 51.5891L52.128 51.5902C52.1212 51.5864 52.1144 51.5828 52.1077 51.5793ZM52.2257 51.6607L52.2287 51.659C52.2576 51.6811 52.2854 51.7043 52.3122 51.7288L52.3118 51.7354C52.2842 51.7094 52.2554 51.6845 52.2257 51.6607ZM75.8244 63.5801C75.8701 63.6069 75.9137 63.6369 75.9548 63.67L75.9551 63.6762C75.9136 63.6417 75.87 63.6096 75.8244 63.5801ZM75.6085 63.4992C75.6759 63.5095 75.7487 63.536 75.8244 63.5801C75.7607 63.5349 75.6863 63.507 75.6085 63.4992ZM76.4154 64.8933C76.4085 64.9087 76.4008 64.9237 76.3922 64.9382C76.4303 64.8671 76.4516 64.7753 76.4516 64.665C76.4598 64.743 76.4473 64.8217 76.4154 64.8933ZM76.4516 64.665C76.4463 64.5652 76.4302 64.4666 76.4038 64.371L76.411 64.3781C76.4361 64.4715 76.4498 64.5679 76.4516 64.665ZM75.9678 63.9349L75.9679 63.9383C75.924 63.896 75.876 63.858 75.8244 63.8247C75.7232 63.7661 75.6288 63.7573 75.5537 63.7857C75.6268 63.7534 75.7213 63.7599 75.8244 63.8184C75.8761 63.8526 75.9241 63.8916 75.9678 63.9349ZM76.9921 63.4569C77.0161 63.4897 77.0388 63.5236 77.06 63.5585C77.0388 63.5228 77.0162 63.4881 76.9922 63.4543L76.9921 63.4569ZM77.1622 63.7628C77.2182 63.9022 77.2516 64.0501 77.2606 64.201C77.2557 64.0499 77.2223 63.9012 77.1622 63.7628ZM77.2262 64.4177C77.2561 64.3497 77.2679 64.275 77.2606 64.201C77.2606 64.284 77.2485 64.3566 77.2262 64.4177Z" fill="rgba(0, 0, 0, 0.3)" />
	</g>
	<defs>
		<filter id="filter0_f_79_13317" x="0" y="0" width="103.731" height="72.2385" filterUnits="userSpaceOnUse" color-interpolation-filters="sRGB">
			<feFlood flood-opacity="0" result="BackgroundImageFix" />
			<feBlend mode="normal" in="SourceGraphic" in2="BackgroundImageFix" result="shape" />
			<feGaussianBlur stdDeviation="3" result="effect1_foregroundBlur_79_13317" />
		</filter>
	</defs>
</svg>