<svg width="92" height="60" viewBox="0 0 92 60" fill="none" xmlns="http://www.w3.org/2000/svg">
<g clip-path="url(#clip0_79_13154)">
<path d="M70.8413 57.1382C70.596 57.0007 70.401 57.1382 70.401 57.3881C70.4094 57.5381 70.453 57.684 70.5284 57.8142C70.6038 57.9444 70.7088 58.0553 70.835 58.138C71.0803 58.2754 71.2753 58.138 71.2753 57.888C71.2668 57.738 71.2232 57.5921 71.1478 57.4619C71.0725 57.3317 70.9675 57.2208 70.8413 57.1382Z" fill="#808080"/>
<path d="M70.8413 57.2505C70.8112 57.2304 70.7772 57.2167 70.7415 57.2103C70.7058 57.2038 70.6691 57.2048 70.6338 57.213C70.6097 57.239 70.5912 57.2696 70.5793 57.3029C70.5674 57.3361 70.5624 57.3715 70.5646 57.4067C70.5708 57.5234 70.6048 57.6369 70.6639 57.738C70.7229 57.839 70.8053 57.9247 70.9042 57.9879C70.964 58.0255 71.0361 58.0389 71.1055 58.0253C71.1296 57.9993 71.1481 57.9688 71.16 57.9355C71.1719 57.9022 71.1769 57.8669 71.1747 57.8316C71.1682 57.7158 71.1347 57.6029 71.0769 57.5021C71.019 57.4013 70.9384 57.3151 70.8413 57.2505Z" fill="#5C5C5C"/>
<path d="M70.9042 57.988C70.8053 57.9248 70.7229 57.8391 70.6639 57.7381C70.6048 57.6371 70.5708 57.5235 70.5645 57.4068C70.5624 57.3716 70.5674 57.3363 70.5793 57.303C70.5912 57.2697 70.6097 57.2391 70.6337 57.2131C70.552 57.2131 70.5017 57.3194 70.4954 57.4443C70.5016 57.561 70.5356 57.6745 70.5947 57.7756C70.6537 57.8766 70.7361 57.9623 70.835 58.0255C70.8736 58.0554 70.9213 58.0716 70.9702 58.0716C71.0192 58.0716 71.0668 58.0554 71.1055 58.0255C71.036 58.039 70.964 58.0256 70.9042 57.988Z" fill="#757575"/>
<path d="M70.8413 56.9195C71.0235 57.0386 71.1753 57.1984 71.2844 57.3861C71.3936 57.5737 71.4572 57.7841 71.4702 58.0005C71.4702 58.4004 71.1872 58.5566 70.8413 58.3567C70.6583 58.2382 70.506 58.0786 70.3968 57.8908C70.2875 57.703 70.2243 57.4923 70.2123 57.2756C70.2123 56.882 70.4953 56.7195 70.8413 56.9195ZM70.8413 58.1255C71.074 58.2567 71.269 58.1255 71.269 57.8818C71.2615 57.7364 71.2195 57.5949 71.1462 57.4689C71.0729 57.3429 70.9706 57.2359 70.8475 57.1569C70.6148 57.0194 70.4199 57.1569 70.4199 57.3944C70.4278 57.5405 70.47 57.6827 70.5432 57.8096C70.6164 57.9366 70.7185 58.0447 70.8413 58.1255Z" fill="#222221"/>
<path d="M71.6905 57.3444C71.6313 57.2043 71.5483 57.0753 71.4452 56.9632C71.3668 56.8711 71.2732 56.7929 71.1684 56.732C71.105 56.685 71.03 56.656 70.9513 56.6483C70.8725 56.6406 70.7932 56.6544 70.7218 56.6882L70.3948 56.8757C70.4666 56.8438 70.5456 56.8311 70.6239 56.8388C70.7022 56.8464 70.7771 56.8742 70.8413 56.9194C70.945 56.982 71.0383 57.0599 71.1181 57.1506C71.2166 57.2651 71.2971 57.3936 71.3571 57.5318C71.4265 57.6788 71.465 57.8382 71.4703 58.0005C71.4781 58.0778 71.4646 58.1559 71.4314 58.2263C71.3982 58.2967 71.3465 58.3568 71.2816 58.4004L71.615 58.2129C71.6777 58.1677 71.7275 58.1071 71.7595 58.037C71.7914 57.9668 71.8045 57.8897 71.7974 57.813C71.795 57.6511 71.7586 57.4915 71.6905 57.3444Z" fill="#222221"/>
<path d="M70.9986 57.5754C70.9814 57.5419 70.9602 57.5104 70.9357 57.4817C70.918 57.4597 70.8968 57.4407 70.8728 57.4255C70.8553 57.4167 70.8359 57.4121 70.8162 57.4121C70.7965 57.4121 70.7771 57.4167 70.7596 57.4255L70.7156 57.4567C70.7156 57.4567 70.7785 57.4567 70.8225 57.4567L70.8917 57.5067C70.9151 57.535 70.9341 57.5666 70.9483 57.6004C70.9572 57.6395 70.9572 57.6801 70.9483 57.7192C70.9483 57.7629 70.9483 57.8004 70.9043 57.8129H70.9546C70.9694 57.801 70.9812 57.7856 70.9888 57.7682C70.9965 57.7508 70.9998 57.7319 70.9986 57.7129C71.0074 57.6675 71.0074 57.6209 70.9986 57.5754Z" fill="#757575"/>
<path d="M70.8225 57.4568C70.7407 57.4068 70.6715 57.4568 70.6715 57.538C70.6734 57.5906 70.6881 57.642 70.7144 57.6877C70.7407 57.7334 70.7778 57.7721 70.8225 57.8004C70.9042 57.8504 70.9734 57.8004 70.9734 57.7192C70.9726 57.6663 70.9584 57.6145 70.932 57.5686C70.9056 57.5227 70.8679 57.4842 70.8225 57.4568Z" fill="#808080"/>
<path d="M70.9168 56.3196L70.8225 57.9005C70.8239 57.9363 70.816 57.9717 70.7995 58.0035C70.7829 58.0353 70.7583 58.0622 70.7281 58.0817L71.0804 57.8818C71.1094 57.8611 71.133 57.8339 71.1494 57.8024C71.1658 57.7709 71.1745 57.736 71.1747 57.7005L71.2691 56.1196L70.9168 56.3196Z" fill="#808080"/>
<path d="M70.4262 55.6384L70.074 55.8384L70.9168 56.3258L71.2627 56.1258L70.4262 55.6384Z" fill="#ACACAC"/>
<path d="M70.0803 55.8384L70.181 57.8817L70.5017 58.0629C70.6715 58.1566 70.8162 58.0629 70.8225 57.9005L70.9168 56.3195L70.0803 55.8384Z" fill="#5C5C5C"/>
<path d="M70.0299 57.6255C69.7909 57.488 69.5896 57.6255 69.5896 57.8754C69.5977 58.0262 69.6419 58.1728 69.7185 58.3032C69.795 58.4336 69.9018 58.544 70.0299 58.6253C70.2689 58.7627 70.4639 58.6565 70.4639 58.3753C70.4569 58.225 70.414 58.0785 70.3385 57.9481C70.263 57.8176 70.1571 57.707 70.0299 57.6255Z" fill="#808080"/>
<path d="M70.0299 57.713C69.968 57.675 69.8938 57.6616 69.8224 57.6755C69.7788 57.731 69.7545 57.7989 69.7532 57.8692C69.7594 57.9859 69.7934 58.0994 69.8525 58.2005C69.9115 58.3015 69.9939 58.3872 70.0928 58.4504C70.123 58.4704 70.157 58.4841 70.1927 58.4906C70.2284 58.497 70.2651 58.4961 70.3004 58.4879C70.3478 58.4346 70.3726 58.3652 70.3696 58.2941C70.3634 58.1775 70.3293 58.0639 70.2703 57.9629C70.2112 57.8619 70.1288 57.7762 70.0299 57.713Z" fill="#5C5C5C"/>
<path d="M70.0928 58.4504C69.9939 58.3872 69.9116 58.3015 69.8525 58.2005C69.7935 58.0994 69.7594 57.9859 69.7532 57.8692C69.7545 57.7989 69.7788 57.731 69.8224 57.6755C69.7406 57.6755 69.6903 57.7818 69.6903 57.9067C69.6965 58.0234 69.7306 58.1369 69.7896 58.238C69.8487 58.339 69.931 58.4247 70.0299 58.4879C70.069 58.5168 70.1165 58.5324 70.1652 58.5324C70.2139 58.5324 70.2613 58.5168 70.3004 58.4879C70.2651 58.4961 70.2284 58.497 70.1927 58.4906C70.157 58.4841 70.123 58.4705 70.0928 58.4504Z" fill="#757575"/>
<path d="M70.03 57.3817C70.2133 57.4998 70.3658 57.6593 70.4751 57.8472C70.5845 58.0351 70.6474 58.246 70.6589 58.4627C70.6589 58.8627 70.3759 59.0189 70.03 58.8252C69.8467 58.7071 69.6942 58.5476 69.5848 58.3597C69.4755 58.1718 69.4125 57.9609 69.401 57.7441C69.401 57.3442 69.684 57.1818 70.03 57.3817ZM70.03 58.5877C70.2627 58.7189 70.4514 58.5877 70.4514 58.344C70.4425 58.199 70.3998 58.0581 70.3267 57.9323C70.2535 57.8065 70.152 57.6993 70.03 57.6192C69.7973 57.4879 69.6086 57.6192 69.6086 57.8629C69.6175 58.0079 69.6602 58.1488 69.7333 58.2746C69.8064 58.4004 69.908 58.5076 70.03 58.5877Z" fill="#222221"/>
<path d="M70.8791 57.8068C70.8191 57.6685 70.7385 57.54 70.64 57.4256C70.5603 57.3349 70.4669 57.2569 70.3633 57.1944C70.2999 57.1474 70.2249 57.1184 70.1461 57.1107C70.0674 57.103 69.9881 57.1168 69.9167 57.1506L69.5834 57.3381C69.6552 57.3062 69.7342 57.2935 69.8125 57.3012C69.8908 57.3088 69.9657 57.3366 70.0299 57.3818C70.1347 57.4427 70.2283 57.5209 70.3067 57.613C70.4071 57.7273 70.4898 57.8557 70.552 57.9942C70.6196 58.1415 70.656 58.301 70.6589 58.4629C70.6672 58.5405 70.6547 58.619 70.6227 58.6903C70.5906 58.7616 70.5402 58.8233 70.4765 58.869L70.8036 58.6753C70.8679 58.6313 70.9193 58.571 70.9525 58.5008C70.9856 58.4305 70.9994 58.3527 70.9923 58.2754C70.987 58.1132 70.9485 57.9537 70.8791 57.8068Z" fill="#222221"/>
<path d="M70.1871 58.0378C70.1729 58.004 70.1539 57.9724 70.1305 57.9441L70.0613 57.8878C70.0456 57.8771 70.0269 57.8713 70.0078 57.8713C69.9887 57.8713 69.9701 57.8771 69.9544 57.8878H69.9041C69.9216 57.8791 69.941 57.8745 69.9607 57.8745C69.9803 57.8745 69.9997 57.8791 70.0173 57.8878C70.0412 57.903 70.0625 57.922 70.0802 57.9441C70.1061 57.9717 70.1273 58.0034 70.1431 58.0378C70.149 58.0751 70.149 58.113 70.1431 58.1503C70.1444 58.1683 70.141 58.1864 70.1333 58.2028C70.1256 58.2192 70.1138 58.2334 70.099 58.244H70.1431C70.1588 58.2329 70.1712 58.2177 70.179 58.2001C70.1867 58.1825 70.1895 58.1631 70.1871 58.144C70.1944 58.109 70.1944 58.0729 70.1871 58.0378Z" fill="#757575"/>
<path d="M69.9984 57.919C69.9104 57.869 69.8412 57.919 69.8412 58.0065C69.845 58.0587 69.8605 58.1093 69.8867 58.1548C69.9128 58.2002 69.9488 58.2392 69.9921 58.269C70.0802 58.3127 70.1494 58.269 70.1494 58.1815C70.1465 58.1291 70.1313 58.0781 70.1051 58.0325C70.0789 57.987 70.0424 57.9481 69.9984 57.919Z" fill="#808080"/>
<path d="M45.6383 44.3407C45.3867 44.197 45.1792 44.3407 45.1792 44.5969C45.1874 44.7533 45.2326 44.9056 45.3113 45.0414C45.39 45.1771 45.4999 45.2925 45.6321 45.378C45.8837 45.5217 46.0849 45.378 46.0912 45.1218C46.0816 44.9657 46.0357 44.8139 45.9571 44.6784C45.8786 44.5429 45.7694 44.4273 45.6383 44.3407Z" fill="#808080"/>
<path d="M45.632 44.4594C45.6096 44.4236 45.574 44.3979 45.5329 44.3877C45.4917 44.3774 45.4482 44.3835 45.4114 44.4046C45.3747 44.4257 45.3476 44.4601 45.336 44.5007C45.3244 44.5412 45.329 44.5847 45.349 44.6218C45.3522 44.7466 45.386 44.8686 45.4474 44.9775C45.5087 45.0864 45.5959 45.1788 45.7012 45.2467C45.7325 45.267 45.7675 45.2807 45.8043 45.2872C45.841 45.2936 45.8787 45.2926 45.9151 45.2842C45.9403 45.2577 45.9595 45.2261 45.9714 45.1916C45.9833 45.1572 45.9877 45.1205 45.9843 45.0842C45.981 44.9595 45.9473 44.8374 45.8859 44.7286C45.8245 44.6197 45.7374 44.5273 45.632 44.4594Z" fill="#5C5C5C"/>
<path d="M45.7012 45.2218C45.5959 45.1539 45.5088 45.0615 45.4474 44.9526C45.386 44.8437 45.3523 44.7217 45.349 44.5969C45.3472 44.5602 45.3529 44.5236 45.3659 44.4892C45.3789 44.4548 45.3988 44.4234 45.4245 44.397C45.3764 44.4138 45.3358 44.4467 45.3094 44.49C45.283 44.5333 45.2726 44.5843 45.2798 44.6344C45.2825 44.7593 45.3161 44.8816 45.3775 44.9905C45.4389 45.0995 45.5263 45.1918 45.6321 45.2593C45.6722 45.2912 45.7221 45.3086 45.7736 45.3086C45.825 45.3086 45.8749 45.2912 45.9151 45.2593C45.8787 45.2677 45.8411 45.2687 45.8043 45.2623C45.7676 45.2558 45.7325 45.242 45.7012 45.2218Z" fill="#757575"/>
<path d="M45.6383 44.1157C45.8241 44.2401 45.9779 44.4061 46.0872 44.6004C46.1964 44.7947 46.2581 45.0119 46.2673 45.2343C46.2673 45.6467 45.978 45.8154 45.6383 45.6092C45.4517 45.4842 45.2974 45.3172 45.1881 45.1217C45.0788 44.9263 45.0175 44.7079 45.0093 44.4844C44.9842 44.0783 45.2735 43.9095 45.6383 44.1157ZM45.6383 45.3655C45.8836 45.503 46.0786 45.3655 46.0786 45.1155C46.0702 44.9647 46.0266 44.8179 45.9513 44.6867C45.8759 44.5555 45.771 44.4435 45.6446 44.3594C45.3993 44.222 45.2043 44.3594 45.2043 44.6094C45.2132 44.7601 45.257 44.9067 45.3323 45.0379C45.4076 45.169 45.5123 45.2811 45.6383 45.3655Z" fill="#5C5C5C"/>
<path d="M46.5189 44.5532C46.4561 44.4098 46.3712 44.2769 46.2673 44.1595C46.1862 44.0634 46.0882 43.983 45.9779 43.9221C45.912 43.873 45.834 43.8425 45.7521 43.8337C45.6702 43.8249 45.5875 43.8382 45.5125 43.8721L45.1729 44.072C45.2471 44.0366 45.3297 44.0219 45.4117 44.0296C45.4937 44.0373 45.572 44.0671 45.6383 44.1158C45.7452 44.1788 45.8408 44.2591 45.9213 44.3532C46.0262 44.4723 46.1111 44.6073 46.1729 44.7531C46.2489 44.9022 46.2877 45.0672 46.2861 45.2343C46.2954 45.3145 46.2827 45.3956 46.2495 45.4693C46.2163 45.543 46.1638 45.6064 46.0974 45.6529L46.4434 45.4592C46.5088 45.4118 46.5606 45.3482 46.5937 45.2748C46.6268 45.2014 46.64 45.1206 46.6321 45.0406C46.6269 44.8723 46.5885 44.7067 46.5189 44.5532Z" fill="#5C5C5C"/>
<path d="M45.8018 44.7968C45.7846 44.7613 45.7635 44.7277 45.7389 44.6968C45.7188 44.6747 45.6955 44.6558 45.6698 44.6406C45.6522 44.6318 45.6328 44.6272 45.6132 44.6272C45.5935 44.6272 45.5741 44.6318 45.5566 44.6406L45.5062 44.6718C45.5232 44.6613 45.5428 44.6557 45.5628 44.6557C45.5828 44.6557 45.6025 44.6613 45.6194 44.6718C45.6466 44.685 45.6703 44.7042 45.6886 44.728C45.7132 44.7568 45.7343 44.7882 45.7515 44.8218C45.7599 44.8609 45.7599 44.9014 45.7515 44.9405C45.754 44.9596 45.7512 44.9789 45.7434 44.9965C45.7357 45.0141 45.7233 45.0293 45.7075 45.0405H45.7578C45.7727 45.0285 45.7844 45.0132 45.7921 44.9958C45.7997 44.9784 45.8031 44.9594 45.8018 44.9405C45.8104 44.893 45.8104 44.8443 45.8018 44.7968Z" fill="#757575"/>
<path d="M45.6194 44.6717C45.5313 44.6217 45.4622 44.6717 45.4622 44.7592C45.4648 44.8141 45.4804 44.8676 45.5077 44.9153C45.5351 44.9631 45.5733 45.0038 45.6194 45.0341C45.7075 45.0841 45.7766 45.0341 45.7766 44.9404C45.774 44.8864 45.7584 44.8338 45.731 44.787C45.7037 44.7402 45.6654 44.7007 45.6194 44.6717Z" fill="#808080"/>
<path d="M46.0157 42.5848L45.6195 45.1342C45.6214 45.1709 45.6137 45.2075 45.5972 45.2403C45.5807 45.2732 45.5558 45.3012 45.5251 45.3217L45.8837 45.1155C45.9156 45.0943 45.9416 45.0654 45.9592 45.0316C45.9768 44.9977 45.9854 44.9599 45.9843 44.9218L46.3743 42.3723L46.0157 42.5848Z" fill="#808080"/>
<path d="M45.4999 41.8787L45.1351 42.0849L46.0094 42.5848L46.3742 42.3786L45.4999 41.8787Z" fill="#ACACAC"/>
<path d="M45.1415 42.085L44.9528 45.1093L45.2798 45.2968C45.4622 45.403 45.6069 45.2968 45.6195 45.1343L46.0157 42.5848L45.1415 42.085Z" fill="#5C5C5C"/>
<path d="M44.7955 44.8218C44.5439 44.678 44.3427 44.8218 44.3427 45.0842C44.3503 45.2399 44.3954 45.3916 44.4742 45.5264C44.553 45.6612 44.6632 45.7753 44.7955 45.8591C45.0471 46.0028 45.2484 45.8903 45.2484 45.6029C45.2402 45.4464 45.1949 45.2941 45.1162 45.1584C45.0375 45.0226 44.9276 44.9073 44.7955 44.8218Z" fill="#808080"/>
<path d="M44.7955 44.9406C44.7643 44.9204 44.7292 44.9066 44.6925 44.9002C44.6557 44.8937 44.618 44.8947 44.5817 44.9031C44.5565 44.9297 44.5373 44.9612 44.5254 44.9957C44.5134 45.0302 44.509 45.0668 44.5125 45.1031C44.5157 45.2278 44.5495 45.3499 44.6109 45.4588C44.6722 45.5677 44.7594 45.66 44.8647 45.728C44.8949 45.7481 44.9289 45.7617 44.9646 45.7682C45.0003 45.7746 45.0369 45.7737 45.0723 45.7655C45.0981 45.7404 45.1182 45.7102 45.1312 45.6768C45.1442 45.6433 45.1499 45.6075 45.1477 45.5718C45.1455 45.446 45.1122 45.3226 45.0508 45.2126C44.9894 45.1025 44.9017 45.0092 44.7955 44.9406Z" fill="#5C5C5C"/>
<path d="M44.8395 45.703C44.7341 45.6351 44.647 45.5427 44.5856 45.4338C44.5243 45.3249 44.4905 45.2029 44.4873 45.0781C44.4846 45.0419 44.4893 45.0055 44.5012 44.9711C44.5131 44.9367 44.5319 44.9051 44.5565 44.8782C44.5103 44.897 44.4716 44.9306 44.4466 44.9735C44.4216 45.0165 44.4116 45.0664 44.4181 45.1156C44.4208 45.2405 44.4543 45.3627 44.5157 45.4717C44.5772 45.5807 44.6646 45.673 44.7703 45.7405C44.809 45.7731 44.858 45.791 44.9087 45.791C44.9594 45.791 45.0084 45.7731 45.0471 45.7405C45.0117 45.7487 44.9751 45.7497 44.9394 45.7432C44.9036 45.7368 44.8696 45.7231 44.8395 45.703Z" fill="#757575"/>
<path d="M44.7955 44.5969C44.981 44.7216 45.1345 44.8878 45.2437 45.082C45.3529 45.2762 45.4148 45.4932 45.4245 45.7155C45.4245 46.1279 45.1289 46.2966 44.7955 46.0904C44.6092 45.9651 44.4552 45.798 44.3459 45.6026C44.2367 45.4072 44.1752 45.189 44.1665 44.9656C44.1414 44.5595 44.437 44.3907 44.7955 44.5969ZM44.7955 45.8467C45.0345 45.9842 45.2358 45.8467 45.2358 45.5967C45.2276 45.4451 45.1835 45.2976 45.107 45.1662C45.0305 45.0348 44.9237 44.9232 44.7955 44.8406C44.5565 44.7032 44.3552 44.8407 44.3552 45.0906C44.3639 45.2421 44.4082 45.3894 44.4847 45.5208C44.5612 45.6521 44.6676 45.7637 44.7955 45.8467Z" fill="#222221"/>
<path d="M45.6823 45.0344C45.6196 44.8895 45.5324 44.7563 45.4244 44.6407C45.3457 44.5448 45.2497 44.4643 45.1414 44.4032C45.0755 44.3542 44.9975 44.3237 44.9156 44.3149C44.8337 44.3061 44.7509 44.3193 44.6759 44.3533L44.3363 44.5532C44.4096 44.5183 44.4911 44.5039 44.572 44.5116C44.6529 44.5193 44.7302 44.5488 44.7954 44.597C44.9043 44.6598 45.0021 44.7401 45.0848 44.8344C45.1874 44.9551 45.2721 45.0898 45.3364 45.2343C45.406 45.3856 45.4445 45.5492 45.4496 45.7155C45.4575 45.7955 45.4443 45.8763 45.4112 45.9497C45.3781 46.0231 45.3263 46.0867 45.2609 46.1341L45.6005 45.9404C45.6666 45.8933 45.7193 45.8299 45.7535 45.7566C45.7876 45.6832 45.8021 45.6023 45.7955 45.5218C45.7904 45.3535 45.7519 45.1879 45.6823 45.0344Z" fill="#222221"/>
<path d="M44.959 45.2781C44.9441 45.2414 44.9228 45.2075 44.8961 45.1781C44.8794 45.1591 44.8604 45.1424 44.8395 45.1281C44.8219 45.1193 44.8026 45.1147 44.7829 45.1147C44.7632 45.1147 44.7438 45.1193 44.7263 45.1281L44.6823 45.1594C44.6992 45.1488 44.7188 45.1432 44.7389 45.1432C44.7589 45.1432 44.7785 45.1488 44.7955 45.1594C44.8214 45.1743 44.8448 45.1932 44.8647 45.2156C44.8894 45.243 44.9086 45.2748 44.9213 45.3093C44.9397 45.3464 44.9504 45.3868 44.9527 45.428C44.9553 45.4478 44.9519 45.4679 44.9429 45.4857C44.934 45.5035 44.9199 45.5182 44.9024 45.528H44.9527C44.9696 45.5177 44.9833 45.5028 44.9922 45.4852C45.0011 45.4675 45.0048 45.4477 45.003 45.428C45.0029 45.3749 44.9876 45.3229 44.959 45.2781Z" fill="#757575"/>
<path d="M44.7829 45.128C44.6949 45.078 44.6194 45.128 44.6194 45.2155C44.6234 45.27 44.6396 45.323 44.6668 45.3706C44.694 45.4181 44.7315 45.4591 44.7766 45.4904C44.7924 45.5035 44.8119 45.5114 44.8324 45.5132C44.8529 45.5149 44.8734 45.5104 44.8913 45.5002C44.9091 45.4899 44.9233 45.4746 44.9321 45.4561C44.9408 45.4376 44.9436 45.4168 44.9402 45.3967C44.9376 45.3427 44.9219 45.2901 44.8945 45.2433C44.8672 45.1965 44.8289 45.157 44.7829 45.128Z" fill="#808080"/>
<path d="M47.1101 45.1843C46.8586 45.0406 46.651 45.1843 46.651 45.4468C46.6591 45.6024 46.7044 45.7538 46.7832 45.8885C46.8619 46.0233 46.9719 46.1375 47.1039 46.2216C47.3555 46.3716 47.563 46.2528 47.563 45.9654C47.5548 45.809 47.5096 45.6566 47.4309 45.5209C47.3522 45.3852 47.2423 45.2698 47.1101 45.1843Z" fill="#808080"/>
<path d="M47.1102 45.303C47.0788 45.2831 47.0437 45.2695 47.007 45.2631C46.9703 45.2566 46.9327 45.2575 46.8963 45.2655C46.8718 45.2925 46.853 45.3241 46.8411 45.3584C46.8292 45.3928 46.8245 45.4292 46.8271 45.4655C46.8286 45.5899 46.8609 45.712 46.9213 45.821C46.9816 45.93 47.0681 46.0225 47.1731 46.0903C47.2359 46.1321 47.3126 46.1478 47.3869 46.1341C47.4112 46.1069 47.4298 46.0753 47.4416 46.041C47.4535 46.0067 47.4584 45.9703 47.4561 45.9341C47.4563 45.8086 47.4247 45.685 47.3642 45.5747C47.3038 45.4644 47.2164 45.371 47.1102 45.303Z" fill="#5C5C5C"/>
<path d="M47.1731 46.0653C47.0681 45.9975 46.9816 45.9049 46.9213 45.7959C46.8609 45.6869 46.8286 45.5648 46.8271 45.4404C46.8245 45.4042 46.8292 45.3678 46.8411 45.3334C46.853 45.299 46.8718 45.2674 46.8963 45.2405C46.8083 45.2405 46.7579 45.3467 46.7579 45.4779C46.7588 45.6024 46.791 45.7247 46.8514 45.8338C46.9118 45.9429 46.9985 46.0354 47.1039 46.1028C47.1449 46.1327 47.1945 46.1489 47.2454 46.1489C47.2963 46.1489 47.3459 46.1327 47.3869 46.1028C47.3134 46.1184 47.2367 46.1049 47.1731 46.0653Z" fill="#757575"/>
<path d="M47.1101 44.9593C47.2953 45.0857 47.4486 45.2531 47.5577 45.4482C47.6668 45.6434 47.7289 45.8611 47.7391 46.0841C47.7391 46.4965 47.4434 46.659 47.1101 46.4528C46.9246 46.3281 46.7711 46.162 46.6619 45.9677C46.5527 45.7735 46.4908 45.5566 46.4811 45.3343C46.456 44.9219 46.7264 44.7531 47.1101 44.9593ZM47.1101 46.2091C47.3491 46.3466 47.5441 46.2091 47.5504 45.9591C47.5417 45.8077 47.4974 45.6603 47.4209 45.529C47.3444 45.3976 47.238 45.286 47.1101 45.203C46.8648 45.0656 46.6698 45.203 46.6698 45.453C46.677 45.6048 46.7207 45.7527 46.7973 45.8843C46.8739 46.0159 46.9812 46.1273 47.1101 46.2091Z" fill="#5C5C5C"/>
<path d="M47.9844 45.3967C47.9217 45.2533 47.8368 45.1205 47.7329 45.0031C47.6527 44.9086 47.557 44.8283 47.4498 44.7656C47.3833 44.7178 47.3054 44.688 47.2238 44.6792C47.1421 44.6705 47.0596 44.683 46.9844 44.7156L46.6384 44.9156C46.7131 44.8821 46.7954 44.8685 46.877 44.8762C46.9586 44.8838 47.0368 44.9125 47.1039 44.9593C47.2118 45.0261 47.3093 45.1082 47.3932 45.203C47.4971 45.3205 47.582 45.4533 47.6448 45.5967C47.7144 45.7502 47.7529 45.9158 47.758 46.0841C47.7661 46.1639 47.7522 46.2445 47.7179 46.3171C47.6835 46.3897 47.63 46.4517 47.563 46.4965L47.909 46.3028C47.9753 46.2563 48.0278 46.1928 48.061 46.1192C48.0942 46.0455 48.1069 45.9643 48.0977 45.8842C48.0956 45.7155 48.057 45.5493 47.9844 45.3967Z" fill="#5C5C5C"/>
<path d="M47.2736 45.6403C47.2579 45.6059 47.2367 45.5743 47.2107 45.5466C47.1908 45.5226 47.1675 45.5016 47.1416 45.4841C47.1246 45.4736 47.105 45.468 47.085 45.468C47.0649 45.468 47.0453 45.4736 47.0284 45.4841H46.978C46.995 45.4736 47.0146 45.468 47.0346 45.468C47.0546 45.468 47.0743 45.4736 47.0912 45.4841C47.1184 45.4973 47.1421 45.5166 47.1604 45.5404C47.1871 45.5698 47.2084 45.6036 47.2233 45.6403C47.2322 45.6773 47.2322 45.7158 47.2233 45.7528C47.2263 45.7728 47.2238 45.7932 47.216 45.8119C47.2083 45.8306 47.1956 45.8469 47.1793 45.859L47.2296 45.8278C47.2445 45.8158 47.2562 45.8005 47.2639 45.7831C47.2715 45.7657 47.2749 45.7468 47.2736 45.7278C47.2785 45.6989 47.2785 45.6693 47.2736 45.6403Z" fill="#757575"/>
<path d="M47.0912 45.5155C47.0031 45.4655 46.934 45.5155 46.934 45.6029C46.9366 45.6578 46.9522 45.7113 46.9795 45.7591C47.0069 45.8068 47.0451 45.8475 47.0912 45.8779C47.1793 45.9279 47.2484 45.8779 47.2484 45.7842C47.2458 45.7301 47.2302 45.6775 47.2028 45.6308C47.1755 45.584 47.1372 45.5445 47.0912 45.5155Z" fill="#808080"/>
<path d="M47.4875 43.4286L47.0913 45.9781C47.0946 46.015 47.0875 46.052 47.0708 46.0851C47.0542 46.1182 47.0286 46.146 46.9969 46.1656L47.3555 45.9593C47.3874 45.9382 47.4134 45.9093 47.431 45.8754C47.4486 45.8415 47.4572 45.8038 47.4561 45.7656L47.8461 43.2224L47.4875 43.4286Z" fill="#808080"/>
<path d="M46.9718 42.7224L46.6133 42.9286L47.4876 43.4285L47.8461 43.2223L46.9718 42.7224Z" fill="#ACACAC"/>
<path d="M46.6133 42.9287L46.4246 45.9531L46.7579 46.1468C46.934 46.2468 47.085 46.1468 47.0913 45.9781L47.4875 43.4286L46.6133 42.9287Z" fill="#5C5C5C"/>
<path d="M46.2673 45.6655C46.0157 45.5218 45.8145 45.6655 45.8145 45.928C45.8236 46.0842 45.8693 46.2361 45.9479 46.3717C46.0265 46.5073 46.1359 46.6228 46.2673 46.709C46.5189 46.8528 46.7202 46.709 46.7202 46.4466C46.7136 46.2898 46.6689 46.1369 46.5901 46.0009C46.5113 45.8649 46.4005 45.7499 46.2673 45.6655Z" fill="#808080"/>
<path d="M46.2673 45.7842C46.2371 45.7641 46.2031 45.7504 46.1674 45.744C46.1317 45.7375 46.095 45.7385 46.0597 45.7467C46.034 45.7731 46.0141 45.8045 46.0011 45.8389C45.9881 45.8733 45.9824 45.91 45.9842 45.9467C45.9869 46.0715 46.0205 46.1938 46.0819 46.3028C46.1433 46.4117 46.2307 46.504 46.3364 46.5715C46.3674 46.5925 46.4022 46.6072 46.4389 46.6147C46.4757 46.6222 46.5135 46.6224 46.5503 46.6153C46.5745 46.5881 46.5931 46.5565 46.605 46.5222C46.6169 46.4879 46.6218 46.4515 46.6195 46.4153C46.6172 46.2895 46.584 46.1662 46.5226 46.0561C46.4611 45.9461 46.3735 45.8527 46.2673 45.7842Z" fill="#5C5C5C"/>
<path d="M46.3364 46.5465C46.2307 46.479 46.1433 46.3867 46.0819 46.2777C46.0205 46.1688 45.9869 46.0465 45.9842 45.9216C45.9815 45.8854 45.9863 45.849 45.9982 45.8146C46.0101 45.7802 46.0289 45.7486 46.0534 45.7217C46.0072 45.7406 45.9686 45.7741 45.9436 45.817C45.9185 45.86 45.9085 45.9099 45.915 45.9591C45.9183 46.0839 45.952 46.2059 46.0134 46.3148C46.0748 46.4237 46.1619 46.5161 46.2673 46.584C46.3086 46.6131 46.3581 46.6286 46.4088 46.6286C46.4595 46.6286 46.5089 46.6131 46.5503 46.584C46.5139 46.592 46.4763 46.5929 46.4396 46.5864C46.4029 46.58 46.3679 46.5664 46.3364 46.5465Z" fill="#757575"/>
<path d="M46.2736 45.4405C46.4592 45.5666 46.6126 45.7339 46.7218 45.9291C46.831 46.1243 46.8929 46.3422 46.9025 46.5653C46.9025 46.9777 46.6069 47.1402 46.2736 46.934C46.0884 46.8089 45.9352 46.6427 45.826 46.4486C45.7169 46.2544 45.6547 46.0376 45.6446 45.8155C45.6194 45.4031 45.9088 45.2343 46.2736 45.4405ZM46.2736 46.6903C46.5189 46.8278 46.7139 46.6903 46.7139 46.4403C46.7054 46.2904 46.6618 46.1444 46.5864 46.0142C46.5111 45.884 46.4061 45.7732 46.2799 45.6905C46.0346 45.5468 45.8396 45.6592 45.8396 45.9342C45.8455 46.0856 45.888 46.2333 45.9636 46.3649C46.0391 46.4965 46.1454 46.6081 46.2736 46.6903Z" fill="#222221"/>
<path d="M47.1541 45.878C47.0913 45.7346 47.0064 45.6018 46.9025 45.4843C46.8215 45.3882 46.7234 45.3078 46.6132 45.2468C46.547 45.1982 46.4686 45.1684 46.3866 45.1607C46.3046 45.153 46.222 45.1676 46.1477 45.2031L45.8081 45.3968C45.8828 45.3633 45.965 45.3497 46.0467 45.3574C46.1283 45.365 46.2065 45.3937 46.2735 45.4406C46.3796 45.5073 46.475 45.5894 46.5566 45.6843C46.6605 45.8017 46.7454 45.9345 46.8082 46.0779C46.8807 46.2304 46.9193 46.3967 46.9214 46.5653C46.9308 46.6446 46.9182 46.725 46.885 46.7977C46.8517 46.8704 46.799 46.9327 46.7327 46.9777L47.0723 46.784C47.1394 46.7378 47.1927 46.6746 47.227 46.601C47.2613 46.5274 47.2752 46.4461 47.2673 46.3654C47.2622 46.1971 47.2237 46.0315 47.1541 45.878Z" fill="#222221"/>
<path d="M46.4308 46.1215C46.4195 46.0863 46.4001 46.0543 46.3742 46.0278L46.305 45.9653C46.288 45.9548 46.2684 45.9492 46.2484 45.9492C46.2284 45.9492 46.2088 45.9548 46.1918 45.9653H46.1415C46.1585 45.9548 46.1781 45.9492 46.1981 45.9492C46.2181 45.9492 46.2377 45.9548 46.2547 45.9653C46.2818 45.9785 46.3055 45.9977 46.3239 46.0216C46.3485 46.0525 46.3696 46.086 46.3868 46.1215C46.3933 46.1608 46.3933 46.201 46.3868 46.2403C46.3875 46.2592 46.384 46.278 46.3763 46.2953C46.3687 46.3126 46.3572 46.328 46.3428 46.3402L46.3868 46.309C46.4042 46.2992 46.4183 46.2845 46.4273 46.2666C46.4363 46.2488 46.4397 46.2288 46.4371 46.209C46.4396 46.1797 46.4375 46.1502 46.4308 46.1215Z" fill="#757575"/>
<path d="M46.2547 45.9967C46.1666 45.9467 46.0974 45.9967 46.0974 46.0841C46.0985 46.1394 46.1134 46.1935 46.1409 46.2415C46.1683 46.2895 46.2074 46.3299 46.2547 46.3591C46.3427 46.4091 46.4119 46.3591 46.4119 46.2716C46.4103 46.2165 46.3951 46.1626 46.3677 46.1147C46.3403 46.0668 46.3015 46.0262 46.2547 45.9967Z" fill="#808080"/>
<path d="M48.6133 46.034C48.3617 45.8903 48.1605 46.0341 48.1542 46.2902C48.1635 46.4471 48.21 46.5996 48.2898 46.7353C48.3695 46.871 48.4804 46.9862 48.6133 47.0713C48.8586 47.2151 49.0662 47.0713 49.0662 46.8089C49.0571 46.6535 49.0113 46.5025 48.9327 46.3679C48.854 46.2333 48.7446 46.1189 48.6133 46.034Z" fill="#808080"/>
<path d="M48.6134 46.1466C48.5909 46.1108 48.5554 46.0851 48.5142 46.0749C48.473 46.0647 48.4295 46.0708 48.3928 46.0919C48.356 46.1129 48.329 46.1474 48.3173 46.1879C48.3057 46.2285 48.3103 46.2719 48.3303 46.3091C48.3336 46.4338 48.3673 46.5559 48.4287 46.6648C48.4901 46.7736 48.5772 46.866 48.6825 46.9339C48.7127 46.954 48.7467 46.9677 48.7824 46.9742C48.8181 46.9806 48.8548 46.9797 48.8901 46.9714C48.9408 46.9172 48.9679 46.8454 48.9656 46.7715C48.9623 46.6467 48.9286 46.5247 48.8672 46.4158C48.8058 46.3069 48.7187 46.2145 48.6134 46.1466Z" fill="#5C5C5C"/>
<path d="M48.6511 46.9152C48.5457 46.8472 48.4586 46.7548 48.3972 46.646C48.3359 46.5371 48.3021 46.415 48.2989 46.2903C48.2965 46.2541 48.3015 46.2178 48.3133 46.1834C48.3252 46.1491 48.3438 46.1175 48.368 46.0903C48.3225 46.11 48.2845 46.1437 48.2596 46.1865C48.2347 46.2292 48.2242 46.2787 48.2297 46.3278C48.2329 46.4525 48.2667 46.5746 48.3281 46.6835C48.3894 46.7923 48.4766 46.8847 48.5819 46.9527C48.6216 46.9831 48.6702 46.9995 48.7203 46.9995C48.7704 46.9995 48.819 46.9831 48.8587 46.9527C48.8233 46.9609 48.7867 46.9618 48.7509 46.9554C48.7152 46.9489 48.6812 46.9352 48.6511 46.9152Z" fill="#757575"/>
<path d="M48.6134 45.8092C48.7992 45.9336 48.9529 46.0996 49.0622 46.2939C49.1715 46.4882 49.2332 46.7053 49.2423 46.9277C49.2423 47.3401 48.9467 47.5026 48.6134 47.2964C48.4275 47.1721 48.2738 47.006 48.1645 46.8117C48.0552 46.6174 47.9935 46.4003 47.9844 46.1779C47.9278 45.753 48.2234 45.5968 48.6134 45.8092ZM48.6134 47.059C48.8524 47.1964 49.0536 47.059 49.0536 46.809C49.0455 46.6583 49.0013 46.5116 48.9248 46.3812C48.8482 46.2508 48.7414 46.1404 48.6134 46.0592C48.3743 45.9154 48.1731 46.0592 48.1731 46.3091C48.1812 46.4599 48.2254 46.6065 48.3019 46.7369C48.3785 46.8673 48.4853 46.9777 48.6134 47.059Z" fill="#222221"/>
<path d="M49.4625 46.2403C49.3991 46.0972 49.3143 45.9645 49.2109 45.8466C49.1304 45.7525 49.0347 45.6722 48.9278 45.6092C48.8616 45.5605 48.7833 45.5307 48.7012 45.523C48.6192 45.5153 48.5367 45.5299 48.4624 45.5654L48.1165 45.7591C48.1914 45.7252 48.2742 45.712 48.3561 45.7208C48.438 45.7296 48.516 45.7601 48.5819 45.8091C48.6922 45.87 48.7902 45.9505 48.8712 46.0466C48.9752 46.164 49.06 46.2968 49.1228 46.4402C49.1924 46.5937 49.2309 46.7593 49.236 46.9276C49.244 47.0077 49.2307 47.0884 49.1976 47.1618C49.1645 47.2353 49.1127 47.2988 49.0473 47.3463L49.387 47.1463C49.4534 47.0998 49.5059 47.0363 49.5391 46.9627C49.5723 46.889 49.5849 46.8078 49.5757 46.7277C49.5766 46.5587 49.5378 46.3918 49.4625 46.2403Z" fill="#222221"/>
<path d="M48.7455 46.4841C48.7305 46.4493 48.7092 46.4175 48.6826 46.3904C48.6642 46.3666 48.6406 46.3473 48.6134 46.3342C48.5971 46.322 48.5772 46.3154 48.5568 46.3154C48.5364 46.3154 48.5165 46.322 48.5002 46.3342H48.4562C48.4737 46.3254 48.4931 46.3208 48.5128 46.3208C48.5324 46.3208 48.5518 46.3254 48.5694 46.3342L48.6386 46.3904C48.6611 46.4216 48.6801 46.4551 48.6952 46.4904C48.7143 46.5272 48.7251 46.5677 48.7266 46.6091C48.7284 46.6288 48.7247 46.6486 48.7158 46.6662C48.7069 46.6839 48.6932 46.6987 48.6763 46.7091H48.7266C48.7581 46.7091 48.7707 46.6591 48.7707 46.6091C48.7725 46.5661 48.7639 46.5232 48.7455 46.4841Z" fill="#757575"/>
<path d="M48.5694 46.3778C48.5536 46.3648 48.5341 46.3568 48.5136 46.3551C48.4931 46.3534 48.4726 46.3579 48.4547 46.3681C48.4369 46.3783 48.4227 46.3937 48.414 46.4122C48.4052 46.4307 48.4024 46.4514 48.4059 46.4716C48.4085 46.5256 48.4241 46.5782 48.4515 46.625C48.4789 46.6717 48.5171 46.7113 48.5631 46.7403C48.6512 46.7903 48.7266 46.7403 48.7266 46.6528C48.7226 46.5982 48.7064 46.5453 48.6792 46.4977C48.652 46.4502 48.6145 46.4092 48.5694 46.3778Z" fill="#808080"/>
<path d="M48.9592 44.2721L48.5693 46.8216C48.5693 46.8595 48.5602 46.8969 48.5426 46.9306C48.5251 46.9643 48.4998 46.9933 48.4686 47.0153L48.8334 46.8028C48.8633 46.7815 48.8875 46.7534 48.9039 46.7207C48.9204 46.688 48.9286 46.6519 48.9278 46.6154L49.324 44.0659L48.9592 44.2721Z" fill="#808080"/>
<path d="M48.4435 43.5659L48.085 43.7721L48.9592 44.2783L49.3178 44.0658L48.4435 43.5659Z" fill="#ACACAC"/>
<path d="M48.085 43.7722L47.9026 46.8028L48.2297 46.9903C48.4058 47.0903 48.5567 46.9903 48.5693 46.8216L48.9593 44.2721L48.085 43.7722Z" fill="#5C5C5C"/>
<path d="M47.7454 46.5153C47.4938 46.3716 47.2863 46.484 47.2863 46.7715C47.2944 46.9279 47.3397 47.0802 47.4184 47.216C47.4971 47.3517 47.607 47.4671 47.7391 47.5526C47.9907 47.6963 48.192 47.5526 48.1983 47.2901C48.1882 47.135 48.142 46.9843 48.0635 46.8498C47.9849 46.7154 47.876 46.6009 47.7454 46.5153Z" fill="#808080"/>
<path d="M47.7454 46.6278C47.7196 46.5987 47.6846 46.5793 47.6462 46.5729C47.6078 46.5665 47.5683 46.5734 47.5344 46.5924C47.5005 46.6114 47.4742 46.6415 47.4599 46.6775C47.4456 46.7135 47.4443 46.7533 47.456 46.7902C47.4593 46.915 47.4931 47.037 47.5544 47.1459C47.6158 47.2548 47.7029 47.3472 47.8083 47.4151C47.8307 47.4509 47.8663 47.4766 47.9074 47.4868C47.9486 47.497 47.9921 47.4909 48.0289 47.4698C48.0656 47.4488 48.0927 47.4143 48.1043 47.3738C48.116 47.3332 48.1113 47.2898 48.0913 47.2526C48.0877 47.1287 48.0545 47.0073 47.9943 46.8987C47.9342 46.79 47.8488 46.6971 47.7454 46.6278Z" fill="#5C5C5C"/>
<path d="M47.8083 47.3964C47.703 47.3284 47.6158 47.2361 47.5545 47.1272C47.4931 47.0183 47.4593 46.8962 47.4561 46.7715C47.4538 46.6976 47.4809 46.6257 47.5316 46.5715C47.4842 46.5893 47.4442 46.6224 47.418 46.6655C47.3917 46.7085 47.3808 46.759 47.3869 46.809C47.3901 46.9337 47.4239 47.0558 47.4853 47.1647C47.5467 47.2735 47.6338 47.3659 47.7391 47.4339C47.7793 47.4658 47.8292 47.4832 47.8806 47.4832C47.9321 47.4832 47.982 47.4658 48.0222 47.4339C47.9858 47.4423 47.9481 47.4433 47.9114 47.4368C47.8746 47.4304 47.8396 47.4166 47.8083 47.3964Z" fill="#757575"/>
<path d="M47.7453 46.2903C47.9315 46.4143 48.0855 46.5802 48.1949 46.7746C48.3042 46.969 48.3657 47.1863 48.3743 47.4088C48.3743 47.8212 48.085 47.9899 47.7453 47.7775C47.5592 47.6535 47.4051 47.4875 47.2958 47.2932C47.1865 47.0988 47.125 46.8815 47.1164 46.659C47.0912 46.2465 47.3868 46.0778 47.7453 46.2903ZM47.7453 47.54C47.9906 47.6775 48.1856 47.5713 48.1856 47.2901C48.1787 47.1398 48.1357 46.9933 48.0602 46.8628C47.9847 46.7324 47.8789 46.6218 47.7516 46.5402C47.5063 46.3965 47.3113 46.509 47.3113 46.7902C47.3198 46.9401 47.3634 47.0861 47.4388 47.2163C47.5141 47.3465 47.6191 47.4574 47.7453 47.54Z" fill="#222221"/>
<path d="M48.6133 46.7214C48.5476 46.5796 48.463 46.4472 48.3618 46.3277C48.279 46.2334 48.1813 46.1532 48.0724 46.0903C48.0072 46.0422 47.9299 46.0127 47.849 46.005C47.7681 45.9972 47.6866 46.0116 47.6133 46.0465L47.2673 46.2402C47.3423 46.2063 47.4251 46.1931 47.507 46.2019C47.5889 46.2107 47.6669 46.2412 47.7328 46.2902C47.8411 46.3513 47.9371 46.4318 48.0158 46.5277C48.1217 46.6449 48.2087 46.7777 48.2737 46.9214C48.3444 47.0742 48.3809 47.2405 48.3806 47.4087C48.3899 47.4889 48.3772 47.5701 48.344 47.6438C48.3108 47.7174 48.2583 47.7809 48.1919 47.8274L48.5379 47.6275C48.6033 47.58 48.6551 47.5164 48.6881 47.443C48.7212 47.3696 48.7345 47.2889 48.7266 47.2088C48.7214 47.0405 48.683 46.8749 48.6133 46.7214Z" fill="#222221"/>
<path d="M47.9089 46.9651C47.8917 46.9316 47.8705 46.9001 47.846 46.8714C47.8276 46.8476 47.804 46.8283 47.7768 46.8152C47.7598 46.8046 47.7402 46.7991 47.7202 46.7991C47.7002 46.7991 47.6806 46.8046 47.6636 46.8152H47.6133C47.6308 46.8064 47.6502 46.8018 47.6699 46.8018C47.6895 46.8018 47.7089 46.8064 47.7265 46.8152C47.7522 46.8304 47.7756 46.8494 47.7957 46.8714C47.8203 46.9023 47.8414 46.9359 47.8586 46.9714C47.8675 47.0105 47.8675 47.051 47.8586 47.0901C47.8598 47.1091 47.8565 47.128 47.8488 47.1454C47.8412 47.1628 47.8294 47.1781 47.8146 47.1901L47.8649 47.1589C47.8806 47.1477 47.893 47.1325 47.9008 47.1149C47.9086 47.0973 47.9114 47.0779 47.9089 47.0589C47.9122 47.0277 47.9122 46.9963 47.9089 46.9651Z" fill="#757575"/>
<path d="M47.7265 46.8403C47.6384 46.7903 47.5692 46.8403 47.5692 46.934C47.5718 46.988 47.5875 47.0407 47.6148 47.0874C47.6422 47.1342 47.6805 47.1737 47.7265 47.2027C47.8145 47.2527 47.8837 47.2027 47.8837 47.1152C47.8811 47.0604 47.8655 47.0069 47.8381 46.9591C47.8108 46.9113 47.7726 46.8706 47.7265 46.8403Z" fill="#808080"/>
<path d="M54.1986 47.7588L50.5128 47.6525L38.7699 40.9227L36.3546 37.1047L51.1355 40.1354L54.1986 47.7588Z" fill="#A6A6A6"/>
<path d="M24.7627 21.6829C28.6752 22.9733 32.4761 24.5761 36.1283 26.4757C36.8138 26.8256 54.054 35.955 63.9792 41.2664C67.7216 43.2722 71.1998 45.178 71.5835 45.428C72.3866 45.9405 73.1366 46.5308 73.8227 47.1901C74.9458 48.3048 75.7772 49.6756 76.2442 51.183C77.5056 52.2538 78.3142 53.7577 78.5085 55.3947C78.5412 55.8072 78.4412 56.2195 78.2231 56.572C78.0049 56.9246 77.6799 57.1994 77.2946 57.3568C74.7787 58.4065 70.5268 57.4067 66.9354 55.3447C54.8402 48.4086 35.644 37.2235 31.0839 34.5865C23.7689 30.3936 20.6744 23.6138 20.9448 22.1453C21.2027 20.8269 23.1211 21.1768 24.7627 21.6829Z" fill="url(#paint0_linear_79_13154)"/>
<path d="M78.3324 54.5011C78.3324 55.6009 76.7411 56.3757 73.5207 55.7508C69.7154 55.0072 50.8777 44.5407 37.6315 36.6423C35.4609 35.3951 33.5053 33.8108 31.8386 31.9496C31.1664 31.216 30.7922 30.2608 30.7882 29.2689C30.8637 27.1068 32.7192 25.2197 35.0653 25.9321C31.7454 24.2528 28.3011 22.8281 24.7627 21.6704C23.121 21.1643 21.1524 20.7831 20.9071 22.1016C20.7184 23.1514 22.0644 25.9695 23.901 28.3503C25.5265 30.5463 27.5561 32.4164 29.8825 33.8617C32.606 35.6363 36.6125 37.7733 43.3048 41.6663C45.4119 42.916 48.0787 45.0906 53.5885 47.715C54.7396 48.3774 64.0924 53.7887 66.8662 55.3759C70.4576 57.438 74.8101 58.4628 77.326 57.4192C77.7083 57.2469 78.027 56.9606 78.2378 56.5999C78.4486 56.2393 78.541 55.8224 78.5022 55.4072C78.4681 55.1014 78.4113 54.7986 78.3324 54.5011Z" fill="url(#paint1_linear_79_13154)"/>
<g style="mix-blend-mode:screen" opacity="0.45">
<path d="M70.9168 45.428C69.8413 44.7282 63.2874 41.0539 58.6267 38.5544C58.0795 38.7856 57.5574 39.0668 57.0165 39.3105C61.5765 41.81 68.5141 45.6842 69.5205 46.3216C72.2502 48.065 72.9861 48.946 74.0114 48.9085C74.8039 48.8773 73.9862 47.4276 70.9168 45.428Z" fill="white"/>
</g>
<g style="mix-blend-mode:screen" opacity="0.45">
<path d="M55.4189 41.1226C55.8412 41.5085 56.2842 41.8715 56.746 42.2098C55.4732 42.3103 54.2247 42.612 53.0476 43.1034C60.111 47.1775 67.1303 51.1892 68.0486 50.8705C70.9985 49.8457 62.7527 45.0467 55.4189 41.1226Z" fill="#F0F0F0"/>
</g>
<g style="mix-blend-mode:multiply" opacity="0.3">
<path d="M68.8475 44.1719C69.0738 44.1738 69.2986 44.2096 69.5142 44.2782L69.1997 44.1032C69.0831 44.0839 68.9655 44.0713 68.8475 44.0657C67.0486 44.0657 64.7969 45.7841 63.4949 48.0461C63.3286 48.3308 63.1795 48.625 63.0483 48.9272C62.6989 49.692 62.5064 50.5184 62.4822 51.3579C55.0163 47.0713 45.6572 41.6225 39.3863 37.967L33.0966 34.3115C33.1341 33.5991 33.3047 32.8998 33.5998 32.2494C34.6439 29.8562 36.9585 27.9066 38.7573 27.9066H38.8643L38.6567 27.8003C36.8327 27.8691 34.5369 29.8062 33.4991 32.1744C33.2033 32.8164 33.0285 33.5069 32.9834 34.2115L30.4675 32.7618C27.8155 31.2668 25.3676 29.4398 23.184 27.3254C23.2972 27.4879 23.423 27.6566 23.5425 27.8191C25.6258 29.7635 27.9334 31.4562 30.4172 32.8618L32.9834 34.3427C32.9535 34.9012 33.1129 35.4534 33.4362 35.9112L33.7633 36.0986C33.5349 35.8829 33.3568 35.62 33.2416 35.3285C33.1264 35.037 33.0769 34.724 33.0966 34.4115L39.3171 38.0295C45.6069 41.6974 54.9975 47.1651 62.476 51.4517C62.4723 52.0287 62.6553 52.5917 62.998 53.0576L63.2999 53.2325C62.4068 52.4515 62.325 50.8018 63.1364 48.9397C64.3 46.3277 66.8536 44.1719 68.8475 44.1719Z" fill="#BFBFBF"/>
</g>
<path d="M36.2792 1.38707L26.0206 10.4477V10.8663L36.2729 1.81198C36.2975 1.7923 36.3175 1.76761 36.3316 1.73958C36.3457 1.71155 36.3535 1.68084 36.3547 1.64952V1.22461C36.3536 1.25531 36.3463 1.28549 36.3334 1.31339C36.3204 1.34128 36.302 1.36633 36.2792 1.38707Z" fill="#D8D8D8"/>
<path d="M26.0206 10.4291L26.0143 10.854L21.5675 8.2983L21.5738 7.87964L26.0206 10.4291Z" fill="#747474"/>
<path d="M36.21 0.999763C36.3798 1.09974 36.405 1.25596 36.2792 1.36843L26.0206 10.429L21.5675 7.87958L33.8576 0.0999489C33.972 0.0397643 34.0994 0.00830078 34.2288 0.00830078C34.3581 0.00830078 34.4855 0.0397643 34.5998 0.0999489L36.21 0.999763Z" fill="white"/>
<path d="M27.9012 21.5831L28.6938 21.127L31.3669 25.476L30.5807 25.9322L27.9012 21.5831Z" fill="white"/>
<path d="M24.9073 11.4039L25.6999 10.9478L28.6938 21.1269L27.9013 21.583L24.9073 11.4039Z" fill="#D8D8D8"/>
<path d="M20.58 8.9232L21.3725 8.46704L25.6998 10.9478L24.9073 11.4039L20.58 8.9232Z" fill="#B8B8B8"/>
<path d="M27.9012 21.5768L24.9073 11.3852L20.58 8.88574L21.3788 21.4456C24.5881 22.6191 27.6709 24.1096 30.5806 25.8947L27.9012 21.5768Z" fill="#BFBFBF"/>
<g style="mix-blend-mode:multiply" opacity="0.4">
<path d="M25.8319 14.5096L24.9073 11.3852L20.58 8.88574L21.102 17.0528C22.6024 16.072 24.1849 15.2212 25.8319 14.5096Z" fill="#BFBFBF"/>
</g>
<path d="M19.7497 7.15484C19.6878 7.15027 19.6261 7.16561 19.5736 7.19859C19.4819 7.25924 19.4061 7.34078 19.3525 7.43642C19.2989 7.53207 19.269 7.63905 19.2654 7.74847C19.2626 7.8068 19.2804 7.86429 19.3158 7.91094L20.4227 9.20441C20.3378 9.09588 20.2954 8.96047 20.3032 8.82324C20.3184 8.57357 20.3916 8.33078 20.5171 8.11394C20.6426 7.89711 20.817 7.71212 21.0266 7.5735C21.1472 7.49451 21.2916 7.45921 21.4354 7.47353L19.7497 7.15484Z" fill="#BFBFBF"/>
<path d="M21.5675 7.49225C21.4821 7.45505 21.3884 7.44067 21.2958 7.45053C21.2031 7.4604 21.1146 7.49417 21.0391 7.54848C20.8295 7.6871 20.6552 7.87208 20.5297 8.08892C20.4042 8.30576 20.3309 8.54855 20.3158 8.79822C20.3058 8.88732 20.3204 8.97745 20.3581 9.05891C20.3958 9.14038 20.4551 9.21011 20.5296 9.26063L25.1652 11.9038C25.0909 11.8527 25.0315 11.783 24.9929 11.7019C24.9542 11.6207 24.9377 11.5309 24.945 11.4414C24.9616 11.1921 25.0354 10.9498 25.1608 10.7332C25.2862 10.5166 25.4598 10.3313 25.6684 10.1917C25.7451 10.1374 25.8346 10.1037 25.9282 10.0938C26.0219 10.084 26.1165 10.0983 26.203 10.1354L21.5675 7.49225Z" fill="url(#paint2_linear_79_13154)"/>
<path d="M26.2659 10.1917C26.1777 10.1185 26.0663 10.0784 25.9514 10.0784C25.8364 10.0784 25.7251 10.1185 25.6369 10.1917C25.4283 10.3313 25.2547 10.5166 25.1293 10.7332C25.004 10.9498 24.9302 11.1921 24.9136 11.4414C24.9013 11.547 24.9249 11.6536 24.9808 11.7443C25.0367 11.8349 25.1215 11.9043 25.2218 11.9413L26.3225 12.235C26.2515 12.2079 26.1914 12.1584 26.1517 12.094C26.1119 12.0296 26.0945 11.954 26.1024 11.8788C26.1108 11.6966 26.1624 11.519 26.2532 11.3604C26.3439 11.2019 26.4711 11.0669 26.6244 10.9665C26.6854 10.9162 26.7621 10.8887 26.8414 10.8887C26.9206 10.8887 26.9974 10.9162 27.0584 10.9665L26.2659 10.1917Z" fill="url(#paint3_linear_79_13154)"/>
<path d="M26.6433 10.9915C26.49 11.0919 26.3628 11.2268 26.272 11.3854C26.1813 11.544 26.1296 11.7216 26.1212 11.9038C26.1212 12.235 26.3665 12.3662 26.6621 12.1912C26.8146 12.0905 26.9409 11.9553 27.0305 11.7968C27.1202 11.6382 27.1707 11.4607 27.1779 11.2789C27.1716 10.9477 26.9326 10.8165 26.6433 10.9915Z" fill="#D8D8D8"/>
<path d="M26.6433 11.1416C26.5307 11.2179 26.4374 11.3191 26.3708 11.4373C26.3042 11.5555 26.2662 11.6874 26.2596 11.8227C26.2596 12.0727 26.442 12.1664 26.6559 12.0414C26.7701 11.9662 26.8648 11.8653 26.9326 11.747C27.0003 11.6287 27.0391 11.4963 27.0459 11.3603C27.0396 11.1166 26.8635 11.0166 26.6433 11.1416Z" fill="#5C5C5C"/>
<path d="M9.04463 17.0403C8.83807 17.1097 8.61239 17.0962 8.41566 17.0028L6.81807 16.0842C6.77687 16.0644 6.7414 16.0345 6.715 15.9973C6.68859 15.9602 6.67212 15.917 6.66711 15.8718V16.2967C6.67133 16.3413 6.68757 16.3841 6.71413 16.4203C6.74069 16.4566 6.7766 16.4851 6.81807 16.5029L8.41566 17.4214C8.51235 17.4701 8.61806 17.4985 8.72624 17.505C8.83443 17.5114 8.94279 17.4957 9.04463 17.4589L24.769 11.5227V11.104L9.04463 17.0403Z" fill="#D8D8D8"/>
<path d="M24.7501 11.1039L9.02576 17.0402C8.8192 17.1096 8.59351 17.0961 8.39678 17.0027L6.7992 16.0841C6.59163 15.9654 6.59792 15.7654 6.7992 15.653L20.3096 8.55444L24.7501 11.1039Z" fill="white"/>
<path d="M76.2442 51.1892C76.0809 50.6992 75.8833 50.221 75.6529 49.7583C75.7913 51.0955 73.3194 51.9266 71.0866 51.4892L70.9042 52.8639C74.8164 53.3201 76.1561 51.9578 76.2442 51.1892Z" fill="#262626"/>
<path d="M77.0304 23.1701C74.8227 22.2953 72.5521 24.3324 72.9861 25.8446C73.4453 26.3382 78.2381 29.2126 79.2759 29.4313L81.5402 25.8133C81.5402 25.8133 81.7918 25.3697 77.0304 23.1701Z" fill="url(#paint4_linear_79_13154)"/>
<path style="mix-blend-mode:screen" d="M78.7663 24.0449C78.7978 24.0824 79.3387 25.2197 79.0934 25.1822C77.653 24.9697 75.8227 26.207 75.741 26.8631C76.8983 27.488 78.5147 28.3128 78.7663 28.4128L81.4269 25.9695C81.4465 25.9503 81.462 25.9275 81.4726 25.9023C81.4833 25.8771 81.4887 25.85 81.4887 25.8227C81.4887 25.7954 81.4833 25.7683 81.4726 25.7431C81.462 25.7179 81.4465 25.695 81.4269 25.6758C80.6049 25.0341 79.7123 24.487 78.7663 24.0449Z" fill="url(#paint5_linear_79_13154)"/>
<path d="M80.2318 25.6695C79.7777 25.9642 79.3998 26.361 79.1288 26.8278C78.8578 27.2946 78.7013 27.8183 78.672 28.3564C78.672 29.3437 79.3701 29.7437 80.2318 29.25C80.6867 28.9561 81.0651 28.5594 81.3362 28.0924C81.6073 27.6255 81.7634 27.1014 81.7917 26.5631C81.7917 25.5758 81.0935 25.1759 80.2318 25.6695Z" fill="#D8D8D8"/>
<path d="M80.2318 25.8633C79.8275 26.1261 79.4911 26.4796 79.2496 26.8953C79.0082 27.311 78.8685 27.7773 78.8418 28.2565C78.8418 29.1376 79.4708 29.5063 80.2318 29.0564C80.6361 28.7936 80.9726 28.4401 81.214 28.0244C81.4555 27.6087 81.5952 27.1424 81.6219 26.6631C81.6219 25.7571 80.9992 25.4259 80.2318 25.8633Z" fill="#222221"/>
<path d="M77.9801 23.3825L78.3072 23.1951L79.4204 24.9947L79.0871 25.1884L77.9801 23.3825Z" fill="#F6F6F6"/>
<path d="M77.326 21.158L77.955 23.3762L78.2821 23.1888L77.7412 21.3517L77.326 21.158Z" fill="#D8D8D8"/>
<path d="M77.326 21.158C76.5838 20.8268 75.8353 20.5331 75.0805 20.2332L74.8541 23.2763C74.8541 23.2763 77.4455 24.526 79.0934 25.1821L77.9801 23.3762L77.326 21.158Z" fill="#BFBFBF"/>
<path d="M69.8915 29.5937C67.6838 28.7189 65.4132 30.7622 65.8472 32.2744C66.3127 32.7681 71.0991 35.6425 72.137 35.8549L74.4013 32.2369C74.4013 32.2369 74.6528 31.7995 69.8915 29.5937Z" fill="url(#paint6_linear_79_13154)"/>
<path style="mix-blend-mode:screen" d="M71.6275 30.4749C71.6653 30.5123 72.2062 31.6496 71.9546 31.6121C70.5142 31.3997 68.6839 32.6307 68.6022 33.2868C69.7658 33.9116 71.376 34.7427 71.6338 34.8364L74.2881 32.3932C74.3075 32.3746 74.3229 32.3522 74.3335 32.3275C74.344 32.3028 74.3494 32.2763 74.3494 32.2495C74.3494 32.2227 74.344 32.1961 74.3335 32.1714C74.3229 32.1467 74.3075 32.1244 74.2881 32.1058C73.4661 31.464 72.5736 30.9169 71.6275 30.4749Z" fill="url(#paint7_linear_79_13154)"/>
<path d="M73.0931 32.0994C72.6393 32.3945 72.2616 32.7914 71.9907 33.2581C71.7197 33.7249 71.563 34.2484 71.5332 34.7864C71.5332 35.7737 72.2377 36.1736 73.0931 35.6799C73.5472 35.3853 73.9251 34.9884 74.1961 34.5216C74.4671 34.0548 74.6236 33.5311 74.6529 32.993C74.6529 32.0057 73.9548 31.6058 73.0931 32.0994Z" fill="#D8D8D8"/>
<path d="M73.0931 32.2933C72.6896 32.5564 72.3541 32.9101 72.1137 33.3259C71.8734 33.7416 71.7348 34.2078 71.7094 34.6866C71.7094 35.5676 72.3383 35.9363 73.0931 35.4802C73.4987 35.2202 73.8362 34.8682 74.0779 34.4532C74.3196 34.0382 74.4585 33.572 74.4831 33.0932C74.4831 32.2121 73.8667 31.8559 73.0931 32.2933Z" fill="#222221"/>
<path d="M70.8413 29.8061L71.1684 29.6187L72.2817 31.4245L71.9546 31.612L70.8413 29.8061Z" fill="#F6F6F6"/>
<path d="M70.1935 27.5815L70.8225 29.8061L71.1558 29.6186L70.6149 27.7815L70.1935 27.5815Z" fill="#D8D8D8"/>
<path d="M70.1935 27.5816C69.4513 27.2567 68.6965 26.9568 67.9418 26.6631L67.7153 29.7062C67.7153 29.7062 70.3067 30.9559 71.9546 31.6121L70.8413 29.8062L70.1935 27.5816Z" fill="#BFBFBF"/>
<path d="M91.8931 8.88565L59.2368 38.3983V38.9419L91.8931 9.42929C91.9247 9.40445 91.9505 9.37321 91.969 9.33765C91.9874 9.30209 91.998 9.26303 92.0001 9.22308V8.67944C91.9989 8.71957 91.9886 8.75892 91.9701 8.7946C91.9516 8.83029 91.9253 8.8614 91.8931 8.88565Z" fill="#D8D8D8"/>
<path d="M59.2368 38.417V38.9607L47.7014 32.3495L47.7077 31.8059L59.2368 38.417Z" fill="#747474"/>
<path d="M91.8051 8.42959C92.0253 8.55456 92.063 8.75451 91.8932 8.90448L59.2369 38.4171L47.7078 31.7997L87.4652 6.50499C87.6132 6.42622 87.7785 6.38501 87.9464 6.38501C88.1143 6.38501 88.2795 6.42622 88.4275 6.50499L91.8051 8.42959Z" fill="white"/>
<path d="M91.805 8.42946L91.4591 8.22949L56.0479 36.5861L59.2368 38.417L91.8931 8.88561C92.0629 8.75438 92.0126 8.55443 91.805 8.42946Z" fill="white"/>
<path d="M59.2556 37.8295C58.4187 36.8443 57.4268 36.0002 56.3183 35.33L53.2049 33.5491C50.7955 32.1819 48.0534 31.5008 45.2798 31.5808C44.7137 31.5808 42.9023 32.7118 41.9274 33.6928C44.4852 33.7996 46.973 34.5546 49.1543 35.8861L52.2677 37.667C53.3748 38.3391 54.3664 39.183 55.205 40.1665C55.7742 40.815 56.2975 41.5019 56.7712 42.2223C58.0291 40.8476 59.5072 39.7228 60.5073 39.7228C60.1371 39.0622 59.7188 38.4294 59.2556 37.8295Z" fill="white"/>
<path d="M52.2677 37.6858L49.1543 35.905C46.973 34.5734 44.4852 33.8184 41.9274 33.7117L56.79 42.2224C55.6518 40.3864 54.1047 38.8343 52.2677 37.6858Z" fill="#BFBFBF"/>
<path d="M39.2982 47.1401C37.0905 46.2653 34.8137 48.3086 35.2539 49.8208C35.7131 50.3145 40.4996 53.1889 41.5437 53.4013L43.808 49.7833C43.808 49.7833 44.0596 49.3459 39.2982 47.1401Z" fill="url(#paint8_linear_79_13154)"/>
<path style="mix-blend-mode:screen" d="M41.0657 48.0212C41.0972 48.0587 41.6381 49.196 41.3865 49.1585C39.9461 48.946 38.1221 50.177 38.0341 50.8332C39.1977 51.458 40.8141 52.2891 41.0657 52.3828L43.72 49.9396C43.7402 49.9214 43.7564 49.8992 43.7675 49.8745C43.7785 49.8497 43.7842 49.823 43.7842 49.7959C43.7842 49.7688 43.7785 49.742 43.7675 49.7172C43.7564 49.6925 43.7402 49.6703 43.72 49.6522C42.8979 49.0137 42.0078 48.4668 41.0657 48.0212Z" fill="url(#paint9_linear_79_13154)"/>
<path d="M42.4998 49.6458C42.0449 49.9398 41.6665 50.3364 41.3954 50.8034C41.1243 51.2704 40.9682 51.7944 40.9399 52.3328C40.9399 53.3201 41.6381 53.72 42.4998 53.2263C42.954 52.9317 43.3319 52.5348 43.6029 52.068C43.8739 51.6012 44.0304 51.0775 44.0597 50.5394C44.0597 49.5521 43.3615 49.1522 42.4998 49.6458Z" fill="#D8D8D8"/>
<path d="M42.4998 49.8397C42.0955 50.1025 41.759 50.456 41.5176 50.8717C41.2761 51.2874 41.1364 51.7537 41.1097 52.233C41.1097 53.114 41.7387 53.4827 42.4998 53.0265C42.9046 52.7659 43.2416 52.4137 43.4832 51.9988C43.7248 51.584 43.8641 51.1182 43.8898 50.6396C43.8898 49.7585 43.2671 49.4023 42.4998 49.8397Z" fill="#222221"/>
<path d="M40.2417 47.3525L40.5688 47.165L41.682 48.9709L41.355 49.1584L40.2417 47.3525Z" fill="#F6F6F6"/>
<path d="M39.5939 45.1279L40.2228 47.3525L40.5499 47.165L40.009 45.3279L39.5939 45.1279Z" fill="#D8D8D8"/>
<path d="M39.5939 45.128C38.8517 44.8031 38.0969 44.5032 37.3422 44.2095L37.1157 47.2526C37.1157 47.2526 39.7134 48.5023 41.355 49.1272L40.248 47.3213L39.5939 45.128Z" fill="#BFBFBF"/>
<path d="M27.9453 51.1519C25.7376 50.2771 23.4608 52.3204 23.901 53.8263C24.3602 54.3262 29.1467 57.2006 30.1908 57.4131L32.4551 53.7951C32.4551 53.7951 32.7067 53.3577 27.9453 51.1519Z" fill="url(#paint10_linear_79_13154)"/>
<path style="mix-blend-mode:screen" d="M29.6812 52.0017C29.6812 52.0392 30.2536 53.1827 30.0083 53.1452C28.5617 52.9328 26.7377 54.1638 26.6559 54.8199C27.8132 55.4447 29.4297 56.2696 29.6812 56.3696L32.3355 53.9263C32.3557 53.9081 32.3719 53.886 32.383 53.8612C32.3941 53.8365 32.3998 53.8097 32.3998 53.7826C32.3998 53.7555 32.3941 53.7287 32.383 53.704C32.3719 53.6792 32.3557 53.657 32.3355 53.6389C31.5139 52.998 30.6238 52.449 29.6812 52.0017Z" fill="url(#paint11_linear_79_13154)"/>
<path d="M31.1468 53.6575C30.6927 53.9509 30.3148 54.3465 30.0438 54.8123C29.7727 55.2782 29.6162 55.801 29.5869 56.3382C29.5869 57.3318 30.2851 57.7317 31.1468 57.2381C31.6002 56.9426 31.9776 56.5456 32.2485 56.079C32.5194 55.6123 32.6763 55.089 32.7066 54.5511C32.7066 53.5638 32.0085 53.1639 31.1468 53.6575Z" fill="#D8D8D8"/>
<path d="M31.1467 53.8763C30.7424 54.139 30.406 54.4925 30.1645 54.9082C29.9231 55.324 29.7834 55.7903 29.7567 56.2695C29.7567 57.1506 30.3857 57.5192 31.1467 57.0631C31.5516 56.8024 31.8886 56.4503 32.1302 56.0354C32.3718 55.6205 32.5111 55.1547 32.5368 54.6761C32.5368 53.77 31.9141 53.4138 31.1467 53.8763Z" fill="#222221"/>
<path d="M28.8888 51.3642L29.2221 51.1768L30.3291 52.9826L30.0021 53.1701L28.8888 51.3642Z" fill="#F6F6F6"/>
<path d="M28.241 49.1396L28.8699 51.3642L29.197 51.1767L28.6561 49.3396L28.241 49.1396Z" fill="#D8D8D8"/>
<path d="M28.2409 49.1396C27.4987 48.8147 26.744 48.5148 25.9892 48.2148L25.769 51.2642C25.769 51.2642 28.3604 52.5139 30.0083 53.1701L28.895 51.3767L28.2409 49.1396Z" fill="#BFBFBF"/>
<path d="M4.40276 59.3939C4.26928 59.442 4.12728 59.4624 3.98556 59.4538C3.84383 59.4452 3.70538 59.4078 3.57879 59.3439L0.19492 57.4068C0.142714 57.3821 0.0978705 57.3444 0.0647888 57.2972C0.0317071 57.2501 0.011523 57.1953 0.00622559 57.1381V57.6817C0.0133082 57.7392 0.0348952 57.794 0.0689828 57.841C0.10307 57.8879 0.148552 57.9256 0.201206 57.9504L3.58509 59.8875C3.71168 59.9514 3.85012 59.9888 3.99184 59.9974C4.13357 60.006 4.27557 59.9856 4.40904 59.9375L55.532 41.0727V40.5291L4.40276 59.3939Z" fill="#D8D8D8"/>
<path d="M43.9778 33.918C47.7517 34.5428 53.0099 37.1923 55.5069 40.5291L4.40281 59.3939C4.26934 59.442 4.12734 59.4624 3.98562 59.4538C3.84389 59.4452 3.70544 59.4078 3.57885 59.3439L0.194977 57.4068C-0.0754812 57.2506 -0.056612 56.9944 0.194977 56.8507L43.9778 33.918Z" fill="white"/>
<path d="M3.15112 59.1001L3.57882 59.3438C3.70541 59.4077 3.84386 59.4451 3.98559 59.4537C4.12731 59.4623 4.26931 59.4419 4.40278 59.3938L55.5321 40.529C54.8727 39.6752 54.1125 38.9031 53.2677 38.2295L3.15112 59.1001Z" fill="white"/>
<path opacity="0.4" d="M63.998 23.4201L62.174 22.5953L62.2683 22.539L64.0106 23.3263L72.1558 17.7588L70.7469 17.1339L70.8476 17.0714L72.269 17.6963C72.2739 17.7083 72.2739 17.7217 72.269 17.7338C72.2736 17.7401 72.2761 17.7478 72.2761 17.7556C72.2761 17.7635 72.2736 17.7711 72.269 17.7775L64.0358 23.4013C64.0358 23.4013 64.0043 23.4263 63.998 23.4201ZM73.615 16.8652C73.6465 16.8652 82.4207 10.8539 82.4207 10.8539C82.424 10.8482 82.4257 10.8418 82.4257 10.8352C82.4257 10.8286 82.424 10.8221 82.4207 10.8165C82.416 10.7985 82.4048 10.7829 82.3892 10.7727L81.4143 10.3416L81.3137 10.404L82.276 10.829L73.5899 16.7652L72.2502 16.1403L72.1495 16.2028L73.571 16.8277L73.615 16.8652ZM8.13257 53.8762L19.1585 48.4211C19.1631 48.4147 19.1656 48.4071 19.1656 48.3993C19.1656 48.3914 19.1631 48.3838 19.1585 48.3774C19.1623 48.3707 19.1644 48.3632 19.1644 48.3555C19.1644 48.3478 19.1623 48.3403 19.1585 48.3336L17.6741 47.7088L17.5672 47.765L19.0264 48.3899L8.12629 53.7825L7.00671 53.2764L6.89978 53.3326L8.10742 53.8762H8.13257ZM20.7812 47.6275L29.7441 43.191C29.7474 43.1853 29.7492 43.1788 29.7492 43.1722C29.7492 43.1656 29.7474 43.1592 29.7441 43.1535C29.7475 43.1466 29.7492 43.1392 29.7492 43.1316C29.7492 43.124 29.7475 43.1165 29.7441 43.1097L27.939 42.3099L27.832 42.3661L29.612 43.1535L20.7561 47.5276L19.2403 46.8589L19.1333 46.9152L20.7372 47.6213L20.7812 47.6275Z" fill="#BFBFBF"/>
<path opacity="0.4" d="M72.7031 33.1431C72.571 33.2286 72.4611 33.3439 72.3824 33.4797C72.3037 33.6154 72.2584 33.7677 72.2502 33.9242C72.2502 34.2054 72.4515 34.3241 72.7031 34.1804C72.8329 34.0944 72.9408 33.9797 73.0183 33.8452C73.0958 33.7108 73.1408 33.5602 73.1497 33.4055C73.1434 33.1181 72.9484 33.0056 72.7031 33.1431Z" fill="#D8D8D8"/>
<path opacity="0.4" d="M79.8797 26.6632C79.7488 26.7481 79.6401 26.8625 79.5625 26.9972C79.4849 27.1319 79.4405 27.283 79.4331 27.4381C79.4331 27.7193 79.6344 27.838 79.8797 27.6943C80.0117 27.6101 80.1216 27.4959 80.2003 27.3612C80.2791 27.2265 80.3244 27.075 80.3325 26.9194C80.3325 26.632 80.1313 26.5195 79.8797 26.6632Z" fill="#D8D8D8"/>
<path opacity="0.4" d="M30.8449 54.5887C30.7151 54.6746 30.6072 54.7894 30.5297 54.9238C30.4522 55.0583 30.4072 55.2088 30.3983 55.3635C30.3983 55.651 30.5996 55.7697 30.8449 55.626C30.9762 55.5411 31.0856 55.4267 31.1642 55.2922C31.2429 55.1576 31.2886 55.0065 31.2978 54.8511C31.2978 54.5637 31.0965 54.445 30.8449 54.5887Z" fill="#D8D8D8"/>
<path opacity="0.4" d="M42.2104 50.502C42.0806 50.588 41.9727 50.7027 41.8952 50.8372C41.8177 50.9716 41.7727 51.1222 41.7638 51.2769C41.7638 51.5643 41.9651 51.683 42.2104 51.5393C42.3417 51.4544 42.4511 51.3401 42.5297 51.2055C42.6084 51.0709 42.6541 50.9198 42.6632 50.7645C42.6632 50.477 42.462 50.3583 42.2104 50.502Z" fill="#D8D8D8"/>
<g style="mix-blend-mode:multiply">
<path d="M77.3323 57.4254C77.6608 57.28 77.9432 57.0484 78.1493 56.7556C78.3554 56.4628 78.4774 56.1197 78.5022 55.7633C78.5148 55.6407 78.5148 55.5172 78.5022 55.3946C78.3078 53.7577 77.4993 52.2537 76.2379 51.183C76.2379 51.183 76.2379 51.1517 76.2379 51.133C76.2099 51.0435 76.1763 50.9559 76.1373 50.8706C76.1826 50.9747 76.2225 51.081 76.2568 51.1892C76.1687 51.9578 74.829 53.32 70.9168 52.8639L71.0992 51.4892C73.3257 51.9266 75.7913 51.0955 75.6655 49.7645C75.2112 48.8069 74.5917 47.9356 73.8352 47.1901C73.1505 46.5293 72.4003 45.9389 71.5961 45.4279C71.2124 45.178 67.7342 43.2721 63.9918 41.2663L60.2179 39.2667C60.0544 38.9855 59.9034 38.7356 59.7462 38.4919L66.2749 32.6306C67.5706 33.5367 71.2501 35.6987 72.1684 35.8799C72.327 35.9159 72.4913 35.9195 72.6513 35.8905C72.8113 35.8615 72.9637 35.8005 73.0993 35.7112C73.5535 35.4165 73.9314 35.0197 74.2024 34.5529C74.4734 34.0861 74.6299 33.5624 74.6592 33.0243C74.6741 32.7383 74.5897 32.456 74.4202 32.2244C74.3761 32.0995 74.0113 31.6558 71.6904 30.4935L71.1746 29.65L70.8413 28.5065L73.4012 26.1944C74.6592 27.1005 78.3827 29.275 79.301 29.4625C79.46 29.4972 79.6244 29.4996 79.7844 29.4695C79.9444 29.4394 80.0966 29.3775 80.2319 29.2875C80.6867 28.9936 81.0652 28.597 81.3363 28.13C81.6074 27.663 81.7634 27.139 81.7917 26.6006C81.8066 26.3147 81.7223 26.0323 81.5527 25.8008C81.5024 25.6758 81.1439 25.2384 78.823 24.0699L78.3072 23.2263L77.9676 22.0703L91.893 9.48543C91.9238 9.46027 91.9487 9.42882 91.966 9.39324C91.9834 9.35765 91.9928 9.31876 91.9937 9.27922V8.73558C91.9964 8.75423 91.9964 8.77317 91.9937 8.79182C92.0031 8.75915 92.0031 8.72451 91.9937 8.69184C91.979 8.64368 91.9548 8.59895 91.9224 8.56031C91.8899 8.52166 91.85 8.48989 91.805 8.46689L91.4591 8.26692L88.4211 6.52979C88.2731 6.45102 88.1078 6.40981 87.9399 6.40981C87.7721 6.40981 87.6068 6.45102 87.4588 6.52979L72.2691 16.1965L72.1747 16.259L62.2244 22.5889L62.1677 22.6202L47.8083 31.762C47.1427 31.6576 46.4693 31.6095 45.7955 31.6183L38.8768 27.9441L38.6693 27.8379L36.1534 26.5006C35.3797 26.107 34.5935 25.7195 33.8073 25.3509L33.6752 25.2821L32.4865 24.7322L32.2286 24.6135L31.153 24.1386L30.7757 23.9699L30.3417 23.7824L28.7189 21.1455L26.0898 12.2099L26.3728 12.2848C26.4292 12.3048 26.4897 12.3107 26.549 12.302C26.6082 12.2933 26.6643 12.2702 26.7125 12.2349C26.865 12.1342 26.9912 11.999 27.0809 11.8404C27.1705 11.6818 27.221 11.5043 27.2282 11.3225C27.2337 11.2615 27.2233 11.2002 27.198 11.1444C27.1726 11.0885 27.1332 11.0401 27.0836 11.0039L27.1276 11.0351L26.5552 10.4665L36.3295 1.83702C36.3774 1.79577 36.4068 1.73734 36.4113 1.67455V1.24964C36.4141 1.26618 36.4141 1.28308 36.4113 1.29963C36.4216 1.24838 36.4142 1.19515 36.3903 1.14862C36.3663 1.10209 36.3271 1.06501 36.2792 1.04343L34.6753 0.12487C34.5599 0.0646606 34.4314 0.0332031 34.3011 0.0332031C34.1707 0.0332031 34.0423 0.0646606 33.9268 0.12487L21.9763 7.70454L21.6493 7.51708C21.6085 7.49421 21.5636 7.47937 21.5172 7.47335L19.8315 7.17966C19.7696 7.17463 19.7077 7.19 19.6554 7.22339C19.5636 7.28445 19.4873 7.36594 19.4327 7.4614C19.3781 7.55685 19.3467 7.66364 19.3409 7.77328C19.3431 7.83183 19.3628 7.88841 19.3975 7.93574L20.0831 8.74183L6.87465 15.6779C6.7237 15.7529 6.67967 15.8653 6.7237 15.9716C6.72099 15.9466 6.72099 15.9215 6.7237 15.8966V16.3215C6.72792 16.3662 6.74416 16.4089 6.77072 16.4452C6.79728 16.4814 6.83318 16.51 6.87465 16.5277L8.47224 17.4463C8.56927 17.4939 8.6749 17.5217 8.78292 17.5281C8.89094 17.5346 8.99916 17.5195 9.10122 17.4838L20.9008 13.0284L21.1587 17.1151L21.4354 21.4454C21.3101 21.5186 21.2032 21.6191 21.1226 21.7392C21.042 21.8593 20.9898 21.996 20.97 22.139C20.775 23.1888 22.1273 26.007 23.9639 28.3877C25.5854 30.5851 27.6132 32.4555 29.9391 33.8991C31.5933 34.9739 33.713 36.1861 36.6188 37.8358L28.0208 42.3411L27.9138 42.3973L19.3283 46.9026L19.2214 46.9589L17.7307 47.7337L17.6238 47.7899L7.06963 53.3263L6.96271 53.3825L0.289297 56.8818C0.0943153 56.9755 0.0377092 57.1255 0.0943168 57.2567C0.0782849 57.2298 0.0676062 57.2001 0.0628662 57.1692V57.7129C0.0687636 57.7707 0.0898895 57.826 0.124117 57.8732C0.158344 57.9203 0.204464 57.9577 0.257847 57.9816L3.63544 59.9187C3.76204 59.9826 3.90047 60.02 4.0422 60.0286C4.18392 60.0372 4.32592 60.0168 4.4594 59.9687L24.0771 52.7264C23.9052 53.0779 23.8629 53.4782 23.9576 53.8574C24.423 54.3573 29.2095 57.2317 30.2473 57.4442C30.4049 57.4804 30.5682 57.484 30.7272 57.455C30.8863 57.426 31.0376 57.3649 31.1719 57.2755C31.6254 56.9801 32.0027 56.5831 32.2737 56.1164C32.5446 55.6497 32.7015 55.1264 32.7318 54.5885C32.745 54.3037 32.6632 54.0225 32.4991 53.7887C32.4487 53.6637 32.0902 53.2201 29.7693 52.0516L29.2473 51.2142L29.1466 50.8518L35.5181 48.5023C35.3881 48.7005 35.2998 48.9229 35.2588 49.1559C35.2177 49.389 35.2246 49.6279 35.2791 49.8583C35.7383 50.3519 40.531 53.2263 41.5688 53.4388C41.7274 53.4751 41.8918 53.4788 42.0518 53.4498C42.2119 53.4208 42.3643 53.3596 42.4997 53.2701C42.9539 52.9754 43.3318 52.5786 43.6028 52.1117C43.8738 51.6449 44.0303 51.1212 44.0596 50.5831C44.0729 50.2983 43.9911 50.0171 43.8269 49.7833C43.7766 49.6583 43.4117 49.2146 41.0971 48.0524L40.5751 47.2088L40.4241 46.6839L45.4937 44.8093L46.0157 45.1093L50.5003 47.6275L53.6074 47.715C54.8654 48.4586 64.105 53.7824 66.8536 55.3571C70.445 57.4192 74.7975 58.444 77.3134 57.4004L77.3323 57.4254ZM3.57883 59.3438C3.70288 59.4098 3.84071 59.4462 3.98137 59.45C3.84071 59.4462 3.70288 59.4098 3.57883 59.3438ZM31.1468 53.8762C31.9141 53.4388 32.5368 53.7949 32.5368 54.676C32.5111 55.1546 32.3718 55.6204 32.1302 56.0353C31.8886 56.4502 31.5516 56.8023 31.1468 57.063C30.3794 57.5067 29.7567 57.1505 29.7567 56.2694C29.7834 55.7902 29.9231 55.3239 30.1645 54.9082C30.406 54.4924 30.7425 54.1389 31.1468 53.8762ZM42.4683 49.8645C43.2356 49.4271 43.8583 49.7833 43.8583 50.6643C43.8327 51.143 43.6933 51.6088 43.4518 52.0236C43.2102 52.4385 42.8732 52.7907 42.4683 53.0513C41.7009 53.495 41.0782 53.1388 41.0782 52.2578C41.1045 51.7714 41.2472 51.2983 41.4944 50.8777C41.7416 50.4571 42.0863 50.1012 42.4997 49.8395L42.4683 49.8645ZM73.0616 32.3182C73.8352 31.8808 74.4516 32.2369 74.4516 33.118C74.4269 33.5969 74.2881 34.063 74.0464 34.4781C73.8047 34.8931 73.4671 35.2451 73.0616 35.505C72.2942 35.9487 71.6778 35.5925 71.6778 34.7114C71.7029 34.2255 71.8444 33.7526 72.0905 33.332C72.3367 32.9114 72.6804 32.5552 73.093 32.2932L73.0616 32.3182ZM80.2004 25.8883C80.9678 25.4509 81.5905 25.807 81.5905 26.6881C81.5638 27.1673 81.4241 27.6336 81.1826 28.0494C80.9412 28.4651 80.6047 28.8186 80.2004 29.0813C79.4331 29.5188 78.8104 29.1626 78.8104 28.2815C78.8367 27.7952 78.9793 27.3221 79.2265 26.9015C79.4738 26.4809 79.8184 26.125 80.2319 25.8633L80.2004 25.8883Z" fill="#FFFF00"/>
</g>
<g style="mix-blend-mode:multiply">
<path d="M75.9297 50.3582C75.8857 50.2583 75.8353 50.1645 75.7976 50.0708C75.8479 50.177 75.8983 50.2895 75.9423 50.3957C75.936 50.3832 75.936 50.3707 75.9297 50.3582Z" fill="#FFFF00"/>
</g>
<g style="mix-blend-mode:multiply">
<path d="M75.6593 49.7583C75.7096 49.8583 75.7537 49.9645 75.804 50.0645C75.7474 49.9708 75.7033 49.8645 75.6593 49.7583Z" fill="#FFFF00"/>
</g>
<g style="mix-blend-mode:multiply">
<path d="M75.9423 50.3958C76.0114 50.552 76.068 50.7144 76.1246 50.8707C76.068 50.7082 76.0114 50.552 75.9423 50.3958Z" fill="#FFFF00"/>
</g>
</g>
<defs>
<linearGradient id="paint0_linear_79_13154" x1="51.967" y1="35.2059" x2="46.9625" y2="43.928" gradientUnits="userSpaceOnUse">
<stop stop-color="#F2F2F2"/>
<stop offset="0.21" stop-color="#EEEEEE"/>
<stop offset="0.43" stop-color="#E2E2E2"/>
<stop offset="0.64" stop-color="#CECECE"/>
<stop offset="0.76" stop-color="#BFBFBF"/>
<stop offset="0.95" stop-color="#C2C2C2"/>
<stop offset="1" stop-color="#C5C5C5"/>
</linearGradient>
<linearGradient id="paint1_linear_79_13154" x1="53.1923" y1="33.0618" x2="48.2907" y2="41.6066" gradientUnits="userSpaceOnUse">
<stop stop-color="white"/>
<stop offset="1" stop-color="#C4C4C4"/>
</linearGradient>
<linearGradient id="paint2_linear_79_13154" x1="23.6144" y1="8.66006" x2="22.5776" y2="10.4732" gradientUnits="userSpaceOnUse">
<stop stop-color="#F2F2F2"/>
<stop offset="0.49" stop-color="#D6D6D6"/>
<stop offset="0.95" stop-color="#BFBFBF"/>
</linearGradient>
<linearGradient id="paint3_linear_79_13154" x1="26.4455" y1="10.2872" x2="25.4145" y2="12.0829" gradientUnits="userSpaceOnUse">
<stop stop-color="#F2F2F2"/>
<stop offset="0.28" stop-color="#EEEEEE"/>
<stop offset="0.56" stop-color="#E2E2E2"/>
<stop offset="0.84" stop-color="#CECECE"/>
<stop offset="1" stop-color="#BFBFBF"/>
</linearGradient>
<linearGradient id="paint4_linear_79_13154" x1="79.2543" y1="25.0826" x2="77.3149" y2="28.4687" gradientUnits="userSpaceOnUse">
<stop stop-color="#F2F2F2"/>
<stop offset="0.21" stop-color="#EEEEEE"/>
<stop offset="0.43" stop-color="#E2E2E2"/>
<stop offset="0.64" stop-color="#CECECE"/>
<stop offset="0.76" stop-color="#BFBFBF"/>
<stop offset="0.95" stop-color="#C2C2C2"/>
<stop offset="1" stop-color="#C5C5C5"/>
</linearGradient>
<linearGradient id="paint5_linear_79_13154" x1="78.6921" y1="29.1391" x2="79.438" y2="24.4451" gradientUnits="userSpaceOnUse">
<stop/>
<stop offset="0.13" stop-color="#181818"/>
<stop offset="0.4" stop-color="#565656"/>
<stop offset="0.78" stop-color="#B7B7B7"/>
<stop offset="1" stop-color="#F2F2F2"/>
</linearGradient>
<linearGradient id="paint6_linear_79_13154" x1="72.0927" y1="31.533" x2="70.1533" y2="34.9191" gradientUnits="userSpaceOnUse">
<stop stop-color="#F2F2F2"/>
<stop offset="0.21" stop-color="#EEEEEE"/>
<stop offset="0.43" stop-color="#E2E2E2"/>
<stop offset="0.64" stop-color="#CECECE"/>
<stop offset="0.76" stop-color="#BFBFBF"/>
<stop offset="0.95" stop-color="#C2C2C2"/>
<stop offset="1" stop-color="#C5C5C5"/>
</linearGradient>
<linearGradient id="paint7_linear_79_13154" x1="71.5332" y1="35.59" x2="72.2739" y2="30.896" gradientUnits="userSpaceOnUse">
<stop/>
<stop offset="0.13" stop-color="#181818"/>
<stop offset="0.4" stop-color="#565656"/>
<stop offset="0.78" stop-color="#B7B7B7"/>
<stop offset="1" stop-color="#F2F2F2"/>
</linearGradient>
<linearGradient id="paint8_linear_79_13154" x1="41.3878" y1="49.1386" x2="39.4414" y2="52.5273" gradientUnits="userSpaceOnUse">
<stop stop-color="#F2F2F2"/>
<stop offset="0.21" stop-color="#EEEEEE"/>
<stop offset="0.43" stop-color="#E2E2E2"/>
<stop offset="0.64" stop-color="#CECECE"/>
<stop offset="0.76" stop-color="#BFBFBF"/>
<stop offset="0.95" stop-color="#C2C2C2"/>
<stop offset="1" stop-color="#C5C5C5"/>
</linearGradient>
<linearGradient id="paint9_linear_79_13154" x1="40.8209" y1="53.1949" x2="41.5669" y2="48.5009" gradientUnits="userSpaceOnUse">
<stop/>
<stop offset="0.13" stop-color="#181818"/>
<stop offset="0.4" stop-color="#565656"/>
<stop offset="0.78" stop-color="#B7B7B7"/>
<stop offset="1" stop-color="#F2F2F2"/>
</linearGradient>
<linearGradient id="paint10_linear_79_13154" x1="29.9924" y1="53.164" x2="28.053" y2="56.5501" gradientUnits="userSpaceOnUse">
<stop stop-color="#F2F2F2"/>
<stop offset="0.21" stop-color="#EEEEEE"/>
<stop offset="0.43" stop-color="#E2E2E2"/>
<stop offset="0.64" stop-color="#CECECE"/>
<stop offset="0.76" stop-color="#BFBFBF"/>
<stop offset="0.95" stop-color="#C2C2C2"/>
<stop offset="1" stop-color="#C5C5C5"/>
</linearGradient>
<linearGradient id="paint11_linear_79_13154" x1="29.4299" y1="57.2209" x2="30.1758" y2="52.5268" gradientUnits="userSpaceOnUse">
<stop/>
<stop offset="0.13" stop-color="#181818"/>
<stop offset="0.4" stop-color="#565656"/>
<stop offset="0.78" stop-color="#B7B7B7"/>
<stop offset="1" stop-color="#F2F2F2"/>
</linearGradient>
<clipPath id="clip0_79_13154">
<rect width="92" height="60" fill="white"/>
</clipPath>
</defs>
</svg>
