<svg width="56" height="80" viewBox="0 0 56 80" fill="none" xmlns="http://www.w3.org/2000/svg">
<path d="M0 20.3022V78.6067L1.42179 79.3956V21.0911L36.6668 0.78893L35.2386 0L0 20.3022Z" fill="#B1B1B0"/>
<path d="M1.42175 21.091V79.3955L36.6668 59.0933V0.788818L1.42175 21.091Z" fill="#FFFF00"/>
<path d="M6.69459 68.1598C6.58225 68.1602 6.47173 68.131 6.37433 68.0752C6.27692 68.0193 6.19608 67.9388 6.13991 67.8417C6.05679 67.6956 6.03493 67.5226 6.07912 67.3605C6.12332 67.1984 6.22997 67.0603 6.37581 66.9764L31.0818 52.7375C31.1546 52.6957 31.235 52.6687 31.3183 52.6579C31.4016 52.6471 31.4862 52.6528 31.5673 52.6747C31.6484 52.6965 31.7245 52.7341 31.791 52.7853C31.8576 52.8365 31.9134 52.9002 31.9552 52.9729C31.9971 53.0456 32.0242 53.1258 32.035 53.2089C32.0458 53.2921 32.04 53.3765 32.0181 53.4575C31.9962 53.5384 31.9586 53.6142 31.9073 53.6807C31.856 53.7471 31.7922 53.8028 31.7193 53.8445L7.01338 68.0771C6.91621 68.132 6.80628 68.1606 6.69459 68.1598Z" fill="#595959"/>
<path d="M6.69459 63.1779C6.58225 63.1783 6.47173 63.1491 6.37433 63.0933C6.27692 63.0374 6.19608 62.9568 6.13991 62.8597C6.05679 62.7137 6.03493 62.5407 6.07912 62.3786C6.12332 62.2165 6.22997 62.0784 6.37581 61.9945L31.0818 47.7556C31.2289 47.6712 31.4035 47.6486 31.5673 47.6927C31.7311 47.7369 31.8707 47.8442 31.9552 47.991C32.0398 48.1378 32.0624 48.3121 32.0181 48.4756C31.9739 48.639 31.8664 48.7782 31.7193 48.8626L7.01338 63.0951C6.91621 63.1501 6.80628 63.1786 6.69459 63.1779Z" fill="#595959"/>
<path d="M6.69459 58.1772C6.58225 58.1777 6.47173 58.1485 6.37433 58.0926C6.27692 58.0367 6.19608 57.9562 6.13991 57.8591C6.05679 57.713 6.03493 57.54 6.07912 57.3779C6.12332 57.2158 6.22997 57.0778 6.37581 56.9938L31.0818 42.7549C31.1545 42.7129 31.2349 42.6855 31.3183 42.6746C31.4017 42.6637 31.4864 42.6693 31.5676 42.6912C31.6487 42.7131 31.7248 42.7508 31.7913 42.8021C31.8578 42.8534 31.9136 42.9174 31.9552 42.9903C32.0383 43.1364 32.0602 43.3094 32.016 43.4715C31.9718 43.6336 31.8652 43.7717 31.7193 43.8556L7.01338 58.0945C6.91621 58.1495 6.80628 58.178 6.69459 58.1772Z" fill="#595959"/>
<path d="M6.69459 53.2145C6.58225 53.2149 6.47173 53.1857 6.37433 53.1299C6.27692 53.074 6.19608 52.9935 6.13991 52.8964C6.05679 52.7503 6.03493 52.5773 6.07912 52.4152C6.12332 52.2531 6.22997 52.115 6.37581 52.0311L31.0818 37.8176C31.1545 37.7756 31.2349 37.7483 31.3183 37.7374C31.4017 37.7264 31.4864 37.7321 31.5676 37.7539C31.6487 37.7758 31.7248 37.8135 31.7913 37.8648C31.8578 37.9162 31.9136 37.9801 31.9552 38.053C32.0383 38.1991 32.0602 38.3721 32.016 38.5342C31.9718 38.6963 31.8652 38.8344 31.7193 38.9183L7.01338 53.1572C6.91383 53.2034 6.80402 53.2231 6.69459 53.2145V53.2145Z" fill="#595959"/>
<path d="M6.69458 48.2328C6.55341 48.2338 6.41585 48.188 6.30357 48.1026C6.19129 48.0172 6.1106 47.897 6.07413 47.7609C6.03766 47.6248 6.04749 47.4805 6.10207 47.3506C6.15665 47.2207 6.25297 47.1125 6.37579 47.043L31.0817 32.8105C31.1543 32.7645 31.2354 32.7335 31.3203 32.7196C31.4051 32.7057 31.4919 32.709 31.5754 32.7294C31.6589 32.7499 31.7375 32.7869 31.8062 32.8384C31.875 32.8899 31.9327 32.9547 31.9758 33.029C32.0188 33.1033 32.0463 33.1855 32.0567 33.2707C32.0671 33.3559 32.06 33.4423 32.0361 33.5247C32.0121 33.6071 31.9717 33.6838 31.9172 33.7502C31.8628 33.8167 31.7955 33.8714 31.7193 33.9112L7.01337 48.1501C6.9162 48.205 6.80627 48.2336 6.69458 48.2328Z" fill="#595959"/>
<path d="M6.69458 43.2511C6.55341 43.2521 6.41585 43.2063 6.30357 43.1209C6.19129 43.0355 6.1106 42.9153 6.07413 42.7792C6.03766 42.6431 6.04749 42.4988 6.10207 42.3689C6.15665 42.239 6.25297 42.1308 6.37579 42.0613L31.0817 27.8288C31.1543 27.7828 31.2354 27.7519 31.3203 27.7379C31.4051 27.724 31.4919 27.7273 31.5754 27.7478C31.6589 27.7682 31.7375 27.8052 31.8062 27.8567C31.875 27.9082 31.9327 27.9731 31.9758 28.0473C32.0188 28.1216 32.0463 28.2038 32.0567 28.289C32.0671 28.3742 32.06 28.4606 32.0361 28.543C32.0121 28.6254 31.9717 28.7021 31.9172 28.7685C31.8628 28.835 31.7955 28.8897 31.7193 28.9295L7.01337 43.1684C6.9162 43.2233 6.80627 43.2519 6.69458 43.2511Z" fill="#595959"/>
<path d="M6.69458 38.2694C6.55341 38.2704 6.41585 38.2246 6.30357 38.1392C6.19129 38.0538 6.1106 37.9336 6.07413 37.7975C6.03766 37.6614 6.04749 37.5171 6.10207 37.3872C6.15665 37.2573 6.25297 37.1491 6.37579 37.0797L31.0817 22.8471C31.1543 22.8011 31.2354 22.7702 31.3203 22.7562C31.4051 22.7423 31.4919 22.7457 31.5754 22.7661C31.6589 22.7865 31.7375 22.8235 31.8062 22.875C31.875 22.9265 31.9327 22.9914 31.9758 23.0656C32.0188 23.1399 32.0463 23.2222 32.0567 23.3073C32.0671 23.3925 32.06 23.4789 32.0361 23.5613C32.0121 23.6437 31.9717 23.7204 31.9172 23.7868C31.8628 23.8533 31.7955 23.908 31.7193 23.9478L7.01337 38.1867C6.9162 38.2417 6.80627 38.2702 6.69458 38.2694Z" fill="#595959"/>
<path d="M6.69458 33.2877C6.55341 33.2887 6.41585 33.2429 6.30357 33.1575C6.19129 33.0721 6.1106 32.9519 6.07413 32.8158C6.03766 32.6797 6.04749 32.5354 6.10207 32.4055C6.15665 32.2756 6.25297 32.1674 6.37579 32.098L31.0817 17.8654C31.1543 17.8194 31.2354 17.7885 31.3203 17.7746C31.4051 17.7606 31.4919 17.764 31.5754 17.7844C31.6589 17.8048 31.7375 17.8419 31.8062 17.8933C31.875 17.9448 31.9327 18.0096 31.9758 18.0839C32.0188 18.1582 32.0463 18.2404 32.0567 18.3256C32.0671 18.4108 32.06 18.4972 32.0361 18.5796C32.0121 18.662 31.9717 18.7387 31.9172 18.8052C31.8628 18.8716 31.7955 18.9263 31.7193 18.9661L7.01337 33.1986C6.91773 33.2579 6.80716 33.2888 6.69458 33.2877V33.2877Z" fill="#595959"/>
<path d="M6.69458 28.306C6.55341 28.307 6.41585 28.2612 6.30357 28.1758C6.19129 28.0904 6.1106 27.9703 6.07413 27.8342C6.03766 27.6981 6.04749 27.5537 6.10207 27.4238C6.15665 27.2939 6.25297 27.1857 6.37579 27.1163L31.0817 12.8837C31.1543 12.8377 31.2354 12.8068 31.3203 12.7929C31.4051 12.7789 31.4919 12.7823 31.5754 12.8027C31.6589 12.8231 31.7375 12.8602 31.8062 12.9117C31.875 12.9631 31.9327 13.028 31.9758 13.1022C32.0188 13.1765 32.0463 13.2588 32.0567 13.3439C32.0671 13.4291 32.06 13.5155 32.0361 13.5979C32.0121 13.6804 31.9717 13.7571 31.9172 13.8235C31.8628 13.8899 31.7955 13.9446 31.7193 13.9844L7.01337 28.2169C6.91773 28.2762 6.80716 28.3071 6.69458 28.306V28.306Z" fill="#595959"/>
<path d="M49.3928 15.2313C49.3928 17.6058 48.6872 19.927 47.3652 21.9013C46.0432 23.8756 44.1642 25.4145 41.9659 26.3231C39.7675 27.2318 37.3485 27.4696 35.0147 27.0064C32.6809 26.5431 30.5372 25.3997 28.8546 23.7206C27.172 22.0416 26.0262 19.9024 25.562 17.5735C25.0978 15.2446 25.336 12.8307 26.2466 10.6369C27.1572 8.44315 28.6993 6.56813 30.6777 5.24892C32.6562 3.92971 34.9823 3.22559 37.3618 3.22559C40.5526 3.22559 43.6128 4.49048 45.869 6.742C48.1253 8.99351 49.3928 12.0472 49.3928 15.2313V15.2313Z" fill="#262626"/>
<path d="M47.3399 15.2315C47.3399 17.2008 46.7546 19.1259 45.6582 20.7633C44.5618 22.4008 43.0035 23.677 41.1803 24.4306C39.357 25.1842 37.3507 25.3814 35.4152 24.9972C33.4797 24.613 31.7017 23.6647 30.3063 22.2722C28.9108 20.8796 27.9605 19.1055 27.5755 17.174C27.1905 15.2425 27.3881 13.2405 28.1433 11.4211C28.8986 9.60164 30.1775 8.04656 31.8183 6.95247C33.4592 5.85837 35.3884 5.27441 37.3618 5.27441C40.0082 5.27441 42.5461 6.32345 44.4173 8.19076C46.2886 10.0581 47.3399 12.5907 47.3399 15.2315Z" fill="white"/>
<path d="M32.3696 16.1222L35.1048 18.8707L42.0225 11.9358" stroke="#222221" stroke-width="4" stroke-linecap="round" stroke-linejoin="round"/>
<path d="M48.0348 79.9999L48.0412 67.5616L38.0823 61.8228V74.242L48.0348 79.9999Z" fill="#F2F2F2"/>
<path d="M48.0348 79.9999L48.0412 67.5616L58.0001 61.8228V74.242L48.0348 79.9999Z" fill="#E3E3E2"/>
<path d="M58.0001 61.8228L48.0412 67.5617L38.0823 61.8228L48.0348 56.0776L58.0001 61.8228Z" fill="white"/>
<path d="M46.7214 78.2249V77.5823L43.3805 75.6482V76.2971L46.7214 78.2249Z" fill="#262626"/>
<path d="M46.7214 77.0797V76.4371L43.3805 74.5029V75.1519L46.7214 77.0797Z" fill="#262626"/>
<path d="M40.3775 72.4225V74.643L38.7772 73.7141V71.5L40.3775 72.4225Z" fill="#D9D9D9"/>
<path opacity="0.7" d="M55.8068 72.1935V74.5031L57.4071 73.5805V71.271L55.8068 72.1935Z" fill="#C5C5C5"/>
<path opacity="0.7" d="M53.6262 73.4531V75.7626L55.2265 74.84V72.5305L53.6262 73.4531Z" fill="#C5C5C5"/>
<path opacity="0.7" d="M54.1235 65.4302V68.7577L57.407 66.8617V63.5342L54.1235 65.4302Z" fill="#C5C5C5"/>
<path d="M54.5253 66.1111V65.5703L57.1138 64.0815V64.616L54.5253 66.1111Z" fill="#595959"/>
<g style="mix-blend-mode:multiply">
<path d="M58.0001 61.8228L48.0348 56.0776L38.0823 61.8228V74.2421L48.0348 80L58.0001 74.2421V61.8228Z" fill="#FFFF00"/>
</g>
<path d="M41.7865 67.5743L44.0052 68.8595V65.233L41.7865 63.9414V67.5743Z" fill="#C5C5C5"/>
<path d="M41.7865 63.9415L51.7326 58.2026L53.9578 59.4878L44.0052 65.233L41.7865 63.9415Z" fill="#D9D9D9"/>
<path d="M38.0823 61.8227L38.0887 49.3844L28.1298 43.6392V56.0584L38.0823 61.8227Z" fill="#F2F2F2"/>
<path d="M38.0823 61.8227L38.0887 49.3844L48.0475 43.6392V56.0584L38.0823 61.8227Z" fill="#E3E3E2"/>
<path d="M48.0475 43.6392L38.0887 49.3844L28.1298 43.6392L38.0823 37.894L48.0475 43.6392Z" fill="white"/>
<path d="M36.7688 60.0413V59.3988L33.4215 57.4646V58.1136L36.7688 60.0413Z" fill="#262626"/>
<path d="M36.7688 58.8961V58.2598L33.4215 56.3257V56.9683L36.7688 58.8961Z" fill="#262626"/>
<path d="M30.425 54.2389V56.4594L28.8247 55.5305V53.3164L30.425 54.2389Z" fill="#D9D9D9"/>
<path opacity="0.7" d="M45.8542 54.0099V56.3195L47.4546 55.3969V53.0874L45.8542 54.0099Z" fill="#C5C5C5"/>
<path opacity="0.7" d="M43.6737 55.2697V57.5792L45.2676 56.6631V54.3472L43.6737 55.2697Z" fill="#C5C5C5"/>
<path opacity="0.7" d="M44.1647 47.2532V50.5743L47.4546 48.6783V45.3508L44.1647 47.2532Z" fill="#C5C5C5"/>
<path d="M44.5728 47.9275V47.3867L47.1549 45.8979V46.4324L44.5728 47.9275Z" fill="#595959"/>
<g style="mix-blend-mode:multiply">
<path d="M48.0475 43.6392L38.0823 37.894L28.1298 43.6392V56.0585L38.0823 61.8228L48.0475 56.0585V43.6392Z" fill="#FFFF00"/>
</g>
<path d="M31.8276 49.3907L34.0528 50.6759V47.0494L31.8276 45.7578V49.3907Z" fill="#C5C5C5"/>
<path d="M31.8276 45.7579L41.7738 40.019L43.9989 41.3042L34.0528 47.0494L31.8276 45.7579Z" fill="#D9D9D9"/>
<path d="M28.1169 79.9999L28.1233 67.5616L18.1644 61.8228V74.242L28.1169 79.9999Z" fill="#F2F2F2"/>
<path d="M28.1169 79.9999L28.1233 67.5616L38.0822 61.8228V74.242L28.1169 79.9999Z" fill="#E3E3E2"/>
<path d="M38.0822 61.8228L28.1233 67.5617L18.1644 61.8228L28.1169 56.0776L38.0822 61.8228Z" fill="white"/>
<path d="M26.8035 78.2249V77.5823L23.4626 75.6482V76.2971L26.8035 78.2249Z" fill="#262626"/>
<path d="M26.8035 77.0797V76.4371L23.4626 74.5029V75.1519L26.8035 77.0797Z" fill="#262626"/>
<path d="M20.4597 72.4225V74.643L18.8594 73.7141V71.5L20.4597 72.4225Z" fill="#D9D9D9"/>
<path opacity="0.7" d="M35.8889 72.1935V74.5031L37.4892 73.5805V71.271L35.8889 72.1935Z" fill="#C5C5C5"/>
<path opacity="0.7" d="M33.7085 73.4531V75.7626L35.3088 74.84V72.5305L33.7085 73.4531Z" fill="#C5C5C5"/>
<path opacity="0.7" d="M34.2058 65.4302V68.7577L37.4893 66.8617V63.5342L34.2058 65.4302Z" fill="#C5C5C5"/>
<path d="M34.6074 66.1111V65.5703L37.1896 64.0815V64.616L34.6074 66.1111Z" fill="#595959"/>
<g style="mix-blend-mode:multiply">
<path d="M38.0822 61.8228L28.1169 56.0776L18.1644 61.8228V74.2421L28.1169 80L38.0822 74.2421V61.8228Z" fill="#FFFF00"/>
</g>
<path d="M21.8688 67.5743L24.0875 68.8595V65.233L21.8688 63.9414V67.5743Z" fill="#C5C5C5"/>
<path d="M21.8688 63.9415L31.8149 58.2026L34.04 59.4878L24.0875 65.233L21.8688 63.9415Z" fill="#D9D9D9"/>
</svg>
