<svg width="103" height="100" viewBox="0 0 103 100" fill="none" xmlns="http://www.w3.org/2000/svg">
	<g style="mix-blend-mode:multiply" clip-path="url(#clip0_79_16526)" filter="url(#filter0_f_79_16526)">
		<g style="mix-blend-mode:multiply">
			<path d="M91.7855 64.5641C91.7586 64.4615 91.7208 64.362 91.6728 64.2673C91.6701 64.2487 91.6701 64.2297 91.6728 64.2111C91.6129 64.118 91.5427 64.0319 91.4635 63.9545C91.4492 63.9296 91.43 63.9077 91.4071 63.8902C91.2901 63.7815 91.1604 63.6872 91.0208 63.6095L59.57 45.5116C59.4023 45.4197 59.2273 45.3419 59.0467 45.279L58.8777 45.2309C58.7404 45.1877 58.6006 45.1528 58.4591 45.1266H58.2739L57.7909 45.0784H57.6541C57.4396 45.0664 57.2246 45.0664 57.0101 45.0784C57.2028 44.7682 57.3594 44.4372 57.477 44.0917C57.5221 43.944 57.5597 43.794 57.5897 43.6424C57.5897 43.6424 57.5897 43.5863 57.5897 43.5622C57.6217 43.3957 57.6379 43.2264 57.638 43.0568V42.5273L57.5414 7.04559C57.5495 6.76948 57.4944 6.49515 57.3804 6.24338C57.3409 6.15647 57.2894 6.07553 57.2274 6.00278C57.1576 5.92728 57.0792 5.85999 56.994 5.80222L56.5915 5.57758L56.3903 5.45723L55.9958 5.22456C55.8173 5.12401 55.6125 5.07936 55.4082 5.09627C55.1213 5.1194 54.8447 5.2131 54.6032 5.369L7.06073 32.7163C6.57927 33.0134 6.16748 33.4101 5.85325 33.8796C5.61394 34.2244 5.42175 34.5994 5.28172 34.9947C5.21574 35.1857 5.1646 35.3814 5.12877 35.5803C5.09051 35.7677 5.07162 35.9585 5.07241 36.1498L5.17706 72.1611C5.15069 72.4059 5.19054 72.6532 5.29245 72.8775C5.39437 73.1018 5.55464 73.2948 5.75665 73.4365L6.25574 73.7253L6.75483 74.0141C6.70317 73.9812 6.65467 73.9437 6.60994 73.9019C6.74455 74.0102 6.90318 74.0848 7.07259 74.1197C7.24201 74.1546 7.41731 74.1487 7.58396 74.1024V75.3699C7.60434 75.616 7.68949 75.8524 7.83083 76.0552C7.97216 76.258 8.16468 76.42 8.38895 76.525L39.8397 94.6149C40.616 95.0198 41.4986 95.1767 42.3674 95.0642C42.7117 95.0268 43.0498 94.9459 43.3736 94.8235C43.5271 94.767 43.6752 94.6972 43.8164 94.6149L91.0449 67.2676C91.1702 67.1925 91.2888 67.1065 91.3991 67.0108C91.535 66.9055 91.6464 66.7721 91.7256 66.6198C91.8048 66.4675 91.85 66.2998 91.8579 66.1284V64.8369C91.8655 64.8928 91.8655 64.9494 91.8579 65.0053C91.8762 64.8544 91.8511 64.7014 91.7855 64.5641ZM56.8491 5.65778H56.7284H56.8491ZM6.135 35.9493C6.13123 35.9732 6.13123 35.9975 6.135 36.0214V35.9493ZM6.29601 35.3958V35.3476C6.29601 35.3957 6.25575 35.4359 6.23965 35.484C6.24297 35.4547 6.24297 35.4251 6.23965 35.3958H6.29601ZM56.4144 5.57758C56.4707 5.57359 56.5272 5.57359 56.5835 5.57758H56.4144ZM56.1326 5.62566H56.0522H56.1326Z" fill="rgba(0, 0, 0, 0.3)" />
		</g>
		<g style="mix-blend-mode:multiply">
			<path d="M97.9919 44.3967L97.9517 31.441V18.4853L95.4804 17.1135L93.0091 15.7337L92.1155 16.2472C91.718 16.1578 91.3056 16.1578 90.9081 16.2472C90.6937 16.2901 90.4836 16.3518 90.2802 16.4317L90.1594 16.4797C89.9311 16.5657 89.7103 16.6704 89.4993 16.7926C89.3443 16.8813 89.1939 16.9777 89.0485 17.0814V16.5921C89.0599 15.9766 88.9363 15.3661 88.6863 14.8031C88.5169 14.4104 88.2397 14.0732 87.8865 13.8305C87.5333 13.5879 87.1185 13.4495 86.6899 13.4314C85.9332 13.432 85.1916 13.6432 84.5487 14.0411C84.4038 14.1293 84.2589 14.2175 84.114 14.3218V10.0861L79.1955 7.35861V8.33728V7.33452L78.31 7.83991C77.9098 7.75073 77.4947 7.75073 77.0945 7.83991C76.8807 7.88502 76.6708 7.94679 76.4666 8.0245L76.3459 8.07258C76.1201 8.16158 75.902 8.26892 75.6938 8.39349C75.5356 8.47827 75.3824 8.57199 75.235 8.67424V8.19294C75.235 5.36113 73.2145 4.18184 70.7432 5.64186C69.9285 6.12679 69.2063 6.75147 68.6099 7.48699C68.4811 7.63941 68.3604 7.79179 68.2397 7.95223C67.7633 8.60235 67.3585 9.3016 67.0322 10.038C66.5609 11.0782 66.3036 12.2021 66.2755 13.3432V14.8031L62.484 16.961V22.8333V42.8885H62.5323L67.3622 45.7524L76.3781 40.5621V51.2716L81.208 54.1355L89.6442 49.3223L98.0724 44.509L97.9919 44.3967ZM84.8385 15.0358C85.0554 14.9358 85.282 14.8579 85.5146 14.8031C85.9892 14.687 86.4899 14.7469 86.9234 14.9716C87.0821 15.0612 87.2239 15.178 87.342 15.3166C87.6121 15.6327 87.7927 16.0148 87.8652 16.4236C87.9112 16.6697 87.9355 16.9193 87.9377 17.1696V17.9238C87.5166 18.3435 87.1341 18.7999 86.7946 19.2875L85.8367 19.833L84.0737 20.8518V15.5091C84.2115 15.4002 84.3568 15.301 84.5084 15.2123C84.6137 15.145 84.724 15.086 84.8385 15.0358ZM69.9221 7.30249C70.1378 7.12766 70.3665 6.96937 70.6063 6.82912C70.7271 6.75692 70.8478 6.70078 70.9605 6.64463C71.1744 6.54596 71.3984 6.47072 71.6286 6.42008C72.1025 6.29451 72.6067 6.35477 73.0374 6.58851C73.1941 6.67772 73.3355 6.79152 73.456 6.92548C73.7274 7.2407 73.9082 7.62314 73.9792 8.03243C74.0291 8.28067 74.0534 8.5334 74.0517 8.78656V9.54862C73.6436 9.96053 73.2744 10.409 72.9488 10.8884L69.5518 12.8457L67.2334 14.1774V12.7174C67.2353 12.4485 67.2595 12.1802 67.3059 11.9152C67.351 11.6251 67.4156 11.3383 67.4991 11.0568C67.9341 9.60209 68.7742 8.30029 69.9221 7.30249Z" fill="rgba(0, 0, 0, 0.3)" />
		</g>
	</g>
	<defs>
		<filter id="filter0_f_79_16526" x="0" y="0" width="103" height="100" filterUnits="userSpaceOnUse" color-interpolation-filters="sRGB">
			<feFlood flood-opacity="0" result="BackgroundImageFix" />
			<feBlend mode="normal" in="SourceGraphic" in2="BackgroundImageFix" result="shape" />
			<feGaussianBlur stdDeviation="2.5" result="effect1_foregroundBlur_79_16526" />
		</filter>
		<clipPath id="clip0_79_16526">
			<rect width="93" height="90" fill="white" transform="translate(5 5)" />
		</clipPath>
	</defs>
</svg>