<svg width="95" height="83" viewBox="0 0 95 83" fill="none" xmlns="http://www.w3.org/2000/svg">
	<g style="mix-blend-mode:multiply">
		<path d="M94.8908 55.7586L94.6959 55.6419C94.6538 55.6157 94.6052 55.6018 94.5556 55.6018C94.5059 55.6018 94.4573 55.6157 94.4152 55.6419L94.0331 55.8597C93.9203 55.9349 93.8264 56.0351 93.7588 56.1525C93.6911 56.2699 93.6516 56.4013 93.6433 56.5365V56.8554L93.3782 57.011L93.1755 55.7041V55.1052C93.176 54.8673 93.1199 54.6326 93.0117 54.4206L92.0838 52.5926L79.2654 45.2105L76.6924 46.6729V34.958L15.9841 0L-2.33231e-05 9.21012V32.0721V32.671L1.29428 33.4489L-0.0234375 34.2268V37.4706L0.23388 37.6184L4.36634 35.2381L5.02912 35.6192L4.20263 36.1015C3.84246 36.3506 3.55516 36.6909 3.37019 37.0873C3.18522 37.4837 3.10922 37.922 3.14999 38.3574V39.672L3.71921 40.0065L4.14024 39.7653C4.27732 40.59 4.58442 41.3774 5.04207 42.0776C5.49972 42.7779 6.09794 43.3758 6.79903 43.8336C7.07515 44.0345 7.40021 44.1577 7.74031 44.1905C8.08042 44.2234 8.42316 44.1646 8.73275 44.0203V44.0203L9.8789 43.3591V43.5614L10.3155 43.8181L10.8925 44.1448L11.3058 43.9037C11.4428 44.7304 11.7506 45.5196 12.2096 46.2213C12.6687 46.923 13.269 47.5219 13.9724 47.9798C14.2485 48.1806 14.5736 48.3038 14.9137 48.3366C15.2538 48.3695 15.5965 48.3107 15.9061 48.1664L17.0445 47.5052V47.6919L17.6214 48.0264L18.0581 48.2754L18.4791 48.0342C18.6206 48.8643 18.9335 49.6559 19.3979 50.359C19.8623 51.062 20.4681 51.661 21.1769 52.1181C21.453 52.3189 21.7781 52.4421 22.1182 52.475C22.4583 52.5078 22.801 52.449 23.1106 52.3048V52.3048L24.2568 51.6436V51.8303L24.8338 52.1648L26.9 50.9124V49.5589C26.8936 49.051 26.8202 48.5463 26.6817 48.0575L28.8259 49.2866V50.0645L30.6426 51.1068V51.8847L29.0832 50.9824L28.8337 51.1302V51.9081L38.276 57.3532V58.2011C38.2208 58.2263 38.1731 58.2654 38.1376 58.3145C38.102 58.3635 38.0799 58.421 38.0733 58.4812V58.4812V59.0879L37.1532 59.6169V59.7958L38.7127 60.7137L40.3189 59.788V59.6169L39.43 59.1035V58.4889C39.4367 58.5197 39.4367 58.5515 39.43 58.5823C39.4559 58.511 39.4534 58.4324 39.4229 58.3629C39.3925 58.2934 39.3363 58.2383 39.2662 58.2089V57.9133L39.3676 57.9755L39.6249 57.8277V57.7033L40.6385 58.2945L41.4884 57.8044V58.9557C41.3285 59.3675 41.2465 59.8053 41.2467 60.247V61.5927L41.8237 61.9272L42.2369 61.686C42.374 62.5107 42.6811 63.2981 43.1387 63.9983C43.5964 64.6986 44.1947 65.2965 44.8958 65.7544C45.1719 65.9552 45.4969 66.0784 45.837 66.1113C46.1771 66.1441 46.5198 66.0853 46.8294 65.941L47.9678 65.2798V65.4743L48.5448 65.8088V65.1865V65.7544L49.0126 65.4588L61.987 72.9264V73.3854L65.215 75.2445L65.6127 75.0189L67.4138 76.0535V76.6136L67.983 76.9481L68.365 76.7225C68.5093 77.5415 68.8204 78.3224 69.2791 79.0168C69.7377 79.7111 70.3342 80.3043 71.0316 80.7597C71.3078 80.9605 71.6328 81.0838 71.9729 81.1166C72.313 81.1494 72.6558 81.0907 72.9654 80.9464V80.9464L74.1427 80.2696V80.4952L74.7197 80.8219L75.1797 80.5341L79.1329 82.8055C79.3971 82.9572 79.7033 83.0199 80.0061 82.9844C80.0604 82.992 80.1156 82.992 80.1699 82.9844H80.3024C80.4081 82.9545 80.5102 82.9127 80.6065 82.86L93.7758 75.229C93.8822 75.1651 93.9703 75.075 94.0317 74.9674C94.0931 74.8598 94.1258 74.7383 94.1267 74.6144V72.6697V71.3396V70.5617L93.9162 70.4372C93.998 70.3678 94.069 70.2865 94.1267 70.1961V70.1961V62.2306L93.7213 59.6013L93.924 59.718C93.966 59.7405 94.0128 59.7522 94.0604 59.7522C94.1081 59.7522 94.1549 59.7405 94.1969 59.718L94.5789 59.4924C94.6929 59.4202 94.7878 59.3218 94.8557 59.2054C94.9235 59.0889 94.9623 58.958 94.9688 58.8234V56.0075C94.9785 55.9628 94.9764 55.9164 94.9627 55.8728C94.949 55.8292 94.9243 55.7898 94.8908 55.7586V55.7586ZM38.1279 58.5745C38.1269 58.5564 38.1269 58.5382 38.1279 58.5201C38.1269 58.5382 38.1269 58.5564 38.1279 58.5745ZM39.2584 58.7067C39.3171 58.6778 39.368 58.6351 39.4066 58.5823C39.368 58.6351 39.3171 58.6778 39.2584 58.7067V58.7067ZM36.4671 54.8173V55.2296L31.321 52.2581V51.8614L36.4671 54.8173ZM93.386 57.3299L93.6355 57.1821L93.386 57.3299L93.6355 58.9401L93.386 57.3299Z" fill="#D9D9D9" />
	</g>
</svg>