<svg width="109" height="88" viewBox="0 0 109 88" fill="none" xmlns="http://www.w3.org/2000/svg">
	<g style="mix-blend-mode:multiply" filter="url(#filter0_f_79_16531)">
		<path fill-rule="evenodd" clip-rule="evenodd" d="M102.382 66.9511C102.769 67.7917 102.975 68.7049 102.985 69.6306V74.2795V74.3197V75.2374C103.056 75.9864 102.876 76.7378 102.474 77.3733C102.071 78.0088 101.468 78.4923 100.761 78.7476L100.473 78.9284C100.286 79.0424 100.098 79.1574 99.9091 79.2728C98.9561 79.856 97.9813 80.4526 96.9692 81.0118C93.9213 82.7132 83.431 82.0836 65.3443 71.4928C52.6502 64.0706 6.3952 37.088 6.3952 37.088C6.14663 36.3054 6.01351 35.4907 6 34.6697V33.819V29.0896L11.915 25.6532V24.6751L12.0222 24.6216V24.1794L11.9552 24.1392C11.9522 24.133 11.9507 24.1261 11.9507 24.1191C11.9507 24.1122 11.9522 24.1053 11.9552 24.0991C11.95 24.0862 11.95 24.0717 11.9552 24.0589L14.9361 22.3306V21.8818L14.5074 21.6406C14.4514 21.6147 14.4033 21.5744 14.368 21.5238C14.3327 21.4732 14.3114 21.4141 14.3064 21.3526V21.1851C14.3126 21.1248 14.3343 21.0671 14.3696 21.0177C14.4048 20.9684 14.4524 20.9291 14.5074 20.9037L18.5267 18.5659L18.6406 17.9898L20.3689 16.9917L20.476 14.6002L19.2032 15.0222L18.9286 15.1763L18.4262 14.8883V14.7744L20.6502 13.5954V13.5217L20.4023 13.381C20.3767 13.3703 20.3544 13.3527 20.3379 13.3303C20.3214 13.3079 20.3112 13.2815 20.3086 13.2538V13.1399C20.3108 13.1164 20.3187 13.0938 20.3315 13.0739C20.3444 13.0541 20.3617 13.0377 20.3822 13.026V12.9115L20.3153 12.9523V12.9127L20.2818 12.9322V12.7513L20.3822 12.8058V12.8093L20.4382 12.8409L20.4425 12.8384L20.3822 12.8058V12.7714C20.3678 12.7614 20.3556 12.7485 20.3463 12.7335C20.3371 12.7185 20.3311 12.7018 20.3287 12.6844C20.329 12.6774 20.3298 12.6705 20.3312 12.6638L20.543 12.7848L20.8244 12.671V12.5998L20.5698 12.7513L20.3508 12.6262L20.3417 12.6315C20.343 12.6287 20.3443 12.626 20.3458 12.6234L20.3353 12.6174L20.3638 12.5978C20.3764 12.5836 20.3917 12.572 20.409 12.5638L20.4345 12.5491L20.8512 12.2623V12.3089L20.9784 12.2355V8.21628L19.565 8.88615L19.3439 8.75887V8.6383L20.9784 7.69377V7.05069L21.4608 6.77604L21.7354 6.93681V7.22486L23.1355 6.41431L23.3565 6.54158V6.66216L21.7756 7.72727L21.9967 10.7417L22.1306 10.6278L22.3919 10.1522C22.3786 10.1416 22.3677 10.1284 22.3596 10.1134C22.3515 10.0985 22.3466 10.082 22.345 10.0651V9.94456C22.345 9.98475 22.3718 10.0584 22.432 10.0584C22.3182 9.99145 22.3182 9.89097 22.432 9.82398C22.4937 9.7943 22.5613 9.77888 22.6297 9.77888C22.6981 9.77888 22.7656 9.7943 22.8273 9.82398C22.834 9.83068 23.3096 9.74359 23.7115 9.66991C24.1739 9.45618 24.6628 9.30524 25.1652 9.22109V9.28138V10.6211C24.4011 10.7592 23.6682 11.0338 23.0015 11.4317L22.8273 11.5389V12.0614L23.0282 12.1752L24.9039 11.0833L25.4063 11.3781V11.4853L24.857 11.8068L23.812 12.671V12.7044C23.8105 12.7221 23.8048 12.7392 23.7955 12.7543C23.7862 12.7695 23.7735 12.7822 23.7584 12.7915V13.0528C23.7855 13.0683 23.806 13.0933 23.8159 13.123C23.8258 13.1526 23.8244 13.1849 23.812 13.2136C23.8149 13.1981 23.8149 13.1822 23.812 13.1667V13.2136V13.2738C23.8098 13.3025 23.7999 13.3301 23.7834 13.3536C23.7669 13.3772 23.7444 13.3959 23.7182 13.4078L23.4436 13.5686V13.7026L25.2255 14.7342C25.3708 14.6646 25.5299 14.6285 25.691 14.6285C25.8521 14.6285 26.0112 14.6646 26.1566 14.7342L30.6649 17.34C30.7378 17.3685 30.7968 17.4244 30.8293 17.4956C30.8618 17.5669 30.8653 17.648 30.839 17.7218C30.8442 17.6908 30.8442 17.6591 30.839 17.628V17.7218V17.7955C30.8337 17.8544 30.813 17.9108 30.7788 17.959C30.7447 18.0072 30.6985 18.0456 30.6447 18.0702L30.5443 18.1305L33.0094 19.5573C33.0124 19.5636 33.0139 19.5704 33.0139 19.5774C33.0139 19.5843 33.0124 19.5912 33.0094 19.5975C33.0146 19.6104 33.0146 19.6248 33.0094 19.6377V20.0664L33.1635 20.1535V22.3641L42.6423 27.8839L42.9839 28.5135L43.6537 28.125L51.0224 32.372V35.5137L53.6684 33.9864L53.6942 34.0014L53.7086 33.9931L54.9787 34.7265L62.3299 30.4428L66.2353 32.7003V33.2563L65.2707 33.819V40.5836L71.2125 44.0145V47.1381L73.7213 45.7081L73.8585 45.6289L81.2137 49.8759V52.9792L83.987 51.3764L86.9746 53.1047L87.8924 52.5755V49.628C87.8503 49.6015 87.8154 49.565 87.7909 49.5218C87.7663 49.4785 87.7529 49.4299 87.7517 49.3802C87.7535 49.3032 87.7853 49.2299 87.8403 49.1761C87.8954 49.1223 87.9695 49.0921 88.0465 49.0921C88.1229 49.0921 88.1961 49.1225 88.2501 49.1765C88.3041 49.2305 88.3345 49.3038 88.3345 49.3802C88.3346 49.431 88.3209 49.4808 88.295 49.5244C88.2691 49.5681 88.2318 49.6039 88.1871 49.628V52.4013L90.0561 51.3094L90.5183 51.5774V51.6846L90.0092 51.9793L88.2541 53.6674V53.8349L91.3489 55.6167V55.6358L91.3624 55.6435V59.4551L91.3557 59.459V60.7727L92.8227 61.7729L94.4237 60.8485L95.4419 59.3011L95.6026 59.2073C99.0726 61.9672 101.35 64.5596 102.382 66.9511ZM63.2275 40.1317V35.0448L63.2275 40.1292L61.0638 41.3819L61.0638 41.3831L63.2275 40.1317ZM20.3018 12.6174H20.3353C20.3243 12.6148 20.3129 12.6148 20.3018 12.6174ZM20.3086 12.6509L20.3312 12.6638C20.3334 12.6526 20.3369 12.6418 20.3417 12.6315L20.3086 12.6509ZM20.2751 12.6509C20.2861 12.6483 20.2975 12.6483 20.3086 12.6509H20.2751ZM23.6312 12.9657V12.7848L23.4704 12.8786L23.4882 12.8883L23.6311 12.8049L23.6312 12.9657ZM12.0557 24.1928L12.0557 24.2129L12.3663 24.3904L12.3839 24.3804L12.0557 24.1928ZM13.0136 23.5431L12.0795 24.089L12.0624 24.079L13.0136 23.5297L13.0136 23.5431ZM14.0184 22.9642L13.0672 23.5163V23.4962L14.0184 22.9469V22.9642ZM14.9227 22.9134L14.9228 22.9134V22.4244L14.072 22.9134V22.9335L14.9227 22.4378V22.9134ZM22.278 11.8857L22.2445 11.8671C22.1622 11.9242 22.0838 11.9869 22.01 12.0547V12.0773C22.0011 12.0761 21.9922 12.0753 21.9832 12.0748V12.0279C22.0571 11.9601 22.1354 11.8974 22.2177 11.8403H22.278V11.8857ZM22.767 9.99145V10.045L22.7938 10.045V9.99145L22.767 9.99145ZM22.767 12.1628L22.7469 12.1485V12.2221H22.7134V12.115H22.767V12.1628ZM23.7758 15.0214L23.7852 15.0624L24.0465 14.9083L23.996 14.8915L23.7758 15.0214ZM30.2294 18.5056L31.1539 19.0415V19.0147L30.2294 18.4788L30.2294 18.3247V18.5056ZM31.2007 18.6128V19.0415L32.1587 19.5975V19.5936L31.2074 19.0415V18.6166L31.2007 18.6128ZM32.5137 19.7984L32.5137 19.7984L32.8821 19.5841L32.5137 19.7984ZM32.929 20.0396L32.929 20.0396V19.6712L32.929 19.6712V20.0396ZM58.8599 36.4784L63.2275 33.9395V33.9328L58.8599 36.4717L56.4073 35.0549L56.4015 35.0582L58.8599 36.4784ZM89.567 52.2741L89.5495 52.2843L88.2675 53.52V53.5267L89.567 52.2741ZM102.462 67.6946C102.388 67.4736 102.281 67.2123 102.201 67.0247L102.175 67.0205L102.161 67.018C102.205 67.1065 102.245 67.194 102.284 67.2813C102.246 67.1873 102.208 67.0977 102.175 67.0205C102.22 67.123 102.263 67.2241 102.303 67.3245C102.326 67.3786 102.349 67.4328 102.373 67.487C102.402 67.5558 102.431 67.6249 102.462 67.6946ZM102.643 68.331C102.61 68.1903 102.569 68.0429 102.523 67.8956L102.496 67.8889C102.507 67.9258 102.519 67.9627 102.53 67.9996C102.564 68.11 102.598 68.2205 102.643 68.331ZM102.729 68.8248C102.71 68.7396 102.69 68.6525 102.69 68.5654L102.663 68.5387C102.673 68.5784 102.681 68.6231 102.69 68.671C102.707 68.7601 102.726 68.8604 102.757 68.9607C102.75 68.9161 102.74 68.8707 102.729 68.8248Z" fill="rgba(0, 0, 0, 0.3)" />
	</g>
	<defs>
		<filter id="filter0_f_79_16531" x="0" y="0.414307" width="109" height="87.3179" filterUnits="userSpaceOnUse" color-interpolation-filters="sRGB">
			<feFlood flood-opacity="0" result="BackgroundImageFix" />
			<feBlend mode="normal" in="SourceGraphic" in2="BackgroundImageFix" result="shape" />
			<feGaussianBlur stdDeviation="3" result="effect1_foregroundBlur_79_16531" />
		</filter>
	</defs>
</svg>