<svg width="97" height="84" viewBox="0 0 97 84" fill="none" xmlns="http://www.w3.org/2000/svg">
<path d="M38.1333 59.7126V59.8842L39.724 60.8043L41.3224 59.8842V59.7048L38.1333 59.7126Z" fill="#404040"/>
<path d="M39.724 60.6249L38.1333 59.7126L39.7318 58.7847L41.3224 59.7048L39.724 60.6249Z" fill="#404040"/>
<path d="M39.7473 58.9718C40.1306 58.9718 40.4413 58.7938 40.4413 58.5742C40.4413 58.3546 40.1306 58.1765 39.7473 58.1765C39.364 58.1765 39.0533 58.3546 39.0533 58.5742C39.0533 58.7938 39.364 58.9718 39.7473 58.9718Z" fill="#404040"/>
<path d="M39.061 58.5664V59.7048C39.0646 59.767 39.0855 59.8269 39.1213 59.8779C39.1571 59.9288 39.2065 59.9688 39.2637 59.9933C39.4147 60.07 39.5817 60.11 39.7511 60.11C39.9204 60.11 40.0874 60.07 40.2384 59.9933C40.2936 59.9681 40.3413 59.9289 40.3768 59.8797C40.4123 59.8305 40.4345 59.773 40.4411 59.7126V58.6132C40.4345 58.6735 40.4123 58.7311 40.3768 58.7803C40.3413 58.8295 40.2936 58.8686 40.2384 58.8939C40.0874 58.9706 39.9204 59.0106 39.7511 59.0106C39.5817 59.0106 39.4147 58.9706 39.2637 58.8939C39.2004 58.8668 39.1469 58.8208 39.1106 58.7622C39.0743 58.7036 39.057 58.6352 39.061 58.5664Z" fill="#404040"/>
<path d="M40.223 54.2465C40.2343 54.221 40.2402 54.1934 40.2404 54.1656C40.2406 54.1377 40.235 54.1101 40.224 54.0845C40.213 54.0589 40.1969 54.0359 40.1766 54.0168C40.1563 53.9977 40.1323 53.9829 40.1061 53.9735C39.9982 53.92 39.8795 53.8921 39.7591 53.8921C39.6387 53.8921 39.5199 53.92 39.4121 53.9735C39.3738 53.991 39.3406 54.0181 39.316 54.0523C39.2914 54.0865 39.2761 54.1266 39.2717 54.1685V58.5194C39.2717 58.5974 39.3186 58.6676 39.4121 58.7222C39.5188 58.7795 39.638 58.8095 39.7591 58.8095C39.8802 58.8095 39.9994 58.7795 40.1061 58.7222C40.1444 58.7047 40.1776 58.6776 40.2022 58.6434C40.2268 58.6092 40.242 58.5691 40.2464 58.5272V54.1763C40.2421 54.2007 40.2343 54.2244 40.223 54.2465Z" fill="#404040"/>
<path d="M41.6186 58.3791L37.447 55.9697V52.687L41.6186 55.0964V58.3791Z" fill="#404040"/>
<path d="M54.4298 50.9795L41.6187 58.3792V55.0965L54.4298 47.6968V50.9795Z" fill="#404040"/>
<path d="M41.6188 55.0965L37.4471 52.6871L50.2583 45.2874L54.4299 47.6968L41.6188 55.0965Z" fill="#404040"/>
<path d="M38.3127 55.4395L32.0592 51.8293V48.5466L38.3127 52.1568V55.4395Z" fill="#404040"/>
<path d="M58.8666 49.9893L58.4066 50.2778C58.1058 50.4879 57.8658 50.7739 57.7111 51.1066C57.5564 51.4393 57.4923 51.8071 57.5255 52.1725V53.5215L58.0011 53.2408V51.8762C57.9653 51.5132 58.0265 51.1472 58.1786 50.8157C58.3307 50.4841 58.5681 50.1989 58.8666 49.9893Z" fill="#D4D4D4"/>
<path d="M64.7304 55.806C64.7105 54.8901 64.5035 53.9879 64.1222 53.1549C63.9947 52.8716 63.8515 52.5957 63.6933 52.3284C63.4121 51.8347 63.083 51.3698 62.7109 50.9404C62.2485 50.4051 61.7036 49.9471 61.0968 49.5837C60.7212 49.3115 60.2802 49.1436 59.8186 49.097C59.3571 49.0505 58.8915 49.1269 58.4691 49.3186L58.0012 49.6149C58.4224 49.4197 58.8881 49.3406 59.3501 49.3858C59.8121 49.4311 60.2536 49.599 60.6289 49.8722C61.2355 50.2361 61.7803 50.694 62.243 51.2289C62.6177 51.6581 62.9494 52.123 63.2333 52.6169C63.3876 52.8877 63.5281 53.1662 63.6543 53.4512C64.0356 54.2815 64.2427 55.1811 64.2626 56.0945V57.4513L64.7226 57.1628L64.7304 55.806Z" fill="#404040"/>
<path d="M60.6288 49.8332C61.7188 50.5086 62.6158 51.454 63.2332 52.5779C63.8691 53.6295 64.2236 54.8272 64.2624 56.0555V57.4123L63.6776 57.077V55.728C63.6442 54.6978 63.3461 53.6935 62.8121 52.8118C62.2917 51.8565 61.5346 51.051 60.6132 50.4726C58.9134 49.4901 57.4943 50.2387 57.4943 52.1412V53.4902L56.9172 53.1627V51.806C56.964 49.5681 58.6171 48.6714 60.6288 49.8332Z" fill="#727272"/>
<path d="M56.6444 49.1704L42.4453 57.4201L43.6227 58.0984C44.8346 58.0096 46.036 58.3767 46.9912 59.1277C47.5311 59.5599 47.9545 60.1201 48.2232 60.7574L66.5471 71.3384L80.7462 63.0888L56.6444 49.1704Z" fill="#B2B2B2"/>
<path d="M48.2466 60.7574L62.2819 68.8745L76.5278 60.6482L56.6444 49.1704L42.4453 57.4201L43.6227 58.0984C44.8346 58.0096 46.036 58.3767 46.9912 59.1277C47.5396 59.5571 47.9713 60.1175 48.2466 60.7574Z" fill="white"/>
<path d="M55.202 51.2367L77.5728 64.157L77.9626 63.9309L55.202 50.7922L45.2213 56.6013L45.6112 56.8196L55.202 51.2367Z" fill="url(#paint0_linear_79_14562)"/>
<path d="M43.2876 61.7399L42.5078 61.2643V57.4202L44.3012 58.4572C43.9629 58.6661 43.6909 58.9669 43.5169 59.3244C43.343 59.682 43.2742 60.0816 43.3187 60.4767L43.2876 61.7399ZM48.4572 60.8744C49.0488 61.8112 49.3848 62.8865 49.4319 63.9934V65.2644L66.7812 75.2996L67.171 71.6816L48.4572 60.8744Z" fill="#D9D9D9"/>
<path d="M48.0048 59.0186C47.5224 58.6086 46.9999 58.2481 46.4453 57.9426C46.0876 57.748 45.6885 57.6422 45.2814 57.6341C44.8743 57.6259 44.4712 57.7157 44.1061 57.8958H44.0359C43.6312 58.0884 43.2847 58.3846 43.0313 58.7543C42.778 59.124 42.6269 59.5542 42.5934 60.0011C42.5934 60.1025 42.5934 60.1648 42.5934 60.1648L42.7883 61.9972L48.0048 59.0186Z" fill="#404040"/>
<path d="M46.7026 58.465C46.5006 58.3947 46.2862 58.3667 46.073 58.3828C45.8597 58.3989 45.652 58.4587 45.4628 58.5585L43.9657 59.424L47.8644 66.0518L49.3147 65.1629C49.4967 65.0471 49.6511 64.8927 49.767 64.7107C49.7521 63.5074 49.4694 62.3225 48.9394 61.2421C48.4093 60.1618 47.6452 59.2131 46.7026 58.465Z" fill="#222221"/>
<path d="M45.9074 59.6189C44.4025 58.7534 43.1783 59.4473 43.1783 61.1784C43.2298 62.116 43.5017 63.0282 43.9718 63.8411C44.4419 64.654 45.0971 65.3446 45.8841 65.8568C47.389 66.7223 48.6132 66.0283 48.6132 64.2973C48.5629 63.3594 48.2916 62.4467 47.8214 61.6336C47.3512 60.8205 46.6953 60.1302 45.9074 59.6189Z" fill="#222221"/>
<path d="M45.8995 60.4843C44.8235 59.8605 43.9502 60.3596 43.9424 61.5993C43.9799 62.2745 44.1759 62.9313 44.5146 63.5165C44.8533 64.1017 45.3251 64.5989 45.8917 64.9678C46.9678 65.5838 47.841 65.0848 47.8488 63.8528C47.8132 63.1772 47.618 62.5197 47.2791 61.9342C46.9403 61.3487 46.4675 60.8518 45.8995 60.4843Z" fill="#404040"/>
<path d="M45.9386 60.5702C44.9171 59.9542 44.0672 60.4142 44.0438 61.5916C44.0656 62.2374 44.2401 62.8689 44.5532 63.4341C44.8664 63.9993 45.3091 64.4822 45.845 64.8432C46.8665 65.4592 47.7164 64.9991 47.7398 63.8217C47.7181 63.1759 47.5434 62.5445 47.2303 61.9793C46.9172 61.414 46.4745 60.9311 45.9386 60.5702Z" fill="#9A9A9A"/>
<path d="M47.6541 64.087C47.4814 64.225 47.2669 64.3001 47.0459 64.3001C46.8249 64.3001 46.6104 64.225 46.4377 64.087C46.0132 63.7992 45.6622 63.4158 45.413 62.9675C45.1638 62.5192 45.0233 62.0186 45.003 61.5061C44.9803 61.294 45.0284 61.0803 45.1398 60.8984C45.2513 60.7164 45.4197 60.5765 45.619 60.5002C45.6892 60.5002 45.58 60.5002 45.58 60.5002H45.159C44.5742 60.5002 44.1687 60.9291 44.1453 61.7166C44.1698 62.3246 44.3363 62.9185 44.6315 63.4506C44.9267 63.9827 45.3423 64.4383 45.8451 64.781C46.5469 65.2021 47.1629 65.0851 47.4592 64.5705L47.6229 64.2742C47.6229 64.2742 47.7087 64.0325 47.6541 64.087Z" fill="#B5B5B5"/>
<path d="M45.9386 60.5702C44.9171 59.9542 44.0672 60.4142 44.0438 61.5916C44.0656 62.2374 44.2401 62.8689 44.5532 63.4341C44.8664 63.9993 45.3091 64.4822 45.845 64.8432C46.8665 65.4592 47.7164 64.9991 47.7398 63.8217C47.7181 63.1759 47.5434 62.5445 47.2303 61.9793C46.9172 61.414 46.4745 60.9311 45.9386 60.5702ZM45.845 64.7184C45.3465 64.3732 44.9354 63.9164 44.6444 63.3845C44.3534 62.8525 44.1904 62.26 44.1686 61.654C44.1686 60.5468 44.9951 60.0945 45.962 60.6949C46.4648 61.0376 46.8804 61.4933 47.1756 62.0254C47.4708 62.5575 47.6372 63.1513 47.6618 63.7593C47.615 64.8666 46.8119 65.2954 45.845 64.7184Z" fill="#D8D8D8"/>
<path d="M45.9385 60.695C45.813 60.6206 45.6796 60.5605 45.5408 60.5156C45.3623 60.6037 45.2151 60.7444 45.1189 60.9186C45.0228 61.0928 44.9822 61.2923 45.0028 61.4903C45.0231 62.0028 45.1635 62.5034 45.4127 62.9517C45.6619 63.4 46.0129 63.7835 46.4375 64.0713C46.5993 64.2002 46.7969 64.2761 47.0034 64.2887C47.2099 64.3013 47.4153 64.2498 47.5915 64.1414C47.6157 64.0153 47.6313 63.8876 47.6383 63.7593C47.6138 63.1513 47.4472 62.5575 47.1521 62.0254C46.8569 61.4933 46.4413 61.0377 45.9385 60.695Z" fill="#9F9F9F"/>
<path d="M47.0614 62.1843C46.9375 61.9189 46.7433 61.6924 46.5 61.5294L46.3674 61.467C46.0243 61.3266 45.7514 61.5138 45.7437 61.9348V62.044L46.383 63.1824L46.4688 63.237C46.8743 63.4709 47.2018 63.2838 47.2096 62.8237C47.2133 62.6017 47.1624 62.3821 47.0614 62.1843Z" fill="#929292"/>
<path d="M46.4064 61.6853C46.0477 61.467 45.7514 61.6229 45.7437 62.0362C45.751 62.2614 45.8122 62.4815 45.9221 62.6782C46.032 62.8749 46.1874 63.0425 46.3752 63.1668C46.7261 63.3851 47.0224 63.2214 47.0302 62.8159C47.0224 62.5917 46.9619 62.3725 46.8535 62.176C46.7452 61.9796 46.592 61.8115 46.4064 61.6853Z" fill="#B5B5B5"/>
<path d="M50.001 64.2662C49.9887 63.3519 49.7814 62.4507 49.3929 61.6229C49.2697 61.3364 49.1291 61.0578 48.9718 60.7886C48.6905 60.293 48.3587 59.8278 47.9815 59.4007C47.5209 58.8636 46.9757 58.4053 46.3675 58.0439C45.9921 57.7707 45.5506 57.6028 45.0886 57.5576C44.6266 57.5123 44.1609 57.5914 43.7397 57.7866L43.2797 58.0751C43.7011 57.8794 44.1675 57.8007 44.6299 57.8473C45.0922 57.894 45.5335 58.0642 45.9074 58.3402C46.5165 58.7035 47.0618 59.1645 47.5215 59.7048C47.8937 60.1313 48.2228 60.5936 48.5039 61.0849C48.6622 61.3549 48.8054 61.6334 48.9328 61.9192C49.3149 62.752 49.5219 63.6543 49.541 64.5703V65.9427L50.0088 65.6542L50.001 64.2662Z" fill="#404040"/>
<path d="M45.9074 58.3402C46.9928 59.0154 47.8868 59.9577 48.5039 61.0771C49.1445 62.13 49.5018 63.3307 49.541 64.5626V65.9427L48.964 65.6074V64.2273C48.9342 63.1965 48.6358 62.1913 48.0985 61.3111C47.5821 60.3528 46.8241 59.5464 45.8996 58.9718C44.2075 57.9894 42.7806 58.7379 42.7806 60.6405V62.044L42.2036 61.7087V60.352C42.2426 58.0751 43.8957 57.1784 45.9074 58.3402Z" fill="#404040"/>
<path d="M47.9893 59.4239C48.3615 59.8533 48.6905 60.3181 48.9718 60.8118C49.0761 60.9907 49.1699 61.1756 49.2525 61.3655L50.9211 60.3986C50.8354 60.2114 50.7418 60.0165 50.6326 59.8294C50.3514 59.3357 50.0223 58.8708 49.6502 58.4414C49.1868 57.9041 48.639 57.4459 48.0283 57.0847C47.653 56.8115 47.2115 56.6436 46.7495 56.5983C46.2875 56.5531 45.8218 56.6322 45.4006 56.8274L43.7397 57.8098C44.1609 57.6146 44.6266 57.5356 45.0886 57.5808C45.5506 57.626 45.9922 57.794 46.3675 58.0671C46.9782 58.4283 47.526 58.8866 47.9893 59.4239Z" fill="#404040"/>
<path d="M60.5821 52.1569C60.9543 52.5862 61.2833 53.0511 61.5646 53.5448C61.6674 53.7219 61.761 53.904 61.8453 54.0906L63.5763 53.0925C62.9221 51.7515 61.9238 50.608 60.6835 49.7786C60.3016 49.4921 59.8467 49.3189 59.371 49.279C58.8952 49.239 58.4178 49.3338 57.9934 49.5525L56.3325 50.535C56.7546 50.3417 57.2205 50.2644 57.6824 50.311C58.1442 50.3576 58.5853 50.5264 58.9602 50.8001C59.5727 51.1588 60.1209 51.6174 60.5821 52.1569Z" fill="#404040"/>
<path d="M61.8453 54.0907L56.0986 50.7768C56.0986 50.7768 56.8784 49.5838 59.1396 50.6988C59.8085 51.0356 60.3967 51.5131 60.8637 52.0986C61.3307 52.6841 61.6656 53.3636 61.8453 54.0907Z" fill="#404040"/>
<path d="M51.4748 64.1804L51.0771 63.9543C51.0258 63.9221 50.9823 63.8787 50.9499 63.8274C50.9175 63.7761 50.8971 63.7183 50.89 63.658C50.89 63.5567 50.9758 63.5255 51.0771 63.58L51.4748 63.814C51.5268 63.8436 51.5709 63.8853 51.6035 63.9355C51.6361 63.9857 51.6561 64.0429 51.662 64.1025C51.662 64.2038 51.5762 64.2428 51.4748 64.1804Z" fill="#C3C3C3"/>
<path d="M1.23583 37.6692L0.978516 37.521V34.2695L3.48148 33.1233L1.23583 37.6692Z" fill="#404040"/>
<path d="M14.2185 30.1758L1.23584 37.6691V34.4176L14.2185 26.9243V30.1758Z" fill="#404040"/>
<path d="M1.23595 34.4176L0.978638 34.2694L13.9613 26.7761L14.2186 26.9243L1.23595 34.4176Z" fill="#808080"/>
<path d="M8.83851 36.5854C8.40185 36.3047 7.91062 36.1176 7.47396 35.8057C7.43724 35.7806 7.40551 35.7488 7.3804 35.7121C6.9309 35.6764 6.47979 35.757 6.07044 35.946L5.99244 35.985C5.58772 36.1767 5.24144 36.4728 4.98925 36.8429C4.73707 37.2129 4.58812 37.6435 4.55774 38.0903C4.55774 38.1917 4.55774 38.2463 4.55774 38.2463L4.74487 40.0787L9.55586 37.3028C9.35234 37.0305 9.11076 36.789 8.83851 36.5854Z" fill="#404040"/>
<path d="M8.6357 36.5386C8.43262 36.4727 8.21845 36.4477 8.00564 36.4651C7.79282 36.4825 7.58562 36.5419 7.39594 36.64L5.8988 37.5055L9.75073 44.1333L11.2479 43.26C11.4293 43.146 11.5815 42.9911 11.6923 42.8078C11.6807 41.6013 11.4004 40.4126 10.8717 39.3282C10.3429 38.2437 9.57907 37.2907 8.6357 36.5386Z" fill="#222221"/>
<path d="M7.83261 37.6926C6.33551 36.8271 5.11131 37.5211 5.10352 39.2521C5.1577 40.19 5.43148 41.102 5.90282 41.9146C6.37415 42.7273 7.02983 43.4178 7.817 43.9305C9.3219 44.796 10.5383 44.0943 10.5461 42.3711C10.4937 41.4327 10.2207 40.52 9.74922 39.7071C9.27772 38.8942 8.62107 38.204 7.83261 37.6926Z" fill="#222221"/>
<path d="M7.83252 38.5817C6.75648 37.9579 5.87537 38.4569 5.87537 39.6889C5.91015 40.3638 6.1042 41.0208 6.44166 41.6063C6.77912 42.1918 7.25039 42.689 7.81691 43.0574C8.90075 43.6812 9.77407 43.1822 9.77407 41.9424C9.73932 41.2686 9.5452 40.6126 9.20768 40.0284C8.87017 39.4442 8.39889 38.9484 7.83252 38.5817Z" fill="#404040"/>
<path d="M7.87144 38.6517C6.84998 38.0357 6.00006 38.488 5.96887 39.6654C5.99273 40.3116 6.16905 40.943 6.48343 41.5081C6.79782 42.0732 7.24137 42.5559 7.77788 42.9169C8.79934 43.5329 9.64925 43.0807 9.67264 41.9032C9.65028 41.2576 9.47542 40.6264 9.16236 40.0613C8.84931 39.4961 8.40695 39.0131 7.87144 38.6517Z" fill="#939393"/>
<path d="M9.58691 42.1605C9.4148 42.2998 9.20009 42.3758 8.97869 42.3758C8.7573 42.3758 8.54263 42.2998 8.37052 42.1605C7.9445 41.8724 7.59247 41.4878 7.34316 41.038C7.09385 40.5881 6.95428 40.0858 6.93578 39.5718C6.93578 39.0182 7.18532 38.6673 7.544 38.5737C7.62197 38.5737 7.544 38.5737 7.544 38.5737H7.12291C6.5381 38.5737 6.12485 38.9948 6.10925 39.7901C6.13499 40.3968 6.30209 40.9891 6.59721 41.5197C6.89233 42.0504 7.30729 42.5048 7.80908 42.8467C8.51085 43.2678 9.12684 43.1586 9.41535 42.6362L9.57911 42.3477C9.57911 42.3477 9.6415 42.1138 9.58691 42.1605Z" fill="#B0B0B0"/>
<path d="M7.87144 38.6517C6.84998 38.0357 6.00006 38.488 5.96887 39.6654C5.99273 40.3116 6.16905 40.943 6.48343 41.5081C6.79782 42.0732 7.24137 42.5559 7.77788 42.9169C8.79934 43.5329 9.64925 43.0807 9.67264 41.9032C9.65028 41.2576 9.47542 40.6264 9.16236 40.0613C8.84931 39.4961 8.40695 39.0131 7.87144 38.6517ZM7.77788 42.7921C7.27609 42.4502 6.86107 41.9958 6.56596 41.4652C6.27084 40.9345 6.10379 40.3422 6.07805 39.7356C6.07805 38.6205 6.90456 38.1761 7.86364 38.7765C8.3685 39.1152 8.78582 39.5689 9.08132 40.1003C9.37681 40.6316 9.54203 41.2255 9.56347 41.8331C9.54007 42.9481 8.74476 43.377 7.77788 42.7921Z" fill="#D4D4D4"/>
<path d="M7.86365 38.7765C7.74097 38.7 7.61023 38.6372 7.47378 38.5894C7.29531 38.6775 7.14811 38.8181 7.05193 38.9923C6.95575 39.1666 6.9152 39.3661 6.93576 39.564C6.95426 40.078 7.09383 40.5803 7.34314 41.0302C7.59245 41.48 7.94448 41.8647 8.3705 42.1528C8.53311 42.2805 8.73115 42.3551 8.93765 42.3662C9.14415 42.3774 9.34906 42.3247 9.5245 42.2152C9.53722 42.0881 9.53722 41.9601 9.5245 41.8331C9.50745 41.2289 9.34815 40.6373 9.05958 40.1062C8.77101 39.5751 8.36129 39.1195 7.86365 38.7765Z" fill="#999999"/>
<path d="M8.98659 40.2658C8.8698 39.9958 8.67407 39.7675 8.42516 39.6108C8.3871 39.5816 8.34512 39.558 8.30042 39.5406C7.94954 39.4081 7.68443 39.5952 7.67664 40.0085V40.1176L8.32383 41.2561L8.40959 41.3106C8.80726 41.5368 9.14255 41.3574 9.18933 40.8974C9.17146 40.674 9.10206 40.4578 8.98659 40.2658Z" fill="#8D8D8D"/>
<path d="M8.30033 39.759C7.94945 39.5485 7.65317 39.7044 7.63757 40.1177C7.64683 40.3425 7.7088 40.5619 7.81852 40.7583C7.92823 40.9547 8.08261 41.1226 8.26916 41.2483C8.62784 41.4666 8.92412 41.3029 8.93192 40.8896C8.92266 40.6648 8.86069 40.4454 8.75098 40.249C8.64126 40.0526 8.48688 39.8847 8.30033 39.759Z" fill="#B0B0B0"/>
<path d="M16.0044 40.7258C15.5678 40.4451 15.0765 40.258 14.6399 39.9461C14.6049 39.9189 14.5735 39.8875 14.5463 39.8525C14.0968 39.8168 13.6457 39.8973 13.2363 40.0864H13.1661C12.7605 40.2777 12.413 40.5735 12.1595 40.9435C11.906 41.3135 11.7556 41.7443 11.7236 42.1917C11.7184 42.2436 11.7184 42.2958 11.7236 42.3477L11.9108 44.1801L16.7139 41.4042C16.5157 41.1411 16.2761 40.912 16.0044 40.7258Z" fill="#404040"/>
<path d="M15.8094 40.6789C15.6069 40.6099 15.3923 40.5832 15.179 40.6006C14.9657 40.6181 14.7582 40.6792 14.5696 40.7803L13.0725 41.6458L16.9244 48.2736L18.4215 47.4003C18.6029 47.2863 18.7552 47.1314 18.866 46.948C18.8544 45.7416 18.5741 44.5529 18.0454 43.4685C17.5166 42.384 16.7528 41.4311 15.8094 40.6789Z" fill="#222221"/>
<path d="M15.0063 41.833C13.5014 40.9675 12.285 41.6614 12.2772 43.3925C12.3277 44.3312 12.6 45.2446 13.0716 46.0578C13.5433 46.8711 14.201 47.5609 14.9908 48.0709C16.4879 48.9442 17.712 48.2425 17.712 46.5114C17.6612 45.5737 17.3896 44.6612 16.9194 43.8482C16.4493 43.0352 15.7938 42.3448 15.0063 41.833Z" fill="#222221"/>
<path d="M15.0063 42.7141C13.9225 42.0981 13.0492 42.5971 13.0492 43.8291C13.0834 44.5041 13.2771 45.1614 13.6146 45.747C13.9521 46.3326 14.4238 46.8297 14.9907 47.1976C16.0668 47.8214 16.9479 47.3224 16.9479 46.0826C16.9107 45.4083 16.7156 44.7522 16.3783 44.1671C16.0411 43.582 15.5711 43.0843 15.0063 42.7141Z" fill="#404040"/>
<path d="M15.0376 42.7921C14.0161 42.1761 13.1662 42.6284 13.1428 43.8058C13.1664 44.4512 13.3418 45.0819 13.6547 45.6468C13.9677 46.2118 14.4094 46.695 14.944 47.0573C15.9655 47.6733 16.8154 47.221 16.8466 46.0436C16.8227 45.3974 16.6464 44.766 16.332 44.2009C16.0176 43.6358 15.5741 43.1531 15.0376 42.7921Z" fill="#939393"/>
<path d="M16.7529 46.3009C16.5827 46.4409 16.3691 46.5175 16.1486 46.5175C15.9282 46.5175 15.7146 46.4409 15.5443 46.3009C15.1169 46.0142 14.7639 45.6299 14.5145 45.1797C14.265 44.7296 14.1262 44.2266 14.1096 43.7122C14.1096 43.1586 14.3591 42.8077 14.7178 42.7141C14.7958 42.7141 14.7178 42.7141 14.7178 42.7141H14.2889C13.7041 42.7141 13.2987 43.1352 13.2831 43.9305C13.3045 44.5381 13.4697 45.132 13.7652 45.6633C14.0607 46.1946 14.4781 46.6483 14.9829 46.9871C15.6769 47.4081 16.2929 47.299 16.5892 46.7766L16.7529 46.4881C16.7529 46.4881 16.8075 46.2463 16.7529 46.3009Z" fill="#B0B0B0"/>
<path d="M15.0376 42.7921C14.0161 42.1761 13.1662 42.6284 13.1428 43.8058C13.1664 44.4512 13.3418 45.0819 13.6547 45.6468C13.9677 46.2118 14.4094 46.695 14.944 47.0573C15.9655 47.6733 16.8154 47.221 16.8466 46.0436C16.8227 45.3974 16.6464 44.766 16.332 44.2009C16.0176 43.6358 15.5741 43.1531 15.0376 42.7921ZM14.9518 46.9325C14.447 46.5938 14.0296 46.1401 13.7341 45.6088C13.4387 45.0774 13.2734 44.4835 13.2519 43.8759C13.2519 42.7609 14.0317 42.3165 15.0376 42.9169C15.5394 43.2588 15.9543 43.7132 16.2495 44.2439C16.5446 44.7745 16.7117 45.3668 16.7374 45.9734C16.714 47.0885 15.9109 47.5173 14.9518 46.9325Z" fill="#D4D4D4"/>
<path d="M15.0375 42.9169C14.9129 42.8388 14.7794 42.7759 14.6398 42.7297C14.4628 42.819 14.3172 42.9601 14.2225 43.1343C14.1278 43.3084 14.0884 43.5073 14.1096 43.7044C14.1262 44.2188 14.265 44.7218 14.5145 45.172C14.7639 45.6221 15.1169 46.0064 15.5443 46.2932C15.7052 46.4213 15.902 46.4962 16.1075 46.5074C16.3129 46.5185 16.5167 46.4655 16.6906 46.3555C16.7191 46.2301 16.7347 46.1021 16.7373 45.9735C16.7116 45.3668 16.5445 44.7745 16.2494 44.2439C15.9543 43.7132 15.5393 43.2588 15.0375 42.9169Z" fill="#999999"/>
<path d="M16.1603 44.4062C16.0366 44.1385 15.8425 43.9095 15.5989 43.7434L15.4663 43.681C15.1232 43.5485 14.8503 43.7356 14.8425 44.1489V44.258L15.4819 45.3964L15.5755 45.4432C15.9732 45.6772 16.3007 45.4978 16.3163 45.0378C16.3128 44.8181 16.2594 44.6022 16.1603 44.4062Z" fill="#8D8D8D"/>
<path d="M15.5053 43.8994C15.1466 43.6889 14.8503 43.8448 14.8425 44.2581C14.8518 44.4828 14.9138 44.7023 15.0235 44.8987C15.1332 45.0951 15.2876 45.2629 15.4741 45.3887C15.825 45.5992 16.1213 45.4433 16.1369 45.03C16.1276 44.8052 16.0656 44.5858 15.9559 44.3894C15.8462 44.193 15.6918 44.0251 15.5053 43.8994Z" fill="#B0B0B0"/>
<path d="M23.178 44.8896C22.7413 44.6089 22.2501 44.4218 21.8134 44.1099C21.7785 44.0827 21.747 44.0513 21.7199 44.0163C21.2704 43.9806 20.8193 44.0611 20.4099 44.2502H20.3319C19.9272 44.4419 19.5809 44.738 19.3287 45.1081C19.0765 45.4781 18.9276 45.9088 18.8972 46.3555C18.8972 46.4569 18.8972 46.5115 18.8972 46.5115L19.0843 48.3439L23.8953 45.568C23.6928 45.3061 23.4508 45.0772 23.178 44.8896Z" fill="#404040"/>
<path d="M22.9752 44.8196C22.7725 44.7529 22.5587 44.7268 22.346 44.7429C22.1332 44.7589 21.9257 44.8168 21.7354 44.9132L20.2383 45.7865L24.0902 52.4143L25.5873 51.541C25.7704 51.4292 25.9231 51.2738 26.0318 51.0887C26.0202 49.8823 25.7399 48.6936 25.2111 47.6092C24.6824 46.5247 23.9185 45.5717 22.9752 44.8196Z" fill="#222221"/>
<path d="M22.172 45.9734C20.6749 45.1079 19.4507 45.8018 19.4507 47.5328C19.5016 48.4706 19.7731 49.3831 20.2433 50.1961C20.7134 51.009 21.369 51.6995 22.1564 52.2113C23.6613 53.0846 24.8777 52.3828 24.8855 50.6518C24.8338 49.7134 24.561 48.8004 24.0894 47.9874C23.6179 47.1744 22.9609 46.4843 22.172 45.9734Z" fill="#222221"/>
<path d="M22.1721 46.8547C21.096 46.2387 20.2228 46.7378 20.215 47.9698C20.2506 48.6453 20.4458 49.3028 20.7847 49.8883C21.1235 50.4739 21.5963 50.9707 22.1643 51.3382C23.2404 51.962 24.1136 51.463 24.1214 50.2232C24.0827 49.5484 23.8862 48.892 23.5476 48.307C23.209 47.722 22.7379 47.2245 22.1721 46.8547Z" fill="#404040"/>
<path d="M22.211 46.9325C21.1896 46.3165 20.3397 46.7687 20.3085 47.9462C20.3336 48.5921 20.5104 49.223 20.8247 49.7879C21.1389 50.3528 21.5818 50.8358 22.1174 51.1977C23.1389 51.8137 23.9888 51.3614 24.0122 50.1762C23.9905 49.5315 23.8159 48.9012 23.5027 48.3372C23.1896 47.7732 22.7468 47.2917 22.211 46.9325Z" fill="#939393"/>
<path d="M23.8953 50.4415C23.7238 50.5822 23.5088 50.659 23.2871 50.659C23.0653 50.659 22.8504 50.5822 22.6789 50.4415C22.2542 50.1521 21.9032 49.7671 21.654 49.3176C21.4049 48.868 21.2645 48.3664 21.2441 47.8528C21.2441 47.2992 21.4937 46.9483 21.8602 46.8547C21.9303 46.8547 21.8602 46.8547 21.8602 46.8547H21.4391C20.8543 46.8547 20.441 47.2836 20.4254 48.0789C20.4512 48.6856 20.6183 49.2779 20.9134 49.8085C21.2085 50.3392 21.6235 50.7936 22.1252 51.1355C22.827 51.5566 23.443 51.4474 23.7315 50.925L23.8953 50.6365C23.8953 50.6365 23.981 50.387 23.8953 50.4415Z" fill="#B0B0B0"/>
<path d="M22.211 46.9325C21.1896 46.3165 20.3397 46.7687 20.3085 47.9462C20.3336 48.5921 20.5104 49.223 20.8247 49.7879C21.1389 50.3528 21.5818 50.8358 22.1174 51.1977C23.1389 51.8137 23.9888 51.3614 24.0122 50.1762C23.9905 49.5315 23.8159 48.9012 23.5027 48.3372C23.1896 47.7732 22.7468 47.2917 22.211 46.9325ZM22.1174 51.0729C21.6156 50.731 21.2007 50.2766 20.9056 49.7459C20.6104 49.2153 20.4433 48.623 20.4176 48.0163C20.4176 46.9013 21.2442 46.4568 22.2032 47.0572C22.708 47.3955 23.1248 47.8492 23.4191 48.3808C23.7133 48.9124 23.8766 49.5065 23.8953 50.1138C23.8953 51.2211 23.1155 51.6577 22.1174 51.0729Z" fill="#D4D4D4"/>
<path d="M22.2032 47.0573C22.0823 46.9777 21.9511 46.9147 21.8134 46.8701C21.6356 46.9591 21.489 47.0999 21.3929 47.2739C21.2969 47.4479 21.2559 47.647 21.2753 47.8448C21.2957 48.3584 21.4361 48.86 21.6852 49.3096C21.9344 49.7591 22.2853 50.1441 22.71 50.4335C22.8727 50.5613 23.0707 50.6358 23.2772 50.647C23.4837 50.6582 23.6887 50.6054 23.8641 50.4959C23.8768 50.3689 23.8768 50.2409 23.8641 50.1138C23.8489 49.5093 23.6904 48.917 23.4017 48.3856C23.113 47.8542 22.7022 47.3989 22.2032 47.0573Z" fill="#999999"/>
<path d="M23.3339 48.5466C23.2112 48.2759 23.0136 48.046 22.7646 47.8838L22.6399 47.8214C22.2968 47.6888 22.0239 47.876 22.0161 48.2892V48.3984L22.6555 49.5368L22.7413 49.5836C23.1389 49.8175 23.4742 49.6382 23.521 49.1781C23.5082 48.956 23.4441 48.7398 23.3339 48.5466Z" fill="#8D8D8D"/>
<path d="M22.6711 48.0088C22.3202 47.7982 22.0239 47.9542 22.0161 48.3674C22.0257 48.5913 22.087 48.8098 22.1952 49.006C22.3034 49.2022 22.4557 49.3706 22.6399 49.4981C22.9986 49.7086 23.2949 49.5526 23.3027 49.1394C23.2934 48.9146 23.2314 48.6952 23.1217 48.4987C23.012 48.3023 22.8576 48.1345 22.6711 48.0088Z" fill="#B0B0B0"/>
<path d="M27.9032 49.6851C27.8833 48.7717 27.6763 47.872 27.295 47.0418C27.1687 46.7568 27.0282 46.4783 26.8739 46.2075C26.59 45.7135 26.2583 45.2487 25.8836 44.8195C25.3924 44.2581 10.6631 35.6108 10.0939 35.2755H10.0081L9.93016 35.2209C9.55484 34.9477 9.11329 34.7798 8.65128 34.7346C8.18927 34.6893 7.72357 34.7684 7.30239 34.9636L5.18152 36.1566C6.4525 36.1098 10.5773 38.3711 13.3454 39.8682C14.2078 40.3557 15.0433 40.8893 15.8484 41.4666L22.3514 45.3029C23.1949 45.8041 23.92 46.4816 24.4772 47.2891C25.0343 48.0966 25.4104 49.015 25.5795 49.9814C25.6653 50.4804 25.5795 51.3381 25.5795 51.8528L25.7589 52.305L27.8564 51.073L27.9032 49.6851Z" fill="#404040"/>
<path d="M25.8136 52.2739V50.9171C25.7786 49.6881 25.4238 48.4895 24.7843 47.4395C24.1693 46.3139 23.2717 45.368 22.18 44.6948L7.83275 36.4139C5.82102 35.2521 4.17575 36.1488 4.16016 38.4179V39.7746L4.72935 40.1021V38.7532C4.72935 36.8506 6.12509 36.102 7.84832 37.0767C8.77052 37.654 9.52795 38.4598 10.0472 39.4159C10.5812 40.2976 10.8793 41.3019 10.9127 42.3322V43.6811L11.3493 43.9384L11.9264 44.2659V42.9092C11.9264 41.0144 13.3299 40.2659 15.0454 41.2405C15.9676 41.8179 16.7249 42.6236 17.2442 43.5798C17.7758 44.462 18.0713 45.4664 18.1019 46.496V47.8449L18.6789 48.1802L19.1156 48.4297V47.073C19.1156 45.1782 20.5191 44.4297 22.2345 45.4043C23.1604 45.9772 23.9189 46.784 24.4334 47.7436C24.9675 48.6252 25.2655 49.6295 25.2989 50.6598V51.9074L25.8136 52.2739Z" fill="#404040"/>
<path d="M32.1214 52.9601L31.6458 52.6872V50.7534L32.1214 51.0341V52.9601Z" fill="#404040"/>
<path d="M32.2929 52.8586L32.1213 52.9599V51.034L32.2929 50.9248V52.8586Z" fill="#404040"/>
<path d="M32.1215 51.0339L31.6459 50.7532L31.8174 50.6519L32.2931 50.9248L32.1215 51.0339Z" fill="#404040"/>
<path d="M38.9366 56.8976L38.4609 56.6169V54.6909L38.9366 54.9716V56.8976Z" fill="#404040"/>
<path d="M39.1159 56.7963L38.9365 56.8977V54.9717L39.1159 54.8625V56.7963Z" fill="#404040"/>
<path d="M38.9365 54.9717L38.4608 54.691L38.6402 54.5896L39.1158 54.8625L38.9365 54.9717Z" fill="#404040"/>
<path d="M30.0786 51.0886L29.8213 51.229L40.3478 58.0595L40.5973 57.9192V57.1628L30.0786 51.0886Z" fill="#808080"/>
<path d="M40.3478 58.0595L29.8213 51.9854V51.229L40.3478 57.3032V58.0595Z" fill="#404040"/>
<path d="M30.0786 49.2483L29.8213 49.3964L40.3478 56.227L40.5973 56.0866V55.3303L30.0786 49.2483Z" fill="#808080"/>
<path d="M40.3478 56.227L29.8213 50.1528V49.3965L40.3478 55.4707V56.227Z" fill="#404040"/>
<path d="M61.6581 67.7908L0.994263 32.7648V31.2209L61.6581 66.2391V67.7908Z" fill="url(#paint1_linear_79_14562)"/>
<path d="M77.6585 58.5507L61.6582 67.7907V66.239L77.6585 57.0068V58.5507Z" fill="#B2B2B2"/>
<path d="M61.6737 67.1903L0.978638 32.1488V9.23218L76.7461 35.5718L61.6737 67.1903Z" fill="#D9D9D9"/>
<path d="M77.6662 57.9581L61.6737 67.1902V44.2736L77.6662 35.0415V57.9581Z" fill="#E3E3E2"/>
<path d="M61.6738 44.2737L0.97876 9.23213L16.9712 0L77.6663 35.0416L61.6738 44.2737Z" fill="white"/>
<path d="M64.8473 43.6498L62.4457 45.03V44.7571L64.8473 43.3691V43.6498ZM64.8473 44.1723L62.4457 45.5602V45.8331L64.8473 44.453V44.1723Z" fill="#BFBFBF"/>
<path d="M76.9723 36.6476L74.5785 38.0278V37.7549L76.9801 36.3669L76.9723 36.6476ZM76.9723 37.1779L74.5785 38.558V38.8387L76.9801 37.4508L76.9723 37.1779Z" fill="#BFBFBF"/>
<path d="M95.6704 55.8061C95.6289 55.7821 95.5818 55.7695 95.5339 55.7695C95.486 55.7695 95.439 55.7821 95.3975 55.8061L95.0154 56.0244C94.9026 56.0998 94.8087 56.2003 94.741 56.318C94.6734 56.4356 94.6339 56.5673 94.6255 56.7028V59.4631C94.6234 59.5122 94.6329 59.561 94.6532 59.6057C94.6735 59.6505 94.7041 59.6897 94.7425 59.7204L94.9452 59.8374L95.8809 55.8919L95.6704 55.8061Z" fill="#404040"/>
<path d="M95.6314 55.9232C95.842 55.7984 96.0213 55.9232 96.0213 56.1493V58.9252C96.0148 59.0611 95.976 59.1935 95.9082 59.3114C95.8404 59.4294 95.7456 59.5295 95.6314 59.6036L95.2494 59.8219C95.0388 59.9466 94.8595 59.8219 94.8595 59.5958V56.8199C94.866 56.684 94.9048 56.5516 94.9726 56.4337C95.0404 56.3157 95.1352 56.2156 95.2494 56.1415L95.6314 55.9232Z" fill="#222221"/>
<path d="M93.7133 57.8334C93.6912 57.8336 93.6695 57.8279 93.6503 57.8169C93.6311 57.806 93.6152 57.7901 93.6042 57.771C93.5863 57.7418 93.5804 57.7069 93.5876 57.6735C93.5949 57.64 93.6148 57.6107 93.6432 57.5916L94.5944 57.0302C94.6224 57.0127 94.6561 57.007 94.6882 57.0143C94.7204 57.0216 94.7483 57.0414 94.766 57.0692C94.7832 57.0993 94.7879 57.1349 94.7791 57.1684C94.7704 57.2019 94.7489 57.2307 94.7192 57.2486L93.7757 57.81C93.7581 57.8246 93.7361 57.8328 93.7133 57.8334Z" fill="#404040"/>
<path d="M72.3795 73.6074C72.2002 73.4904 71.0695 72.6951 70.9058 72.7886C70.8738 72.8092 70.838 72.8233 70.8005 72.8299C70.763 72.8366 70.7247 72.8359 70.6875 72.8276C70.2163 73.0365 69.758 73.2735 69.3151 73.5372C68.9821 74.0653 68.8014 74.6751 68.7927 75.2994L68.9799 77.1318L73.4867 74.5197C73.1594 74.1682 72.7871 73.8614 72.3795 73.6074Z" fill="#404040"/>
<path d="M75.787 76.4848C75.523 75.8806 75.168 75.3205 74.7343 74.8239C74.3921 74.4279 73.9895 74.0884 73.5413 73.8181C73.2636 73.6169 72.9373 73.4934 72.596 73.4605C72.2547 73.4276 71.9107 73.4865 71.5998 73.6309L70.1027 74.5199L74.0014 81.1632L75.5063 80.2899C75.7771 80.0919 75.9915 79.8266 76.1283 79.5203C76.265 79.2139 76.3194 78.8771 76.286 78.5433C76.2658 77.8297 76.0958 77.1284 75.787 76.4848Z" fill="#222221"/>
<path d="M72.0443 74.6914C70.5394 73.8259 69.3152 74.5198 69.3074 76.2509C69.3587 77.1903 69.6321 78.1042 70.1052 78.9175C70.5783 79.7307 71.2375 80.4202 72.0287 80.9293C73.5336 81.8026 74.7578 81.1009 74.7578 79.3698C74.7042 78.4318 74.4307 77.5196 73.9593 76.7068C73.4879 75.8941 72.8319 75.2037 72.0443 74.6914Z" fill="#222221"/>
<path d="M72.0443 75.5803C70.9605 74.9565 70.0793 75.4555 70.0793 76.6953C70.1138 77.3722 70.3085 78.0313 70.6474 78.6182C70.9862 79.2052 71.4597 79.7033 72.0287 80.0716C73.1047 80.6954 73.9859 80.1963 73.9937 78.9565C73.9561 78.2804 73.7601 77.6225 73.4215 77.036C73.0829 76.4495 72.6111 75.9508 72.0443 75.5803Z" fill="#404040"/>
<path d="M72.0365 75.822C71.1008 75.245 70.3055 75.6582 70.2743 76.7499C70.288 77.3478 70.4436 77.934 70.7283 78.46C71.013 78.986 71.4186 79.4368 71.9118 79.7753C72.8475 80.3523 73.635 79.939 73.674 78.8552C73.6603 78.2561 73.5047 77.6689 73.2201 77.1416C72.9354 76.6144 72.5298 76.1621 72.0365 75.822Z" fill="#B0B0B0"/>
<path d="M73.2062 77.4206C72.9525 76.8563 72.5477 76.3733 72.0366 76.0248C71.9514 75.9675 71.8599 75.9203 71.7637 75.8845C71.0385 75.5882 70.4693 75.9781 70.4381 76.8514V77.0775C70.4381 76.2977 70.9683 75.9235 71.6077 76.1886C71.6953 76.2206 71.779 76.2625 71.8572 76.3133C72.3148 76.6218 72.6747 77.0547 72.8943 77.5609C73.0721 77.9281 73.1654 78.3304 73.1672 78.7383C73.1672 79.6116 72.5044 79.9469 71.7481 79.5181L71.9118 79.6194C72.7617 80.1419 73.4713 79.7676 73.4713 78.7851C73.4921 78.3157 73.4012 77.8481 73.2062 77.4206Z" fill="#D4D4D4"/>
<path d="M73.4947 77.3113C73.2033 76.6478 72.7302 76.0801 72.1301 75.6738C72.0268 75.6132 71.9201 75.5585 71.8105 75.5101C70.9683 75.167 70.3056 75.6271 70.251 76.6485V76.7811C70.251 75.7752 70.9138 75.3464 71.7091 75.666C71.8135 75.7118 71.9151 75.7639 72.0132 75.822C72.5864 76.2078 73.038 76.7486 73.3154 77.3815C73.5397 77.8401 73.6544 78.3446 73.6506 78.8552C73.6116 79.939 72.8241 80.3523 71.8884 79.7753L71.9664 79.8299C72.9567 80.4381 73.791 80.0014 73.83 78.8552C73.8398 78.3215 73.725 77.7928 73.4947 77.3113Z" fill="#D4D4D4"/>
<path d="M94.5477 63.7437L80.3486 71.9933V83.0111C80.3486 83.05 80.3486 83.0734 80.3486 83.0812L94.5477 74.8316C94.5532 74.8207 94.5561 74.8087 94.5561 74.7965C94.5561 74.7843 94.5532 74.7723 94.5477 74.7614V63.7437Z" fill="#404040"/>
<path d="M94.7036 62.0829L91.0232 59.9542L90.454 58.9796L86.3604 56.6169L71.0619 57.5994L68.7772 59.5878L69.44 65.3188L75.6779 70.161L81.3544 72.5081L94.15 66.8861L95.0155 62.4884L94.7036 62.0829Z" fill="#222221"/>
<g opacity="0.3">
<path d="M89.3937 61.6618C88.8087 61.8743 88.2814 62.2204 87.8536 62.6725C87.4259 63.1246 87.1096 63.6703 86.9298 64.2662C86.7271 65.3032 87.5068 65.8257 88.6608 65.428C89.2456 65.2174 89.7729 64.8729 90.2008 64.422C90.6286 63.9711 90.945 63.4264 91.1247 62.8315C91.3587 61.7944 90.5789 61.2642 89.3937 61.6618ZM89.3937 61.9971C89.4595 61.9727 89.5274 61.9544 89.5965 61.9425L89.0818 63.6034L87.7797 63.2525C88.1851 62.6869 88.7458 62.2509 89.3937 61.9971ZM90.883 62.9952C90.7264 63.5067 90.4535 63.975 90.0855 64.3633C89.7175 64.7515 89.2645 65.0493 88.7622 65.2331C87.7641 65.5761 87.1013 65.1239 87.2729 64.2272C87.3422 63.9484 87.4611 63.6843 87.6237 63.4475L89.23 63.8763L89.8694 61.9192C90.0159 61.8818 90.1697 61.8842 90.3149 61.9262C90.4602 61.9681 90.5916 62.048 90.6957 62.1576C90.7998 62.2672 90.8727 62.4027 90.907 62.5499C90.9413 62.6971 90.9357 62.8509 90.8908 62.9952H90.883Z" fill="#404040"/>
<path d="M93.5108 61.8567C88.1862 63.7693 83.2994 66.731 79.1401 70.5664L79.6314 71.5021L82.3215 73.3267L94.8519 65.4513C94.8987 64.6716 95.2574 63.2836 94.7584 62.6598L93.5108 61.8567Z" fill="#404040"/>
<path d="M92.2632 62.3169C91.8655 63.8764 88.692 65.4358 86.0253 65.389C86.8042 64.5797 87.6911 63.8818 88.6608 63.3149C90.8987 62.1141 92.2632 62.3169 92.2632 62.3169Z" fill="#757575"/>
</g>
<path d="M94.0018 55.8293L93.222 56.0555L94.1967 62.1141L94.8517 62.4883L94.0018 55.8293Z" fill="#404040"/>
<path style="mix-blend-mode:screen" opacity="0.45" d="M93.916 55.8606L80.3173 63.7594C80.1845 63.836 80.0339 63.8764 79.8806 63.8764C79.7273 63.8764 79.5767 63.836 79.444 63.7594L72.1924 59.5722C72.1255 59.5346 72.0507 59.5132 71.974 59.5098C71.9272 59.5105 71.8811 59.5211 71.8386 59.5408C71.796 59.5606 71.7581 59.589 71.7272 59.6242C71.6964 59.6595 71.6733 59.7008 71.6594 59.7456C71.6455 59.7903 71.6411 59.8375 71.6466 59.884V64.2506C71.6531 64.3925 71.6933 64.5309 71.7638 64.6543C71.8343 64.7776 71.9331 64.8825 72.052 64.9602L76.1145 67.2994L76.6603 68.2429C76.6743 68.2648 76.6929 68.2834 76.7149 68.2975L80.3953 70.4184C80.5588 70.5135 80.7442 70.5646 80.9333 70.5665C81.1249 70.5645 81.3128 70.5135 81.4791 70.4184L94.9608 62.582L93.916 55.8606Z" fill="url(#paint2_linear_79_14562)"/>
<path d="M88.5435 66.3091L94.9529 62.5898L93.9081 55.8606L88.5435 58.9796V66.3091Z" fill="#4F4F4F"/>
<path d="M94.0798 55.5564L93.6821 56.0086L94.7114 62.691L94.9687 62.5663L95.1246 62.3323L94.0798 55.5564Z" fill="#737373"/>
<path d="M80.0367 63.4086L78.5786 62.8472L79.6703 70.0442C80.0134 70.9565 80.8243 71.5101 81.1674 70.6758L80.0367 63.4086Z" fill="#737373"/>
<path d="M73.557 59.4629L72.8474 59.3381V66.2076C72.8988 66.3841 72.9903 66.5463 73.1148 66.6815C73.2392 66.8168 73.3932 66.9215 73.5648 66.9874L73.557 59.4629Z" fill="#737373"/>
<path d="M80.2159 45.3186L66.0168 53.5683L78.8358 60.968L93.0349 52.7183L80.2159 45.3186Z" fill="white"/>
<path d="M95.1246 70.7459L94.9142 70.6212C94.9969 70.5555 95.0681 70.4765 95.1246 70.3872V62.3481L94.727 62.5664L81.4012 70.3093C81.2569 70.3935 81.0927 70.4379 80.9256 70.4379C80.7585 70.4379 80.5943 70.3935 80.45 70.3093L76.7696 68.1884L76.2082 67.2059L72.1145 64.8667C72.016 64.8005 71.9339 64.7127 71.8744 64.6101C71.815 64.5074 71.7798 64.3925 71.7714 64.2741V59.9075C71.7714 59.6892 71.9274 59.6034 72.1145 59.7126L79.3661 63.8998C79.5205 63.988 79.6951 64.0344 79.8729 64.0344C80.0507 64.0344 80.2254 63.988 80.3798 63.8998L93.9706 56.001L94.1188 55.8685V55.2681C94.1203 55.0295 94.0641 54.7941 93.955 54.5819L93.0271 52.7495L78.8359 60.9992L66.0013 53.576V68.1338L66.2353 68.2664L66.0013 68.4067V74.8318L68.9098 76.5082V75.245C68.9098 73.2957 70.8825 72.8356 72.5824 73.8181C73.4769 74.3994 74.221 75.1844 74.7536 76.1087C75.2863 77.0331 75.5923 78.0705 75.6467 79.1359V80.3991L80.1692 83.0113C80.393 83.1414 80.6472 83.2099 80.9061 83.2099C81.1649 83.2099 81.4192 83.1414 81.6429 83.0113L94.8128 75.3542C94.9195 75.2926 95.0081 75.2039 95.0697 75.0971C95.1313 74.9904 95.1638 74.8693 95.1637 74.746V70.7459H95.1246Z" fill="#D9D9D9"/>
<path d="M94.1265 55.2446V55.845L93.9784 55.9776L80.3875 63.8764C80.271 63.9448 80.1419 63.989 80.0079 64.0064C79.874 64.0238 79.7379 64.0141 79.6077 63.9777L78.828 60.9757L93.0193 52.7261L93.9472 54.5585C94.0616 54.7693 94.1232 55.0048 94.1265 55.2446ZM95.1246 70.7459L94.9141 70.6211C94.9968 70.5555 95.068 70.4764 95.1246 70.3872V62.3481L94.7269 62.5664L81.4011 70.3092C81.2826 70.3735 81.1517 70.4116 81.0172 70.4211C80.8827 70.4305 80.7477 70.411 80.6214 70.3638V83.1672C80.9695 83.2409 81.3326 83.1854 81.6429 83.0112L94.8127 75.3542C94.9194 75.2925 95.008 75.2039 95.0696 75.0971C95.1312 74.9903 95.1637 74.8692 95.1636 74.7459V70.7459H95.1246Z" fill="#D9D9D9"/>
<path d="M95.1246 70.7457L94.9141 70.621C94.8758 70.6562 94.834 70.6876 94.7893 70.7145L81.1751 78.5743C81.1204 78.6054 81.0586 78.6215 80.9957 78.6211C80.9159 78.6226 80.8383 78.5949 80.7774 78.5431L76.06 74.2546C75.4585 73.7128 74.8026 73.2346 74.1028 72.8276L66.2119 68.2817L65.9779 68.4065L73.9781 73.0226C74.6798 73.4296 75.3359 73.9106 75.9352 74.4573L80.6137 78.7303C80.7157 78.8111 80.8421 78.8551 80.9724 78.855C81.0765 78.8579 81.1794 78.8308 81.2687 78.7771L94.8829 70.9173C94.9706 70.8709 95.0519 70.8132 95.1246 70.7457Z" fill="#222221"/>
<path d="M84.7775 79.4165C84.7308 79.4167 84.6844 79.4071 84.6416 79.3884C84.5987 79.3696 84.5603 79.3421 84.5287 79.3075C84.4971 79.273 84.4731 79.2323 84.4582 79.1879C84.4433 79.1436 84.4379 79.0966 84.4423 79.05V78.1377C84.4523 77.9798 84.5 77.8266 84.5814 77.691C84.6628 77.5553 84.7755 77.4411 84.9101 77.358L91.4833 73.5684C91.5652 73.5164 91.6593 73.4869 91.7562 73.4827C91.8027 73.4823 91.8487 73.4919 91.8912 73.5108C91.9338 73.5296 91.9718 73.5573 92.0028 73.5919C92.0337 73.6266 92.0569 73.6675 92.0709 73.7118C92.0849 73.7562 92.0892 73.803 92.0837 73.8492V74.7614C92.0752 74.9188 92.0289 75.0718 91.9488 75.2075C91.8688 75.3432 91.7572 75.4576 91.6236 75.5412L85.0426 79.3307C84.964 79.3835 84.8722 79.4132 84.7775 79.4165Z" fill="url(#paint3_linear_79_14562)"/>
<path d="M91.5534 73.74L84.9802 77.5295C84.868 77.5958 84.7728 77.6875 84.7024 77.7971C84.632 77.9068 84.5883 78.0315 84.5747 78.1611V79.0734C84.5747 79.2917 84.7541 79.3697 84.9802 79.2371L91.5534 75.4476C91.6634 75.3795 91.7563 75.2872 91.8252 75.1778C91.8942 75.0683 91.9372 74.9446 91.9511 74.816V73.9037C91.9511 73.662 91.7717 73.584 91.5534 73.74Z" fill="#222221"/>
<path d="M83.4597 76.5237C83.4037 76.5252 83.348 76.5146 83.2964 76.4927C83.2448 76.4707 83.1986 76.4379 83.1608 76.3964C83.1231 76.355 83.0947 76.3059 83.0777 76.2525C83.0606 76.1991 83.0553 76.1426 83.062 76.087V72.8823C83.0779 72.688 83.14 72.5003 83.2431 72.3348C83.3462 72.1694 83.4873 72.0309 83.6547 71.931L92.2941 66.9484C92.392 66.8855 92.5053 66.8504 92.6217 66.8471C92.6777 66.8455 92.7334 66.8561 92.785 66.8781C92.8365 66.9 92.8828 66.9328 92.9205 66.9743C92.9583 67.0157 92.9866 67.0648 93.0037 67.1182C93.0207 67.1716 93.0261 67.2281 93.0193 67.2837V70.4885C93.0034 70.6827 92.9413 70.8704 92.8383 71.0359C92.7352 71.2014 92.5941 71.3398 92.4267 71.4397L83.7872 76.4301C83.6874 76.4877 83.5749 76.5198 83.4597 76.5237Z" fill="url(#paint4_linear_79_14562)"/>
<path d="M92.3643 67.0655L83.717 72.048C83.5715 72.1374 83.4486 72.2592 83.358 72.4039C83.2673 72.5487 83.2114 72.7124 83.1946 72.8823V76.0793C83.1946 76.3756 83.4285 76.4692 83.717 76.3054L92.3643 71.3151C92.5103 71.2262 92.6334 71.1045 92.7241 70.9596C92.8148 70.8148 92.8705 70.6509 92.8868 70.4808V67.276C92.8868 66.9953 92.6528 66.8939 92.3643 67.0655Z" fill="#222221"/>
<path d="M94.7582 71.8687L92.5515 73.1396C92.4796 73.1839 92.4189 73.2443 92.3742 73.316C92.3296 73.3877 92.3022 73.4688 92.2942 73.5529V74.3326C92.2942 74.473 92.4112 74.5198 92.5515 74.4418L94.7582 73.1708V71.8687Z" fill="#DEDEDE"/>
<path opacity="0.8" d="M94.7502 71.8687L94.4227 72.0558V72.9525L94.7502 73.1396V72.8121V71.8687Z" fill="#808080"/>
<g style="mix-blend-mode:screen">
<path d="M93.3937 73.319C93.2923 73.319 93.2611 73.2098 93.3157 73.0772C93.3395 73.0159 93.3784 72.9615 93.4288 72.9193C93.4793 72.877 93.5396 72.8482 93.6042 72.8355C93.7056 72.8355 93.7367 72.9447 93.6822 73.0772C93.6584 73.1386 93.6194 73.193 93.569 73.2352C93.5185 73.2775 93.4582 73.3063 93.3937 73.319ZM93.1052 73.4125C93.1597 73.28 93.1051 73.1708 93.0271 73.1708C92.9626 73.1835 92.9023 73.2123 92.8518 73.2546C92.8014 73.2968 92.7624 73.3512 92.7386 73.4125C92.6841 73.5451 92.7387 73.6465 92.8167 73.6465C92.8807 73.6352 92.9407 73.6078 92.9912 73.5669C93.0417 73.526 93.0809 73.4728 93.1052 73.4125ZM94.1812 72.5002C94.1166 72.5129 94.0563 72.5417 94.0058 72.584C93.9554 72.6262 93.9165 72.6806 93.8927 72.742C93.8381 72.8745 93.8927 72.9837 93.9707 72.9837C94.0352 72.971 94.0956 72.9422 94.146 72.8999C94.1965 72.8577 94.2354 72.8033 94.2592 72.742C94.3137 72.6094 94.2826 72.5002 94.1812 72.5002ZM92.4501 73.4983C92.3901 73.5032 92.3342 73.5312 92.2942 73.5763V73.9661C92.3465 73.9462 92.3941 73.9159 92.4343 73.8771C92.4746 73.8382 92.5065 73.7916 92.5281 73.74C92.5827 73.6075 92.5515 73.4983 92.4501 73.4983Z" fill="white"/>
</g>
<g style="mix-blend-mode:screen" opacity="0.45">
<path d="M94.7582 71.8687L92.5515 73.1396C92.4796 73.1839 92.4189 73.2443 92.3742 73.316C92.3296 73.3877 92.3022 73.4688 92.2942 73.5529V74.3326C92.2942 74.473 92.4112 74.5198 92.5515 74.4418L94.7582 73.1708V71.8687Z" fill="#C3C3C3"/>
</g>
<path d="M83.9821 78.091L81.7286 79.3931V80.6641L83.9821 79.3619C84.0539 79.3194 84.1146 79.2605 84.1593 79.19C84.204 79.1195 84.2315 79.0395 84.2394 78.9565V78.1767C84.2394 78.0598 84.1225 78.0052 83.9821 78.091Z" fill="#DEDEDE"/>
<path opacity="0.8" d="M83.9822 78.0908L83.8574 78.161V79.1981L84.0367 79.3072C84.094 79.2634 84.1415 79.2083 84.1764 79.1452C84.2113 79.0821 84.2328 79.0125 84.2395 78.9408V78.161C84.2395 78.0596 84.1225 78.0051 83.9822 78.0908Z" fill="#808080"/>
<g style="mix-blend-mode:screen">
<path d="M82.8827 79.3854C82.7813 79.3854 82.7501 79.2762 82.8047 79.1437C82.8284 79.0823 82.8674 79.028 82.9178 78.9857C82.9683 78.9434 83.0286 78.9146 83.0932 78.902C83.1867 78.902 83.2257 79.0111 83.1634 79.1437C83.1416 79.2049 83.1042 79.2593 83.055 79.3017C83.0058 79.3441 82.9464 79.3729 82.8827 79.3854ZM82.5864 79.479C82.6487 79.3464 82.5863 79.2372 82.5162 79.2372C82.4516 79.2499 82.3913 79.2787 82.3408 79.321C82.2904 79.3633 82.2514 79.4176 82.2277 79.479C82.1731 79.6115 82.2276 79.7207 82.3056 79.7207C82.3694 79.7082 82.4288 79.6794 82.478 79.637C82.5272 79.5946 82.5646 79.5401 82.5864 79.479ZM83.6702 78.5745C83.6061 78.5857 83.5461 78.6131 83.4956 78.654C83.4451 78.6949 83.4059 78.7481 83.3817 78.8084C83.3271 78.9409 83.3817 79.0501 83.4597 79.0501C83.5234 79.0376 83.5828 79.0088 83.632 78.9664C83.6812 78.924 83.7186 78.8696 83.7404 78.8084C83.8027 78.6758 83.7637 78.5745 83.6702 78.5745ZM81.9392 79.5725C81.8807 79.5775 81.8257 79.6022 81.7832 79.6427V80.0404C81.8849 79.997 81.966 79.916 82.0094 79.8142C82.0717 79.6817 82.0327 79.5725 81.9392 79.5725Z" fill="white"/>
</g>
<g style="mix-blend-mode:screen" opacity="0.45">
<path d="M83.9821 78.091L81.7286 79.3931V80.6641L83.9821 79.3619C84.0539 79.3194 84.1146 79.2605 84.1593 79.19C84.204 79.1195 84.2315 79.0395 84.2394 78.9565V78.1767C84.2394 78.0598 84.1225 78.0052 83.9821 78.091Z" fill="#C3C3C3"/>
</g>
<path d="M94.5008 74.5198L92.4579 75.6973C92.3643 75.7518 92.2864 75.6973 92.2864 75.6193V75.3386C92.2923 75.282 92.3107 75.2274 92.3404 75.1788C92.3701 75.1302 92.4102 75.0889 92.4579 75.0579L94.5008 73.8805C94.5944 73.8259 94.6802 73.8805 94.6802 73.9584V74.2391C94.6729 74.2963 94.653 74.3511 94.622 74.3996C94.591 74.4481 94.5496 74.4892 94.5008 74.5198Z" fill="#DEDEDE"/>
<g style="mix-blend-mode:screen" opacity="0.45">
<path d="M94.5008 74.5198L92.4579 75.6973C92.3643 75.7518 92.2864 75.6973 92.2864 75.6193V75.3386C92.2923 75.282 92.3107 75.2274 92.3404 75.1788C92.3701 75.1302 92.4102 75.0889 92.4579 75.0579L94.5008 73.8805C94.5944 73.8259 94.6802 73.8805 94.6802 73.9584V74.2391C94.6729 74.2963 94.653 74.3511 94.622 74.3996C94.591 74.4481 94.5496 74.4892 94.5008 74.5198Z" fill="#C3C3C3"/>
</g>
<path d="M84.0756 80.5706L82.0327 81.748C81.9392 81.8026 81.8612 81.748 81.8612 81.6701V81.3893C81.8659 81.3324 81.8839 81.2774 81.9137 81.2287C81.9435 81.1799 81.9842 81.1388 82.0327 81.1086L84.0756 79.9312C84.1692 79.8767 84.255 79.9312 84.255 80.0092V80.2899C84.2467 80.3467 84.2264 80.4011 84.1955 80.4495C84.1646 80.4979 84.1237 80.5392 84.0756 80.5706Z" fill="#DEDEDE"/>
<g style="mix-blend-mode:screen" opacity="0.45">
<path d="M84.0756 80.5706L82.0327 81.748C81.9392 81.8026 81.8612 81.748 81.8612 81.6701V81.3893C81.8659 81.3324 81.8839 81.2774 81.9137 81.2287C81.9435 81.1799 81.9842 81.1388 82.0327 81.1086L84.0756 79.9312C84.1692 79.8767 84.255 79.9312 84.255 80.0092V80.2899C84.2467 80.3467 84.2264 80.4011 84.1955 80.4495C84.1646 80.4979 84.1237 80.5392 84.0756 80.5706Z" fill="#C3C3C3"/>
</g>
<path d="M80.8164 79.4868C80.7696 79.4868 80.7306 79.4869 80.7306 79.557V80.5239C80.7151 80.5721 80.7151 80.6239 80.7306 80.6721C80.8947 80.7562 81.0764 80.8001 81.2608 80.8001C81.4452 80.8001 81.627 80.7562 81.7911 80.6721V79.3777C81.4834 79.5068 81.145 79.5447 80.8164 79.4868Z" fill="#A3A3A3"/>
<path d="M95.1324 72.7966V71.5178C95.0528 71.6724 94.9239 71.7959 94.766 71.8687V73.1553C94.9222 73.0763 95.0501 72.951 95.1324 72.7966Z" fill="#A3A3A3"/>
<path d="M76.1768 79.3776C76.1569 78.4616 75.9499 77.5595 75.5686 76.7264C75.4439 76.4535 75.3035 76.1728 75.1475 75.8999C74.8636 75.406 74.532 74.9411 74.1573 74.512C73.6967 73.9749 73.1515 73.5167 72.5432 73.1552C72.1679 72.882 71.7264 72.7141 71.2644 72.6689C70.8024 72.6237 70.3367 72.7027 69.9155 72.8979L69.4476 73.1864C70.3501 73.0198 71.2823 73.1979 72.0598 73.6854C72.6053 74.0235 73.0881 74.4535 73.4867 74.9564C73.9084 75.3637 74.2873 75.8131 74.6173 76.2976C74.7401 76.5516 74.8494 76.8118 74.9448 77.0773C75.341 77.8686 75.5642 78.7351 75.5998 79.6193L75.7168 81.0384L76.1768 80.7499V79.3776Z" fill="#404040"/>
<path d="M72.0754 73.4438C73.1635 74.1214 74.0601 75.0663 74.6797 76.1885C75.3183 77.239 75.6729 78.4373 75.709 79.6661V81.0229L75.132 80.6876V79.3386C75.0986 78.3084 74.8005 77.3041 74.2664 76.4224C73.746 75.4671 72.9889 74.6616 72.0676 74.0832C70.3678 73.1007 68.9486 73.8493 68.9486 75.7518V77.1008L68.3794 76.7733V75.4165C68.4184 73.1787 70.0636 72.2898 72.0754 73.4438Z" fill="#404040"/>
<g style="mix-blend-mode:screen" opacity="0.3">
<path d="M70.6797 63.6969L67.3892 61.7943C67.2994 61.7414 67.2236 61.6678 67.168 61.5796C67.1124 61.4915 67.0786 61.3913 67.0695 61.2875V57.3888C67.0644 57.3578 67.0644 57.3262 67.0695 57.2952C67.0462 57.2938 67.023 57.2976 67.0014 57.3063C66.9798 57.315 66.9604 57.3285 66.9447 57.3457C66.929 57.3629 66.9174 57.3834 66.9106 57.4057C66.9039 57.428 66.9022 57.4515 66.9057 57.4746V61.3733C66.9149 61.4781 66.9486 61.5793 67.0042 61.6687C67.0597 61.7581 67.1355 61.8332 67.2255 61.8879L70.5159 63.7827C70.6563 63.8684 70.7733 63.845 70.82 63.7437C70.7701 63.7399 70.7219 63.7238 70.6797 63.6969Z" fill="#404040"/>
</g>
<g style="mix-blend-mode:multiply" opacity="0.45">
<path d="M70.5159 59.2057L67.2254 57.3031C67.1783 57.2743 67.1246 57.2582 67.0695 57.2563C67.0657 57.29 67.0657 57.324 67.0695 57.3577L70.3833 59.2915C70.4733 59.3461 70.5491 59.4212 70.6047 59.5106C70.6602 59.6 70.6939 59.7013 70.7031 59.8061V63.7048C70.7416 63.7128 70.7814 63.7128 70.82 63.7048C70.8276 63.6741 70.8276 63.642 70.82 63.6112V59.7125C70.8114 59.6104 70.7795 59.5117 70.7268 59.4238C70.6741 59.3359 70.6019 59.2613 70.5159 59.2057Z" fill="#404040"/>
</g>
<g style="mix-blend-mode:screen" opacity="0.3">
<path d="M70.6797 69.4515L67.3893 67.5489C67.2995 67.4959 67.2237 67.4223 67.168 67.3342C67.1124 67.246 67.0787 67.1459 67.0695 67.0421V63.1434C67.0652 63.1097 67.0652 63.0756 67.0695 63.042C67.0467 63.0419 67.024 63.0466 67.003 63.0558C66.9821 63.065 66.9633 63.0784 66.9479 63.0953C66.9325 63.1122 66.9207 63.1322 66.9135 63.1539C66.9062 63.1756 66.9036 63.1986 66.9058 63.2213V67.12C66.9149 67.2239 66.9487 67.324 67.0043 67.4122C67.0599 67.5003 67.1357 67.5739 67.2255 67.6269L70.516 69.5294C70.6563 69.6074 70.7733 69.584 70.8201 69.4905C70.7709 69.4884 70.7229 69.4751 70.6797 69.4515Z" fill="#404040"/>
</g>
<g style="mix-blend-mode:multiply" opacity="0.45">
<path d="M70.516 64.9601L67.2255 63.0653C67.1784 63.0365 67.1247 63.0204 67.0696 63.0186C67.0645 63.0522 67.0645 63.0863 67.0696 63.1199L70.3835 65.0537C70.4732 65.1066 70.5491 65.1802 70.6047 65.2684C70.6603 65.3565 70.6941 65.4567 70.7032 65.5605V69.4592C70.742 69.4645 70.7813 69.4645 70.8201 69.4592C70.8302 69.4288 70.8302 69.396 70.8201 69.3656V65.4669C70.8109 65.365 70.7788 65.2664 70.7262 65.1787C70.6735 65.0909 70.6016 65.0162 70.516 64.9601Z" fill="#404040"/>
</g>
<path d="M73.253 60.3441V72.3365L73.1516 72.282V60.2817L73.253 60.3441ZM79.2492 63.8062L79.14 63.736L80.1225 70.3014V77.9507L80.2239 78.0364V70.2936L79.2492 63.8062Z" fill="#404040"/>
<path d="M88.0756 71.1513C87.9299 71.2385 87.8067 71.3587 87.7159 71.5023C87.6252 71.6458 87.5695 71.8087 87.5532 71.9778C87.5532 72.2663 87.7871 72.3677 88.0756 72.1961C88.2208 72.1143 88.3449 71.9998 88.4383 71.8618C88.5316 71.7238 88.5917 71.566 88.6137 71.4008C88.6137 71.0811 88.3719 70.9797 88.0756 71.1513ZM88.0756 72.0947C87.8495 72.2273 87.6624 72.1493 87.6624 71.9154C87.6751 71.7804 87.7191 71.6503 87.7908 71.5352C87.8625 71.4202 87.96 71.3234 88.0756 71.2526C88.3096 71.1201 88.4967 71.198 88.4967 71.432C88.4831 71.5676 88.438 71.6983 88.3648 71.8133C88.2917 71.9284 88.1927 72.0248 88.0756 72.0947Z" fill="url(#paint5_linear_79_14562)"/>
<path d="M66.2041 75.4243L62.9681 73.5607V69.7166L66.2041 71.5801V75.4243Z" fill="#9C9C9C"/>
<path d="M66.6016 75.1981L66.204 75.4243V71.5801L66.6016 71.354V75.1981Z" fill="#D4D4D4"/>
<path d="M65.9779 70.9953V69.7088L64.473 68.8433L62.9681 69.7166L66.2041 71.5802L66.5939 71.354L65.9779 70.9953Z" fill="white"/>
<path d="M65.7049 74.7459L64.0675 73.8024C64.0161 73.7702 63.9726 73.7268 63.9402 73.6755C63.9079 73.6242 63.8874 73.5663 63.8804 73.5061V73.0694C63.8804 72.9681 63.9661 72.9291 64.0675 72.9915L65.7049 73.935C65.7579 73.9653 65.8027 74.0082 65.8353 74.0598C65.868 74.1115 65.8874 74.1704 65.8921 74.2313V74.6679C65.8921 74.7693 65.8141 74.8083 65.7049 74.7459Z" fill="#222221"/>
<path d="M77.7832 79.3699L77.3855 79.136C77.3335 79.1063 77.2894 79.0647 77.2569 79.0145C77.2243 78.9643 77.2042 78.907 77.1984 78.8475C77.1984 78.7461 77.2841 78.7149 77.3855 78.7695L77.7832 79.0034C77.8341 79.0335 77.8771 79.0754 77.9083 79.1256C77.9395 79.1759 77.9582 79.2329 77.9625 79.2919C77.9625 79.3933 77.8845 79.4245 77.7832 79.3699Z" fill="#7C7C7C"/>
<path d="M80.9958 57.654C80.9942 57.6294 80.9862 57.6056 80.9725 57.5851C80.9588 57.5645 80.9399 57.548 80.9178 57.537L72.6759 52.7806C72.6113 52.7501 72.5407 52.7342 72.4693 52.7342C72.3978 52.7342 72.3273 52.7501 72.2627 52.7806L72.1925 52.8508C72.1943 52.8242 72.2031 52.7986 72.2182 52.7766C72.2333 52.7547 72.2541 52.7372 72.2783 52.726C72.3429 52.6955 72.4134 52.6797 72.4849 52.6797C72.5564 52.6797 72.6269 52.6955 72.6915 52.726L80.9334 57.4825C80.9492 57.4892 80.9634 57.499 80.9751 57.5114C80.9869 57.5239 80.996 57.5386 81.0019 57.5547C81.0077 57.5708 81.0102 57.5879 81.0092 57.605C81.0081 57.6221 81.0035 57.6388 80.9958 57.654ZM79.218 58.4337L70.9839 53.6773C70.9206 53.6425 70.8495 53.6243 70.7773 53.6243C70.705 53.6243 70.6339 53.6425 70.5706 53.6773C70.5459 53.6878 70.5247 53.705 70.5095 53.7271C70.4943 53.7493 70.4857 53.7753 70.4849 53.8021C70.4911 53.7862 70.5006 53.7718 70.5127 53.7597C70.5247 53.7477 70.5392 53.7382 70.5551 53.7319C70.6184 53.6971 70.6894 53.6788 70.7617 53.6788C70.8339 53.6788 70.905 53.6971 70.9683 53.7319L79.2024 58.4883C79.2569 58.4883 79.2881 58.5585 79.2881 58.5975C79.2881 58.6365 79.3037 58.5195 79.2569 58.4727L79.218 58.4337ZM82.641 56.461L74.3992 51.7046C74.3359 51.6698 74.2648 51.6515 74.1925 51.6515C74.1203 51.6515 74.0492 51.6698 73.9859 51.7046C73.9617 51.7157 73.941 51.7332 73.9259 51.7552C73.9108 51.7771 73.9019 51.8028 73.9001 51.8293C73.9153 51.7989 73.9399 51.7743 73.9703 51.7592C74.0336 51.7244 74.1047 51.7061 74.1769 51.7061C74.2492 51.7061 74.3203 51.7244 74.3836 51.7592L82.6254 56.5156C82.647 56.5252 82.6656 56.5404 82.6793 56.5596C82.693 56.5788 82.7013 56.6013 82.7034 56.6248C82.7346 56.5858 82.719 56.5858 82.641 56.5V56.461ZM80.8164 47.8527C80.8797 47.8179 80.9508 47.7996 81.0231 47.7996C81.0953 47.7996 81.1664 47.8179 81.2297 47.8527L89.4638 52.6091C89.5184 52.6091 89.5495 52.6793 89.5495 52.7182C89.5495 52.7572 89.5495 52.5935 89.4793 52.5545L81.2453 47.7903C81.1807 47.7597 81.1101 47.7439 81.0386 47.7439C80.9672 47.7439 80.8966 47.7597 80.832 47.7903C80.8083 47.8021 80.788 47.8197 80.773 47.8416C80.758 47.8634 80.7488 47.8887 80.7462 47.915C80.7618 47.8868 80.7866 47.8648 80.8164 47.8527ZM87.7717 53.537L79.5221 48.7884C79.459 48.7574 79.3896 48.7413 79.3193 48.7413C79.2491 48.7413 79.1797 48.7574 79.1166 48.7884C79.0919 48.7988 79.0706 48.8161 79.0554 48.8382C79.0402 48.8603 79.0317 48.8863 79.0308 48.9131C79.0478 48.8841 79.0719 48.8599 79.101 48.8429C79.1656 48.8124 79.2362 48.7966 79.3076 48.7966C79.3791 48.7966 79.4497 48.8124 79.5143 48.8429L87.7483 53.5994C87.7719 53.6092 87.7924 53.6253 87.8075 53.6459C87.8226 53.6665 87.8318 53.6909 87.8341 53.7163C87.8341 53.6461 87.8341 53.5838 87.7639 53.537H87.7717ZM84.3564 55.5097L76.138 50.7533C76.0734 50.7228 76.0028 50.7069 75.9313 50.7069C75.8599 50.7069 75.7893 50.7228 75.7247 50.7533C75.7002 50.7632 75.6794 50.7805 75.6654 50.803C75.6514 50.8254 75.6448 50.8517 75.6467 50.8781C75.6606 50.8493 75.6822 50.825 75.7091 50.8079C75.7737 50.7773 75.8443 50.7615 75.9158 50.7615C75.9872 50.7615 76.0578 50.7773 76.1224 50.8079L84.3642 55.5643C84.3862 55.5764 84.4053 55.5931 84.4201 55.6133C84.4349 55.6335 84.4451 55.6567 84.45 55.6813C84.45 55.6189 84.4267 55.5565 84.3487 55.5097H84.3564ZM86.0641 54.5272L77.8222 49.7708C77.7589 49.736 77.6879 49.7178 77.6156 49.7178C77.5434 49.7178 77.4723 49.736 77.409 49.7708C77.3844 49.7807 77.3636 49.7981 77.3496 49.8205C77.3356 49.8429 77.3291 49.8692 77.331 49.8956C77.3373 49.8797 77.3467 49.8653 77.3588 49.8532C77.3709 49.8411 77.3853 49.8317 77.4012 49.8254C77.463 49.7906 77.5329 49.7723 77.6039 49.7723C77.6749 49.7723 77.7448 49.7906 77.8066 49.8254L86.0485 54.5818C86.1031 54.5818 86.1343 54.652 86.1343 54.691C86.1343 54.73 86.1342 54.574 86.0563 54.5272H86.0641Z" fill="#404040"/>
<path d="M78.2667 66.7224C78.2447 66.7219 78.2233 66.7159 78.2042 66.705C78.1852 66.6941 78.1692 66.6787 78.1575 66.6601C78.1422 66.6296 78.1385 66.5946 78.1471 66.5616C78.1557 66.5286 78.1761 66.4998 78.2043 66.4807L79.1478 65.9193C79.1779 65.9021 79.2135 65.8974 79.247 65.9061C79.2805 65.9149 79.3093 65.9364 79.3272 65.9661C79.3355 65.9804 79.3409 65.9962 79.343 66.0126C79.3452 66.029 79.344 66.0457 79.3397 66.0617C79.3353 66.0776 79.3278 66.0926 79.3176 66.1056C79.3075 66.1186 79.2948 66.1295 79.2804 66.1376L78.3369 66.7068L78.2667 66.7224Z" fill="#404040"/>
<path d="M78.594 65.6385C78.5531 65.6129 78.5058 65.5994 78.4575 65.5994C78.4093 65.5994 78.362 65.6129 78.3211 65.6385L77.939 65.8568C77.8262 65.9323 77.7323 66.0327 77.6647 66.1504C77.597 66.2681 77.5575 66.3998 77.5492 66.5352V69.3033C77.5439 69.3516 77.552 69.4005 77.5727 69.4445C77.5933 69.4885 77.6256 69.5259 77.6661 69.5528L77.8688 69.6698L78.8045 65.7321L78.594 65.6385Z" fill="#404040"/>
<path d="M78.5239 65.7789C78.7344 65.6541 78.9138 65.7789 78.9138 66.005V68.7731C78.9073 68.9079 78.8685 69.0393 78.8006 69.156C78.7328 69.2727 78.6379 69.3713 78.5239 69.4437L78.1418 69.6698C77.9313 69.7868 77.752 69.6698 77.752 69.4437V66.6756C77.7585 66.5397 77.7972 66.4073 77.865 66.2894C77.9328 66.1714 78.0277 66.0713 78.1418 65.9972L78.5239 65.7789Z" fill="#222221"/>
<path d="M74.1262 67.5021L75.0775 68.0479C75.1711 68.1025 75.2413 68.0479 75.2413 67.9777V67.8608C75.2368 67.8068 75.2197 67.7546 75.1912 67.7085C75.1628 67.6625 75.1238 67.6238 75.0775 67.5956L74.1262 67.0498C74.0327 66.9952 73.9547 67.0498 73.9547 67.12V67.237C73.9606 67.2915 73.9792 67.3439 74.009 67.3899C74.0388 67.4359 74.0789 67.4744 74.1262 67.5021Z" fill="#9E9E9E"/>
<g style="mix-blend-mode:multiply">
<path d="M39.108 58.7221C39.1071 58.7039 39.1071 58.6857 39.108 58.6675C39.1071 58.6857 39.1071 58.7039 39.108 58.7221ZM40.2387 58.8546C40.2981 58.8232 40.349 58.7777 40.3868 58.7221C40.3579 58.7742 40.3179 58.8194 40.2699 58.8546H40.2387ZM94.6256 57.2952V59.0652L94.3761 57.4511L94.6256 57.2952Z" fill="#FFFF00"/>
</g>
<g style="mix-blend-mode:multiply">
<path d="M95.8731 55.8918L95.6704 55.7749C95.6289 55.7509 95.5819 55.7383 95.534 55.7383C95.4861 55.7383 95.439 55.7509 95.3975 55.7749L95.0154 55.9932C94.9026 56.0686 94.8087 56.1691 94.7411 56.2867C94.6735 56.4044 94.6339 56.5361 94.6256 56.6716V56.9913L94.3605 57.1472L94.1577 55.7983V55.2057C94.1592 54.9671 94.103 54.7317 93.994 54.5195L93.0661 52.6871L80.2472 45.2796L77.7052 46.7611V35.0494L17.0101 0L1.00989 9.23214V32.1487V32.7491L2.30424 33.5289L49.8684 61.0069L49.2525 61.3656L49.3694 61.6385C49.7579 62.4663 49.9653 63.3675 49.9776 64.2818V65.6386L62.9447 73.1241V73.5763L66.1728 75.4477L66.5705 75.2138L66.7576 75.323L68.3717 76.2587V75.4789C68.3301 75.0424 68.4057 74.6028 68.5907 74.2053C68.7758 73.8078 69.0636 73.4668 69.4243 73.2177L69.8922 72.9292C70.3134 72.734 70.7791 72.6549 71.2411 72.7001C71.7031 72.7454 72.1446 72.9133 72.5199 73.1865C73.1281 73.5479 73.6733 74.0062 74.134 74.5432C74.5087 74.9724 74.8403 75.4372 75.1243 75.9312C75.2802 76.2041 75.4205 76.4848 75.5453 76.7577C75.9266 77.5907 76.1336 78.4929 76.1535 79.4088V80.7578L80.1068 83.0346C80.3711 83.1867 80.6773 83.2495 80.9801 83.2139H81.1438H81.2764C81.3826 83.1853 81.4848 83.1434 81.5805 83.0892L94.7503 75.4321C94.8571 75.3705 94.9457 75.2819 95.0073 75.1751C95.0689 75.0683 95.1013 74.9472 95.1012 74.8239V72.8746V71.5958V70.8161L94.8907 70.6913C94.9734 70.6257 95.0446 70.5466 95.1012 70.4574V62.3481L94.6957 59.7126L94.8985 59.8295C94.94 59.8535 94.987 59.8661 95.0349 59.8661C95.0828 59.8661 95.1299 59.8535 95.1714 59.8295L95.5535 59.6112C95.6676 59.5371 95.7625 59.437 95.8303 59.3191C95.8981 59.2011 95.9368 59.0687 95.9433 58.9328V56.1725C95.9582 56.1238 95.9596 56.0719 95.9472 56.0224C95.9348 55.973 95.9092 55.9278 95.8731 55.8918Z" fill="#FFFF00"/>
</g>
<g style="mix-blend-mode:multiply">
<path d="M68.9799 77.1319L69.3619 76.9136L68.9799 77.1319Z" fill="#FFFF00"/>
</g>
<g style="mix-blend-mode:multiply">
<path d="M95.8733 55.8918L95.6705 55.7749C95.629 55.7509 95.582 55.7383 95.5341 55.7383C95.4862 55.7383 95.4391 55.7509 95.3976 55.7749L95.0156 55.9932C94.9027 56.0686 94.8088 56.1691 94.7412 56.2867C94.6736 56.4044 94.6341 56.5361 94.6257 56.6716V56.9913L94.3606 57.1472L94.1578 55.7983V55.2057C94.1593 54.9671 94.1031 54.7317 93.9941 54.5195L93.0662 52.6871L80.2473 45.2796L77.7053 46.7611V35.0494L17.0103 0L1.01001 9.23214V32.1487V32.7491L2.30436 33.5289L49.8686 61.0069L49.2526 61.3656L49.3695 61.6385C49.758 62.4663 49.9654 63.3675 49.9777 64.2818V65.6386L62.9448 73.1241V73.5763L66.1729 75.4477L66.5706 75.2138L66.7577 75.323L68.3718 76.2587V75.4789C68.3302 75.0424 68.4058 74.6028 68.5909 74.2053C68.7759 73.8078 69.0637 73.4668 69.4245 73.2177L69.8923 72.9292C70.3135 72.734 70.7792 72.6549 71.2412 72.7001C71.7032 72.7454 72.1447 72.9133 72.52 73.1865C73.1283 73.5479 73.6735 74.0062 74.1341 74.5432C74.5088 74.9724 74.8405 75.4372 75.1244 75.9312C75.2803 76.2041 75.4207 76.4848 75.5454 76.7577C75.9267 77.5907 76.1337 78.4929 76.1536 79.4088V80.7578L80.1069 83.0346C80.3712 83.1867 80.6774 83.2495 80.9802 83.2139H81.144H81.2765C81.3827 83.1853 81.4849 83.1434 81.5806 83.0892L94.7504 75.4321C94.8572 75.3705 94.9458 75.2819 95.0074 75.1751C95.069 75.0683 95.1014 74.9472 95.1013 74.8239V72.8746V71.5958V70.8161L94.8908 70.6913C94.9736 70.6257 95.0447 70.5466 95.1013 70.4574V62.3481L94.6959 59.7126L94.8986 59.8295C94.9401 59.8535 94.9871 59.8661 95.035 59.8661C95.0829 59.8661 95.13 59.8535 95.1715 59.8295L95.5536 59.6112C95.6677 59.5371 95.7626 59.437 95.8304 59.3191C95.8982 59.2011 95.9369 59.0687 95.9435 58.9328V56.1725C95.9584 56.1238 95.9597 56.0719 95.9473 56.0224C95.935 55.973 95.9094 55.9278 95.8733 55.8918Z" fill="#FFFF00"/>
</g>
<defs>
<linearGradient id="paint0_linear_79_14562" x1="56.5354" y1="57.4746" x2="54.1182" y2="57.4746" gradientUnits="userSpaceOnUse">
<stop offset="0.56" stop-color="#B1B1B1"/>
<stop offset="0.57" stop-color="#CDCDCD"/>
</linearGradient>
<linearGradient id="paint1_linear_79_14562" x1="0.994263" y1="49.5059" x2="61.6581" y2="49.5059" gradientUnits="userSpaceOnUse">
<stop stop-color="#B5B5B5"/>
<stop offset="1" stop-color="#999999"/>
</linearGradient>
<linearGradient id="paint2_linear_79_14562" x1="79.7481" y1="64.4065" x2="80.2783" y2="64.3208" gradientUnits="userSpaceOnUse">
<stop offset="0.52" stop-color="#121212"/>
<stop offset="0.53" stop-color="#0F0F0F"/>
<stop offset="0.6"/>
</linearGradient>
<linearGradient id="paint3_linear_79_14562" x1="86.0485" y1="75.1825" x2="90.4852" y2="77.7479" gradientUnits="userSpaceOnUse">
<stop offset="0.59" stop-color="#AEAEAE"/>
</linearGradient>
<linearGradient id="paint4_linear_79_14562" x1="84.7229" y1="69.7711" x2="91.3585" y2="73.5996" gradientUnits="userSpaceOnUse">
<stop offset="0.59" stop-color="#AEAEAE"/>
</linearGradient>
<linearGradient id="paint5_linear_79_14562" x1="87.6234" y1="70.2831" x2="88.391" y2="70.613" gradientUnits="userSpaceOnUse">
<stop offset="0.59" stop-color="#AEAEAE"/>
</linearGradient>
</defs>
</svg>
