<svg width="105" height="93" viewBox="0 0 105 93" fill="none" xmlns="http://www.w3.org/2000/svg">
	<g style="mix-blend-mode:multiply" clip-path="url(#clip0_79_14739)" filter="url(#filter0_f_79_14739)">
		<g style="mix-blend-mode:multiply">
			<path d="M99.8908 60.7586L99.6959 60.6419C99.6538 60.6157 99.6052 60.6018 99.5556 60.6018C99.5059 60.6018 99.4573 60.6157 99.4152 60.6419L99.0331 60.8597C98.9203 60.9349 98.8264 61.0351 98.7588 61.1525C98.6911 61.2699 98.6516 61.4013 98.6433 61.5365V61.8554L98.3782 62.011L98.1755 60.7041V60.1052C98.176 59.8673 98.1199 59.6326 98.0117 59.4206L97.0838 57.5926L84.2654 50.2105L81.6924 51.6729V39.958L20.9841 5L4.99998 14.2101V37.0721V37.671L6.29428 38.4489L4.97656 39.2268V42.4706L5.23388 42.6184L9.36634 40.238L10.0291 40.6192L9.20263 41.1015C8.84246 41.3506 8.55516 41.6909 8.37019 42.0873C8.18522 42.4837 8.10922 42.922 8.14999 43.3574V44.672L8.71921 45.0065L9.14024 44.7653C9.27732 45.59 9.58442 46.3774 10.0421 47.0776C10.4997 47.7779 11.0979 48.3758 11.799 48.8336C12.0752 49.0345 12.4002 49.1577 12.7403 49.1905C13.0804 49.2234 13.4232 49.1646 13.7328 49.0203L14.8789 48.3591V48.5614L15.3155 48.8181L15.8925 49.1448L16.3058 48.9037C16.4428 49.7304 16.7506 50.5196 17.2096 51.2213C17.6687 51.923 18.269 52.5219 18.9724 52.9798C19.2485 53.1806 19.5736 53.3038 19.9137 53.3366C20.2538 53.3695 20.5965 53.3107 20.9061 53.1664L22.0445 52.5052V52.6919L22.6214 53.0264L23.0581 53.2753L23.4791 53.0342C23.6206 53.8643 23.9335 54.6559 24.3979 55.359C24.8623 56.062 25.4681 56.661 26.1769 57.1181C26.453 57.3189 26.7781 57.4421 27.1182 57.475C27.4583 57.5078 27.801 57.449 28.1106 57.3048L29.2568 56.6436V56.8303L29.8338 57.1648L31.9 55.9124V54.5589C31.8936 54.051 31.8202 53.5463 31.6817 53.0575L33.8259 54.2866V55.0645L35.6426 56.1068V56.8847L34.0832 55.9824L33.8337 56.1302V56.9081L43.276 62.3532V63.2011C43.2208 63.2263 43.1731 63.2654 43.1376 63.3145C43.102 63.3635 43.0799 63.421 43.0733 63.4812V64.0879L42.1532 64.6169V64.7958L43.7127 65.7137L45.3189 64.788V64.6169L44.43 64.1035V63.4889C44.4367 63.5197 44.4367 63.5515 44.43 63.5823C44.4559 63.511 44.4534 63.4324 44.4229 63.3629C44.3925 63.2934 44.3363 63.2383 44.2662 63.2089V62.9133L44.3676 62.9755L44.6249 62.8277V62.7033L45.6385 63.2945L46.4884 62.8044V63.9557C46.3285 64.3675 46.2465 64.8053 46.2467 65.247V66.5927L46.8237 66.9272L47.2369 66.686C47.374 67.5107 47.6811 68.2981 48.1387 68.9983C48.5964 69.6986 49.1947 70.2965 49.8958 70.7544C50.1719 70.9552 50.4969 71.0784 50.837 71.1113C51.1771 71.1441 51.5198 71.0853 51.8294 70.941L52.9678 70.2798V70.4743L53.5448 70.8088V70.1865V70.7544L54.0126 70.4588L66.987 77.9264V78.3854L70.215 80.2445L70.6127 80.0189L72.4138 81.0535V81.6136L72.983 81.9481L73.365 81.7225C73.5093 82.5415 73.8204 83.3224 74.2791 84.0168C74.7377 84.7112 75.3342 85.3043 76.0316 85.7597C76.3078 85.9605 76.6328 86.0838 76.9729 86.1166C77.313 86.1494 77.6558 86.0907 77.9654 85.9464L79.1427 85.2696V85.4952L79.7197 85.8219L80.1797 85.5341L84.1329 87.8055C84.3971 87.9572 84.7033 88.0199 85.0061 87.9844C85.0604 87.992 85.1156 87.992 85.1699 87.9844H85.3024C85.4081 87.9545 85.5102 87.9127 85.6065 87.86L98.7758 80.229C98.8822 80.1651 98.9703 80.075 99.0317 79.9674C99.0931 79.8598 99.1258 79.7383 99.1267 79.6144V77.6697V76.3396V75.5617L98.9162 75.4372C98.998 75.3678 99.069 75.2865 99.1267 75.1961V67.2306L98.7213 64.6013L98.924 64.718C98.966 64.7405 99.0128 64.7522 99.0604 64.7522C99.1081 64.7522 99.1549 64.7405 99.1969 64.718L99.5789 64.4924C99.6929 64.4202 99.7878 64.3218 99.8557 64.2054C99.9235 64.0889 99.9623 63.958 99.9688 63.8234V61.0075C99.9785 60.9628 99.9764 60.9164 99.9627 60.8728C99.949 60.8292 99.9243 60.7898 99.8908 60.7586ZM43.1279 63.5745C43.1269 63.5564 43.1269 63.5382 43.1279 63.5201C43.1269 63.5382 43.1269 63.5564 43.1279 63.5745ZM44.2584 63.7067C44.3171 63.6778 44.368 63.6351 44.4066 63.5823C44.368 63.6351 44.3171 63.6778 44.2584 63.7067ZM41.4671 59.8173V60.2296L36.321 57.2581V56.8614L41.4671 59.8173ZM98.386 62.3299L98.6355 62.1821L98.386 62.3299L98.6355 63.9401L98.386 62.3299Z" fill="rgba(0, 0, 0, 0.3)" />
		</g>
	</g>
	<defs>
		<filter id="filter0_f_79_14739" x="0" y="0" width="105" height="93" filterUnits="userSpaceOnUse" color-interpolation-filters="sRGB">
			<feFlood flood-opacity="0" result="BackgroundImageFix" />
			<feBlend mode="normal" in="SourceGraphic" in2="BackgroundImageFix" result="shape" />
			<feGaussianBlur stdDeviation="2.5" result="effect1_foregroundBlur_79_14739" />
		</filter>
		<clipPath id="clip0_79_14739">
			<rect width="95" height="83" fill="white" transform="translate(5 5)" />
		</clipPath>
	</defs>
</svg>