<svg width="109" height="89" viewBox="0 0 109 89" fill="none" xmlns="http://www.w3.org/2000/svg">
	<g style="mix-blend-mode:multiply" filter="url(#filter0_f_79_16523)">
		<g style="mix-blend-mode:multiply">
			<path d="M101.178 39.7008V34.6498L103.992 33.0323V32.5745L103.041 32.0251V25.2345L103.448 24.998V24.6012L90.8026 17.3299L84.7981 20.7786L76.9993 16.2999L76.5929 16.5364V13.3013V12.9122V12.9046L76.9993 12.6681V12.2637L64.3463 5L54.684 10.5469L47.6137 14.6137V15.0181L48.0201 15.247V15.6437V31.7199L47.0692 32.2693V32.7347L51.54 35.2983V38.8539L33.5267 28.5077L5.55213 44.5763L5.54446 44.9807L5.95089 45.2096V47.7122V56.0364L5 56.5858V57.0436L7.49225 58.478L5.61348 59.9048V59.9582L12.5304 63.9334L14.762 62.6515L15.9276 63.323L14.0411 64.7498V64.8032L20.9658 68.7783L23.1896 67.4965L24.3552 68.168L23.9641 68.4579L22.4688 69.5871V69.6482L29.3934 73.6233L31.6249 72.3415L32.7829 73.0129L30.9041 74.4321V74.4855L37.8211 78.4607L38.7029 77.9571L40.0526 77.1865L41.2182 77.8503L39.3318 79.2771V79.3305L46.2564 83.3057L48.4802 82.0238L51.9157 84L73.9319 71.3573V71.8837L76.6619 73.4478L81.1863 70.846V67.5118L79.4916 65.879V58.272V57.5242L102.137 44.5153V44.0498L101.178 43.5081V42.4399V39.7008Z" fill="rgba(0, 0, 0, 0.3)" />
		</g>
	</g>
	<defs>
		<filter id="filter0_f_79_16523" x="0" y="0" width="108.992" height="89" filterUnits="userSpaceOnUse" color-interpolation-filters="sRGB">
			<feFlood flood-opacity="0" result="BackgroundImageFix" />
			<feBlend mode="normal" in="SourceGraphic" in2="BackgroundImageFix" result="shape" />
			<feGaussianBlur stdDeviation="2.5" result="effect1_foregroundBlur_79_16523" />
		</filter>
	</defs>
</svg>