<svg width="180" height="54" viewBox="0 0 180 54" fill="none" xmlns="http://www.w3.org/2000/svg">
<path d="M116.474 7.27832L111.015 19.8386H108.13L102.688 7.27832H105.841L109.676 16.2538L113.572 7.27832H116.474Z" fill="white"/>
<path d="M117.102 10.1884H119.938V19.8438H117.124L117.102 10.1884ZM116.763 7.28356C116.768 7.06431 116.817 6.8483 116.909 6.64895C117.001 6.4496 117.133 6.27118 117.297 6.12476C117.461 5.97834 117.653 5.86707 117.862 5.79784C118.071 5.72862 118.293 5.70292 118.512 5.72236C119.556 5.72236 120.26 6.36425 120.26 7.22916C120.233 7.66806 120.041 8.08055 119.721 8.38424C119.402 8.68792 118.979 8.86043 118.537 8.8673C118.096 8.87417 117.668 8.71489 117.339 8.42129C117.01 8.12769 116.804 7.72139 116.763 7.28356Z" fill="white"/>
<path d="M124.118 14.1705H128.894C128.8 13.6076 128.508 13.0962 128.071 12.7273C127.634 12.3584 127.079 12.1559 126.506 12.1559C125.933 12.1559 125.378 12.3584 124.941 12.7273C124.504 13.0962 124.212 13.6076 124.118 14.1705ZM131.489 15.8024H124.151C124.424 17.0045 125.451 17.7443 126.927 17.7443C127.376 17.763 127.824 17.6895 128.243 17.5286C128.662 17.3676 129.044 17.1226 129.364 16.8087L130.861 18.4406C129.959 19.4633 128.604 20.0018 126.856 20.0018C123.506 20.0018 121.321 17.9021 121.321 15.0299C121.321 12.1578 123.539 10.0635 126.495 10.0635C129.342 10.0635 131.544 11.9619 131.544 15.068C131.544 15.2802 131.506 15.612 131.489 15.8187" fill="white"/>
<path d="M139.188 19.3815C138.504 19.8089 137.706 20.0212 136.899 19.9907C134.609 19.9907 133.276 18.8266 133.276 16.5256V12.5601H131.779V10.3842H133.276V8.02881H136.085V10.3842H138.516V12.5601H136.101V16.493C136.079 16.6593 136.094 16.8286 136.145 16.9883C136.197 17.1481 136.284 17.2943 136.4 17.4163C136.515 17.5383 136.657 17.6331 136.814 17.6935C136.972 17.754 137.14 17.7787 137.309 17.7659C137.716 17.7714 138.115 17.6455 138.445 17.4069L139.188 19.3815Z" fill="white"/>
<path d="M150.537 14.3172V19.8439H147.751V14.7469C147.751 13.1857 147.029 12.4677 145.783 12.4677C144.434 12.4677 143.461 13.2945 143.461 15.0679V19.8439H140.647V10.1885H143.336V11.3199C143.75 10.8951 144.25 10.5621 144.803 10.3428C145.356 10.1234 145.949 10.0226 146.543 10.047C148.832 10.047 150.559 11.3743 150.559 14.3172" fill="white"/>
<path d="M158.384 16.7922V15.8022H156.455C155.144 15.8022 154.728 16.2918 154.728 16.9337C154.728 17.5756 155.324 18.1032 156.313 18.1032C156.754 18.1339 157.192 18.0231 157.565 17.7871C157.938 17.5512 158.225 17.2025 158.384 16.7922ZM161.198 14.3335V19.8439H158.564V18.6417C158.018 19.5175 157.034 19.9853 155.608 19.9853C153.34 19.9853 151.985 18.7288 151.985 17.0588C151.985 15.3888 153.193 14.1703 156.149 14.1703H158.384C158.384 12.9681 157.663 12.2718 156.149 12.2718C155.145 12.262 154.165 12.577 153.357 13.1694L152.346 11.2111C153.594 10.4174 155.051 10.0122 156.531 10.047C159.488 10.047 161.198 11.4069 161.198 14.3335Z" fill="white"/>
<path d="M180 14.3171V19.8439H177.186V14.7469C177.186 13.1857 176.487 12.4676 175.35 12.4676C174.088 12.4676 173.203 13.2727 173.203 14.9971V19.8439H170.394V14.7469C170.394 13.1857 169.722 12.4676 168.553 12.4676C167.383 12.4676 166.427 13.2727 166.427 14.9971V19.8439H163.613V10.1884H166.301V11.2763C166.688 10.8616 167.16 10.535 167.686 10.319C168.211 10.1031 168.777 10.0028 169.345 10.0252C169.968 9.99109 170.59 10.1185 171.149 10.395C171.709 10.6715 172.186 11.0876 172.536 11.6027C172.96 11.0921 173.495 10.6847 174.101 10.4113C174.707 10.1379 175.368 10.0059 176.033 10.0252C178.339 10.0252 180 11.3525 180 14.2954" fill="white"/>
<path d="M0.420739 10.1831V16.961H16.9389L0 34.6944V41.2058H28.0693V34.4279H10.6278L27.6486 16.6944V10.1831H0.420739Z" fill="white"/>
<path d="M54.2809 34.4279H38.9211V10.1831H30.3698V41.2058H54.2809V34.4279Z" fill="white"/>
<path d="M78.5198 28.5474C78.3486 29.3924 78.0771 30.2141 77.7111 30.9953C77.3778 31.6912 76.9514 32.3389 76.4434 32.9209C75.9661 33.4633 75.4143 33.9358 74.8042 34.3244C74.1861 34.7068 73.5111 34.9896 72.8043 35.1621C72.0569 35.3442 71.2898 35.4337 70.5203 35.4286C69.7617 35.4322 69.0056 35.3426 68.2691 35.1621C66.8412 34.8087 65.5572 34.0262 64.5917 32.9209C64.0911 32.3368 63.6704 31.6893 63.3404 30.9953C62.9744 30.2141 62.7029 29.3924 62.5317 28.5474C62.3351 27.5807 62.2399 26.5962 62.2476 25.6099V25.5501C62.2399 24.5638 62.3351 23.5794 62.5317 22.6127C62.701 21.7724 62.9726 20.9559 63.3404 20.1811C63.6702 19.492 64.091 18.8499 64.5917 18.2718C65.0587 17.7237 65.6124 17.2552 66.2309 16.8847C66.8459 16.5201 67.5076 16.2401 68.198 16.0524V9.17114H67.8647C65.9663 9.17359 64.0864 9.54308 62.3295 10.2591C60.5495 10.9697 58.9392 12.0445 57.6031 13.4141C56.1824 14.8993 55.0685 16.6477 54.3246 18.5601C53.4635 20.7966 53.0424 23.1771 53.0842 25.5719V25.6317C53.0721 27.2809 53.2648 28.9253 53.6579 30.5274C54.0052 31.9445 54.5322 33.3118 55.2261 34.5963C55.864 35.7698 56.6641 36.8483 57.6031 37.8003C58.5002 38.7116 59.5209 39.4934 60.6356 40.1231C61.7322 40.7421 62.9038 41.2193 64.1218 41.5429C65.3425 41.8686 66.6009 42.0332 67.8647 42.0324C69.0476 42.04 70.2277 41.9178 71.3836 41.668C72.4233 41.4485 73.4337 41.1089 74.3944 40.6562C75.2645 40.2528 76.0752 39.733 76.8041 39.1113C77.4829 38.5335 78.0721 37.859 78.5526 37.1095V39.0352C78.5646 40.0777 78.4676 41.1187 78.263 42.1412C78.1024 42.9616 77.8246 43.7548 77.4379 44.4966C77.1119 45.1175 76.6706 45.6713 76.1374 46.1285C75.625 46.5739 75.0485 46.9406 74.4272 47.2165C73.7627 47.4897 73.0643 47.6727 72.3508 47.7604C71.5576 47.8677 70.7579 47.9204 69.9575 47.9182C68.9492 47.9353 67.9425 47.8349 66.9577 47.619C66.2035 47.4518 65.4855 47.1515 64.8376 46.7323C64.2755 46.3684 63.803 45.8832 63.4552 45.3126C63.1042 44.7269 62.8375 44.0952 62.6628 43.4359H54.1989C54.4384 45.0344 54.9957 46.5693 55.8381 47.9508C56.6454 49.2538 57.7266 50.3673 59.0073 51.2147C60.4289 52.1505 61.9992 52.8402 63.6519 53.2546C65.6053 53.747 67.6147 53.9847 69.6296 53.9617C71.2257 53.968 72.8201 53.8571 74.3998 53.6299C75.8482 53.428 77.2689 53.063 78.6346 52.542C79.9094 52.0561 81.106 51.3872 82.1863 50.5565C83.2724 49.7159 84.1978 48.6877 84.9183 47.5211C85.6968 46.2151 86.2664 44.7965 86.6067 43.3162C87.0457 41.5016 87.2549 39.6394 87.2297 37.7731V27.4377H78.6947C78.6509 27.813 78.5908 28.1884 78.5198 28.5256" fill="white"/>
<path d="M78.2848 4.90118H75.8314V12.9356H78.5635C81.6562 12.8921 82.7436 12.631 83.6506 12.0762C83.0386 13.0716 82.7818 14.2901 82.7818 18.1686V19.8495H90.8524V17.4071C90.8524 12.6582 93.3823 2.46963 95.7701 0C93.2839 2.39347 83.0496 4.89574 78.2848 4.89574" fill="#FFFF00"/>
</svg>
